<svg width="32" height="32" viewBox="0 0 32 32" fill="none" xmlns="http://www.w3.org/2000/svg">
<rect width="32" height="32" rx="16" fill="#D9E9D0"/>
<path d="M16.0004 18.8572C15.7767 18.8573 15.5579 18.7917 15.3711 18.6686C15.1843 18.5455 15.0377 18.3702 14.9496 18.1646C14.7652 18.1212 14.5837 18.0662 14.4061 18.0001L14.3964 17.9966C13.875 17.801 13.3938 17.5116 12.9764 17.1429C12.4172 16.6496 11.9872 16.027 11.7238 15.3294C11.4604 14.6317 11.3717 13.8802 11.4654 13.1405C11.5591 12.4007 11.8323 11.695 12.2612 11.0851C12.6902 10.4751 13.2619 9.97932 13.9264 9.64097C14.5909 9.30262 15.3281 9.13197 16.0737 9.1439C16.8193 9.15582 17.5507 9.34996 18.204 9.70938C18.8574 10.0688 19.4129 10.5826 19.8221 11.206C20.2313 11.8293 20.4819 12.5434 20.5518 13.2858C20.5741 13.5218 20.3804 13.7143 20.1433 13.7143C19.9067 13.7143 19.7176 13.5218 19.6901 13.2863C19.6146 12.6368 19.3689 12.0187 18.9779 11.4945C18.5869 10.9704 18.0645 10.5587 17.4634 10.3012C16.8623 10.0437 16.2039 9.94948 15.5547 10.028C14.9055 10.1065 14.2885 10.3551 13.7662 10.7485C13.2438 11.1419 12.8346 11.6662 12.5798 12.2685C12.3251 12.8708 12.2339 13.5296 12.3154 14.1784C12.3969 14.8273 12.6483 15.4431 13.0441 15.9636C13.4399 16.4841 13.9661 16.8909 14.5696 17.1429L14.5924 17.1526C14.7067 17.1995 14.8244 17.2406 14.9444 17.2766C15.0545 17.0084 15.2624 16.7921 15.526 16.6714C15.7896 16.5507 16.0893 16.5347 16.3642 16.6267C16.6392 16.7187 16.8689 16.9117 17.0069 17.1667C17.1448 17.4217 17.1807 17.7196 17.1073 18.0001C17.0439 18.2454 16.9008 18.4628 16.7004 18.6179C16.5001 18.7731 16.2538 18.8573 16.0004 18.8572ZM12.0004 18.0001H12.6684C12.3488 17.7512 12.0579 17.4675 11.801 17.1543C11.3837 17.2032 10.9989 17.4036 10.7196 17.7176C10.4403 18.0315 10.2861 18.437 10.2861 18.8572V19.2658C10.2861 21.3903 12.6918 22.8572 16.0004 22.8572C19.309 22.8572 21.7147 21.3098 21.7147 19.2658V18.8572C21.7147 18.4025 21.5341 17.9665 21.2126 17.645C20.8911 17.3235 20.4551 17.1429 20.0004 17.1429H17.9176C18.0004 17.4207 18.0218 17.7132 17.9804 18.0001H20.0004L20.0833 18.0041C20.2953 18.0246 20.492 18.1234 20.6351 18.2811C20.7783 18.4388 20.8576 18.6442 20.8576 18.8572V19.2658L20.8547 19.3578C20.7747 20.7978 18.8153 22.0001 16.0004 22.0001C13.0798 22.0001 11.1433 20.7938 11.1433 19.2658V18.8572L11.1473 18.7743C11.1679 18.5623 11.2666 18.3656 11.4244 18.2225C11.5821 18.0793 11.7874 18 12.0004 18.0001ZM18.8576 13.7143C18.8577 14.2319 18.7171 14.7398 18.451 15.1838C18.1849 15.6277 17.8032 15.991 17.3467 16.2349C16.9788 15.8992 16.4985 15.7135 16.0004 15.7143C16.2631 15.7143 16.5231 15.6626 16.7658 15.5621C17.0084 15.4616 17.2289 15.3143 17.4146 15.1286C17.6003 14.9428 17.7477 14.7224 17.8482 14.4797C17.9487 14.2371 18.0004 13.977 18.0004 13.7143C18.0004 13.4517 17.9487 13.1916 17.8482 12.949C17.7477 12.7063 17.6003 12.4858 17.4146 12.3001C17.2289 12.1144 17.0084 11.9671 16.7658 11.8666C16.5231 11.7661 16.2631 11.7143 16.0004 11.7143C15.47 11.7143 14.9613 11.9251 14.5862 12.3001C14.2111 12.6752 14.0004 13.1839 14.0004 13.7143C14.0004 14.2448 14.2111 14.7535 14.5862 15.1286C14.9613 15.5036 15.47 15.7143 16.0004 15.7143C15.4816 15.7143 15.0096 15.9121 14.6547 16.2355C14.1988 15.9912 13.8174 15.6283 13.5507 15.1852C13.3241 14.8077 13.1878 14.3829 13.1525 13.9441C13.1172 13.5052 13.1837 13.0641 13.347 12.6552C13.5103 12.2463 13.7658 11.8807 14.0937 11.5869C14.4216 11.2931 14.813 11.079 15.2373 10.9614C15.6616 10.8438 16.1073 10.8259 16.5397 10.909C16.9721 10.9921 17.3794 11.174 17.7298 11.4405C18.0803 11.707 18.3644 12.0509 18.5601 12.4453C18.7557 12.8397 18.8575 13.2741 18.8576 13.7143Z" fill="#6CBE43"/>
</svg>
