<svg width="32" height="32" viewBox="0 0 32 32" fill="none" xmlns="http://www.w3.org/2000/svg">
<path d="M8.00033 9.33337H14.667C15.0206 9.33337 15.3598 9.47385 15.6098 9.7239C15.8598 9.97395 16.0003 10.3131 16.0003 10.6667C16.0003 11.0203 15.8598 11.3595 15.6098 11.6095C15.3598 11.8596 15.0206 12 14.667 12H8.00033C7.6467 12 7.30756 11.8596 7.05752 11.6095C6.80747 11.3595 6.66699 11.0203 6.66699 10.6667C6.66699 10.3131 6.80747 9.97395 7.05752 9.7239C7.30756 9.47385 7.6467 9.33337 8.00033 9.33337ZM17.3337 20H24.0003C24.3539 20 24.6931 20.1405 24.9431 20.3906C25.1932 20.6406 25.3337 20.9798 25.3337 21.3334C25.3337 21.687 25.1932 22.0261 24.9431 22.2762C24.6931 22.5262 24.3539 22.6667 24.0003 22.6667H17.3337C16.98 22.6667 16.6409 22.5262 16.3908 22.2762C16.1408 22.0261 16.0003 21.687 16.0003 21.3334C16.0003 20.9798 16.1408 20.6406 16.3908 20.3906C16.6409 20.1405 16.98 20 17.3337 20ZM8.00033 14.6667H24.0003C24.3539 14.6667 24.6931 14.8072 24.9431 15.0572C25.1932 15.3073 25.3337 15.6464 25.3337 16C25.3337 16.3537 25.1932 16.6928 24.9431 16.9428C24.6931 17.1929 24.3539 17.3334 24.0003 17.3334H8.00033C7.6467 17.3334 7.30756 17.1929 7.05752 16.9428C6.80747 16.6928 6.66699 16.3537 6.66699 16C6.66699 15.6464 6.80747 15.3073 7.05752 15.0572C7.30756 14.8072 7.6467 14.6667 8.00033 14.6667Z" fill="#3F3B39"/>
</svg>
