<svg width="73" height="72" viewBox="0 0 73 72" fill="none" xmlns="http://www.w3.org/2000/svg">
<path d="M0.5 24C0.5 12.6863 0.5 7.02944 4.01472 3.51472C7.52944 0 13.1863 0 24.5 0H48.5C59.8137 0 65.4706 0 68.9853 3.51472C72.5 7.02944 72.5 12.6863 72.5 24V48C72.5 59.3137 72.5 64.9706 68.9853 68.4853C65.4706 72 59.8137 72 48.5 72H24.5C13.1863 72 7.52944 72 4.01472 68.4853C0.5 64.9706 0.5 59.3137 0.5 48V24Z" fill="#6CBE43" fill-opacity="0.1"/>
<path fill-rule="evenodd" clip-rule="evenodd" d="M39.7069 26.117C38.7054 22.9332 34.2946 22.9332 33.2931 26.117C33.1503 26.5709 32.7569 26.8425 32.3517 26.8425C29.0124 26.8425 27.8042 31.1392 30.357 33.0551C30.7088 33.3191 30.8739 33.8082 30.7293 34.2678C30.2387 35.8277 30.868 37.2869 31.9415 38.0927C33.0207 38.9025 34.6059 39.0871 35.931 38.0927C36.273 37.8358 36.7271 37.8358 37.0691 38.0927C38.3942 39.0871 39.9794 38.9025 41.0584 38.0927C42.1321 37.2869 42.7613 35.8277 42.2708 34.2678C42.1261 33.8082 42.2912 33.3191 42.643 33.0551C45.1958 31.1392 43.9876 26.8425 40.6483 26.8425C40.2432 26.8425 39.8497 26.5709 39.7069 26.117ZM32.3517 29.2175C33.8362 29.2175 35.1175 28.2321 35.5587 26.8296C35.8629 25.8623 37.1371 25.8623 37.4413 26.8296C37.8826 28.2321 39.1638 29.2175 40.6483 29.2175C41.1075 29.2175 41.4503 29.4999 41.5896 29.9429C41.7298 30.3886 41.6153 30.8569 41.2174 31.1556C40.0403 32.0389 39.5658 33.5836 40.0052 34.9805C40.1673 35.4961 39.9732 35.9376 39.6328 36.1931C39.2981 36.4444 38.8788 36.4813 38.4947 36.1931C37.308 35.3023 35.692 35.3023 34.5053 36.1931C34.1212 36.4813 33.702 36.4444 33.3672 36.1931C33.0268 35.9376 32.8327 35.4961 32.9949 34.9805C33.4342 33.5836 32.9596 32.0389 31.7827 31.1556C31.3847 30.8569 31.2702 30.3886 31.4104 29.9429C31.5497 29.4999 31.8925 29.2175 32.3517 29.2175Z" fill="#6CBE43"/>
<path fill-rule="evenodd" clip-rule="evenodd" d="M36.5 17.3958C28.8486 17.3958 22.6459 23.5985 22.6459 31.25C22.6459 34.5983 23.8351 37.6713 25.8126 40.0663L25.8125 49.3616C25.8124 50.5182 25.8124 51.5201 25.9242 52.2716C26.0371 53.0294 26.3262 53.9806 27.3053 54.4186C28.2694 54.8499 29.1746 54.4539 29.8295 54.0503C30.4848 53.6465 31.264 52.9969 32.1699 52.2418L33.7275 50.9435C34.5937 50.2215 35.1605 49.7517 35.6309 49.4496C36.0729 49.1659 36.31 49.1111 36.5 49.1111C36.69 49.1111 36.9272 49.1659 37.3691 49.4496C37.8395 49.7517 38.4064 50.2215 39.2726 50.9435L40.8301 52.2417C41.7361 52.9969 42.5153 53.6465 43.1705 54.0503C43.8255 54.4539 44.7307 54.8499 45.6948 54.4186C46.6739 53.9806 46.963 53.0294 47.0759 52.2716C47.1877 51.5201 47.1877 50.5182 47.1875 49.3616V40.0663C49.165 37.6713 50.3542 34.5983 50.3542 31.25C50.3542 23.5985 44.1515 17.3958 36.5 17.3958ZM25.0209 31.25C25.0209 24.9102 30.1603 19.7708 36.5 19.7708C42.8399 19.7708 47.9792 24.9102 47.9792 31.25C47.9792 34.162 46.8964 36.8182 45.1097 38.8425C43.0045 41.2277 39.9284 42.7291 36.5 42.7291C33.072 42.7291 29.9961 41.228 27.8909 38.8433C26.1039 36.8189 25.0209 34.1624 25.0209 31.25ZM28.2734 51.9218C28.1908 51.367 28.1875 50.5459 28.1875 49.2663V42.3341C30.5025 44.0728 33.3812 45.1041 36.5 45.1041C39.6189 45.1041 42.4975 44.0728 44.8125 42.3341V49.2663C44.8125 50.5459 44.8094 51.367 44.7267 51.9218C44.7107 52.0298 44.6938 52.1117 44.6784 52.1728C44.6142 52.1429 44.5282 52.0973 44.4166 52.0284C43.9245 51.7252 43.277 51.1894 42.2797 50.3581L40.7381 49.0732C39.9422 48.4098 39.2622 47.8428 38.6526 47.4513C38.0004 47.0325 37.3142 46.7361 36.5 46.7361C35.6859 46.7361 34.9997 47.0325 34.3475 47.4513C33.7379 47.8428 33.0578 48.4098 32.2619 49.0732L30.7204 50.3581C29.7231 51.1894 29.0756 51.7252 28.5835 52.0284C28.4719 52.0973 28.3859 52.1429 28.3217 52.1728C28.3063 52.1117 28.2894 52.0298 28.2734 51.9218ZM44.6197 52.3357C44.6197 52.3357 44.6222 52.3291 44.6294 52.3202C44.6235 52.3319 44.6197 52.3357 44.6197 52.3357ZM44.8228 52.2271C44.8326 52.2272 44.8385 52.229 44.8385 52.229C44.8385 52.229 44.8339 52.2295 44.8228 52.2271ZM28.1616 52.229C28.1616 52.229 28.1674 52.2272 28.1772 52.2271C28.1662 52.2295 28.1616 52.229 28.1616 52.229ZM28.3805 52.3357C28.3805 52.3357 28.3778 52.3291 28.3708 52.3202L28.3729 52.3243C28.3775 52.333 28.3805 52.3357 28.3805 52.3357Z" fill="#6CBE43"/>
</svg>
