<svg width="73" height="72" viewBox="0 0 73 72" fill="none" xmlns="http://www.w3.org/2000/svg">
<path d="M0.5 24C0.5 12.6863 0.5 7.02944 4.01472 3.51472C7.52944 0 13.1863 0 24.5 0H48.5C59.8137 0 65.4706 0 68.9853 3.51472C72.5 7.02944 72.5 12.6863 72.5 24V48C72.5 59.3137 72.5 64.9706 68.9853 68.4853C65.4706 72 59.8137 72 48.5 72H24.5C13.1863 72 7.52944 72 4.01472 68.4853C0.5 64.9706 0.5 59.3137 0.5 48V24Z" fill="#6CBE43" fill-opacity="0.1"/>
<g clip-path="url(#clip0_1429_10674)">
<path d="M51.5416 34.4167C51.369 34.4175 51.197 34.4371 51.0286 34.4753L48.6441 30.3475C48.8591 30.0785 49.0127 29.7659 49.0944 29.4315C49.1761 29.097 49.1838 28.7487 49.1171 28.411C49.0503 28.0732 48.9107 27.7541 48.7079 27.4759C48.5052 27.1976 48.2442 26.9669 47.9431 26.7999C47.642 26.6329 47.3081 26.5336 46.9647 26.5089C46.6213 26.4842 46.2767 26.5347 45.9548 26.6569C45.6329 26.7791 45.3416 26.97 45.1011 27.2164C44.8606 27.4628 44.6767 27.7586 44.5623 28.0833H41.1043C40.9157 27.5357 40.5314 27.0771 40.0252 26.7957C39.519 26.5142 38.9267 26.4298 38.362 26.5586L35.9775 22.4277C36.193 22.1587 36.3472 21.8459 36.4292 21.5111C36.5113 21.1764 36.5192 20.8277 36.4526 20.4895C36.3859 20.1514 36.2461 19.8319 36.0431 19.5533C35.8401 19.2748 35.5787 19.044 35.2772 18.8769C34.9757 18.7099 34.6413 18.6108 34.2975 18.5864C33.9537 18.5621 33.6087 18.6131 33.2867 18.7359C32.9646 18.8587 32.6733 19.0504 32.433 19.2975C32.1927 19.5447 32.0094 19.8413 31.8956 20.1667H28.4376C28.3249 19.8399 28.1419 19.5418 27.9017 19.2932C27.6614 19.0447 27.3697 18.8518 27.047 18.7279C26.7242 18.6041 26.3783 18.5525 26.0335 18.5766C25.6886 18.6007 25.3532 18.6999 25.0509 18.8674C24.7485 19.0349 24.4864 19.2666 24.2831 19.5461C24.0797 19.8257 23.94 20.1463 23.8738 20.4856C23.8076 20.8249 23.8164 21.1745 23.8997 21.51C23.9829 21.8455 24.1386 22.1587 24.3558 22.4277L21.9713 26.5602C21.6225 26.48 21.2601 26.4797 20.9111 26.5594C20.5622 26.639 20.2357 26.7964 19.9562 27.02C19.6767 27.2435 19.4513 27.5273 19.2969 27.8502C19.1424 28.1731 19.063 28.5267 19.0645 28.8846C19.0659 29.2425 19.1483 29.5955 19.3054 29.9171C19.4624 30.2387 19.6901 30.5206 19.9715 30.7419C20.2529 30.9631 20.5806 31.1179 20.9302 31.1946C21.2797 31.2714 21.6422 31.2681 21.9903 31.1851L24.3685 35.3065C24.0247 35.7214 23.8356 36.2427 23.8332 36.7815C23.8309 37.3203 24.0156 37.8432 24.3558 38.261L21.9713 42.3935C21.6225 42.3134 21.2601 42.3131 20.9111 42.3927C20.5622 42.4723 20.2357 42.6298 19.9562 42.8533C19.6767 43.0768 19.4513 43.3606 19.2969 43.6835C19.1424 44.0064 19.063 44.36 19.0645 44.7179C19.0659 45.0759 19.1483 45.4288 19.3054 45.7504C19.4624 46.072 19.6901 46.354 19.9715 46.5752C20.2529 46.7964 20.5806 46.9512 20.9302 47.0279C21.2797 47.1047 21.6422 47.1014 21.9903 47.0184L24.3685 51.1398C24.1502 51.4076 23.9931 51.72 23.9084 52.0549C23.8237 52.3899 23.8133 52.7393 23.878 53.0787C23.9427 53.4181 24.0809 53.7392 24.2829 54.0195C24.4849 54.2998 24.7458 54.5325 25.0473 54.7012C25.3489 54.8699 25.6837 54.9706 26.0282 54.9961C26.3728 55.0216 26.7188 54.9714 27.0418 54.849C27.3649 54.7266 27.6573 54.5349 27.8984 54.2875C28.1396 54.0401 28.3236 53.7428 28.4376 53.4167H31.8956C32.0088 53.7442 32.1924 54.0429 32.4335 54.2917C32.6746 54.5405 32.9674 54.7334 33.2911 54.8568C33.6149 54.9802 33.9618 55.031 34.3074 55.0057C34.6529 54.9804 34.9888 54.8797 35.2911 54.7105C35.5935 54.5413 35.8551 54.3078 36.0574 54.0265C36.2597 53.7453 36.3979 53.423 36.4621 53.0825C36.5264 52.7421 36.5151 52.3916 36.4292 52.056C36.3433 51.7203 36.1847 51.4076 35.9648 51.1398L38.343 47.0184C38.9096 47.1539 39.5065 47.0734 40.017 46.7927C40.5275 46.5119 40.9152 46.0511 41.1043 45.5H44.5623C44.6754 45.8275 44.859 46.1262 45.1001 46.375C45.3412 46.6239 45.634 46.8168 45.9578 46.9401C46.2816 47.0635 46.6285 47.1144 46.9741 47.0891C47.3196 47.0638 47.6554 46.963 47.9578 46.7938C48.2602 46.6246 48.5217 46.3911 48.7241 46.1099C48.9264 45.8286 49.0646 45.5063 49.1288 45.1659C49.193 44.8254 49.1818 44.475 49.0959 44.1393C49.0099 43.8036 48.8514 43.4909 48.6315 43.2232L51.0096 39.1018C51.3357 39.1776 51.6741 39.1836 52.0027 39.1194C52.3312 39.0552 52.6425 38.9222 52.916 38.7292C53.1895 38.5362 53.4191 38.2875 53.5897 37.9994C53.7603 37.7114 53.868 37.3905 53.9057 37.0579C53.9435 36.7252 53.9105 36.3884 53.8088 36.0694C53.7072 35.7504 53.5392 35.4566 53.3159 35.2072C53.0927 34.9577 52.8192 34.7583 52.5134 34.6221C52.2076 34.4859 51.8764 34.4158 51.5416 34.4167ZM46.7916 28.0833C46.9482 28.0833 47.1013 28.1298 47.2315 28.2168C47.3617 28.3037 47.4631 28.4274 47.523 28.572C47.583 28.7167 47.5986 28.8759 47.5681 29.0295C47.5376 29.183 47.4622 29.3241 47.3514 29.4348C47.2407 29.5455 47.0997 29.6209 46.9461 29.6515C46.7925 29.682 46.6333 29.6663 46.4887 29.6064C46.344 29.5465 46.2204 29.445 46.1334 29.3148C46.0464 29.1846 46 29.0316 46 28.875C46 28.665 46.0834 28.4637 46.2318 28.3152C46.3803 28.1667 46.5817 28.0833 46.7916 28.0833ZM38.875 28.0833C39.0316 28.0833 39.1846 28.1298 39.3148 28.2168C39.445 28.3037 39.5465 28.4274 39.6064 28.572C39.6663 28.7167 39.682 28.8759 39.6514 29.0295C39.6209 29.183 39.5455 29.3241 39.4348 29.4348C39.3241 29.5455 39.183 29.6209 39.0294 29.6515C38.8759 29.682 38.7167 29.6663 38.572 29.6064C38.4274 29.5465 38.3037 29.445 38.2167 29.3148C38.1297 29.1846 38.0833 29.0316 38.0833 28.875C38.0833 28.665 38.1667 28.4637 38.3152 28.3152C38.4636 28.1667 38.665 28.0833 38.875 28.0833ZM34.125 20.1667C34.2816 20.1667 34.4346 20.2131 34.5648 20.3001C34.695 20.3871 34.7965 20.5107 34.8564 20.6554C34.9163 20.8 34.932 20.9592 34.9014 21.1128C34.8709 21.2664 34.7955 21.4074 34.6848 21.5181C34.5741 21.6288 34.433 21.7042 34.2794 21.7348C34.1259 21.7653 33.9667 21.7497 33.822 21.6897C33.6774 21.6298 33.5537 21.5284 33.4667 21.3982C33.3797 21.268 33.3333 21.1149 33.3333 20.9583C33.3333 20.7484 33.4167 20.547 33.5652 20.3985C33.7136 20.2501 33.915 20.1667 34.125 20.1667ZM26.2083 20.1667C26.3649 20.1667 26.5179 20.2131 26.6481 20.3001C26.7783 20.3871 26.8798 20.5107 26.9397 20.6554C26.9996 20.8 27.0153 20.9592 26.9848 21.1128C26.9542 21.2664 26.8788 21.4074 26.7681 21.5181C26.6574 21.6288 26.5163 21.7042 26.3628 21.7348C26.2092 21.7653 26.05 21.7497 25.9054 21.6897C25.7607 21.6298 25.6371 21.5284 25.5501 21.3982C25.4631 21.268 25.4166 21.1149 25.4166 20.9583C25.4166 20.7484 25.5001 20.547 25.6485 20.3985C25.797 20.2501 25.9983 20.1667 26.2083 20.1667ZM21.4583 29.6667C21.3017 29.6667 21.1487 29.6202 21.0185 29.5333C20.8883 29.4463 20.7868 29.3226 20.7269 29.178C20.667 29.0333 20.6513 28.8741 20.6819 28.7206C20.7124 28.567 20.7878 28.4259 20.8985 28.3152C21.0092 28.2045 21.1503 28.1291 21.3039 28.0985C21.4574 28.068 21.6166 28.0837 21.7613 28.1436C21.9059 28.2035 22.0296 28.305 22.1166 28.4352C22.2035 28.5654 22.25 28.7184 22.25 28.875C22.25 29.085 22.1666 29.2863 22.0181 29.4348C21.8696 29.5833 21.6683 29.6667 21.4583 29.6667ZM23.3235 30.3285C23.6556 29.9132 23.8355 29.3966 23.8332 28.8649C23.8308 28.3331 23.6465 27.8181 23.3108 27.4057L25.6953 23.2732C26.2598 23.4021 26.852 23.3179 27.3581 23.0367C27.8643 22.7556 28.2488 22.2973 28.4376 21.75H31.8956C32.0842 22.2976 32.4685 22.7562 32.9747 23.0377C33.4809 23.3191 34.0733 23.4036 34.638 23.2748L37.0225 27.4025C36.6864 27.8151 36.5018 28.3303 36.4995 28.8625C36.4972 29.3946 36.6773 29.9115 37.0098 30.3269L34.619 34.4673C34.0564 34.3465 33.4691 34.4355 32.9675 34.7175C32.466 34.9995 32.0848 35.455 31.8956 35.9984H28.4376C28.2485 35.455 27.8673 34.9995 27.3657 34.7175C26.8642 34.4355 26.2769 34.3465 25.7143 34.4673L23.3235 30.3285ZM34.9166 36.7917C34.9166 36.9482 34.8702 37.1013 34.7832 37.2315C34.6962 37.3617 34.5726 37.4632 34.4279 37.5231C34.2833 37.583 34.1241 37.5987 33.9705 37.5681C33.817 37.5376 33.6759 37.4622 33.5652 37.3515C33.4545 37.2407 33.3791 37.0997 33.3485 36.9461C33.318 36.7926 33.3337 36.6334 33.3936 36.4887C33.4535 36.3441 33.555 36.2204 33.6852 36.1334C33.8153 36.0464 33.9684 36 34.125 36C34.3349 36 34.5363 36.0834 34.6848 36.2319C34.8332 36.3803 34.9166 36.5817 34.9166 36.7917ZM27 36.7917C27 36.9482 26.9535 37.1013 26.8666 37.2315C26.7796 37.3617 26.6559 37.4632 26.5113 37.5231C26.3666 37.583 26.2074 37.5987 26.0539 37.5681C25.9003 37.5376 25.7592 37.4622 25.6485 37.3515C25.5378 37.2407 25.4624 37.0997 25.4319 36.9461C25.4013 36.7926 25.417 36.6334 25.4769 36.4887C25.5368 36.3441 25.6383 36.2204 25.7685 36.1334C25.8987 36.0464 26.0517 36 26.2083 36C26.4183 36 26.6196 36.0834 26.7681 36.2319C26.9166 36.3803 27 36.5817 27 36.7917ZM21.4583 45.5C21.3017 45.5 21.1487 45.4536 21.0185 45.3666C20.8883 45.2796 20.7868 45.156 20.7269 45.0113C20.667 44.8666 20.6513 44.7075 20.6819 44.5539C20.7124 44.4003 20.7878 44.2593 20.8985 44.1485C21.0092 44.0378 21.1503 43.9624 21.3039 43.9319C21.4574 43.9013 21.6166 43.917 21.7613 43.9769C21.9059 44.0369 22.0296 44.1383 22.1166 44.2685C22.2035 44.3987 22.25 44.5518 22.25 44.7083C22.25 44.9183 22.1666 45.1197 22.0181 45.2681C21.8696 45.4166 21.6683 45.5 21.4583 45.5ZM26.2083 53.4167C26.0517 53.4167 25.8987 53.3702 25.7685 53.2833C25.6383 53.1963 25.5368 53.0726 25.4769 52.928C25.417 52.7833 25.4013 52.6241 25.4319 52.4706C25.4624 52.317 25.5378 52.1759 25.6485 52.0652C25.7592 51.9545 25.9003 51.8791 26.0539 51.8485C26.2074 51.818 26.3666 51.8337 26.5113 51.8936C26.6559 51.9535 26.7796 52.055 26.8666 52.1852C26.9535 52.3154 27 52.4684 27 52.625C27 52.835 26.9166 53.0363 26.7681 53.1848C26.6196 53.3333 26.4183 53.4167 26.2083 53.4167ZM34.125 53.4167C33.9684 53.4167 33.8153 53.3702 33.6852 53.2833C33.555 53.1963 33.4535 53.0726 33.3936 52.928C33.3337 52.7833 33.318 52.6241 33.3485 52.4706C33.3791 52.317 33.4545 52.1759 33.5652 52.0652C33.6759 51.9545 33.817 51.8791 33.9705 51.8485C34.1241 51.818 34.2833 51.8337 34.4279 51.8936C34.5726 51.9535 34.6962 52.055 34.7832 52.1852C34.8702 52.3154 34.9166 52.4684 34.9166 52.625C34.9166 52.835 34.8332 53.0363 34.6848 53.1848C34.5363 53.3333 34.3349 53.4167 34.125 53.4167ZM37.0098 46.1618L34.619 50.3023C34.0564 50.1815 33.4691 50.2704 32.9675 50.5524C32.466 50.8344 32.0848 51.2899 31.8956 51.8333H28.4376C28.2485 51.2899 27.8673 50.8344 27.3657 50.5524C26.8642 50.2704 26.2769 50.1815 25.7143 50.3023L23.3235 46.1618C23.6556 45.7465 23.8355 45.23 23.8332 44.6982C23.8308 44.1664 23.6465 43.6514 23.3108 43.239L25.6953 39.1065C26.2598 39.2354 26.852 39.1512 27.3581 38.87C27.8643 38.5889 28.2488 38.1307 28.4376 37.5833H31.8956C32.0842 38.131 32.4685 38.5896 32.9747 38.871C33.4809 39.1525 34.0733 39.2369 34.638 39.1081L37.0241 43.2374C36.6875 43.6496 36.5024 44.1647 36.4995 44.6968C36.4966 45.229 36.6777 45.746 37.0098 46.1618ZM38.875 45.5C38.7184 45.5 38.5653 45.4536 38.4352 45.3666C38.305 45.2796 38.2035 45.156 38.1436 45.0113C38.0837 44.8666 38.068 44.7075 38.0985 44.5539C38.1291 44.4003 38.2045 44.2593 38.3152 44.1485C38.4259 44.0378 38.567 43.9624 38.7205 43.9319C38.8741 43.9013 39.0333 43.917 39.1779 43.9769C39.3226 44.0369 39.4462 44.1383 39.5332 44.2685C39.6202 44.3987 39.6666 44.5518 39.6666 44.7083C39.6666 44.9183 39.5832 45.1197 39.4348 45.2681C39.2863 45.4166 39.0849 45.5 38.875 45.5ZM46.7916 45.5C46.6351 45.5 46.482 45.4536 46.3518 45.3666C46.2216 45.2796 46.1202 45.156 46.0602 45.0113C46.0003 44.8666 45.9846 44.7075 46.0152 44.5539C46.0457 44.4003 46.1211 44.2593 46.2318 44.1485C46.3426 44.0378 46.4836 43.9624 46.6372 43.9319C46.7908 43.9013 46.9499 43.917 47.0946 43.9769C47.2393 44.0369 47.3629 44.1383 47.4499 44.2685C47.5369 44.3987 47.5833 44.5518 47.5833 44.7083C47.5833 44.9183 47.4999 45.1197 47.3514 45.2681C47.203 45.4166 47.0016 45.5 46.7916 45.5ZM49.6765 38.2468L47.2856 42.3872C46.7233 42.2663 46.1361 42.355 45.6346 42.6367C45.1331 42.9184 44.7518 43.3736 44.5623 43.9167H41.1043C40.9149 43.3736 40.5335 42.9184 40.032 42.6367C39.5305 42.355 38.9433 42.2663 38.381 42.3872L35.9901 38.2452C36.3245 37.8271 36.5045 37.3066 36.4999 36.7713C36.4953 36.2361 36.3063 35.7187 35.9648 35.3065L38.343 31.1851C38.9096 31.3206 39.5065 31.2401 40.017 30.9594C40.5275 30.6786 40.9152 30.2178 41.1043 29.6667H44.5623C44.7509 30.2143 45.1352 30.6729 45.6414 30.9543C46.1476 31.2358 46.74 31.3202 47.3046 31.1914L49.6891 35.3208C49.3526 35.7334 49.1678 36.249 49.1655 36.7815C49.1632 37.314 49.3436 37.8312 49.6765 38.2468ZM51.5416 37.5833C51.3851 37.5833 51.232 37.5369 51.1018 37.4499C50.9716 37.3629 50.8702 37.2393 50.8102 37.0946C50.7503 36.95 50.7346 36.7908 50.7652 36.6372C50.7957 36.4837 50.8711 36.3426 50.9818 36.2319C51.0926 36.1212 51.2336 36.0458 51.3872 36.0152C51.5408 35.9847 51.6999 36.0003 51.8446 36.0603C51.9893 36.1202 52.1129 36.2217 52.1999 36.3518C52.2869 36.482 52.3333 36.6351 52.3333 36.7917C52.3333 37.0016 52.2499 37.203 52.1014 37.3515C51.953 37.4999 51.7516 37.5833 51.5416 37.5833Z" fill="#6CBE43"/>
</g>
<defs>
<clipPath id="clip0_1429_10674">
<rect width="38" height="38" fill="white" transform="translate(17.5 17)"/>
</clipPath>
</defs>
</svg>
