<svg width="73" height="72" viewBox="0 0 73 72" fill="none" xmlns="http://www.w3.org/2000/svg">
<path d="M0.5 24C0.5 12.6863 0.5 7.02944 4.01472 3.51472C7.52944 0 13.1863 0 24.5 0H48.5C59.8137 0 65.4706 0 68.9853 3.51472C72.5 7.02944 72.5 12.6863 72.5 24V48C72.5 59.3137 72.5 64.9706 68.9853 68.4853C65.4706 72 59.8137 72 48.5 72H24.5C13.1863 72 7.52944 72 4.01472 68.4853C0.5 64.9706 0.5 59.3137 0.5 48V24Z" fill="#6CBE43" fill-opacity="0.1"/>
<path d="M20.6666 36C20.6666 28.5362 20.6666 24.8043 22.9846 22.4847C25.3058 20.1667 29.0361 20.1667 36.5 20.1667C43.9638 20.1667 47.6957 20.1667 50.0137 22.4847C52.3333 24.8059 52.3333 28.5362 52.3333 36C52.3333 43.4639 52.3333 47.1958 50.0137 49.5138C47.6973 51.8334 43.9638 51.8334 36.5 51.8334C29.0361 51.8334 25.3042 51.8334 22.9846 49.5138C20.6666 47.1974 20.6666 43.4639 20.6666 36Z" stroke="#6CBE43" stroke-width="2.5"/>
<path d="M27 29.6667V41.7301M34.6237 29.6667V41.7301M27 36H34.6237M47.5833 42.3334L44.5338 39.9204M43.0091 41.7301C42.3013 41.7301 41.9467 41.7301 41.6522 41.6826C40.4425 41.4926 39.4973 40.7453 39.2566 39.7874C39.198 39.5546 39.198 39.2744 39.198 38.7139V32.6814C39.198 32.1224 39.198 31.8422 39.2566 31.6094C39.4973 30.6515 40.4425 29.9042 41.6522 29.7126C41.9467 29.6667 42.3013 29.6667 43.0075 29.6667C43.7168 29.6667 44.0699 29.6667 44.3644 29.7142C45.5741 29.9042 46.5193 30.6515 46.7616 31.6094C46.8202 31.8422 46.8202 32.1224 46.8202 32.6829V38.7154C46.8202 39.2744 46.8202 39.5546 46.7616 39.7889C46.5209 40.7453 45.5741 41.4926 44.3644 41.6842C44.0699 41.7301 43.7168 41.7301 43.0091 41.7301Z" stroke="#6CBE43" stroke-width="2.5" stroke-linecap="round"/>
</svg>
