<svg width="73" height="72" viewBox="0 0 73 72" fill="none" xmlns="http://www.w3.org/2000/svg">
<path d="M0.5 24C0.5 12.6863 0.5 7.02944 4.01472 3.51472C7.52944 0 13.1863 0 24.5 0H48.5C59.8137 0 65.4706 0 68.9853 3.51472C72.5 7.02944 72.5 12.6863 72.5 24V48C72.5 59.3137 72.5 64.9706 68.9853 68.4853C65.4706 72 59.8137 72 48.5 72H24.5C13.1863 72 7.52944 72 4.01472 68.4853C0.5 64.9706 0.5 59.3137 0.5 48V24Z" fill="#6CBE43" fill-opacity="0.1"/>
<g clip-path="url(#clip0_1429_10645)">
<path fill-rule="evenodd" clip-rule="evenodd" d="M28.5405 45.3152C28.9604 45.3152 29.3804 45.3684 29.7912 45.4785C31.0309 45.8122 32.1073 46.6411 32.7455 47.7543C33.16 48.453 33.3892 49.2691 33.3966 50.1017C33.3966 51.2937 34.3539 52.2492 35.5312 52.2492H37.8291C39.0009 52.2492 39.9582 51.2992 39.9637 50.1274C39.9564 48.8326 40.4625 47.6021 41.3887 46.676C42.3019 45.7627 43.5783 45.2144 44.8547 45.2511C45.691 45.2712 46.496 45.4968 47.2057 45.9002C48.2272 46.4853 49.5311 46.1368 50.1216 45.1282L51.3393 43.0981C51.6107 42.6304 51.6896 42.0436 51.5447 41.5026C51.4017 40.9616 51.0422 40.4921 50.5581 40.2152C49.4248 39.5623 48.616 38.5097 48.2804 37.248C47.9485 36.0101 48.13 34.6585 48.7774 33.5453C49.1992 32.8118 49.8172 32.1938 50.5581 31.7683C51.5521 31.187 51.9005 29.8867 51.3228 28.8744C51.299 28.8341 51.277 28.7919 51.2586 28.7479L50.184 26.8847C49.599 25.8669 48.2969 25.5166 47.2754 26.0979C46.1714 26.7508 44.8584 26.9378 43.5967 26.6059C42.3368 26.2795 41.2805 25.4817 40.6221 24.3557C40.2003 23.6515 39.9711 22.8318 39.9637 21.9973C39.9802 21.3702 39.7602 20.8072 39.3604 20.3945C38.9624 19.9837 38.4031 19.7508 37.8291 19.7508H35.5312C34.9627 19.7508 34.4309 19.9727 34.0293 20.3725C33.6295 20.7741 33.4112 21.3078 33.4149 21.8763C33.3764 24.5575 31.1849 26.7159 28.5313 26.7159C27.6804 26.7068 26.8606 26.4775 26.1491 26.0521C25.1496 25.4836 23.8439 25.8338 23.2589 26.8516L22.0173 28.8928C21.4488 29.8794 21.7973 31.1833 22.8096 31.772C24.3115 32.6412 25.2486 34.2624 25.2486 36.0009C25.2486 37.7394 24.3115 39.3588 22.8059 40.2299C21.7991 40.813 21.4507 42.1096 22.0338 43.1182L23.191 45.1135C23.4771 45.6288 23.9447 46.0011 24.4857 46.1533C25.0249 46.3037 25.6191 46.2395 26.1142 45.9644C26.8423 45.5371 27.6895 45.3152 28.5405 45.3152ZM37.8291 55H35.5312C32.8372 55 30.6458 52.8103 30.6458 50.1164C30.6421 49.7844 30.5467 49.4397 30.3689 49.1407C30.0809 48.6382 29.6151 48.2788 29.0778 48.1358C28.5441 47.9927 27.9591 48.0716 27.4787 48.3503C26.327 48.9922 24.9717 49.1481 23.732 48.7996C22.4941 48.4494 21.425 47.5984 20.7978 46.4706L19.6516 44.4955C18.311 42.1701 19.1088 39.19 21.4305 37.8476C22.0889 37.468 22.4978 36.7601 22.4978 36.0009C22.4978 35.2417 22.0889 34.532 21.4305 34.1524C19.107 32.8026 18.311 29.8152 19.6498 27.4898L20.8932 25.4487C22.2154 23.149 25.2046 22.3384 27.5355 23.6772C27.8528 23.8661 28.1975 23.9614 28.5478 23.9651C29.6903 23.9651 30.6458 23.0225 30.6641 21.8635C30.6568 20.5853 31.1611 19.3584 32.0798 18.4323C33.0023 17.508 34.2273 17 35.5312 17H37.8291C39.1421 17 40.4185 17.5392 41.3336 18.4763C42.2469 19.4189 42.7512 20.7118 42.7127 22.023C42.7164 22.3183 42.8136 22.6594 42.9896 22.9583C43.2812 23.4535 43.7415 23.8019 44.288 23.9449C44.8345 24.0806 45.4067 24.0073 45.8927 23.7194C48.2401 22.3788 51.2275 23.182 52.568 25.5111L53.7105 27.4898C53.7399 27.543 53.7656 27.5944 53.7876 27.6476C55.0016 29.9417 54.191 32.8301 51.9353 34.1487C51.6071 34.3376 51.3412 34.6017 51.1578 34.9208C50.8735 35.4141 50.7947 36.0009 50.9377 36.5401C51.0844 37.0902 51.4347 37.5469 51.928 37.8293C53.0412 38.4693 53.8719 39.5477 54.2039 40.7929C54.5358 42.0362 54.3542 43.386 53.7069 44.4992L52.4892 46.5274C51.1486 48.8308 48.1612 49.6285 45.8377 48.2861C45.5277 48.1082 45.1701 48.0111 44.8144 48.0019H44.8034C44.2734 48.0019 43.7287 48.2274 43.3326 48.6217C42.931 49.0234 42.7109 49.5589 42.7146 50.1274C42.7017 52.8213 40.5102 55 37.8291 55Z" fill="#6CBE43"/>
<path fill-rule="evenodd" clip-rule="evenodd" d="M36.6883 32.5406C34.781 32.5406 33.2296 34.0939 33.2296 36.0011C33.2296 37.9084 34.781 39.458 36.6883 39.458C38.5955 39.458 40.147 37.9084 40.147 36.0011C40.147 34.0939 38.5955 32.5406 36.6883 32.5406ZM36.6883 42.2088C33.2644 42.2088 30.4788 39.425 30.4788 36.0011C30.4788 32.5772 33.2644 29.7897 36.6883 29.7897C40.1121 29.7897 42.8978 32.5772 42.8978 36.0011C42.8978 39.425 40.1121 42.2088 36.6883 42.2088Z" fill="#6CBE43"/>
</g>
<defs>
<clipPath id="clip0_1429_10645">
<rect width="38" height="38" fill="white" transform="translate(17.5 17)"/>
</clipPath>
</defs>
</svg>
