<svg width="73" height="72" viewBox="0 0 73 72" fill="none" xmlns="http://www.w3.org/2000/svg">
<path d="M0.5 24C0.5 12.6863 0.5 7.02944 4.01472 3.51472C7.52944 0 13.1863 0 24.5 0H48.5C59.8137 0 65.4706 0 68.9853 3.51472C72.5 7.02944 72.5 12.6863 72.5 24V48C72.5 59.3137 72.5 64.9706 68.9853 68.4853C65.4706 72 59.8137 72 48.5 72H24.5C13.1863 72 7.52944 72 4.01472 68.4853C0.5 64.9706 0.5 59.3137 0.5 48V24Z" fill="#6CBE43" fill-opacity="0.1"/>
<g clip-path="url(#clip0_1429_10636)">
<path d="M36.5 18.3571V29.2143M18.8572 29.2143H54.1429V50.9285C54.1429 51.6484 53.8569 52.3388 53.3479 52.8478C52.8389 53.3569 52.1485 53.6428 51.4286 53.6428H21.5715C20.8516 53.6428 20.1612 53.3569 19.6522 52.8478C19.1431 52.3388 18.8572 51.6484 18.8572 50.9285V29.2143Z" stroke="#6CBE43" stroke-width="2.5" stroke-linecap="round" stroke-linejoin="round"/>
<path d="M18.8572 29.2143L22.9286 21.37C23.3675 20.4859 24.0392 19.7381 24.8714 19.2073C25.7035 18.6764 26.6647 18.3825 27.6515 18.3571H45.3486C46.3585 18.3577 47.3483 18.6399 48.2066 19.1722C49.0649 19.7044 49.7578 20.4655 50.2072 21.37L54.1429 29.2143M43.2803 36L35.1483 46.8571L29.7197 42.7911" stroke="#6CBE43" stroke-width="2.5" stroke-linecap="round" stroke-linejoin="round"/>
</g>
<defs>
<clipPath id="clip0_1429_10636">
<rect width="38" height="38" fill="white" transform="translate(17.5 17)"/>
</clipPath>
</defs>
</svg>
