<svg width="73" height="72" viewBox="0 0 73 72" fill="none" xmlns="http://www.w3.org/2000/svg">
<path d="M0.5 24C0.5 12.6863 0.5 7.02944 4.01472 3.51472C7.52944 0 13.1863 0 24.5 0H48.5C59.8137 0 65.4706 0 68.9853 3.51472C72.5 7.02944 72.5 12.6863 72.5 24V48C72.5 59.3137 72.5 64.9706 68.9853 68.4853C65.4706 72 59.8137 72 48.5 72H24.5C13.1863 72 7.52944 72 4.01472 68.4853C0.5 64.9706 0.5 59.3137 0.5 48V24Z" fill="#6CBE43" fill-opacity="0.1"/>
<path fill-rule="evenodd" clip-rule="evenodd" d="M36.217 22.9903L24.8601 28.8342C24.3504 29.1076 24.2648 29.3224 24.2512 29.3692C24.2658 29.4173 24.3542 29.6216 24.8515 29.8774L36.217 35.7257C36.3943 35.7907 36.59 35.7907 36.7673 35.7257L48.1242 29.8817C48.634 29.6083 48.7195 29.3935 48.733 29.3467C48.7185 29.2986 48.6301 29.0943 48.1328 28.8385L36.7673 22.9903C36.59 22.9252 36.3943 22.9252 36.217 22.9903ZM35.265 20.8132C36.0496 20.4842 36.9347 20.4842 37.7193 20.8132L37.7622 20.8312L49.219 26.7265C50.2389 27.251 51.1103 28.1385 51.1103 29.346C51.1103 30.5466 50.2475 31.441 49.2347 31.9811L49.2193 31.9894L37.7622 37.8847L37.7193 37.9027C36.9347 38.2317 36.0496 38.2317 35.265 37.9027L35.2221 37.8847L23.7653 31.9894C22.7455 31.4648 21.874 30.5773 21.874 29.3698C21.874 28.1693 22.7368 27.2749 23.7496 26.7348L23.765 26.7265L35.2221 20.8312L35.265 20.8132Z" fill="#6CBE43"/>
<path fill-rule="evenodd" clip-rule="evenodd" d="M51.0146 36.8824C51.3144 37.4658 51.0844 38.1816 50.501 38.4813L37.7911 45.0106C37.3871 45.2127 36.9529 45.3259 36.4842 45.3259C36.0156 45.3259 35.5814 45.2126 35.1773 45.0105L35.1652 45.0044L22.4827 38.4811C21.8995 38.181 21.6699 37.4651 21.9699 36.8819C22.2699 36.2987 22.9858 36.0691 23.5691 36.369L36.2443 42.8887C36.3443 42.938 36.4157 42.9509 36.4842 42.9509C36.5528 42.9509 36.6242 42.938 36.7243 42.8886L49.4158 36.3688C49.9991 36.0691 50.715 36.2991 51.0146 36.8824Z" fill="#6CBE43"/>
<path fill-rule="evenodd" clip-rule="evenodd" d="M51.0146 43.0099C51.3144 43.5933 51.0844 44.3091 50.501 44.6089L37.7698 51.149L37.736 51.1639C37.3646 51.3263 36.9488 51.4375 36.4842 51.4375C36.0196 51.4375 35.6039 51.3263 35.2324 51.1639L35.1983 51.1489L22.4827 44.6086C21.8995 44.3086 21.6699 43.5926 21.9699 43.0094C22.2699 42.4262 22.9858 42.1966 23.5691 42.4965L36.2134 49.0002C36.3328 49.0492 36.4159 49.0625 36.4842 49.0625C36.5526 49.0625 36.6357 49.0492 36.7552 49.0001L49.4158 42.4962C49.9991 42.1966 50.715 42.4266 51.0146 43.0099Z" fill="#6CBE43"/>
</svg>
