<?xml version="1.0" encoding="UTF-8"?>
<svg id="Layer_1" data-name="Layer 1" xmlns="http://www.w3.org/2000/svg" viewBox="0 0 119.26 177.44">
  <defs>
    <style>
      .cls-1 {
        fill: #c6a969;
      }

      .cls-2 {
        fill: #6ebe45;
      }
    </style>
  </defs>
  <g>
    <path class="cls-2" d="M117.79,40.83c-.02-.48-.05-.93-.08-1.41h0c-.28-3.84-1.03-7.54-2.22-11.06h0c-.78-.23-1.57-.44-2.36-.63-2.32-.56-4.72-.93-7.17-1.12-.78-.05-1.57-.08-2.36-.1-.24,0-.49-.01-.73-.01h-.31c-.93,0-1.86,.02-2.78,.08-2.57,.15-5.09,.52-7.53,1.09-6.85,1.57-13.11,4.7-18.4,8.97-2.36,1.89-4.53,4.02-6.46,6.36-1.28,1.53-2.45,3.15-3.52,4.85-1.24,1.95-2.34,4.02-3.27,6.17-1.1-2.52-2.42-4.91-3.92-7.16-1.01-1.51-2.1-2.95-3.29-4.34-1.83-2.14-3.85-4.1-6.03-5.87-5.3-4.28-11.57-7.4-18.43-8.99-2.74-.64-5.58-1.02-8.5-1.14-.6-.02-1.21-.03-1.81-.03h-.29c-.27,0-.53,.01-.8,.01-1.42,.03-2.82,.13-4.21,.3-1.81,.2-3.59,.51-5.32,.93-.78,.19-1.55,.38-2.31,.6h0c-1.33,3.96-2.12,8.15-2.3,12.48-.01,.07-.01,.14-.01,.21-.02,.59-.03,1.19-.03,1.79,0,23.17,17.2,42.3,39.54,45.34,.76,.1,1.52,.19,2.29,.26,1.2,.1,2.42,.15,3.64,.16l-1.95-2.05-.38-.41-8.53-8.93c-13.59-2.37-24.21-13.39-25.98-27.18h0c-.17-1.35-.27-2.71-.27-4.09,0-3.12,.45-6.13,1.29-8.97,4.86,8.29,10.49,16.08,16.8,23.25,5.48,6.22,11.45,11.97,17.88,17.2,1.09,.91,2.2,1.78,3.32,2.64,.79,.62,1.58,1.21,2.38,1.8h.01c1.79,1.34,3.62,2.62,5.46,3.86,.58,.38,1.16,.77,1.74,1.14,.6-.38,1.19-.78,1.78-1.17h.01c1.84-1.23,3.64-2.51,5.41-3.82h.01c.81-.6,1.63-1.21,2.43-1.84,1.12-.85,2.21-1.72,3.29-2.6,6.45-5.27,12.46-11.06,17.95-17.3,6.3-7.17,11.92-14.94,16.76-23.23,.86,2.86,1.31,5.91,1.31,9.04,0,.72-.02,1.43-.08,2.14-1.01,15.34-12.95,27.73-28.11,29.42l-7.67,8.03-.05,.06-2.85,2.98c.44,.01,.88,.02,1.33,.02,1.34,0,2.65-.06,3.95-.16,.76-.07,1.5-.15,2.23-.26,22.35-3.02,39.57-22.17,39.57-45.34,0-.67-.01-1.35-.05-2.01Zm-63.75,26.27c-.02,1.44-.15,2.87-.37,4.25-6.79-5.72-13.07-12.02-18.75-18.84-2.57-3.08-5.02-6.28-7.34-9.57-.41-.58-.81-1.16-1.21-1.74-1.49-2.16-2.91-4.36-4.27-6.6h.17c1.62,0,3.2,.12,4.74,.35,7.5,1.13,14.14,4.86,18.96,10.25,.33,.36,.65,.74,.96,1.13,1.16,1.43,2.2,2.95,3.09,4.58,2.57,4.57,4.02,9.85,4.02,15.46,0,.24,0,.49-.02,.73Zm43.05-29.43c-.28,.44-.57,.88-.86,1.33-.02,.03-.03,.06-.06,.09-.45,.69-.92,1.37-1.38,2.06-2.56,3.73-5.27,7.35-8.14,10.83-5.79,7-12.19,13.47-19.15,19.32-.22-1.37-.35-2.77-.36-4.2-.02-.24-.02-.49-.02-.73,0-5.37,1.34-10.43,3.69-14.86,.92-1.74,2-3.38,3.22-4.91,.37-.48,.77-.95,1.17-1.41,4.82-5.39,11.45-9.13,18.95-10.25,1.43-.21,2.89-.33,4.38-.34,.13-.01,.24-.01,.37-.01h.12c-.64,1.03-1.28,2.06-1.93,3.07Z"/>
    <path class="cls-1" d="M105.53,21.75h-6.63c-2.51-8.09-10.04-13.96-18.96-13.96-.48,0-.95,.01-1.42,.06-5.94,.41-11.16,3.45-14.52,7.95-.52,.7-1,1.44-1.43,2.22-.35,.62-.65,1.24-.93,1.89-.26,.6-.48,1.21-.66,1.84-.56,1.79-.87,3.69-.88,5.64-.02-1.95-.34-3.85-.9-5.64-.13-.43-.28-.87-.45-1.29-.42-1.12-.95-2.17-1.56-3.17-.49-.78-1.01-1.53-1.6-2.24-3.19-3.87-7.8-6.52-13.05-7.11-.74-.09-1.51-.14-2.29-.14-8.92,0-16.45,5.87-18.96,13.96h-7.56c.12-.69,.27-1.36,.44-2.01C17.15,8.38,27.49,0,39.78,0c3.91,0,7.63,.85,10.96,2.38,3.42,1.55,6.44,3.8,8.89,6.58,2.69-3.06,6.08-5.49,9.92-7.03,3.07-1.24,6.42-1.93,9.93-1.93,13.01,0,23.83,9.38,26.05,21.75Z"/>
  </g>
  <g>
    <path class="cls-1" d="M12.97,125.59c.71-1.66,.71-2.94,.71-4.73v-25.84c0-2.98-1.78-4.51-3.53-4.51-1.62,0-3.21,1.4-3.21,4.17,0,1.7,.78,3.07,1.88,3.07,.65,0,1.26-.51,1.52-1.36,.62,.85,.94,2.04,.94,3.28,0,4.04-2.11,6.81-5.32,6.81-3.5,0-5.97-3.7-5.97-8.47s2.89-8.98,7.49-8.98c4.83,0,6.84,2.89,12.48,2.89,2.85,0,5.87-.81,9.18-1.02l.49,6.26c-3.4-1.19-7.13-1.19-9.63-1.19v8.26h6.23l.23,3.15h-6.45v13.5c0,1.79,0,3.07,.71,4.73h-7.75Z"/>
    <path class="cls-1" d="M29.8,125.59c.71-1.66,.71-2.94,.71-4.73v-15.88c0-1.19-.29-2-.71-2.55,2.11,0,5.84-.34,7.04-2.17v8.81h.26c.97-7.41,4.9-10.69,9.24-7.45l-1.01,6.6c-4.77-2.81-7.52,1.49-8.5,6.17v6.47c0,1.79,0,3.07,.71,4.73h-7.75Z"/>
    <path class="cls-1" d="M47.02,113.16c0-8.81,4.54-12.9,10.47-12.9s10.41,4.09,10.41,12.9-5.35,12.94-10.41,12.94-10.47-3.96-10.47-12.94Zm14.56,0c0-6-2.33-8.34-4.09-8.34s-4.15,2.34-4.15,8.34,2.33,8.26,4.15,8.26,4.09-2.38,4.09-8.26Z"/>
    <path class="cls-1" d="M68.84,125.59l9.47-20.05c-2.76,0-6.94,.17-9.05,1.36l.42-5.92h16.93l-9.44,20.35c2.76,.04,7.49-.3,9.5-1.66l-.45,5.92h-17.38Z"/>
    <path class="cls-1" d="M89.1,118.57c0-5.45,3.47-7.71,6.97-7.71,2.27,0,4.51,.89,5.93,2.34-.71-.55-1.65-.85-2.59-.85-2.63,0-4.67,1.87-4.67,5.02,0,2.26,1.2,3.62,2.66,3.62,1.78,0,3.86-2.34,4.6-6.81v-5.02c0-2.38-1.59-3.83-3.76-3.83-1.59,0-3.47,.72-5.38,2.3l-1.3-4.9c2.4-1.58,5.29-2.47,8.01-2.47,4.64,0,8.75,2.64,8.75,8.94v12.99c0,1.32,.13,2.34,.97,3.41h-4.02c-2.66,0-3.27-2.26-3.27-4.68v-2.81h-.1c-.78,5.15-3.7,8.13-6.97,8.13-2.92,0-5.84-2.68-5.84-7.66Z"/>
    <path class="cls-1" d="M111.51,125.59c.71-1.66,.71-2.94,.71-4.73v-25.84c0-1.19-.29-2-.71-2.55,2.11,0,5.84-.34,7.04-2.17v30.57c0,1.79,0,3.07,.71,4.73h-7.75Z"/>
  </g>
  <g>
    <path class="cls-2" d="M37.22,163.54v1.91h-6.74c-.88,.04-1.67,.22-2.37,.56-1.14,.84-2.26,1.68-3.36,2.5-1.9,1.42-3.82,2.44-5.76,3.04-.67,.19-1.42,.28-2.25,.28-1.9,0-3.58-.44-5.02-1.32-2.91-1.82-4.94-4-6.09-6.53-.71-1.48-1.2-3.49-1.46-6.02-.08-.6-.13-1.24-.13-1.91,0-3.7,.64-6.89,1.92-9.59,.44-.98,1.36-1.46,2.78-1.46,1.01,0,1.8,.35,2.37,1.04,.44,.53,.66,1.09,.66,1.69,0,1.31-.68,2.04-2.05,2.2-1.06,.15-2.03,.89-2.9,2.22-.62,.94-.93,2.58-.93,4.92,0,1.24,.16,2.39,.48,3.46,.71,2.36,2.04,4.47,4,6.33,1.96,1.86,3.99,2.8,6.1,2.84,1.94,.09,4.03-.59,6.29-2.05,.4-.3,1.62-1.28,3.64-2.93,1.01-.83,2.37-1.31,4.09-1.46v-28.59c0-.49-.66-.97-1.97-1.46l.33-1.77,6.99-1.46v31.96c0,1.07,.46,1.6,1.39,1.6Z"/>
    <path class="cls-2" d="M48.48,163.6v1.83h-8.36v-1.91h1.67v-29.18c-.1-1.03-.76-1.52-1.97-1.46l.33-1.77,6.99-1.46v32.27c0,1.12,.45,1.69,1.34,1.69Z"/>
    <path class="cls-2" d="M58.96,168.78c-.05,2.55-.3,4.29-.73,5.23-.25,.64-.98,1.37-2.17,2.19-.76,.6-1.78,.9-3.05,.9-.82,0-1.66-.12-2.5-.37v-.82c.98-.24,1.72-1,2.25-2.28,.39-1.03,.62-2.14,.71-3.32l.02-23.16c.03-.97-.15-1.5-.54-1.58-.4-.08-.77-.14-1.12-.2-.3-.24-.35-.85-.13-1.83l7.27-1.55v26.76Zm-3.28-28.62c.79,0,1.46-.32,2.01-.96,.55-.64,.82-1.37,.82-2.19,0-.88-.27-1.63-.82-2.25-.55-.62-1.22-.93-2.01-.93s-1.46,.31-2.02,.93-.83,1.37-.83,2.25c0,.83,.28,1.56,.83,2.19s1.23,.96,2.02,.96Z"/>
    <path class="cls-2" d="M82.44,166.19c0,3.86-.36,6.51-1.09,7.93-.72,1.43-1.89,2.38-3.48,2.87-.99,.3-2.51,.45-4.55,.45-2.95,0-4.49-.02-4.62-.06-.76,.04-1.33,.06-1.72,.06-.49-.64-.42-1.2,.2-1.69,1.09,0,2.2-.03,3.31-.08,1.28-.04,2.29-.3,3.03-.79,1.2-.84,1.94-2.15,2.25-3.91,.13-.94,.18-2.73,.13-5.37-3.7-.15-6.24-.49-7.6-1.01-2.29-.69-3.86-2.15-4.7-4.36-.71-1.76-1.06-3.8-1.06-6.11,0-2.61,.44-4.93,1.33-6.98,.88-2.04,2.18-3.59,3.9-4.64,1.72-1.05,3.61-1.5,5.68-1.35,3.48,.24,5.95,2.11,7.4,5.6,.84,1.91,1.35,4.34,1.51,7.29,0,.19,.05,2.8,.15,7.82,0,.88-.03,2.33-.08,4.33Zm-10.23-22.17c-.79-.06-1.48,.54-2.07,1.77-.69,1.58-1.03,4.17-1.03,7.79-.05,3.58,.54,6.19,1.77,7.82,.89,1.37,2.1,2.05,3.64,2.05,.44,0,.86-.07,1.26-.22l.08-8.69c.03-2.95-.24-5.5-.81-7.65-.52-1.91-1.46-2.87-2.83-2.87Z"/>
    <path class="cls-2" d="M93.42,174.01c-.25,.64-.98,1.37-2.17,2.19-.76,.6-1.78,.9-3.05,.9-.83,0-1.66-.12-2.5-.37v-.82c.98-.24,1.73-1,2.25-2.28,.39-1.03,.62-2.14,.71-3.32l.03-23.16c.03-.97-.15-1.5-.54-1.58-.4-.08-.77-.14-1.12-.2-.3-.24-.35-.85-.13-1.83l7.27-1.55-.03,20.34c0,.75,.33,1.1,.98,1.04h1.67v2.05h-2.55c-.13,.04-.2,.2-.2,.48,0,4.16-.2,6.86-.61,8.08Z"/>
    <path class="cls-2" d="M113.24,158.84c-6.18-1.41-10.5-3.25-12.98-5.51-.86-.94-1.29-2.35-1.29-4.25s.47-3.43,1.41-4.73c1.11-1.52,2.71-2.29,4.8-2.31,1.35,.08,2.73,.36,4.14,.84,3.42,1.16,6.71,3.25,9.87,6.25v11.59c-.29,2.96-2.54,4.54-6.77,4.73h-16.94v-2.05h15.65c1.23,.11,1.94-.58,2.12-2.08l-.02-2.48Zm.05-10.92c-1.2-1.39-2.81-2.08-4.85-2.08-.32,0-.62,.03-.91,.08-.61,.11-1.08,.58-1.43,1.41s-.52,1.78-.52,2.87c0,1.5,.29,2.64,.86,3.43,.98,1.07,3.26,2.04,6.84,2.9v-8.61Zm-4.04-7.6c.79,0,1.47-.31,2.05-.93s.86-1.37,.86-2.25-.29-1.63-.86-2.24c-.57-.61-1.25-.91-2.05-.91s-1.42,.3-1.99,.91c-.57,.61-.86,1.36-.86,2.24s.29,1.63,.86,2.25,1.24,.93,1.99,.93Z"/>
  </g>
</svg>