<svg width="200" height="200" viewBox="0 0 200 200" fill="none" xmlns="http://www.w3.org/2000/svg">
<path d="M200 100.001C200 155.231 155.23 200.001 99.999 200.001C44.7679 200.001 0 155.231 0 100.001C0 44.7691 44.7659 0.000976631 99.999 0.000976631C155.23 -0.00104651 200 44.7671 200 100.001Z" fill="url(#paint0_linear_1101_2206)"/>
<path d="M192.179 100.001C192.179 150.911 150.911 192.181 100.001 192.181C49.0892 192.181 7.8252 150.913 7.8252 100.001C7.8252 49.0884 49.0892 7.82031 100.001 7.82031C150.911 7.82031 192.179 49.0884 192.179 100.001Z" fill="url(#paint1_linear_1101_2206)"/>
<path d="M154.716 100.001C154.716 130.221 130.219 154.719 100.001 154.719C69.781 154.719 45.2881 130.221 45.2881 100.001C45.2881 69.7814 69.7831 45.2852 100.001 45.2852C130.219 45.2852 154.716 69.7794 154.716 100.001Z" fill="url(#paint2_linear_1101_2206)"/>
<path d="M152.553 100.001C152.553 129.028 129.025 152.557 100.001 152.557C70.9761 152.557 47.4502 129.028 47.4502 100.001C47.4502 70.9774 70.9761 47.4482 100.001 47.4482C129.025 47.4462 152.553 70.9774 152.553 100.001Z" fill="#F4F4F2"/>
<path d="M149.489 100.001C149.489 127.334 127.333 149.491 99.9993 149.491C72.668 149.491 50.5117 127.336 50.5117 100.001C50.5117 72.6682 72.668 50.5107 99.9993 50.5107C127.333 50.5107 149.489 72.6662 149.489 100.001Z" fill="url(#paint3_radial_1101_2206)"/>
<path fill-rule="evenodd" clip-rule="evenodd" d="M84.9046 152.306C77.6439 161.824 82.1533 170.224 88.8354 171.434C90.1767 171.676 91.0648 171.518 91.0648 171.518C92.4324 167.652 93.5167 164.163 91.9185 160.59C90.6561 157.756 87.0935 154.019 84.9046 152.306Z" fill="#6CBE43"/>
<path fill-rule="evenodd" clip-rule="evenodd" d="M89.9077 172.454C85.8171 172.142 82.1655 172.005 79.135 174.479C76.7255 176.439 74.0511 180.854 72.9688 183.411C84.051 187.932 90.9799 181.392 90.4094 174.625C90.2921 173.265 89.9077 172.454 89.9077 172.454Z" fill="#6CBE43"/>
<path fill-rule="evenodd" clip-rule="evenodd" d="M71.7771 168.64C72.9545 169.178 73.8082 169.241 73.8082 169.241C75.9749 166.008 77.7936 163.052 77.1644 159.391C76.6708 156.484 74.2715 152.213 72.6652 150.121C63.7476 157.167 65.9163 165.953 71.7771 168.64Z" fill="#6CBE43"/>
<path fill-rule="evenodd" clip-rule="evenodd" d="M62.1074 168.928C59.3885 170.106 55.7935 173.466 54.1387 175.537C63.1453 182.553 71.1969 178.339 72.4209 171.977C72.6636 170.7 72.52 169.855 72.52 169.855C68.8462 168.509 65.5264 167.441 62.1074 168.928Z" fill="#6CBE43"/>
<path fill-rule="evenodd" clip-rule="evenodd" d="M56.7665 161.144C57.7072 161.929 58.472 162.198 58.472 162.198C61.2536 159.776 63.6469 157.523 63.9786 154.023C64.2477 151.243 63.1108 146.744 62.1579 144.436C52.2632 148.674 52.071 157.239 56.7665 161.144Z" fill="#6CBE43"/>
<path fill-rule="evenodd" clip-rule="evenodd" d="M56.4592 164.367C57.0277 163.271 57.1288 162.46 57.1288 162.46C54.1468 160.232 51.4137 158.353 47.8876 158.776C45.0877 159.107 40.8939 161.189 38.8223 162.626C45.118 171.478 53.6087 169.836 56.4592 164.367Z" fill="#6CBE43"/>
<path fill-rule="evenodd" clip-rule="evenodd" d="M45.2934 150.844C48.4129 149.295 51.1379 147.806 52.2749 144.684C53.1812 142.208 53.2156 137.826 52.8939 135.485C42.8394 137.001 40.6242 144.787 43.9845 149.477C44.6602 150.413 45.2934 150.844 45.2934 150.844Z" fill="#6CBE43"/>
<path fill-rule="evenodd" clip-rule="evenodd" d="M43.983 150.782C41.8629 147.96 39.8702 145.52 36.5483 144.964C33.9103 144.521 29.5365 145.3 27.2666 146.055C30.641 155.798 38.8141 156.558 42.8683 152.34C43.6755 151.492 43.983 150.782 43.983 150.782Z" fill="#6CBE43"/>
<path fill-rule="evenodd" clip-rule="evenodd" d="M34.7353 135.897C37.9276 135.141 40.7457 134.356 42.4572 131.732C43.8167 129.654 44.7837 125.636 44.986 123.423C35.4352 122.667 31.7411 129.343 33.8249 134.36C34.2436 135.369 34.7353 135.897 34.7353 135.897Z" fill="#6CBE43"/>
<path fill-rule="evenodd" clip-rule="evenodd" d="M32.1156 136.727C33.0644 136.147 33.5175 135.574 33.5175 135.574C32.2693 132.473 31.0454 129.756 28.1444 128.437C25.8422 127.387 21.6504 127.027 19.3906 127.16C20.0946 136.891 27.3776 139.592 32.1156 136.727Z" fill="#6CBE43"/>
<path fill-rule="evenodd" clip-rule="evenodd" d="M28.0452 118.897C31.1263 118.784 33.8675 118.574 35.9249 116.47C37.5595 114.803 39.1841 111.277 39.7748 109.272C31.1101 106.83 26.4834 112.308 27.4868 117.315C27.6912 118.321 28.0452 118.897 28.0452 118.897Z" fill="#6CBE43"/>
<path fill-rule="evenodd" clip-rule="evenodd" d="M25.4113 119.132C26.4087 118.808 26.9509 118.381 26.9509 118.381C26.4795 115.266 25.9514 112.502 23.5764 110.657C21.6909 109.19 17.924 107.948 15.8221 107.58C14.3432 116.664 20.4387 120.728 25.4113 119.132Z" fill="#6CBE43"/>
<path fill-rule="evenodd" clip-rule="evenodd" d="M25.4879 99.9508C25.5223 100.912 25.7671 101.498 25.7671 101.498C28.6358 101.852 31.203 102.071 33.4183 100.43C35.1803 99.1315 37.2095 96.1151 38.0591 94.349C30.41 90.7945 25.3099 95.1683 25.4879 99.9508Z" fill="#6CBE43"/>
<path fill-rule="evenodd" clip-rule="evenodd" d="M23.2408 101.253C24.2199 101.143 24.7985 100.854 24.7985 100.854C24.9563 97.8944 24.9928 95.2523 23.1558 93.1018C21.6992 91.3964 18.4664 89.5392 16.6011 88.8008C13.516 96.8849 18.3572 101.783 23.2408 101.253Z" fill="#6CBE43"/>
<path fill-rule="evenodd" clip-rule="evenodd" d="M34.4467 84.3295C36.2391 83.3463 38.4988 80.8054 39.5043 79.2759C32.8626 75.0276 27.5926 78.4404 27.1617 82.8931C27.0747 83.7873 27.2264 84.3599 27.2264 84.3599C29.8382 85.0477 32.189 85.5717 34.4467 84.3295Z" fill="#6CBE43"/>
<path fill-rule="evenodd" clip-rule="evenodd" d="M24.871 83.7369C25.7894 83.8017 26.3721 83.6358 26.3721 83.6358C27.0215 80.937 27.5029 78.5134 26.1758 76.2213C25.1258 74.4026 22.4655 72.1429 20.8734 71.1455C16.6635 78.0623 20.2868 83.395 24.871 83.7369Z" fill="#6CBE43"/>
<path fill-rule="evenodd" clip-rule="evenodd" d="M32.0006 67.4892C34.3109 68.4866 36.4048 69.2978 38.6585 68.4704C40.4489 67.8129 42.8846 65.7858 44.0256 64.5154C38.4986 59.6742 33.1659 62.0837 32.1443 66.1257C31.9399 66.941 32.0006 67.4892 32.0006 67.4892Z" fill="#6CBE43"/>
<path fill-rule="evenodd" clip-rule="evenodd" d="M29.8921 66.4916C30.7175 66.7263 31.2819 66.6818 31.2819 66.6818C32.3885 64.3492 33.2888 62.2271 32.518 59.8824C31.907 58.0232 29.9103 55.4539 28.65 54.2441C23.4872 59.7488 25.7792 65.3021 29.8921 66.4916Z" fill="#6CBE43"/>
<path fill-rule="evenodd" clip-rule="evenodd" d="M40.5502 51.0008C40.2164 51.7048 40.1719 52.2166 40.1719 52.2166C42.0998 53.5478 43.8619 54.6645 46.067 54.3186C47.819 54.0414 50.4085 52.6354 51.679 51.6846C47.5115 46.2648 42.2131 47.4969 40.5502 51.0008Z" fill="#6CBE43"/>
<path fill-rule="evenodd" clip-rule="evenodd" d="M38.4356 50.8142C39.1194 51.2249 39.6333 51.3199 39.6333 51.3199C41.1809 49.4911 42.4938 47.8059 42.3623 45.5239C42.2571 43.7113 41.0838 40.9377 40.2422 39.5479C34.3066 43.252 35.0328 48.7729 38.4356 50.8142Z" fill="#6CBE43"/>
<path fill-rule="evenodd" clip-rule="evenodd" d="M52.6682 38.7183C52.2009 39.2686 52.0391 39.7177 52.0391 39.7177C53.4491 41.3746 54.7621 42.8008 56.8236 43.0193C58.4602 43.1933 61.1205 42.55 62.4901 42.0038C60.0503 36.141 55.0008 35.9771 52.6682 38.7183Z" fill="#6CBE43"/>
<path fill-rule="evenodd" clip-rule="evenodd" d="M51.7529 38.7458C53.6545 37.6251 55.3074 36.561 55.8859 34.5339C56.3452 32.9256 56.1651 30.156 55.8576 28.6934C49.572 30.1075 48.5282 35.1287 50.8668 37.9407C51.3361 38.5051 51.7529 38.7458 51.7529 38.7458Z" fill="#6CBE43"/>
<path fill-rule="evenodd" clip-rule="evenodd" d="M68.8921 30.6091C68.3257 30.9692 68.0586 31.3192 68.0586 31.3192C68.8456 33.1784 69.6144 34.805 71.3785 35.5697C72.7824 36.1786 75.3152 36.3485 76.6808 36.2433C76.1467 30.3785 71.7183 28.8289 68.8921 30.6091Z" fill="#6CBE43"/>
<path fill-rule="evenodd" clip-rule="evenodd" d="M68.081 30.332C70.0777 30.0468 71.8478 29.719 73.0414 28.2078C73.9903 27.0102 74.8015 24.6048 75.0483 23.2615C69.2402 22.2722 66.6082 26.1565 67.6096 29.3468C67.8099 29.982 68.081 30.332 68.081 30.332Z" fill="#6CBE43"/>
<path fill-rule="evenodd" clip-rule="evenodd" d="M109.859 171.431C116.561 170.335 121.21 162.01 114.107 152.37C111.894 154.047 108.269 157.721 106.958 160.537C105.303 164.082 106.327 167.591 107.632 171.476C107.632 171.476 108.512 171.654 109.859 171.431Z" fill="#6CBE43"/>
<path fill-rule="evenodd" clip-rule="evenodd" d="M119.509 174.637C116.517 172.115 112.863 172.189 108.77 172.434C108.77 172.434 108.37 173.237 108.232 174.595C107.544 181.354 114.366 188.01 125.525 183.668C124.485 181.095 121.884 176.636 119.509 174.637Z" fill="#6CBE43"/>
<path fill-rule="evenodd" clip-rule="evenodd" d="M127.083 168.943C132.992 166.36 135.317 157.614 126.523 150.412C124.878 152.472 122.406 156.706 121.861 159.599C121.168 163.25 122.932 166.234 125.044 169.508C125.044 169.508 125.895 169.459 127.083 168.943Z" fill="#6CBE43"/>
<path fill-rule="evenodd" clip-rule="evenodd" d="M136.751 169.406C133.354 167.854 130.018 168.865 126.32 170.142C126.32 170.142 126.163 170.986 126.383 172.266C127.492 178.651 135.47 183.007 144.603 176.148C142.984 174.053 139.448 170.628 136.751 169.406Z" fill="#6CBE43"/>
<path fill-rule="evenodd" clip-rule="evenodd" d="M140.542 162.73C140.542 162.73 141.309 162.477 142.266 161.709C147.026 157.883 146.984 149.315 137.164 144.907C136.172 147.199 134.959 151.678 135.177 154.462C135.45 157.97 137.803 160.266 140.542 162.73Z" fill="#6CBE43"/>
<path fill-rule="evenodd" clip-rule="evenodd" d="M141.88 163.018C141.88 163.018 141.965 163.83 142.517 164.936C145.271 170.453 153.733 172.245 160.182 163.498C158.135 162.029 153.976 159.875 151.184 159.496C147.666 159.013 144.9 160.842 141.88 163.018Z" fill="#6CBE43"/>
<path fill-rule="evenodd" clip-rule="evenodd" d="M146.517 136.112C146.159 138.441 146.124 142.827 146.992 145.319C148.08 148.457 150.781 149.992 153.876 151.585C153.876 151.585 154.516 151.17 155.206 150.239C158.639 145.606 156.545 137.781 146.517 136.112Z" fill="#6CBE43"/>
<path fill-rule="evenodd" clip-rule="evenodd" d="M162.713 145.846C159.381 146.352 157.352 148.755 155.186 151.547C155.186 151.547 155.479 152.263 156.28 153.123C160.267 157.405 168.449 156.77 171.979 147.082C169.721 146.293 165.357 145.445 162.713 145.846Z" fill="#6CBE43"/>
<path fill-rule="evenodd" clip-rule="evenodd" d="M164.633 136.782C164.633 136.782 165.13 136.264 165.563 135.26C167.716 130.269 164.111 123.543 154.55 124.172C154.724 126.387 155.636 130.417 156.967 132.513C158.642 135.161 161.45 135.985 164.633 136.782Z" fill="#6CBE43"/>
<path fill-rule="evenodd" clip-rule="evenodd" d="M171.326 129.41C168.405 130.694 167.146 133.393 165.855 136.476C165.855 136.476 166.301 137.059 167.245 137.646C171.943 140.577 179.262 137.977 180.096 128.255C177.838 128.089 173.64 128.392 171.326 129.41Z" fill="#6CBE43"/>
<path fill-rule="evenodd" clip-rule="evenodd" d="M172.14 118.177C173.2 113.178 168.638 107.653 159.943 109.993C160.514 112.004 162.098 115.547 163.714 117.236C165.747 119.362 168.485 119.603 171.566 119.751C171.566 119.751 171.93 119.18 172.14 118.177Z" fill="#6CBE43"/>
<path fill-rule="evenodd" clip-rule="evenodd" d="M176.127 111.563C173.732 113.382 173.17 116.135 172.666 119.247C172.666 119.247 173.204 119.684 174.197 120.016C179.152 121.668 185.292 117.671 183.918 108.571C181.81 108.917 178.029 110.117 176.127 111.563Z" fill="#6CBE43"/>
<path fill-rule="evenodd" clip-rule="evenodd" d="M174.362 100.772C174.582 95.9877 169.52 91.5714 161.839 95.0592C162.67 96.8313 164.677 99.8679 166.427 101.181C168.628 102.84 171.197 102.646 174.068 102.312C174.068 102.312 174.317 101.731 174.362 100.772Z" fill="#6CBE43"/>
<path fill-rule="evenodd" clip-rule="evenodd" d="M176.756 93.9437C174.898 96.076 174.911 98.7161 175.044 101.678C175.044 101.678 175.623 101.975 176.6 102.088C181.475 102.661 186.361 97.8077 183.349 89.6953C181.477 90.4175 178.226 92.2484 176.756 93.9437Z" fill="#6CBE43"/>
<path fill-rule="evenodd" clip-rule="evenodd" d="M165.545 85.0482C167.793 86.3066 170.146 85.8049 172.764 85.1373C172.764 85.1373 172.921 84.5688 172.843 83.6726C172.448 79.2158 167.206 75.7584 160.53 79.9522C161.522 81.4877 163.759 84.0489 165.545 85.0482Z" fill="#6CBE43"/>
<path fill-rule="evenodd" clip-rule="evenodd" d="M173.622 84.4184C173.622 84.4184 174.204 84.5964 175.125 84.5317C179.709 84.2282 183.379 78.9279 179.228 71.9727C177.627 72.9579 174.945 75.1974 173.881 77.004C172.535 79.288 172.995 81.7156 173.622 84.4184Z" fill="#6CBE43"/>
<path fill-rule="evenodd" clip-rule="evenodd" d="M156.122 65.0839C157.251 66.3625 159.668 68.4098 161.453 69.0814C163.696 69.9311 165.798 69.1441 168.119 68.165C168.119 68.165 168.183 67.6168 167.987 66.8055C167.004 62.7513 161.694 60.2933 156.122 65.0839Z" fill="#6CBE43"/>
<path fill-rule="evenodd" clip-rule="evenodd" d="M170.235 67.1836C174.36 66.0365 176.7 60.5015 171.59 54.9482C170.318 56.152 168.299 58.701 167.67 60.5541C166.874 62.8907 167.757 65.0169 168.841 67.3657C168.841 67.3657 169.407 67.4142 170.235 67.1836Z" fill="#6CBE43"/>
<path fill-rule="evenodd" clip-rule="evenodd" d="M148.558 52.0893C149.818 53.0542 152.389 54.4886 154.139 54.7819C156.34 55.1542 158.116 54.0577 160.059 52.7488C160.059 52.7488 160.022 52.239 159.694 51.5309C158.07 48.0068 152.786 46.7181 148.558 52.0893Z" fill="#6CBE43"/>
<path fill-rule="evenodd" clip-rule="evenodd" d="M161.809 51.3666C165.234 49.3597 166.019 43.8469 160.126 40.082C159.272 41.4597 158.065 44.2252 157.941 46.0358C157.781 48.3138 159.074 50.0111 160.603 51.8582C160.603 51.8582 161.123 51.7692 161.809 51.3666Z" fill="#6CBE43"/>
<path fill-rule="evenodd" clip-rule="evenodd" d="M143.468 43.3251C145.531 43.1329 146.864 41.7269 148.293 40.0862C148.293 40.0862 148.139 39.6371 147.678 39.0808C145.38 36.3072 140.328 36.4104 137.817 42.2367C139.175 42.8032 141.829 43.4768 143.468 43.3251Z" fill="#6CBE43"/>
<path fill-rule="evenodd" clip-rule="evenodd" d="M148.588 39.1157C148.588 39.1157 149.011 38.881 149.486 38.3227C151.859 35.543 150.876 30.5077 144.611 29.0146C144.285 30.4733 144.071 33.2408 144.51 34.8552C145.062 36.8843 146.699 37.9727 148.588 39.1157Z" fill="#6CBE43"/>
<path fill-rule="evenodd" clip-rule="evenodd" d="M128.987 35.7109C130.759 34.9644 131.55 33.35 132.358 31.4989C132.358 31.4989 132.097 31.1449 131.532 30.7807C128.724 28.964 124.282 30.459 123.679 36.3198C125.042 36.4412 127.577 36.3016 128.987 35.7109Z" fill="#6CBE43"/>
<path fill-rule="evenodd" clip-rule="evenodd" d="M132.347 30.5104C132.347 30.5104 132.622 30.1625 132.831 29.5272C133.867 26.349 131.279 22.4385 125.463 23.3569C125.696 24.7043 126.481 27.1178 127.413 28.3296C128.589 29.857 130.353 30.2029 132.347 30.5104Z" fill="#6CBE43"/>
<path d="M94.772 33.056L100.18 29.8495L105.591 33.052L104.212 26.9201L108.931 22.7607L102.67 22.1761L100.176 16.4023L97.6852 22.1761L91.4219 22.7668L96.1457 26.9201L94.772 33.056Z" fill="#6CBE43"/>
<path d="M68.5244 73.9129C71.5205 73.9129 72.1881 72.4684 72.789 70.8115H75.3967V95.4785H71.5205V76.6602H68.5244V73.9129Z" fill="#C6A868"/>
<path d="M81.5244 76.731C81.5244 72.784 83.6041 70.5283 87.4094 70.5283C91.2148 70.5283 93.2945 72.784 93.2945 76.731V89.5591C93.2945 93.506 91.2148 95.7617 87.4094 95.7617C83.6041 95.7617 81.5244 93.506 81.5244 89.5591V76.731ZM85.4006 89.8059C85.4006 91.568 86.1754 92.2376 87.4094 92.2376C88.6435 92.2376 89.4183 91.57 89.4183 89.8059V76.4862C89.4183 74.7241 88.6435 74.0545 87.4094 74.0545C86.1774 74.0545 85.4006 74.7241 85.4006 76.4862V89.8059Z" fill="#C6A868"/>
<path d="M97.2373 76.731C97.2373 72.784 99.317 70.5283 103.122 70.5283C106.928 70.5283 109.007 72.784 109.007 76.731V89.5591C109.007 93.506 106.928 95.7617 103.122 95.7617C99.317 95.7617 97.2373 93.506 97.2373 89.5591V76.731ZM101.113 89.8059C101.113 91.568 101.888 92.2376 103.122 92.2376C104.356 92.2376 105.131 91.57 105.131 89.8059V76.4862C105.131 74.7241 104.356 74.0545 103.122 74.0545C101.89 74.0545 101.113 74.7241 101.113 76.4862V89.8059Z" fill="#C6A868"/>
<path d="M113.058 74.5807C113.058 72.0438 114.36 70.6357 116.792 70.6357C119.224 70.6357 120.527 72.0458 120.527 74.5807V82.687C120.527 85.2239 119.222 86.6319 116.792 86.6319C114.36 86.6319 113.058 85.2219 113.058 82.687V74.5807ZM115.524 82.863C115.524 83.9554 115.983 84.4147 116.792 84.4147C117.567 84.4147 118.061 83.9554 118.061 82.863V74.4047C118.061 73.3122 117.567 72.853 116.792 72.853C115.981 72.853 115.524 73.3122 115.524 74.4047V82.863ZM126.519 70.8117H128.809L119.082 95.4787H116.792L126.519 70.8117ZM125.285 83.6034C125.285 81.0665 126.59 79.6585 129.019 79.6585C131.451 79.6585 132.754 81.0686 132.754 83.6034V91.7098C132.754 94.2467 131.451 95.6547 129.019 95.6547C126.588 95.6547 125.285 94.2446 125.285 91.7098V83.6034ZM127.751 91.8837C127.751 92.9762 128.208 93.4334 129.019 93.4334C129.794 93.4334 130.288 92.9742 130.288 91.8837V83.4254C130.288 82.333 129.794 81.8737 129.019 81.8737C128.208 81.8737 127.751 82.333 127.751 83.4254V91.8837Z" fill="#C6A868"/>
<path d="M78.6079 128.305H78.709L82.8724 99.6592H87.9381L82.5204 134.775H74.2927L68.875 99.6592H74.4444L78.6079 128.305Z" fill="#C6A868"/>
<path d="M98.5207 114.46H106.097V119.477H98.5207V129.76H108.053V134.775H93.0039V99.6592H108.053V104.674H98.5207V114.46Z" fill="#C6A868"/>
<path d="M122.245 115.213H129.971V126.349C129.971 131.967 127.161 135.178 121.743 135.178C116.326 135.178 113.516 131.967 113.516 126.349V108.087C113.516 102.469 116.326 99.2588 121.743 99.2588C127.161 99.2588 129.971 102.469 129.971 108.087V111.498H124.754V107.737C124.754 105.229 123.649 104.274 121.893 104.274C120.137 104.274 119.033 105.227 119.033 107.737V126.699C119.033 129.208 120.135 130.11 121.893 130.11C123.649 130.11 124.754 129.208 124.754 126.699V120.228H122.245V115.213Z" fill="#C6A868"/>
<defs>
<linearGradient id="paint0_linear_1101_2206" x1="99.3197" y1="242.469" x2="100.517" y2="-7.83831" gradientUnits="userSpaceOnUse">
<stop offset="0.0391" stop-color="#22680B"/>
<stop offset="0.486" stop-color="#C6A868"/>
<stop offset="1" stop-color="#22680B"/>
</linearGradient>
<linearGradient id="paint1_linear_1101_2206" x1="99.3197" y1="242.469" x2="100.517" y2="-7.83843" gradientUnits="userSpaceOnUse">
<stop offset="0.0391" stop-color="#22680B"/>
<stop offset="0.486" stop-color="#C6A868"/>
<stop offset="1" stop-color="#22680B"/>
</linearGradient>
<linearGradient id="paint2_linear_1101_2206" x1="99.3197" y1="242.469" x2="100.517" y2="-7.83817" gradientUnits="userSpaceOnUse">
<stop offset="0.0391" stop-color="#22680B"/>
<stop offset="0.486" stop-color="#C6A868"/>
<stop offset="1" stop-color="#22680B"/>
</linearGradient>
<radialGradient id="paint3_radial_1101_2206" cx="0" cy="0" r="1" gradientUnits="userSpaceOnUse" gradientTransform="translate(100.002 99.9999) scale(49.4875 49.49)">
<stop offset="0.3856" stop-color="#046A38"/>
<stop offset="0.5712" stop-color="#046435"/>
<stop offset="0.8249" stop-color="#03522C"/>
<stop offset="1" stop-color="#034223"/>
</radialGradient>
</defs>
</svg>
