<svg width="200" height="200" viewBox="0 0 200 200" fill="none" xmlns="http://www.w3.org/2000/svg">
<path d="M200 100.001C200 155.231 155.23 200.001 100 200.001C44.772 200.001 0 155.229 0 100.001C0 44.7714 44.7703 0.000976562 100 0.000976562C155.23 0.000976562 200 44.7714 200 100.001ZM94.8285 14.4192V29.5368C94.8285 29.9491 95.1634 30.2834 95.5764 30.2834H99.3857C102.475 30.2834 104.979 27.4609 104.979 23.9779V19.976C104.979 16.493 102.475 13.6704 99.3857 13.6704H95.5764C95.1634 13.6725 94.8285 14.0069 94.8285 14.4192ZM88.9419 15.3114C88.8638 14.7843 88.3727 14.4212 87.8452 14.4992L86.8906 14.6427C86.3631 14.7207 86.0004 15.213 86.0802 15.7381L88.2755 30.427C88.3536 30.9542 88.8448 31.3173 89.3724 31.2393L90.3268 31.0957C90.8527 31.0178 91.2171 30.5255 91.1372 30.0004L88.9419 15.3114ZM113.106 17.7935C113.161 17.5083 113.436 17.3196 113.72 17.3709L118.265 18.2139C118.553 18.2632 118.828 18.0683 118.876 17.7791C118.878 17.7709 118.878 17.7627 118.88 17.7565L119.084 16.3227C119.128 16.0417 118.942 15.775 118.663 15.7196L111.344 14.3822C111.058 14.3309 110.784 14.5197 110.73 14.8048L107.969 30.0681C107.912 30.3552 108.099 30.6342 108.386 30.6916C108.391 30.6937 108.398 30.6937 108.403 30.6957L115.914 32.0106C116.2 32.0619 116.474 31.8731 116.528 31.588L116.806 30.1542C116.856 29.865 116.664 29.5901 116.375 29.5409C116.374 29.5409 116.374 29.5409 116.372 29.5409L111.61 28.745C111.32 28.6978 111.124 28.4271 111.169 28.1379C111.171 28.1276 111.173 28.1173 111.174 28.1071L111.993 24.3328C112.054 24.0518 112.327 23.8713 112.608 23.9225L116.851 24.7184C117.139 24.7738 117.417 24.5872 117.474 24.3C117.476 24.2918 117.477 24.2815 117.479 24.2733L117.696 22.8272C117.739 22.5421 117.547 22.2733 117.262 22.2241L112.971 21.4529C112.686 21.3975 112.497 21.1247 112.549 20.8375L113.106 17.7935ZM81.4605 30.1624C81.0631 30.9624 80.0895 31.2824 79.2878 30.8803C79.0223 30.747 78.7984 30.546 78.6405 30.2957C77.0734 27.7994 75.3016 23.3995 75.9767 20.3267C76.1693 19.4755 77.0144 18.9422 77.8647 19.1329C78.2552 19.2211 78.5971 19.4529 78.821 19.7831C79.1507 20.2816 79.5846 20.6303 80.1226 20.8313C80.9174 21.137 81.5647 20.9688 82.0627 20.3247C82.2883 20.0354 82.3126 19.7298 82.1356 19.4078C80.6171 16.6037 78.4392 15.8673 75.6018 17.2006C70.9249 19.3955 73.4446 26.9297 75.3605 30.7019C77.9411 35.7644 84.6676 33.668 84.7405 28.0989C84.7492 27.2702 84.3501 26.9625 83.5466 27.1697L82.9807 27.3255C82.2814 27.5019 81.9083 27.9491 81.8597 28.663C81.825 29.2065 81.6931 29.705 81.4605 30.1624ZM128.969 21.5205C129.155 21.9615 129.25 22.4415 129.259 22.9544C129.275 23.4856 129.528 23.8549 130.019 24.0641C130.438 24.2405 130.875 24.3287 131.333 24.3287C131.847 24.3287 132.121 24.0723 132.152 23.5574C132.454 18.6878 126.101 16.0704 123.472 20.3513C121.544 23.4856 123.82 26.1871 125.943 28.3204C126.897 29.2845 127.001 30.8004 126.184 31.8773C125.429 32.8824 124.456 32.9993 123.267 32.226C122.882 31.9778 122.68 31.6229 122.665 31.1655L122.628 30.0332C122.619 29.5922 122.427 29.2537 122.05 29.0199C121.488 28.6753 120.893 28.5255 120.266 28.5748C119.857 28.6076 119.631 28.8271 119.591 29.2373C119.025 34.9644 126.885 37.5551 129.44 31.9614C130.778 29.0199 128.475 26.2712 126.462 24.3431C125.485 23.4036 125.485 22.1134 126.365 21.1124C126.939 20.4662 127.928 20.4026 128.572 20.9729C128.745 21.1205 128.881 21.3093 128.969 21.5205ZM66.6869 21.4611C66.4943 21.0447 65.9997 20.8621 65.5832 21.0549L64.4673 21.5698C64.0508 21.7626 63.8686 22.2569 64.0612 22.6734L70.3625 36.31C70.5551 36.7264 71.0497 36.9089 71.4662 36.7161L72.5821 36.2013C72.9986 36.0085 73.1808 35.5141 72.9882 35.0977L66.6869 21.4611ZM58.6398 27.5963L60.3995 26.4743C60.7692 26.2322 60.8733 25.9082 60.7136 25.4979C60.5696 25.1287 60.3648 24.8025 60.0992 24.5215C59.7626 24.1769 59.3877 24.1318 58.9782 24.3882L51.7814 28.8968C51.3962 29.1347 51.2764 29.6394 51.5124 30.025C51.5211 30.0394 51.5297 30.0537 51.5402 30.066L52.1077 30.8742C52.4287 31.3234 52.8071 31.385 53.2409 31.0547L54.8079 29.8855C55.1429 29.6311 55.6149 29.6927 55.8648 30.0209C55.8787 30.0394 55.8926 30.0578 55.9048 30.0783L62.5358 40.5786C62.921 41.1899 63.4122 41.2904 64.0057 40.8801L64.6079 40.4699C65.2101 40.0514 65.3159 39.5345 64.922 38.9151L58.4003 28.6917C58.1087 28.2424 58.1885 27.8773 58.6398 27.5963ZM144.944 30.6814C145.201 30.2875 145.522 30.2281 145.909 30.5009L149.248 32.8393C149.69 33.1449 150.096 33.1039 150.466 32.7182L151.056 32.0906C151.49 31.6249 151.441 31.2106 150.912 30.8496L145.017 26.7984C144.656 26.5564 144.35 26.6138 144.1 26.9666L135.566 39.2761C135.212 39.7909 135.293 40.2279 135.807 40.5909L136.675 41.194C137.197 41.5632 137.634 41.4832 137.988 40.9519L141.135 36.31C141.407 35.9079 141.737 35.8526 142.124 36.1418L145.065 38.2997C145.458 38.5787 145.992 38.5438 146.343 38.2156C146.535 38.031 146.684 37.8094 146.789 37.553C147.07 36.911 146.917 36.3961 146.331 36.0105L143.606 34.191C143.172 33.9018 143.096 33.5367 143.377 33.0937L144.944 30.6814ZM54.2753 44.9314C53.8084 46.1375 53.2461 46.6995 52.5867 46.6195C52.2326 46.5785 51.9081 46.4595 51.6096 46.2585C50.4521 45.4462 49.4559 45.7313 48.6195 47.1139C48.3626 47.5405 48.439 47.8933 48.8486 48.1743C51.2192 49.8215 53.4336 49.6 55.4918 47.5118C57.8623 45.1077 57.8068 42.6853 55.3235 40.2422C53.2253 38.1807 49.7787 39.3622 47.3179 40.0617C46.5925 40.273 45.8168 40.0125 45.3777 39.4114C44.3417 38.0371 44.5985 37.0013 46.15 36.3018C46.504 36.1397 46.9205 36.1972 47.2225 36.4474C47.3908 36.5992 47.5799 36.7243 47.7882 36.8207C48.3435 37.0771 48.8572 36.9889 49.331 36.5561C49.692 36.2177 49.9454 35.8279 50.0911 35.3869C50.2439 34.8967 50.0911 34.5357 49.633 34.3018C43.8818 31.4198 38.8439 39.594 44.9681 42.6565C47.7656 44.0678 52.6717 40.3058 54.2266 43.5119C54.4418 43.955 54.4592 44.4698 54.2753 44.9314ZM156.059 46.0657C158.286 45.8811 159.792 44.716 160.58 42.5704C161.606 39.7848 157.711 36.7592 155.998 35.1326C155.66 34.8105 155.327 34.8187 154.997 35.1572L144.474 45.838C144.064 46.2565 144.064 46.6667 144.474 47.0667L145.268 47.8626C145.687 48.2728 146.1 48.2687 146.511 47.8503L150.308 44.0042C150.863 43.434 151.362 43.477 151.802 44.1375L152.49 45.1631C152.972 45.8708 152.923 46.5416 152.345 47.1754L149.38 50.4184C149.083 50.7466 149.015 51.2205 149.211 51.6122C149.413 52.0061 149.682 52.3507 150.018 52.6481C150.332 52.9291 150.657 52.9373 150.995 52.6727C153.246 50.8635 154.725 48.8308 155.431 46.5723C155.528 46.2585 155.737 46.0882 156.059 46.0657ZM36.0602 48.8861C35.6108 48.5333 35.5622 48.1354 35.9162 47.6923L38.1462 44.8596C38.6373 44.2483 38.6009 43.6657 38.0369 43.1119C37.9085 42.9827 37.7593 42.878 37.5909 42.798C37.1762 42.5888 36.6694 42.6996 36.3726 43.0627L32.0809 48.4759C31.7755 48.8615 31.8189 49.2082 32.2129 49.5118L44.2809 58.927C44.5013 59.0993 44.8189 59.0623 44.9925 58.8429L49.3571 53.2245C49.7059 52.763 49.659 52.1127 49.2477 51.7045L48.8868 51.3558C48.5536 51.0297 48.019 51.0358 47.6928 51.3681C47.6667 51.3948 47.6424 51.4235 47.6199 51.4522L45.0046 54.8634C44.7218 55.2347 44.189 55.3024 43.8124 55.0173C43.8037 55.0111 43.795 55.0029 43.7863 54.9968L41.3516 52.9845C40.7893 52.5271 40.7494 52.0245 41.2318 51.4768L43.2327 49.2102C43.7707 48.599 43.7464 48.0164 43.1599 47.4626L42.7989 47.1139C42.4882 46.8226 42.0023 46.8349 41.716 47.1426C41.7021 47.157 41.6899 47.1713 41.6778 47.1877L39.0382 50.3712C38.7484 50.7158 38.4274 50.7486 38.0733 50.4676L36.0602 48.8861ZM156.939 100.001C156.939 68.5555 131.448 43.0627 100.002 43.0627C68.556 43.0627 43.0644 68.5555 43.0644 100.001C43.0644 131.447 68.556 156.939 100.002 156.939C131.448 156.939 156.939 131.447 156.939 100.001ZM166.173 50.3569L168.391 53.6245C168.658 54.0163 169.175 54.1414 169.585 53.9137L170.333 53.5158C170.911 53.1937 171.008 52.7691 170.623 52.2379L166.524 46.6318C166.194 46.1826 165.8 46.117 165.342 46.439L153.239 55.0111C152.79 55.3332 152.726 55.7188 153.047 56.168L157.109 61.7864C157.583 62.4448 158.11 62.4982 158.688 61.9423L158.978 61.6777C159.445 61.2428 159.488 60.7772 159.11 60.2787L156.675 57.0357C156.354 56.6091 156.413 56.2439 156.856 55.9383L159.773 53.9137C160.295 53.5609 160.689 53.6676 160.955 54.2399C161.493 55.4378 162.189 56.4491 163.041 57.2778C163.291 57.526 163.591 57.6203 163.945 57.5547C164.427 57.4747 164.781 57.1855 165.005 56.687C165.175 56.3096 165.125 55.8706 164.873 55.5424L162.787 52.8655C162.418 52.3999 162.473 51.9897 162.956 51.6368L164.981 50.1538C165.453 49.8051 165.852 49.8748 166.173 50.3569ZM34.6129 63.2079C36.0603 60.5803 36.3726 57.9526 33.5161 56.1311C28.3324 52.804 26.2343 57.7578 24.3653 61.3515C24.1084 61.8418 24.2282 62.2192 24.7262 62.4838L37.9744 69.4273C38.4152 69.6611 38.9619 69.4949 39.1979 69.0539C39.1996 69.0498 39.2031 69.0457 39.2048 69.0416L39.7723 67.9196C39.9893 67.5011 39.8921 67.1832 39.4825 66.9678L35.0346 64.6294C34.4081 64.3012 34.2676 63.8274 34.6129 63.2079ZM169.235 63.6181C169.118 63.372 169.212 63.0766 169.451 62.9433L172.103 61.532C172.357 61.3987 172.669 61.4971 172.803 61.7494L175.02 65.9812C175.147 66.2376 175.458 66.3422 175.715 66.2171C175.734 66.2089 175.751 66.1986 175.768 66.1863L176.987 65.4027C177.212 65.2591 177.29 64.9658 177.167 64.7279L173.899 58.1454C173.774 57.8911 173.469 57.7823 173.212 57.9034L159.277 64.5699C159.018 64.693 158.909 65.0027 159.032 65.2612C159.034 65.2632 159.035 65.2673 159.035 65.2694L162.315 72.0446C162.421 72.26 162.661 72.3749 162.893 72.3215L164.316 72.02C164.596 71.9605 164.775 71.6836 164.714 71.4046C164.705 71.3677 164.693 71.3308 164.677 71.298L162.531 66.7524C162.411 66.4919 162.524 66.1863 162.784 66.0653L166.257 64.4263C166.513 64.3053 166.819 64.412 166.944 64.6684L168.837 68.5862C168.957 68.8385 169.255 68.9514 169.512 68.8385L170.85 68.2478C171.11 68.1309 171.227 67.8232 171.111 67.5627C171.109 67.5586 171.107 67.5545 171.104 67.5483L169.235 63.6181ZM27.3554 69.0786C19.2146 89.1315 18.9802 109.172 26.656 129.2C27.0343 130.189 27.7493 130.708 28.8027 130.755C29.181 130.772 29.5108 130.663 29.7919 130.429C30.7395 129.65 30.9929 128.69 30.5521 127.547C23.3518 108.797 23.6242 89.7448 31.3712 70.3913C31.7304 69.4909 31.4146 68.4632 30.6111 67.9196C30.4497 67.8068 30.2778 67.7268 30.0922 67.6776C28.7732 67.3514 27.8621 67.817 27.3554 69.0786ZM170.755 123.678C170.248 125.198 169.79 126.725 169.38 128.259C169.252 128.722 169.351 129.219 169.646 129.596C170.064 130.142 170.547 130.435 171.093 130.476C172.235 130.556 173.011 130.062 173.42 128.993C180.846 109.568 180.791 90.0935 173.252 70.5719C173.035 70.0016 172.539 69.5832 171.938 69.4621C170.845 69.2365 170.005 69.5708 169.419 70.4631C169.124 70.9185 169.061 71.4867 169.25 71.9933C175.966 89.4371 176.468 106.663 170.755 123.678ZM171.791 138.675C171.654 138.934 171.333 139.032 171.074 138.895C171.072 138.893 171.071 138.893 171.067 138.89L167.607 136.997C167.35 136.856 167.258 136.532 167.4 136.275C167.4 136.275 167.4 136.273 167.402 136.273L169.5 132.536C169.646 132.283 169.559 131.959 169.307 131.812L167.994 131.075C167.74 130.93 167.416 131.018 167.27 131.272C167.267 131.278 167.263 131.286 167.258 131.293L165.245 135.139C165.106 135.393 164.79 135.489 164.533 135.356L161.784 133.922C161.526 133.785 161.427 133.465 161.564 133.204C161.566 133.202 161.566 133.2 161.567 133.198L163.725 129.196C163.86 128.942 163.77 128.628 163.52 128.485L162.277 127.773C162.022 127.629 161.699 127.719 161.555 127.976C161.555 127.976 161.555 127.978 161.554 127.978L158.01 134.56C157.869 134.817 157.963 135.139 158.22 135.28C158.222 135.282 158.223 135.282 158.227 135.284L171.933 142.505C172.192 142.642 172.513 142.546 172.652 142.287C172.653 142.283 172.655 142.279 172.657 142.277L176.188 135.623C176.313 135.393 176.253 135.106 176.044 134.948L174.875 134.093C174.639 133.918 174.307 133.97 174.134 134.205C174.118 134.226 174.104 134.248 174.092 134.273L171.791 138.675ZM32.3343 137.024C34.2033 140.786 37.5059 142.183 40.798 138.929C43.8367 135.904 40.9663 132.649 39.4843 129.779C39.2118 129.264 38.8248 129.151 38.3267 129.44L25.2954 136.819C24.8928 137.055 24.754 137.565 24.9866 137.963C24.9883 137.967 24.9917 137.971 24.9952 137.976L25.5731 138.915C25.8942 139.446 26.3246 139.553 26.8626 139.241L31.2514 136.698C31.7321 136.425 32.0931 136.534 32.3343 137.024ZM160.592 147.344C160.457 147.237 160.433 147.04 160.538 146.903C160.54 146.901 160.542 146.898 160.544 146.896L163.051 143.713C163.357 143.327 163.369 142.938 163.088 142.544C162.855 142.222 162.574 141.949 162.244 141.723C161.887 141.479 161.397 141.565 161.135 141.916L158.676 145.231C158.426 145.569 158.138 145.604 157.809 145.34L155.639 143.592C155.27 143.286 155.23 142.95 155.518 142.579L158.145 139.251C158.402 138.921 158.374 138.616 158.06 138.335L157.156 137.526C156.771 137.188 156.425 137.225 156.12 137.635L151.768 143.362C151.486 143.74 151.53 144.07 151.899 144.351L164.063 153.622C164.303 153.803 164.643 153.754 164.823 153.514L169.2 147.739C169.521 147.313 169.526 146.884 169.212 146.449C169.099 146.297 168.967 146.164 168.815 146.051C168.271 145.651 167.508 145.764 167.103 146.304L164.391 149.895C164.254 150.08 164.098 150.1 163.921 149.955L160.592 147.344ZM39.3992 147.571C39.6283 147.389 39.9615 147.426 40.1454 147.653L40.1472 147.655L42.9447 151.067C43.1321 151.292 43.4653 151.323 43.6909 151.136C43.703 151.126 43.7152 151.114 43.7273 151.104L44.7287 150.103C44.9213 149.91 44.937 149.602 44.7651 149.391L42.1255 146.172C41.9485 145.957 41.9694 145.639 42.1741 145.448L44.4649 143.374C44.6836 143.18 45.0185 143.2 45.2129 143.42C45.2216 143.428 45.2285 143.438 45.2354 143.446L48.0572 147.003C48.2203 147.214 48.5154 147.27 48.7445 147.136L49.9748 146.412C50.2282 146.267 50.3167 145.943 50.171 145.688C50.1588 145.668 50.1466 145.647 50.131 145.629L45.4662 139.709C45.2875 139.477 44.9543 139.434 44.7217 139.612C44.7165 139.617 44.7113 139.621 44.7061 139.625L32.6033 149.391C32.3777 149.577 32.3447 149.912 32.5304 150.137L37.4122 155.983C37.5875 156.189 37.8877 156.23 38.1115 156.08L39.269 155.343C39.5155 155.185 39.5866 154.857 39.4287 154.611C39.42 154.599 39.4114 154.584 39.401 154.572L36.3275 150.726C36.1418 150.5 36.1731 150.166 36.3987 149.979L39.3992 147.571ZM153.949 152.31C154.093 150.759 153.451 149.477 152.021 148.464C150.093 147.081 148.26 147.202 146.523 148.825L143.738 151.428C142.983 152.135 142.953 152.87 143.653 153.635L153.201 164.002C153.595 164.437 154.004 164.451 154.431 164.049L155.238 163.302C155.705 162.867 155.724 162.414 155.299 161.94L151.792 158.119C151.269 157.549 151.322 157.038 151.948 156.589L152.901 155.914C153.567 155.44 154.187 155.491 154.758 156.07L157.989 159.313C158.327 159.651 158.716 159.735 159.159 159.565C159.617 159.397 159.999 159.087 160.304 158.636C160.537 158.297 160.53 157.969 160.28 157.647C158.496 155.259 156.542 153.717 154.421 153.017C154.074 152.909 153.916 152.673 153.949 152.31ZM53.9611 151.961C54.7247 152.564 54.9017 153.243 54.4922 153.998C54.2076 154.537 54.2266 155.183 54.5407 155.698C54.8305 156.18 55.2557 156.507 55.818 156.675C56.3733 156.849 56.9651 156.541 57.1438 155.988C57.8744 153.721 57.3487 151.828 55.5646 150.31C51.7675 147.091 46.5231 151.335 48.4043 155.639C48.8711 156.699 49.2442 157.801 49.5254 158.941C49.8082 160.123 49.2703 161.347 48.2117 161.932C47.1999 162.486 46.327 162.238 45.5964 161.185C45.3308 160.8 45.2632 160.385 45.3916 159.944C45.645 159.04 45.9938 157.992 45.2111 157.22C44.9144 156.931 44.5638 156.742 44.1629 156.654C43.7291 156.558 43.408 156.703 43.198 157.089C40.3762 162.344 47.7917 167.938 51.8421 162.406C53.7702 159.791 52.0955 157.27 51.2764 154.617C50.8825 153.348 51.273 152.414 52.4461 151.819C52.9338 151.565 53.5255 151.622 53.9611 151.961ZM137.988 159.604C137.716 159.202 137.787 158.867 138.205 158.603L141.725 156.408C142.15 156.135 142.231 155.784 141.966 155.36L141.459 154.527C141.195 154.102 140.638 153.973 140.213 154.236C140.206 154.24 140.199 154.244 140.192 154.248L134.431 158.045C133.997 158.326 133.921 158.683 134.202 159.118L142.242 171.341C142.788 172.176 143.427 172.258 144.158 171.583L144.387 171.366C144.973 170.826 145.041 170.233 144.592 169.581L141.711 165.399C141.48 165.056 141.569 164.592 141.91 164.361C141.916 164.357 141.921 164.352 141.928 164.35L145.013 162.348C145.372 162.113 145.543 161.667 145.435 161.239C145.338 160.861 145.142 160.543 144.845 160.287C144.402 159.901 143.941 159.881 143.458 160.227L140.673 162.229C140.338 162.471 139.871 162.396 139.63 162.061C139.625 162.053 139.618 162.045 139.613 162.037L137.988 159.604ZM64.896 160.556C65.3941 160.716 65.8036 160.995 66.1264 161.388C66.3832 161.694 66.7095 161.838 67.1034 161.823C67.7785 161.79 68.2245 161.438 68.4414 160.763C68.6184 160.184 68.4501 159.733 67.9347 159.413L61.0381 155.194C60.613 154.937 60.2191 154.98 59.8564 155.327C59.5909 155.569 59.3895 155.862 59.2541 156.207C59.0458 156.697 59.1777 157.071 59.6515 157.329L61.2672 158.197C61.6699 158.418 61.8208 158.919 61.6022 159.317C61.5952 159.329 61.5883 159.343 61.5796 159.356L55.1065 169.735C54.7213 170.363 54.834 170.88 55.4448 171.29L56.1564 171.76C56.6875 172.104 57.1161 172.008 57.4458 171.47L63.9797 160.911C64.1966 160.552 64.5021 160.435 64.896 160.556ZM73.1826 162.529C73.337 162.19 73.1896 161.788 72.8494 161.635L71.4472 160.993C71.1087 160.837 70.7079 160.986 70.5517 161.325L64.1775 175.247C64.0231 175.585 64.1705 175.987 64.5107 176.141L65.913 176.783C66.2514 176.939 66.6522 176.789 66.8084 176.451L73.1826 162.529ZM128.306 176.12C128.149 176.746 127.669 177.236 127.053 177.398C125.783 177.743 124.888 177.378 124.365 176.301C124.169 175.899 123.697 175.714 123.281 175.878L121.943 176.41C121.453 176.602 121.328 176.933 121.57 177.398C122.639 179.56 124.402 180.352 126.863 179.774C133.999 178.11 131.625 169.491 124.947 169.743C123.789 169.784 122.854 169.401 122.137 168.599C121.269 167.634 121.486 166.03 122.751 165.524C123.185 165.347 123.595 165.39 123.982 165.657C124.351 165.899 124.66 166.203 124.91 166.574C125.256 167.089 125.722 167.253 126.309 167.068L127.033 166.851C127.572 166.683 127.874 166.106 127.704 165.567C127.682 165.493 127.65 165.423 127.611 165.356C124.777 160.558 117.375 163.788 119.28 169.466C120.606 173.384 124.922 171.6 127.418 173.505C128.282 174.172 128.581 175.044 128.306 176.12ZM81.5074 167.536L81.9291 169.452C82.0819 170.119 82.5001 170.461 83.1821 170.477H83.5795C84.1505 170.494 84.4681 170.217 84.5323 169.645C84.8464 166.728 83.5882 164.956 80.7595 164.328C75.3102 163.109 73.1531 171.452 72.7539 175.661C72.5769 177.493 73.1271 178.888 74.4061 179.843C77.0977 181.86 79.5811 181.478 81.8563 178.699C82.252 178.223 82.1825 177.513 81.7 177.115C81.6202 177.05 81.5299 176.994 81.4345 176.951C81.0735 176.791 80.6918 176.734 80.2892 176.783C79.7581 176.838 79.3451 177.093 79.0466 177.542C78.7967 177.919 78.4808 178.204 78.0938 178.397C77.2765 178.803 76.2855 178.471 75.8794 177.655C75.7684 177.433 75.7094 177.187 75.7076 176.939C75.6833 174.539 76.9502 166.426 80.5425 166.703C81.0163 166.74 81.4084 167.079 81.5074 167.536ZM112.202 175.626L115.638 174.998C116.346 174.869 116.631 174.453 116.493 173.745L116.408 173.263C116.289 172.635 115.919 172.379 115.3 172.492L111.61 173.142C111.16 173.222 110.902 173.037 110.838 172.588L110.428 169.899C110.364 169.417 110.569 169.14 111.043 169.066L114.961 168.439C115.523 168.35 115.773 168.02 115.709 167.45L115.648 166.908C115.56 166.153 115.138 165.836 114.383 165.957L107.669 167.017C107.356 167.072 107.148 167.368 107.199 167.68L109.755 183.074C109.798 183.292 110.001 183.435 110.213 183.4L117.049 182.303C117.748 182.19 118.13 181.784 118.194 181.084C118.218 180.892 118.231 180.775 118.231 180.736C118.303 179.956 118.014 179.622 117.363 179.735L112.891 180.494C112.485 180.559 112.103 180.284 112.035 179.878L111.528 176.576C111.438 176.038 111.662 175.723 112.202 175.626ZM90.8439 167.678C90.9255 167.159 90.5698 166.67 90.0509 166.588L89.0981 166.439C88.5792 166.357 88.0916 166.713 88.01 167.232L85.7227 181.835C85.6412 182.354 85.997 182.842 86.5159 182.924L87.4685 183.074C87.9874 183.156 88.4751 182.799 88.5567 182.28L90.8439 167.678ZM94.2506 167.971L94.1535 183.21C94.1535 183.624 94.4866 183.962 94.9014 183.968L98.2403 183.993C101.595 184.02 104.337 181.191 104.365 177.675L104.389 173.649C104.417 170.133 101.718 167.261 98.3635 167.234L95.0229 167.222C94.6029 167.216 94.2575 167.55 94.2506 167.971Z" fill="#6CBE43"/>
<path d="M94.8281 14.4195C94.8281 14.0072 95.163 13.6729 95.576 13.6729H99.3853C102.474 13.6729 104.979 16.4953 104.979 19.9783V23.9803C104.979 27.4633 102.474 30.2858 99.3853 30.2858H95.576C95.163 30.2858 94.8281 29.9515 94.8281 29.5392V14.4195ZM97.7227 16.6738L97.6985 27.3792C97.6985 27.6992 97.9571 27.9577 98.2764 27.9577H98.8317C100.59 27.9638 102.02 26.1669 102.027 23.9434C102.027 23.9393 102.027 23.9352 102.027 23.9311V20.1219C102.028 17.9025 100.611 16.1015 98.856 16.0954H98.3007C97.9813 16.0954 97.7227 16.3538 97.7227 16.6738Z" fill="#F4F4F2"/>
<path d="M86.8927 14.6424L87.8472 14.4988C88.3747 14.4209 88.8642 14.7839 88.944 15.3111L91.1393 30C91.2174 30.5272 90.8546 31.0174 90.3288 31.0974L89.3743 31.241C88.8468 31.319 88.3574 30.9559 88.2775 30.4287L86.0823 15.7398C86.0025 15.2126 86.3651 14.7203 86.8927 14.6424Z" fill="#F4F4F2"/>
<path d="M113.106 17.7935L112.551 20.8314C112.499 21.1165 112.688 21.3914 112.973 21.4468L117.264 22.2181C117.549 22.2673 117.742 22.536 117.698 22.8211L117.481 24.2672C117.44 24.5565 117.172 24.7595 116.881 24.7185C116.872 24.7165 116.863 24.7165 116.853 24.7144L112.61 23.9185C112.327 23.8673 112.056 24.0478 111.996 24.3288L111.176 28.103C111.112 28.3882 111.293 28.6733 111.579 28.7369C111.589 28.7389 111.6 28.741 111.61 28.7431L116.372 29.5389C116.66 29.5882 116.856 29.861 116.806 30.1502V30.1543L116.528 31.5881C116.473 31.8732 116.199 32.062 115.914 32.0107L108.403 30.6958C108.113 30.6487 107.919 30.3758 107.966 30.0866C107.968 30.0805 107.968 30.0743 107.969 30.0702L110.73 14.8069C110.786 14.5218 111.06 14.3331 111.345 14.3844L118.663 15.7218C118.942 15.7772 119.13 16.0438 119.085 16.3249L118.88 17.7586C118.844 18.0499 118.58 18.2551 118.288 18.2202C118.28 18.2202 118.273 18.2181 118.266 18.2161L113.721 17.373C113.434 17.3218 113.16 17.5084 113.106 17.7935Z" fill="#F4F4F2"/>
<path d="M97.7237 16.6732C97.7237 16.3532 97.9823 16.0947 98.3016 16.0947H98.857C100.611 16.1009 102.029 17.9019 102.028 20.1213V23.9304C102.026 26.154 100.599 27.957 98.8431 27.957C98.8396 27.957 98.8344 27.957 98.8344 27.957H98.2791C97.9598 27.957 97.7012 27.6986 97.7012 27.3786L97.7237 16.6732Z" fill="#6CBE43"/>
<path d="M81.4604 30.1629C81.6929 29.7055 81.8266 29.207 81.8578 28.6676C81.9064 27.9517 82.2795 27.5065 82.9789 27.3301L83.5446 27.1743C84.3481 26.965 84.7455 27.2748 84.7386 28.1035C84.6657 33.6726 77.9392 35.771 75.3587 30.7065C73.4428 26.9322 70.9229 19.398 75.5999 17.2052C78.4373 15.8719 80.6152 16.6063 82.1337 19.4124C82.3107 19.7344 82.2865 20.04 82.0609 20.3293C81.5628 20.9713 80.9155 21.1416 80.1207 20.8359C79.5827 20.6349 79.1489 20.2862 78.8191 19.7878C78.328 19.0678 77.3457 18.8811 76.6238 19.3734C76.2941 19.599 76.0615 19.9416 75.973 20.3313C75.2979 23.4061 77.0698 27.8061 78.6368 30.3004C79.1193 31.0593 80.1224 31.287 80.8773 30.8111C81.1272 30.6491 81.3285 30.4275 81.4604 30.1629Z" fill="#F4F4F2"/>
<path d="M128.969 21.5209C128.631 20.7311 127.713 20.3681 126.92 20.7106C126.708 20.803 126.519 20.9383 126.366 21.1106C125.486 22.1116 125.486 23.4019 126.463 24.3413C128.476 26.2695 130.779 29.0182 129.441 31.9596C126.885 37.5534 119.025 34.9606 119.593 29.2356C119.633 28.8253 119.858 28.6038 120.268 28.573C120.894 28.5238 121.489 28.6736 122.052 29.0182C122.43 29.252 122.623 29.5884 122.63 30.0315L122.666 31.1638C122.682 31.6212 122.883 31.976 123.268 32.2242C124.457 32.9955 125.431 32.8786 126.185 31.8755C127.003 30.7986 126.899 29.2828 125.944 28.3187C123.822 26.1854 121.543 23.4839 123.473 20.3496C126.1 16.0707 132.454 18.6861 132.154 23.5557C132.122 24.0706 131.848 24.327 131.335 24.327C130.876 24.327 130.439 24.2388 130.021 24.0624C129.53 23.8532 129.278 23.4839 129.261 22.9527C129.252 22.4398 129.155 21.9619 128.969 21.5209Z" fill="#F4F4F2"/>
<path d="M64.4673 21.5702L65.5832 21.0554C65.9997 20.8626 66.4942 21.0451 66.6869 21.4615L72.9882 35.0982C73.1808 35.5146 72.9986 36.0089 72.582 36.2018L71.4662 36.7166C71.0497 36.9094 70.5551 36.7269 70.3625 36.3105L64.0612 22.6738C63.8686 22.2574 64.0508 21.7631 64.4673 21.5702Z" fill="#F4F4F2"/>
<path d="M58.3986 28.6916L64.9203 38.9149C65.3142 39.5344 65.2102 40.0513 64.6062 40.4698L64.004 40.88C63.4087 41.2903 62.9194 41.1898 62.5341 40.5785L55.9031 30.0782C55.6844 29.7274 55.2193 29.6228 54.8636 29.8444C54.8428 29.8567 54.8236 29.871 54.8063 29.8833L53.2392 31.0525C52.8053 31.3828 52.4271 31.3212 52.106 30.872L51.5385 30.0638C51.2782 29.6926 51.3684 29.1818 51.7381 28.9213C51.7519 28.911 51.7658 28.9028 51.7797 28.8946L58.9765 24.386C59.3861 24.1296 59.7609 24.1727 60.0976 24.5193C60.3631 24.8004 60.5679 25.1265 60.7119 25.4957C60.8733 25.906 60.7674 26.2321 60.3978 26.4721L58.6381 27.5942C58.1886 27.8772 58.1088 28.2423 58.3986 28.6916Z" fill="#F4F4F2"/>
<path d="M144.944 30.6814L143.377 33.0917C143.096 33.5327 143.172 33.8999 143.606 34.1891L146.33 36.0085C146.917 36.3942 147.07 36.909 146.789 37.551C146.684 37.8075 146.535 38.029 146.343 38.2136C145.99 38.5418 145.458 38.5767 145.065 38.2977L142.124 36.1398C141.739 35.8506 141.409 35.9059 141.135 36.308L137.988 40.9499C137.634 41.4812 137.197 41.5612 136.675 41.192L135.807 40.5889C135.293 40.2279 135.212 39.789 135.566 39.2741L144.1 26.9646C144.35 26.6118 144.656 26.5544 145.017 26.7964L150.912 30.8476C151.443 31.2086 151.49 31.623 151.056 32.0886L150.466 32.7163C150.096 33.1019 149.69 33.143 149.248 32.8373L145.909 30.4989C145.522 30.2281 145.201 30.2876 144.944 30.6814Z" fill="#F4F4F2"/>
<path d="M54.2754 44.9315C54.4594 44.47 54.442 43.9531 54.2268 43.51C52.6719 40.3039 47.7658 44.0638 44.9683 42.6546C38.844 39.5921 43.8837 31.418 49.6332 34.2999C50.0913 34.5338 50.244 34.8948 50.0913 35.385C49.9473 35.8261 49.6939 36.2179 49.3312 36.5543C48.8574 36.9891 48.342 37.0773 47.7884 36.8189C47.5801 36.7225 47.391 36.5973 47.2227 36.4455C46.9207 36.1953 46.5024 36.1399 46.1501 36.2999C44.5987 36.9994 44.3419 38.0352 45.3779 39.4096C45.8187 40.0106 46.5944 40.2711 47.3181 40.0598C49.7772 39.3604 53.2255 38.1788 55.3236 40.2403C57.807 42.6834 57.8625 45.1059 55.492 47.5099C53.4337 49.6001 51.2211 49.8196 48.8488 48.1725C48.4392 47.8915 48.3628 47.5366 48.6197 47.112C49.4561 45.7295 50.4523 45.4443 51.6098 46.2566C51.9066 46.4576 52.2328 46.5786 52.5868 46.6176C53.2463 46.6997 53.8086 46.1376 54.2754 44.9315Z" fill="#F4F4F2"/>
<path d="M155.431 46.57C154.723 48.8284 153.244 50.8612 150.995 52.6704C150.656 52.935 150.332 52.9268 150.018 52.6458C149.679 52.3484 149.41 52.0038 149.211 51.6099C149.015 51.2181 149.083 50.7443 149.379 50.4161L152.345 47.1731C152.923 46.5372 152.972 45.8664 152.489 45.1608L151.802 44.1352C151.359 43.4768 150.861 43.4316 150.308 44.0019L146.511 47.8479C146.101 48.2664 145.686 48.2705 145.268 47.8602L144.473 47.0644C144.064 46.6623 144.064 46.2521 144.473 45.8357L154.997 35.1549C155.327 34.8164 155.66 34.8103 155.998 35.1303C157.709 36.7569 161.604 39.7845 160.58 42.568C159.792 44.7136 158.285 45.8788 156.059 46.0634C155.736 46.088 155.528 46.2582 155.431 46.57ZM155.384 38.7589L153.01 41.2183C152.72 41.5117 152.723 41.9855 153.018 42.2747L153.022 42.2788L153.504 42.7362C154.558 43.7557 156.126 43.848 157.012 42.9414L157.228 42.7116C158.117 41.8009 157.982 40.2317 156.928 39.204L156.927 39.202L156.444 38.7445C156.151 38.4553 155.677 38.4594 155.387 38.7527C155.385 38.7568 155.384 38.7589 155.384 38.7589Z" fill="#F4F4F2"/>
<path d="M155.384 38.759C155.672 38.4636 156.144 38.4554 156.441 38.7426C156.442 38.7446 156.444 38.7446 156.444 38.7467L156.927 39.2041C157.982 40.2297 158.117 41.801 157.229 42.7117L157.01 42.9415C156.125 43.8481 154.556 43.7558 153.503 42.7363L153.02 42.2789C152.723 41.9917 152.716 41.5179 153.005 41.2225C153.006 41.2205 153.006 41.2205 153.008 41.2184L155.384 38.759Z" fill="#6CBE43"/>
<path d="M39.0366 50.3695L41.6762 47.186C41.9383 46.8578 42.419 46.8085 42.7522 47.0752C42.7678 47.0875 42.7834 47.0998 42.7973 47.1142L43.1582 47.4629C43.7448 48.0167 43.7692 48.5993 43.2312 49.2105L41.2302 51.4771C40.7478 52.0228 40.7877 52.5253 41.35 52.9848L43.7848 54.9971C44.1492 55.2966 44.6855 55.2494 44.9822 54.8904C44.9892 54.8822 44.9961 54.874 45.003 54.8658L47.6183 51.4546C47.8977 51.0813 48.427 51.0054 48.8001 51.2864C48.8296 51.3089 48.8574 51.3336 48.8852 51.3582L49.2461 51.7069C49.6574 52.1151 49.7043 52.7633 49.3555 53.2269L44.9908 58.8452C44.8173 59.0647 44.4998 59.1037 44.2794 58.9293L32.2113 49.5141C31.8173 49.2085 31.7739 48.8639 32.0793 48.4783L36.3711 43.065C36.6678 42.7019 37.1746 42.5912 37.5893 42.8004C37.7577 42.8804 37.9069 42.985 38.0353 43.1143C38.5976 43.6681 38.6341 44.2506 38.1447 44.8619L35.9146 47.6947C35.5606 48.1357 35.6092 48.5336 36.0586 48.8885L38.0717 50.4679C38.4258 50.7469 38.7485 50.7141 39.0366 50.3695Z" fill="#F4F4F2"/>
<path d="M156.939 100.001C156.939 131.446 131.448 156.939 100.002 156.939C68.5561 156.939 43.0645 131.446 43.0645 100.001C43.0645 68.5553 68.5561 43.0625 100.002 43.0625C131.448 43.0625 156.939 68.5553 156.939 100.001ZM149.019 100.001C149.019 72.9347 127.078 50.9946 100.014 50.9946C72.9501 50.9946 51.0092 72.9347 51.0092 100.001C51.0092 127.067 72.9501 149.007 100.014 149.007C127.078 149.007 149.019 127.067 149.019 100.001Z" fill="#F4F4F2"/>
<path d="M166.173 50.3572C165.852 49.8752 165.454 49.8075 164.979 50.1521L162.954 51.6351C162.471 51.9879 162.416 52.3982 162.785 52.8638L164.871 55.5407C165.123 55.8689 165.175 56.3099 165.003 56.6853C164.778 57.1837 164.425 57.4729 163.943 57.5529C163.589 57.6165 163.289 57.5242 163.039 57.276C162.187 56.4473 161.492 55.4361 160.953 54.2381C160.687 53.6679 160.293 53.5592 159.771 53.912L156.854 55.9365C156.411 56.2422 156.352 56.6073 156.673 57.034L159.108 60.277C159.486 60.7754 159.441 61.2411 158.976 61.6759L158.686 61.9405C158.108 62.4944 157.581 62.4431 157.107 61.7847L153.044 56.1663C152.723 55.7171 152.788 55.3314 153.237 55.0094L165.34 46.4373C165.798 46.1152 166.192 46.1809 166.522 46.6301L170.621 52.2361C171.006 52.7674 170.911 53.192 170.331 53.514L169.583 53.912C169.175 54.1397 168.656 54.0145 168.389 53.6228L166.173 50.3572Z" fill="#F4F4F2"/>
<path d="M149.019 100.001C149.019 127.067 127.078 149.007 100.014 149.007C72.9489 149.007 51.0098 127.067 51.0098 100.001C51.0098 72.9352 72.9506 50.9951 100.014 50.9951C127.078 50.9951 149.019 72.9372 149.019 100.001ZM92.5748 130.815C94.6885 131.724 96.4968 133.153 97.9996 135.106C98.2894 135.475 98.2652 135.826 97.9268 136.154C95.6117 138.388 92.7153 140.433 89.2341 142.292C88.9686 142.429 88.8645 142.757 89.0033 143.024L89.005 143.028L89.2341 143.473C89.4528 143.894 89.963 144.072 90.4038 143.883C93.6837 142.493 96.6044 140.489 99.1676 137.867C99.4904 137.541 100.016 137.537 100.344 137.859C100.417 137.931 100.476 138.015 100.518 138.109C101.804 141.026 103.588 143.397 105.87 145.223C106.253 145.531 106.767 145.623 107.232 145.465C107.69 145.305 108.039 145.063 108.28 144.741C108.891 143.904 108.876 143.086 108.232 142.281L105.446 138.796C104.948 138.169 105.098 137.9 105.892 137.988C109.622 138.423 113.041 137.816 116.152 136.169C134.174 127.067 128.437 100.014 124.808 84.8836C124.671 84.3052 124.454 83.7657 124.158 83.2673C123.91 82.8345 123.352 82.6888 122.915 82.9432C122.801 83.0088 122.703 83.0991 122.625 83.2057C120.489 86.1021 118.351 89.0005 116.215 91.8968C115.939 91.3676 115.498 90.5512 114.91 89.583C112.857 86.1985 110.814 84.0221 110.257 83.3144C103.916 75.2736 100.408 67.0994 99.093 56.4063C98.9559 55.2966 98.3503 54.7304 97.2726 54.7058C96.8613 54.6915 96.4655 54.8638 96.2 55.1756C87.1429 65.5589 80.3956 76.4695 75.9599 87.9072C69.2612 105.162 71.9736 125.921 92.5748 130.815Z" fill="#6CBE43"/>
<path d="M114.915 89.5852C115.35 90.3565 115.784 91.1278 116.22 91.899C112.647 95.2938 109.384 97.384 107.104 98.6517C103.182 100.832 97.9996 104.178 95.5058 106.126C94.2928 107.074 93.4841 108.43 93.0832 110.19C92.9149 110.961 92.5209 111.191 91.9013 110.877C91.2176 107.952 90.8045 105.023 90.6588 102.09C90.1364 91.4006 90.7074 80.7833 92.3699 70.2379C92.4098 69.9733 92.3023 69.8154 92.0437 69.7682L91.7417 69.7087C91.6688 69.6923 91.6254 69.721 91.6098 69.7928C91.0076 72.4287 90.2683 77.0665 89.3919 83.7043C88.0019 94.2579 88.5034 104.299 90.8982 113.831C89.942 118.516 90.4609 123.002 92.4532 127.285C92.9426 128.329 92.9843 129.506 92.573 130.817C71.9701 125.923 69.2576 105.162 75.9598 87.9114C80.3955 76.4737 87.1428 65.5652 96.1999 55.1798C96.4655 54.868 96.8612 54.6936 97.2725 54.71C98.3502 54.7347 98.9558 55.3008 99.0929 56.4105C100.407 67.1036 103.916 75.2778 110.257 83.3187C111.892 85.3905 113.443 87.4807 114.915 89.5852Z" fill="#B49961"/>
<path d="M35.0351 64.6292L39.483 66.9676C39.8925 67.185 39.9897 67.503 39.7728 67.9194L39.2053 69.0414C38.978 69.4865 38.433 69.6609 37.9888 69.4332C37.9853 69.4311 37.9801 69.4291 37.9766 69.4271L24.7284 62.4836C24.2303 62.219 24.1089 61.8416 24.3674 61.3513C26.2365 57.7596 28.3329 52.8038 33.5183 56.1309C36.3748 57.9503 36.0625 60.5801 34.6151 63.2077C34.268 63.8272 34.4086 64.301 35.0351 64.6292ZM27.814 60.7606L31.7569 62.859C31.946 62.9554 32.1786 62.8795 32.2757 62.6908L32.8068 61.6898C33.4263 60.5165 33.0012 59.0724 31.8541 58.4591L31.408 58.217C30.2557 57.6057 28.8153 58.0632 28.1906 59.2385L28.1889 59.2406L27.6578 60.2416C27.5589 60.4283 27.6283 60.66 27.814 60.7606Z" fill="#F4F4F2"/>
<path d="M169.235 63.6181L171.104 67.5483C171.229 67.8067 171.121 68.1165 170.864 68.2416C170.859 68.2436 170.856 68.2457 170.851 68.2478L169.513 68.8385C169.256 68.9493 168.957 68.8385 168.838 68.5862L166.944 64.6683C166.819 64.414 166.514 64.3053 166.257 64.4263L162.784 66.0652C162.526 66.1862 162.411 66.4919 162.531 66.7524L164.678 71.298C164.798 71.5585 164.683 71.8661 164.423 71.9851C164.388 72.0015 164.351 72.0138 164.315 72.02L162.892 72.3215C162.658 72.3748 162.418 72.26 162.314 72.0446L159.034 65.2693C158.906 65.0129 159.012 64.7012 159.267 64.574C159.27 64.5719 159.272 64.5719 159.275 64.5699L173.211 57.9033C173.468 57.7823 173.773 57.889 173.898 58.1454L177.166 64.7278C177.289 64.9658 177.211 65.2591 176.985 65.4027L175.767 66.1863C175.528 66.3421 175.207 66.2744 175.05 66.0345C175.04 66.018 175.03 65.9996 175.021 65.9811L172.803 61.7494C172.669 61.4971 172.357 61.3987 172.104 61.532L169.452 62.9432C169.214 63.0745 169.119 63.3699 169.235 63.6181Z" fill="#F4F4F2"/>
<path d="M27.8135 60.7605C27.6278 60.66 27.5584 60.4282 27.6573 60.2415L28.1884 59.2405C28.8114 58.0631 30.2518 57.6036 31.4041 58.2149L31.4075 58.2169L31.8536 58.459C33.0007 59.0723 33.4258 60.5164 32.8063 61.6897L32.2752 62.6907C32.1781 62.8794 31.9473 62.9553 31.7564 62.8589L27.8135 60.7605Z" fill="#6CBE43"/>
<path d="M27.3554 69.0788C27.8622 67.8173 28.7733 67.3517 30.0922 67.6799C30.2779 67.7291 30.4497 67.8091 30.6111 67.9219C31.4129 68.4655 31.7304 69.4932 31.3712 70.3937C23.6243 89.7471 23.3501 108.799 30.5521 127.549C30.9946 128.69 30.7412 129.652 29.7919 130.431C29.5108 130.665 29.1811 130.774 28.8027 130.758C27.7493 130.71 27.0344 130.191 26.656 129.203C18.9803 109.172 19.2146 89.1318 27.3554 69.0788Z" fill="#F4F4F2"/>
<path d="M170.755 123.678C176.469 106.663 175.966 89.4367 169.248 71.995C169.059 71.4863 169.122 70.9181 169.417 70.4647C170.003 69.5724 170.843 69.2381 171.936 69.4637C172.537 69.5847 173.033 70.0032 173.25 70.5734C180.789 90.0951 180.844 109.57 173.419 128.995C173.009 130.063 172.233 130.558 171.091 130.478C170.545 130.437 170.062 130.144 169.644 129.598C169.349 129.218 169.25 128.722 169.378 128.26C169.79 126.724 170.248 125.196 170.755 123.678Z" fill="#F4F4F2"/>
<path d="M91.8995 110.875L90.8981 113.829C88.5033 104.297 88 94.2538 89.3918 83.7022C90.2682 77.0644 91.0075 72.4266 91.6097 69.7907C91.6253 69.7189 91.6704 69.6902 91.7416 69.7066L92.0436 69.7661C92.3004 69.8153 92.4097 69.9712 92.3698 70.2358C90.7055 80.7813 90.1363 91.3964 90.6586 102.088C90.8027 105.021 91.2175 107.95 91.8995 110.875Z" fill="#8C6520"/>
<path d="M123.841 81.6221C121.832 84.5718 119.015 88.2024 115.187 91.9172C113.021 94.0198 110.692 96.2803 107.102 98.6494C101.967 102.038 99.1099 102.393 95.5037 106.124C93.7388 107.95 92.5831 109.712 91.8993 110.875L90.898 113.829C89.9417 118.514 90.4606 123 92.4529 127.283C92.9423 128.327 92.984 129.504 92.5727 130.815C94.6864 131.724 96.4947 133.153 97.9976 135.106C98.2874 135.475 98.2631 135.826 97.9247 136.154C95.6096 138.388 92.7133 140.433 89.232 142.292C89.2303 142.292 89.2303 142.294 89.2285 142.294C88.963 142.433 88.8624 142.761 89.0029 143.028L89.232 143.473C89.4507 143.894 89.9608 144.072 90.4016 143.883C93.6816 142.493 96.6023 140.489 99.1656 137.867C99.2367 137.795 99.3217 137.736 99.4154 137.693C99.8337 137.504 100.326 137.689 100.516 138.107C101.802 141.024 103.586 143.395 105.868 145.221C106.251 145.528 106.765 145.621 107.23 145.463C107.688 145.303 108.037 145.061 108.278 144.739C108.889 143.902 108.873 143.083 108.23 142.279L105.444 138.794C105.358 138.571 105.269 138.347 105.182 138.121C107.666 138.532 112.093 138.87 116.672 136.829C124.006 133.559 126.828 126.368 128.459 122.206C135.328 104.717 126.169 86.0794 123.841 81.6221ZM114.796 132.087C114.789 132.078 114.783 132.072 114.774 132.066C114.784 132.07 114.789 132.076 114.796 132.087ZM111.57 125.494C111.56 125.502 111.549 125.51 111.539 125.519C111.549 125.508 111.56 125.5 111.57 125.494ZM111.903 125.369C111.883 125.371 111.862 125.371 111.843 125.375C111.864 125.371 111.884 125.371 111.903 125.369ZM112.291 125.461C112.264 125.445 112.238 125.428 112.211 125.418C112.238 125.43 112.264 125.445 112.291 125.461ZM112.468 125.625C112.5 125.67 112.53 125.72 112.551 125.775C112.532 125.722 112.5 125.672 112.468 125.625ZM114.729 132.05C114.734 132.05 114.739 132.054 114.744 132.056C114.729 132.054 114.711 132.052 114.696 132.058C114.706 132.052 114.718 132.05 114.729 132.05Z" fill="#C6A868"/>
<path d="M171.791 138.675L174.094 134.275C174.229 134.017 174.55 133.916 174.811 134.052C174.835 134.064 174.856 134.078 174.878 134.095L176.048 134.95C176.256 135.108 176.317 135.395 176.192 135.625L172.66 142.279C172.529 142.542 172.209 142.646 171.947 142.513C171.944 142.511 171.94 142.509 171.937 142.507L158.23 135.286C157.972 135.149 157.873 134.829 158.01 134.568L158.013 134.562L161.557 127.98C161.699 127.723 162.022 127.631 162.279 127.775L162.281 127.777L163.523 128.489C163.773 128.63 163.864 128.946 163.728 129.2L161.571 133.202C161.43 133.459 161.524 133.781 161.781 133.922C161.781 133.922 161.785 133.924 161.788 133.926L164.537 135.36C164.794 135.494 165.11 135.397 165.248 135.143L167.261 131.297C167.395 131.036 167.716 130.934 167.977 131.069C167.984 131.073 167.99 131.077 167.997 131.081L169.311 131.818C169.563 131.965 169.649 132.287 169.504 132.542L167.406 136.279C167.262 136.536 167.353 136.858 167.609 137.001L167.61 137.003L171.071 138.897C171.328 139.038 171.65 138.944 171.791 138.685C171.789 138.679 171.791 138.675 171.791 138.675Z" fill="#F4F4F2"/>
<path d="M31.2493 136.698L26.8605 139.241C26.3225 139.555 25.8921 139.446 25.571 138.915L24.9932 137.975C24.7537 137.584 24.8838 137.069 25.2812 136.827C25.2864 136.825 25.2899 136.821 25.2951 136.819L38.3264 129.44C38.8244 129.151 39.2097 129.264 39.4839 129.779C40.966 132.648 43.8363 135.904 40.7976 138.929C37.5073 142.185 34.203 140.786 32.3339 137.024C32.0927 136.533 31.7318 136.425 31.2493 136.698ZM37.6981 133.081L34.6473 134.841C34.2447 135.077 34.1093 135.594 34.3436 135.996L34.3453 135.998L34.6941 136.601C35.3605 137.754 36.7228 138.215 37.7381 137.629L37.745 137.625L38.5763 137.143C39.588 136.556 39.8692 135.147 39.2028 133.996L38.854 133.381C38.6197 132.979 38.1025 132.843 37.6999 133.077C37.6999 133.081 37.6981 133.081 37.6981 133.081Z" fill="#F4F4F2"/>
<path d="M37.6984 133.081C38.0992 132.846 38.6164 132.979 38.8542 133.379L38.8559 133.381L39.2047 133.996C39.8694 135.147 39.59 136.554 38.5783 137.143L37.747 137.625C36.7335 138.214 35.3712 137.758 34.7013 136.608C34.7013 136.608 34.6978 136.603 34.6978 136.599L34.349 135.996C34.113 135.594 34.2466 135.077 34.6475 134.841L34.651 134.839L37.6984 133.081Z" fill="#6CBE43"/>
<path d="M164.389 149.9L167.101 146.308C167.505 145.769 168.269 145.656 168.812 146.056C168.965 146.169 169.097 146.302 169.21 146.454C169.524 146.889 169.519 147.317 169.198 147.744L164.821 153.518C164.64 153.758 164.3 153.808 164.061 153.627L151.897 144.355C151.528 144.074 151.482 143.744 151.765 143.367L156.118 137.64C156.423 137.229 156.768 137.195 157.154 137.531L158.058 138.339C158.372 138.62 158.4 138.926 158.143 139.256L155.515 142.583C155.226 142.952 155.266 143.291 155.637 143.596L157.806 145.344C158.136 145.609 158.426 145.574 158.674 145.235L161.133 141.921C161.395 141.57 161.884 141.484 162.242 141.728C162.572 141.953 162.853 142.226 163.085 142.548C163.366 142.942 163.354 143.332 163.049 143.718L160.541 146.901C160.432 147.034 160.449 147.231 160.583 147.342L160.588 147.346L163.915 149.961C164.095 150.105 164.252 150.085 164.389 149.9Z" fill="#F4F4F2"/>
<path d="M39.3995 147.571L36.3973 149.982C36.1716 150.168 36.1387 150.503 36.3244 150.728L39.3978 154.574C39.5765 154.806 39.5349 155.138 39.3041 155.319C39.292 155.329 39.2781 155.337 39.2659 155.346L38.1084 156.082C37.8845 156.232 37.5843 156.191 37.409 155.986L32.5273 150.14C32.3416 149.914 32.3728 149.58 32.5984 149.393L44.7012 139.627C44.9268 139.44 45.2618 139.471 45.4475 139.697C45.4509 139.703 45.4562 139.707 45.4596 139.713L50.1244 145.633C50.3032 145.865 50.2598 146.199 50.0272 146.378C50.0081 146.392 49.9891 146.406 49.9682 146.417L48.7378 147.141C48.5087 147.276 48.2137 147.219 48.0506 147.007L45.2288 143.45C45.0501 143.219 44.7169 143.176 44.4843 143.356C44.4756 143.364 44.4652 143.37 44.4566 143.379L42.1658 145.452C41.961 145.643 41.9402 145.959 42.1172 146.177L44.7568 149.395C44.9286 149.606 44.913 149.914 44.7204 150.107L43.719 151.108C43.5125 151.315 43.1758 151.315 42.9693 151.108C42.9572 151.095 42.9467 151.083 42.9363 151.071L40.1388 147.66C39.9566 147.43 39.6234 147.391 39.3944 147.573C39.4013 147.571 39.3995 147.571 39.3995 147.571Z" fill="#F4F4F2"/>
<path d="M154.419 153.021C156.542 153.721 158.494 155.263 160.278 157.651C160.528 157.973 160.535 158.301 160.302 158.639C159.997 159.089 159.615 159.398 159.157 159.569C158.714 159.737 158.325 159.653 157.987 159.316L154.756 156.073C154.185 155.495 153.567 155.442 152.899 155.917L151.946 156.592C151.32 157.042 151.268 157.552 151.79 158.122L155.297 161.944C155.722 162.418 155.703 162.873 155.236 163.306L154.429 164.053C154.004 164.455 153.593 164.438 153.199 164.005L143.651 153.639C142.951 152.875 142.979 152.139 143.736 151.431L146.521 148.828C148.257 147.206 150.089 147.085 152.019 148.467C153.449 149.481 154.093 150.763 153.947 152.313C153.916 152.672 154.074 152.908 154.419 153.021ZM146.606 152.648L149.175 155.396C149.385 155.624 149.74 155.641 149.969 155.433L150.789 154.662C151.724 153.794 151.809 152.367 150.981 151.468L150.667 151.13C149.832 150.231 148.399 150.211 147.462 151.081L147.46 151.083L146.641 151.842C146.408 152.051 146.389 152.41 146.598 152.642C146.603 152.642 146.606 152.648 146.606 152.648Z" fill="#F4F4F2"/>
<path d="M53.9612 151.961C53.5257 151.622 52.9339 151.565 52.4427 151.815C51.2696 152.41 50.8791 153.341 51.2731 154.613C52.0922 157.265 53.7686 159.784 51.8388 162.402C47.7883 167.936 40.3747 162.342 43.1947 157.085C43.403 156.699 43.7258 156.553 44.1596 156.65C44.5622 156.738 44.911 156.927 45.2078 157.216C45.9922 157.987 45.6416 159.035 45.3883 159.94C45.2598 160.381 45.3275 160.795 45.5931 161.181C46.3237 162.233 47.1966 162.484 48.2083 161.928C49.2687 161.343 49.8049 160.121 49.5221 158.937C49.2409 157.797 48.8678 156.695 48.401 155.635C46.5198 151.331 51.7642 147.087 55.5613 150.305C57.3453 151.825 57.8712 153.717 57.1406 155.983C56.9618 156.537 56.37 156.845 55.8147 156.67C55.2524 156.502 54.8255 156.176 54.5375 155.694C54.2233 155.179 54.206 154.535 54.4888 153.994C54.9019 153.243 54.7248 152.564 53.9612 151.961Z" fill="#F4F4F2"/>
<path d="M146.607 152.648C146.393 152.418 146.405 152.062 146.634 151.848L146.641 151.842L147.46 151.083C148.396 150.211 149.831 150.234 150.666 151.13L150.667 151.132L150.981 151.471C151.809 152.369 151.722 153.799 150.789 154.665L149.97 155.436C149.739 155.643 149.385 155.627 149.175 155.399L146.607 152.648Z" fill="#6CBE43"/>
<path d="M140.676 162.231L143.462 160.229C143.944 159.885 144.406 159.903 144.848 160.289C145.145 160.545 145.343 160.863 145.438 161.241C145.546 161.667 145.376 162.113 145.016 162.35L141.931 164.352C141.582 164.574 141.481 165.038 141.704 165.384C141.707 165.39 141.71 165.394 141.714 165.401L144.595 169.583C145.044 170.233 144.977 170.828 144.39 171.368L144.161 171.585C143.43 172.26 142.79 172.18 142.245 171.343L134.205 159.12C133.924 158.685 134 158.328 134.434 158.047L140.195 154.25C140.612 153.975 141.173 154.09 141.449 154.507C141.454 154.513 141.457 154.521 141.462 154.527L141.969 155.36C142.235 155.786 142.155 156.135 141.728 156.408L138.208 158.603C137.79 158.867 137.719 159.202 137.992 159.604L139.619 162.039C139.847 162.383 140.312 162.478 140.655 162.248C140.659 162.244 140.668 162.238 140.676 162.231Z" fill="#F4F4F2"/>
<path d="M63.9795 160.907L57.4456 171.467C57.1159 172.006 56.6855 172.102 56.1562 171.756L55.4447 171.286C54.8338 170.876 54.7211 170.357 55.1063 169.731L61.5794 159.352C61.8189 158.966 61.6957 158.46 61.3052 158.218C61.293 158.209 61.2792 158.201 61.2671 158.195L59.6513 157.327C59.1776 157.071 59.0439 156.696 59.2539 156.205C59.391 155.861 59.5924 155.567 59.8562 155.325C60.2172 154.981 60.611 154.936 61.038 155.192L67.9345 159.411C68.4482 159.733 68.6182 160.183 68.4412 160.761C68.2243 161.436 67.7783 161.791 67.1032 161.822C66.7093 161.838 66.3848 161.692 66.1262 161.387C65.8052 160.993 65.3956 160.716 64.8958 160.554C64.5019 160.435 64.1964 160.552 63.9795 160.907Z" fill="#F4F4F2"/>
<path d="M71.4478 160.991L72.85 161.633C73.1885 161.788 73.3376 162.188 73.1832 162.527L66.809 176.449C66.6546 176.787 66.2537 176.937 65.9136 176.781L64.5113 176.139C64.1729 175.983 64.0237 175.583 64.1781 175.245L70.5523 161.323C70.7085 160.984 71.1093 160.837 71.4478 160.991Z" fill="#F4F4F2"/>
<path d="M128.307 176.12C128.579 175.043 128.282 174.172 127.415 173.505C124.919 171.599 120.603 173.384 119.277 169.466C117.372 163.788 124.775 160.557 127.607 165.355C127.892 165.843 127.729 166.471 127.239 166.756C127.173 166.795 127.102 166.826 127.028 166.849L126.304 167.066C125.717 167.251 125.25 167.087 124.905 166.572C124.655 166.202 124.346 165.897 123.977 165.655C123.591 165.39 123.182 165.345 122.746 165.521C121.481 166.028 121.264 167.632 122.132 168.596C122.847 169.4 123.784 169.782 124.942 169.741C131.619 169.489 133.995 178.108 126.857 179.771C124.398 180.35 122.634 179.558 121.564 177.396C121.323 176.93 121.448 176.6 121.938 176.407L123.276 175.876C123.692 175.712 124.166 175.895 124.36 176.299C124.883 177.376 125.778 177.741 127.048 177.396C127.67 177.234 128.15 176.746 128.307 176.12Z" fill="#F4F4F2"/>
<path d="M80.5444 166.705C76.9521 166.428 75.6869 174.541 75.7095 176.941C75.7199 177.854 76.4696 178.584 77.3807 178.572C77.6289 178.57 77.8736 178.51 78.0957 178.399C78.481 178.207 78.7986 177.921 79.0485 177.544C79.3452 177.095 79.76 176.84 80.291 176.785C80.6937 176.736 81.0755 176.793 81.4365 176.953C82.0092 177.208 82.2694 177.872 82.0213 178.438C81.9796 178.533 81.9258 178.621 81.8581 178.701C79.583 181.482 77.0996 181.864 74.4079 179.845C73.1307 178.89 72.5789 177.495 72.7559 175.663C73.1533 171.456 75.3121 163.113 80.7613 164.33C83.5901 164.958 84.8483 166.73 84.5341 169.647C84.4699 170.217 84.1523 170.494 83.5814 170.479H83.184C82.5002 170.463 82.082 170.123 81.931 169.454L81.5093 167.538C81.4087 167.079 81.0164 166.74 80.5444 166.705Z" fill="#F4F4F2"/>
<path d="M112.202 175.626C111.664 175.723 111.438 176.04 111.527 176.578L112.034 179.88C112.101 180.287 112.483 180.561 112.889 180.496L117.361 179.737C118.012 179.624 118.302 179.958 118.229 180.738C118.229 180.779 118.217 180.894 118.193 181.087C118.128 181.786 117.746 182.192 117.047 182.305L110.211 183.402C110 183.437 109.797 183.294 109.753 183.076L107.197 167.682C107.147 167.37 107.355 167.074 107.667 167.019L114.382 165.959C115.136 165.838 115.558 166.156 115.647 166.91L115.707 167.452C115.772 168.022 115.522 168.352 114.959 168.441L111.041 169.068C110.567 169.14 110.362 169.417 110.426 169.901L110.836 172.59C110.9 173.04 111.157 173.226 111.608 173.144L115.298 172.494C115.917 172.381 116.287 172.64 116.407 173.265L116.492 173.747C116.629 174.455 116.343 174.873 115.636 175L112.202 175.626Z" fill="#F4F4F2"/>
<path d="M89.098 166.44L90.0507 166.59C90.5696 166.672 90.9253 167.158 90.8438 167.679L88.5565 182.282C88.4749 182.801 87.9873 183.158 87.4684 183.076L86.5157 182.926C85.9968 182.844 85.641 182.358 85.7226 181.837L88.0098 167.234C88.0897 166.715 88.5774 166.358 89.098 166.44Z" fill="#F4F4F2"/>
<path d="M94.2513 167.97C94.2582 167.552 94.6036 167.216 95.0219 167.224L98.3607 167.236C101.717 167.261 104.416 170.132 104.388 173.648V173.65L104.364 177.677C104.336 181.193 101.594 184.019 98.2392 183.995L94.9004 183.97C94.4856 183.964 94.1523 183.625 94.1523 183.211L94.2513 167.97ZM97.2657 170.502L97.146 180.869C97.1391 181.301 97.4843 181.658 97.9182 181.664H98.0987C99.8827 181.685 101.351 179.917 101.377 177.714V177.71L101.425 173.755C101.451 171.552 100.027 169.749 98.2427 169.728H98.0622C97.6284 169.722 97.2726 170.069 97.2657 170.502Z" fill="#F4F4F2"/>
<path d="M97.2651 170.502C97.272 170.069 97.6278 169.724 98.0599 169.731H98.2404C100.024 169.751 101.449 171.554 101.423 173.757L101.375 177.712C101.349 179.915 99.8821 181.685 98.0981 181.667H97.9159C97.4838 181.661 97.1384 181.304 97.1436 180.871L97.2651 170.502Z" fill="#6CBE43"/>
</svg>
