<svg width="200" height="200" viewBox="0 0 200 200" fill="none" xmlns="http://www.w3.org/2000/svg">
<path d="M100 200.002C44.7705 200.002 0 155.231 0 100C0 44.7685 44.7705 0 100 0C155.229 0 200 44.7685 200 100C199.998 155.229 155.229 200.002 100 200.002Z" fill="url(#paint0_linear_1101_2159)"/>
<path d="M197.692 100C197.692 88.6234 195.729 77.7105 192.153 67.5562H160.711C149.115 45.9037 126.282 31.168 99.9981 31.168C73.7183 31.168 50.8851 45.9017 39.2853 67.5562H7.84278C4.26886 77.7105 2.30371 88.6234 2.30371 100C2.30371 111.377 4.26888 122.292 7.84479 132.444H39.2853C50.8831 154.099 73.7163 168.834 99.9981 168.834C126.282 168.834 149.113 154.099 160.709 132.444H192.151C195.729 122.29 197.692 111.375 197.692 100Z" fill="#F4F4F2"/>
<path d="M99.999 31.1679C126.283 31.1679 149.114 45.9016 160.712 67.5562H192.154C195.73 77.7105 197.693 88.6234 197.693 100C197.693 111.377 195.73 122.292 192.152 132.444H160.71C149.116 154.099 126.283 168.834 99.999 168.834C73.7193 168.834 50.886 154.099 39.2862 132.444H7.84571C4.2698 122.292 2.30467 111.375 2.30467 100C2.30467 88.6234 4.26982 77.7105 7.84374 67.5562H39.2862C50.884 45.9016 73.7173 31.1679 99.999 31.1679ZM99.999 29.6309C74.3106 29.6309 50.7825 43.5482 38.3743 66.0191H7.84374H6.75862L6.39427 67.0465C2.66107 77.6527 0.767578 88.7389 0.767578 100.002C0.767578 111.265 2.66105 122.354 6.39624 132.956L6.75862 133.983H7.84571H38.3743C50.7845 156.454 74.3106 170.373 99.999 170.373C125.687 170.373 149.216 156.454 161.624 133.983H192.152H193.243L193.606 132.956C197.341 122.35 199.232 111.263 199.232 100.002C199.232 88.7428 197.341 77.6547 193.606 67.0465L193.243 66.0191H192.154H161.626C149.214 43.5482 125.687 29.6309 99.999 29.6309Z" fill="url(#paint1_linear_1101_2159)"/>
<path d="M185.277 99.9996C185.277 90.0683 183.563 80.5412 180.443 71.681H152.994C142.872 52.7781 122.942 39.918 99.999 39.918C77.0602 39.918 57.1259 52.7781 47.0034 71.681H19.5569C16.437 80.5412 14.7207 90.0683 14.7207 99.9996C14.7207 109.931 16.435 119.456 19.5569 128.32H47.0034C57.1259 147.221 77.0582 160.083 99.999 160.083C122.942 160.083 142.872 147.221 152.994 128.32H180.439C183.561 119.456 185.277 109.931 185.277 99.9996Z" fill="#6CBE43"/>
<path opacity="0.4" d="M171.213 100C171.213 91.7077 169.782 83.7515 167.175 76.3508H144.254C135.801 60.5659 119.157 49.8262 99.9997 49.8262C80.8419 49.8262 64.1968 60.5659 55.7428 76.3508H32.8239C30.2177 83.7495 28.7861 91.7057 28.7861 100C28.7861 108.295 30.2177 116.249 32.8239 123.652H55.7428C64.1968 139.435 80.8419 150.177 99.9997 150.177C119.157 150.177 135.803 139.435 144.254 123.652H167.173C169.782 116.247 171.213 108.293 171.213 100Z" fill="#6CBE43"/>
<path d="M47.8239 45.8519L41.5303 39.5762L40.6761 40.4323L39.4277 39.1879C39.4616 39.0486 39.5153 38.8674 39.5929 38.6504C39.6686 38.4314 39.7264 38.2601 39.7642 38.1347C39.8021 38.0113 39.82 37.848 39.82 37.6469C39.82 37.4458 39.7821 37.2427 39.7105 37.0317L40.9588 35.7793L49.4366 44.2292L47.8239 45.8519Z" fill="#F4F4F2"/>
<path d="M50.6732 38.3259L47.6508 34.4354C47.3243 34.0153 47.0734 33.5912 46.9002 33.1631C46.725 32.7331 46.6334 32.307 46.6194 31.8769C46.6055 31.4489 46.705 31.0287 46.9161 30.6186C47.1271 30.2084 47.4517 29.8341 47.8897 29.4937C48.3238 29.1572 48.7658 28.9362 49.2157 28.8326C49.6657 28.7291 50.0978 28.7371 50.5119 28.8585C50.9241 28.978 51.3163 29.1751 51.6886 29.4479C52.059 29.7206 52.4094 30.0671 52.7359 30.4852L55.7603 34.3737C56.0709 34.7779 56.3118 35.196 56.4811 35.6281C56.6503 36.0601 56.7379 36.4941 56.7439 36.9262C56.7518 37.3602 56.6523 37.7824 56.4472 38.1985C56.2422 38.6126 55.9315 38.981 55.5154 39.3055C55.0913 39.636 54.6533 39.8491 54.2013 39.9486C53.7473 40.0482 53.3133 40.0422 52.8992 39.9247C52.483 39.8112 52.0868 39.6161 51.7125 39.3433C51.3342 39.0686 50.9878 38.7301 50.6732 38.3259ZM53.9265 35.7953L50.9042 31.9068C50.1994 31.0009 49.61 30.7301 49.1381 31.0985C49.0087 31.198 48.9251 31.3175 48.8853 31.4549C48.8474 31.5942 48.8375 31.7236 48.8614 31.8531C48.8853 31.9805 48.937 32.1238 49.0186 32.2831C49.1003 32.4404 49.1739 32.5698 49.2436 32.6674C49.3113 32.7669 49.3949 32.8764 49.4925 33.0059L52.5149 36.8944C52.5985 37.0019 52.6861 37.1034 52.7757 37.201C52.8653 37.2985 52.9748 37.4021 53.1042 37.5096C53.2337 37.6191 53.3611 37.7027 53.4846 37.7625C53.608 37.8202 53.7414 37.8481 53.8827 37.8461C54.0241 37.8441 54.1535 37.7963 54.273 37.7007C54.4203 37.5872 54.5079 37.4439 54.5378 37.2727C54.5677 37.1014 54.5438 36.9202 54.4701 36.7311C54.3964 36.5419 54.3148 36.3747 54.2272 36.2294C54.1376 36.082 54.038 35.9387 53.9265 35.7953Z" fill="#F4F4F2"/>
<path d="M59.8738 31.6313L57.4527 27.3406C57.1918 26.8787 57.0067 26.4207 56.8972 25.9708C56.7877 25.5208 56.7598 25.0828 56.8076 24.6607C56.8574 24.2346 57.0187 23.8344 57.2874 23.4581C57.5562 23.0838 57.9305 22.7572 58.4143 22.4845C58.8942 22.2157 59.3621 22.0644 59.824 22.0265C60.2859 21.9907 60.71 22.0624 61.1002 22.2415C61.4925 22.4187 61.8509 22.6716 62.1794 22.9942C62.508 23.3167 62.8026 23.7129 63.0635 24.1749L65.4846 28.4635C65.7354 28.9075 65.9106 29.3575 66.0142 29.8095C66.1177 30.2635 66.1416 30.7035 66.0859 31.1335C66.0301 31.5616 65.8708 31.9678 65.608 32.3481C65.3432 32.7284 64.9828 33.0489 64.5229 33.3058C64.057 33.5686 63.591 33.7179 63.1271 33.7478C62.6652 33.7796 62.2372 33.71 61.8429 33.5347C61.4507 33.3595 61.0863 33.1126 60.7538 32.7901C60.4194 32.4655 60.1266 32.0793 59.8738 31.6313ZM63.4636 29.6044L61.0445 25.3157C60.4811 24.3162 59.9375 23.9618 59.4178 24.2585C59.2745 24.3381 59.175 24.4437 59.1152 24.5751C59.0575 24.7045 59.0296 24.8339 59.0336 24.9613C59.0375 25.0907 59.0694 25.2401 59.1252 25.4093C59.1809 25.5785 59.2366 25.7159 59.2904 25.8254C59.3442 25.9309 59.4099 26.0564 59.4875 26.1938L61.9086 30.4844C61.9763 30.6019 62.048 30.7154 62.1217 30.8249C62.1953 30.9344 62.2889 31.0519 62.4024 31.1794C62.5139 31.3068 62.6274 31.4083 62.7409 31.484C62.8544 31.5596 62.9818 31.6074 63.1212 31.6253C63.2625 31.6433 63.396 31.6154 63.5274 31.5417C63.6906 31.4501 63.7981 31.3227 63.8519 31.1554C63.9057 30.9902 63.9096 30.809 63.8638 30.6099C63.818 30.4128 63.7643 30.2356 63.6986 30.0783C63.6289 29.921 63.5532 29.7637 63.4636 29.6044Z" fill="#F4F4F2"/>
<path d="M68.4051 21.2999L68.3912 21.2621C68.2239 20.7683 68.1184 20.3183 68.0785 19.9181C68.0367 19.5199 68.0606 19.1476 68.1502 18.8011C68.2398 18.4547 68.4171 18.156 68.6859 17.9032C68.9527 17.6503 69.311 17.4512 69.757 17.3019C70.197 17.1526 70.6012 17.0968 70.9676 17.1346C71.3339 17.1705 71.6564 17.2999 71.9392 17.5169C72.2199 17.7359 72.4668 18.0147 72.6798 18.3591C72.8909 18.7016 73.0821 19.1177 73.2513 19.6075L73.2692 19.6593C73.9939 21.8036 73.544 23.1516 71.9173 23.6991C70.2986 24.2446 69.1278 23.4462 68.4051 21.2999ZM70.0557 20.6648L70.0795 20.7344C70.1632 20.9833 70.2368 21.1884 70.3005 21.3497C70.3662 21.5129 70.4419 21.6782 70.5315 21.8434C70.6211 22.0107 70.7087 22.1341 70.7943 22.2217C70.882 22.3054 70.9835 22.3671 71.0989 22.4049C71.2144 22.4407 71.3379 22.4348 71.4733 22.391C71.6366 22.3372 71.754 22.2456 71.8277 22.1202C71.9013 21.9968 71.9273 21.8295 71.9113 21.6185C71.8934 21.4094 71.8596 21.2043 71.8098 21.0032C71.758 20.8021 71.6804 20.5453 71.5748 20.2307L71.5549 20.173C71.4852 19.9639 71.4255 19.7947 71.3757 19.6632C71.3279 19.5318 71.2682 19.3925 71.2005 19.2451C71.1308 19.0978 71.0671 18.9823 71.0034 18.9027C70.9416 18.8191 70.868 18.7454 70.7844 18.6797C70.7028 18.614 70.6131 18.5781 70.5156 18.5702C70.42 18.5642 70.3145 18.5781 70.203 18.616C70.0696 18.6618 69.9641 18.7295 69.8904 18.8211C69.8147 18.9107 69.767 19.0122 69.7451 19.1217C69.7232 19.2312 69.7292 19.3765 69.757 19.5517C69.7869 19.729 69.8247 19.8962 69.8665 20.0555C69.9083 20.2148 69.972 20.4179 70.0557 20.6648ZM74.5594 28.3084L74.2926 15.5239L75.4255 15.1416L75.6863 27.9301L74.5594 28.3084ZM76.8471 23.95L76.8292 23.8922C76.6679 23.3985 76.5664 22.9524 76.5245 22.5562C76.4847 22.158 76.5087 21.7877 76.5982 21.4433C76.6878 21.1008 76.865 20.8021 77.1318 20.5512C77.3986 20.2984 77.753 20.0993 78.199 19.95C78.639 19.8007 79.0432 19.7449 79.4096 19.7847C79.7759 19.8205 80.0985 19.95 80.3792 20.165C80.6599 20.38 80.9068 20.6588 81.1179 21.0032C81.3289 21.3457 81.5201 21.7618 81.6893 22.2516L81.7092 22.3094C82.434 24.4537 81.984 25.8016 80.3573 26.3512C78.7426 26.8967 77.5719 26.0943 76.8471 23.95ZM78.5116 23.3467L78.5235 23.3825C78.6072 23.6314 78.6808 23.8365 78.7465 23.9977C78.8103 24.161 78.8879 24.3263 78.9775 24.4915C79.0671 24.6568 79.1547 24.7842 79.2423 24.8698C79.3279 24.9535 79.4315 25.0152 79.5449 25.051C79.6604 25.0869 79.7839 25.0829 79.9193 25.0351C80.0826 24.9813 80.202 24.8897 80.2737 24.7643C80.3473 24.6389 80.3753 24.4716 80.3573 24.2625C80.3394 24.0535 80.3055 23.8464 80.2557 23.6473C80.204 23.4482 80.1263 23.1914 80.0188 22.8748L80.0089 22.8449C79.9372 22.6319 79.8755 22.4587 79.8277 22.3273C79.7779 22.1958 79.7202 22.0545 79.6525 21.9012C79.5848 21.7479 79.5191 21.6324 79.4534 21.5507C79.3877 21.4691 79.316 21.3975 79.2363 21.3298C79.1547 21.2621 79.0651 21.2262 78.9656 21.2163C78.866 21.2063 78.7605 21.2222 78.647 21.2601C78.5335 21.2999 78.4419 21.3517 78.3702 21.4174C78.2986 21.4831 78.2508 21.5667 78.2229 21.6663C78.195 21.7658 78.1811 21.8693 78.1791 21.9749C78.1771 22.0804 78.1951 22.2118 78.2289 22.3711C78.2628 22.5303 78.3025 22.6797 78.3444 22.8151C78.3822 22.9604 78.44 23.1376 78.5116 23.3467Z" fill="#F4F4F2"/>
<path d="M93.0844 19.9761L92.8813 15.9582C92.7399 13.1329 93.831 11.6635 96.1605 11.548C98.494 11.4306 99.7305 12.7845 99.8738 15.6078L100.073 19.566C100.097 20.0438 100.083 20.4858 100.033 20.894C99.9834 21.3022 99.8798 21.6924 99.7285 22.0627C99.5772 22.435 99.3761 22.7556 99.1252 23.0224C98.8744 23.2912 98.5518 23.5062 98.1556 23.6715C97.7614 23.8367 97.3034 23.9343 96.7857 23.9602C96.272 23.9861 95.8101 23.9363 95.4 23.8148C94.9898 23.6894 94.6474 23.5122 94.3746 23.2793C94.0998 23.0483 93.8689 22.7576 93.6817 22.4091C93.4926 22.0607 93.3532 21.6884 93.2596 21.2882C93.168 20.892 93.1083 20.4539 93.0844 19.9761ZM97.6857 20.2907L97.4269 15.1259C97.3672 13.9492 96.9769 13.3778 96.2561 13.4136C96.0391 13.4236 95.8579 13.4893 95.7146 13.6028C95.5692 13.7203 95.4657 13.8736 95.4039 14.0667C95.3422 14.2579 95.3024 14.445 95.2825 14.6302C95.2626 14.8173 95.2586 15.0164 95.2686 15.2335L95.5294 20.4002C95.5891 21.5729 95.9774 22.1423 96.6942 22.1045C97.4149 22.0667 97.7454 21.4634 97.6857 20.2907Z" fill="#F4F4F2"/>
<path d="M104.851 23.6994L106.021 11.791L108.642 12.0479C109.237 12.1056 109.755 12.2151 110.197 12.3704C110.637 12.5277 111.017 12.7427 111.331 13.0155C111.646 13.2903 111.873 13.6387 112.01 14.0668C112.146 14.4929 112.186 14.9886 112.132 15.5581C112.108 15.8049 112.076 16.026 112.04 16.2171C112.004 16.4102 111.941 16.6272 111.853 16.8701C111.765 17.1131 111.656 17.3261 111.527 17.5073C111.397 17.6885 111.22 17.8597 110.995 18.027C110.77 18.1922 110.509 18.3216 110.214 18.4152C110.706 20.7527 111.14 22.7338 111.515 24.3565L109.022 24.1116L108.198 18.4929L107.799 18.451L107.26 23.9364L104.851 23.6994ZM107.943 16.9837L108.632 17.0513C108.817 17.0693 108.982 17.0235 109.125 16.912C109.269 16.8025 109.38 16.6551 109.46 16.47C109.537 16.2868 109.597 16.1156 109.637 15.9583C109.677 15.803 109.705 15.6536 109.719 15.5143C109.733 15.3729 109.737 15.2276 109.733 15.0742C109.727 14.9209 109.709 14.7517 109.675 14.5645C109.643 14.3754 109.573 14.2181 109.468 14.0887C109.362 13.9613 109.225 13.8876 109.058 13.8716L108.257 13.794L107.943 16.9837Z" fill="#F4F4F2"/>
<path d="M116.28 21.4114L117.317 17.3258C118.014 14.5861 119.503 13.507 121.783 14.0864C122.265 14.2098 122.677 14.381 123.019 14.604C123.362 14.827 123.632 15.0819 123.83 15.3686C124.027 15.6573 124.164 15.9838 124.244 16.3502C124.323 16.7185 124.351 17.1028 124.327 17.505C124.303 17.9052 124.232 18.3372 124.116 18.7932L123.943 19.4781L121.701 18.9067L121.908 18.0963C121.96 17.8952 122 17.714 122.028 17.5587C122.056 17.4034 122.071 17.2282 122.075 17.0291C122.081 16.832 122.062 16.6628 122.02 16.5234C121.976 16.384 121.896 16.2566 121.781 16.1391C121.663 16.0217 121.51 15.942 121.323 15.8942C120.606 15.7131 120.102 16.1889 119.812 17.3337L118.539 22.3392C118.251 23.4781 118.464 24.1371 119.18 24.3203C119.893 24.5015 120.399 24.0037 120.702 22.821L120.937 21.8932L119.609 21.5548L120.037 19.8743L123.708 20.8081L122.191 26.7733L120.58 26.3651L120.491 25.4771C120.214 25.7379 119.869 25.9151 119.455 26.0147C119.041 26.1122 118.641 26.1123 118.255 26.0127C117.839 25.9072 117.478 25.734 117.175 25.493C116.873 25.2541 116.644 24.9813 116.487 24.6747C116.329 24.3681 116.218 24.0236 116.154 23.6493C116.088 23.271 116.07 22.8947 116.096 22.5244C116.124 22.1561 116.186 21.7837 116.28 21.4114Z" fill="#F4F4F2"/>
<path d="M125.967 28.0344L133.017 18.0254L134.988 18.8636L132.693 30.8855L130.494 29.9557L131.04 27.4072L129.602 26.7999L128.175 28.9741L125.967 28.0344ZM130.339 25.4898L131.478 25.9716L132.655 21.6491L130.339 25.4898Z" fill="#F4F4F2"/>
<path d="M136.322 32.794L142.58 22.5859L144.065 23.4958L143.032 30.2076L146.303 24.8697L148.016 25.917L141.758 36.125L140.33 35.251L141.567 28.2186L138.096 33.8811L136.322 32.794Z" fill="#F4F4F2"/>
<path d="M145.606 38.9768L153.077 29.6328L154.966 31.142L147.494 40.49L145.606 38.9768Z" fill="#F4F4F2"/>
<path d="M153.875 40.7149L156.712 37.9493C158.739 35.9762 160.557 35.8169 162.171 37.4735C162.512 37.8239 162.767 38.1803 162.938 38.5427C163.109 38.907 163.201 39.2574 163.217 39.6039C163.231 39.9463 163.175 40.2967 163.051 40.6511C162.926 41.0056 162.749 41.348 162.518 41.6746C162.285 42.0011 162 42.3296 161.662 42.6621L160.923 43.3809L159.262 41.6785L160.053 40.908C160.208 40.7587 160.34 40.6233 160.445 40.5078C160.551 40.3903 160.664 40.249 160.782 40.0797C160.901 39.9145 160.983 39.7631 161.028 39.6297C161.074 39.4944 161.084 39.351 161.06 39.1997C161.036 39.0504 160.961 38.909 160.837 38.7836C160.347 38.2798 159.682 38.4411 158.838 39.2634L155.139 42.8692C154.299 43.6895 154.122 44.3505 154.609 44.8503C154.757 44.9996 154.92 45.0832 155.105 45.1011C155.29 45.119 155.483 45.0753 155.683 44.9657C155.884 44.8582 156.067 44.7388 156.234 44.6073C156.399 44.4759 156.58 44.3167 156.774 44.1295L157.654 43.2694L159.304 44.9637L158.579 45.6686C158.247 45.9792 157.918 46.248 157.596 46.469C157.273 46.69 156.927 46.8692 156.555 47.0105C156.182 47.1499 155.82 47.2176 155.471 47.2156C155.121 47.2136 154.755 47.128 154.372 46.9548C153.99 46.7816 153.624 46.5148 153.269 46.1524C152.909 45.7821 152.64 45.3998 152.467 45.0096C152.294 44.6193 152.206 44.243 152.204 43.8846C152.202 43.5242 152.274 43.1559 152.419 42.7796C152.563 42.4033 152.756 42.0489 152.999 41.7203C153.235 41.3858 153.528 41.0533 153.875 40.7149Z" fill="#F4F4F2"/>
<path d="M40.8223 166.825L46.5446 160.026L45.6187 159.247L46.7536 157.899C46.8969 157.921 47.0801 157.963 47.3031 158.019C47.5261 158.077 47.7033 158.12 47.8308 158.146C47.9582 158.174 48.1234 158.178 48.3225 158.16C48.5216 158.142 48.7247 158.089 48.9278 157.999L50.2797 159.138L42.5704 168.297L40.8223 166.825Z" fill="#F4F4F2"/>
<path d="M48.9717 168.832L51.6954 164.729C51.9901 164.287 52.3127 163.915 52.6651 163.614C53.0155 163.313 53.3918 163.088 53.794 162.939C54.1962 162.79 54.6243 162.752 55.0822 162.819C55.5382 162.887 55.9981 163.076 56.46 163.383C56.9179 163.688 57.2664 164.036 57.5093 164.43C57.7502 164.824 57.8816 165.237 57.8976 165.667C57.9155 166.097 57.8537 166.531 57.7144 166.969C57.575 167.407 57.358 167.849 57.0633 168.291L54.3395 172.394C54.0588 172.82 53.7383 173.181 53.3819 173.478C53.0255 173.776 52.6432 173.997 52.2351 174.141C51.8289 174.286 51.3948 174.328 50.9369 174.264C50.4789 174.2 50.029 174.025 49.589 173.732C49.143 173.438 48.7985 173.089 48.5616 172.691C48.3227 172.293 48.1912 171.879 48.1693 171.451C48.1454 171.021 48.2032 170.583 48.3405 170.141C48.4779 169.697 48.687 169.26 48.9717 168.832ZM52.4063 171.112L55.13 167.009C55.7651 166.053 55.8329 165.41 55.3331 165.077C55.1977 164.986 55.0563 164.944 54.915 164.95C54.7716 164.956 54.6442 164.992 54.5307 165.053C54.4172 165.117 54.2978 165.211 54.1743 165.34C54.0489 165.468 53.9513 165.579 53.8796 165.675C53.808 165.77 53.7283 165.886 53.6407 166.017L50.917 170.121C50.8413 170.234 50.7716 170.35 50.7079 170.465C50.6442 170.579 50.5825 170.716 50.5207 170.873C50.459 171.031 50.4192 171.178 50.4033 171.315C50.3874 171.451 50.4033 171.586 50.451 171.719C50.4988 171.851 50.5845 171.958 50.7119 172.042C50.8672 172.145 51.0305 172.183 51.2017 172.155C51.3729 172.13 51.5382 172.05 51.6935 171.921C51.8488 171.789 51.9822 171.66 52.0917 171.53C52.2012 171.403 52.3067 171.263 52.4063 171.112Z" fill="#F4F4F2"/>
<path d="M58.8537 174.975L61.008 170.545C61.2409 170.067 61.5118 169.655 61.8204 169.311C62.129 168.966 62.4714 168.692 62.8497 168.492C63.228 168.291 63.6481 168.196 64.11 168.206C64.572 168.212 65.0518 168.337 65.5496 168.58C66.0433 168.821 66.4376 169.12 66.7283 169.48C67.019 169.838 67.2021 170.229 67.2778 170.653C67.3535 171.077 67.3495 171.515 67.2698 171.969C67.1902 172.423 67.0329 172.889 66.7999 173.367L64.6456 177.795C64.4226 178.255 64.1538 178.653 63.8392 178.997C63.5246 179.34 63.1762 179.608 62.7919 179.808C62.4077 180.005 61.9836 180.102 61.5217 180.102C61.0577 180.1 60.5899 179.985 60.116 179.756C59.6342 179.521 59.2479 179.222 58.9592 178.86C58.6705 178.497 58.4854 178.103 58.4057 177.681C58.3261 177.257 58.3241 176.817 58.4017 176.359C58.4774 175.897 58.6287 175.437 58.8537 174.975ZM62.559 176.777L64.7134 172.349C65.2151 171.316 65.1972 170.671 64.6596 170.408C64.5122 170.336 64.3689 170.314 64.2275 170.338C64.0881 170.364 63.9647 170.416 63.8612 170.491C63.7576 170.569 63.6521 170.679 63.5446 170.822C63.4371 170.965 63.3555 171.089 63.2977 171.192C63.24 171.298 63.1743 171.421 63.1066 171.567L60.9523 175.995C60.8925 176.118 60.8388 176.242 60.791 176.363C60.7432 176.487 60.6994 176.628 60.6596 176.793C60.6178 176.958 60.5999 177.11 60.6018 177.245C60.6038 177.382 60.6377 177.514 60.7034 177.639C60.7691 177.765 60.8686 177.86 61.004 177.926C61.1713 178.008 61.3385 178.024 61.5057 177.974C61.673 177.924 61.8243 177.824 61.9617 177.675C62.0991 177.526 62.2126 177.378 62.3041 177.235C62.3937 177.096 62.4794 176.94 62.559 176.777Z" fill="#F4F4F2"/>
<path d="M70.9631 175.053L70.975 175.015C71.1224 174.513 71.2916 174.085 71.4867 173.735C71.6818 173.382 71.9148 173.091 72.1856 172.858C72.4564 172.626 72.7729 172.484 73.1373 172.43C73.5016 172.377 73.9078 172.417 74.3598 172.548C74.8058 172.677 75.1702 172.862 75.4489 173.103C75.7277 173.342 75.9188 173.633 76.0243 173.973C76.1298 174.314 76.1736 174.684 76.1497 175.086C76.1278 175.489 76.0462 175.939 75.9049 176.438L75.8889 176.488C75.2537 178.662 74.1149 179.511 72.4683 179.029C70.8317 178.553 70.3279 177.227 70.9631 175.053ZM71.9984 184.323L79.0945 173.687L80.2433 174.021L73.1393 184.655L71.9984 184.323ZM72.6813 175.477L72.6614 175.546C72.5877 175.799 72.532 176.008 72.4922 176.18C72.4504 176.351 72.4205 176.528 72.3966 176.717C72.3747 176.904 72.3747 177.058 72.3986 177.177C72.4205 177.297 72.4703 177.404 72.5439 177.5C72.6176 177.595 72.7231 177.663 72.8585 177.703C73.0238 177.752 73.1732 177.745 73.3046 177.683C73.436 177.621 73.5534 177.5 73.6589 177.318C73.7645 177.137 73.8541 176.95 73.9257 176.755C73.9994 176.562 74.081 176.305 74.1746 175.986L74.1925 175.929C74.2543 175.716 74.302 175.542 74.3379 175.407C74.3717 175.272 74.4036 175.124 74.4335 174.965C74.4613 174.804 74.4733 174.672 74.4693 174.571C74.4653 174.467 74.4474 174.366 74.4155 174.264C74.3857 174.163 74.3339 174.081 74.2582 174.021C74.1846 173.96 74.089 173.912 73.9736 173.88C73.8382 173.84 73.7127 173.836 73.5992 173.868C73.4857 173.9 73.3901 173.954 73.3085 174.033C73.2289 174.111 73.1493 174.23 73.0716 174.394C72.994 174.555 72.9283 174.714 72.8745 174.869C72.8168 175.023 72.755 175.226 72.6813 175.477ZM76.3707 182.059L76.3886 182.001C76.538 181.506 76.7092 181.081 76.9043 180.733C77.0995 180.383 77.3304 180.094 77.6012 179.863C77.872 179.632 78.1885 179.491 78.5489 179.437C78.9113 179.383 79.3175 179.421 79.7694 179.552C80.2154 179.684 80.5778 179.869 80.8566 180.108C81.1353 180.349 81.3264 180.638 81.4339 180.976C81.5415 181.314 81.5833 181.685 81.5614 182.087C81.5395 182.489 81.4578 182.939 81.3165 183.439L81.2986 183.497C80.6654 185.671 79.5246 186.517 77.878 186.037C76.2394 185.557 75.7376 184.231 76.3707 182.059ZM78.079 182.515L78.0691 182.553C77.9954 182.804 77.9397 183.015 77.8978 183.186C77.858 183.357 77.8262 183.534 77.8043 183.724C77.7824 183.911 77.7824 184.064 77.8043 184.184C77.8262 184.303 77.8759 184.411 77.9496 184.506C78.0233 184.602 78.1288 184.667 78.2642 184.707C78.4295 184.757 78.5788 184.749 78.7082 184.687C78.8396 184.628 78.9571 184.506 79.0646 184.323C79.1701 184.142 79.2597 183.955 79.3314 183.761C79.4031 183.568 79.4867 183.311 79.5803 182.991L79.5882 182.959C79.652 182.742 79.6997 182.565 79.7356 182.429C79.7694 182.294 79.8033 182.145 79.8352 181.981C79.867 181.818 79.8789 181.685 79.871 181.581C79.865 181.478 79.8471 181.376 79.8192 181.275C79.7913 181.173 79.7396 181.091 79.6619 181.028C79.5863 180.964 79.4907 180.916 79.3752 180.882C79.2597 180.849 79.1542 180.839 79.0586 180.853C78.9631 180.866 78.8755 180.906 78.7958 180.972C78.7162 181.04 78.6445 181.115 78.5848 181.201C78.523 181.287 78.4593 181.406 78.3976 181.555C78.3359 181.707 78.2822 181.85 78.2384 181.987C78.1946 182.127 78.1408 182.302 78.079 182.515Z" fill="#F4F4F2"/>
<path d="M93.269 184.548L93.4163 180.528C93.5198 177.703 94.7364 176.333 97.0659 176.417C99.3994 176.502 100.516 177.958 100.413 180.783L100.267 184.743C100.25 185.221 100.198 185.661 100.112 186.065C100.027 186.467 99.8912 186.848 99.708 187.204C99.5248 187.561 99.2959 187.863 99.0231 188.108C98.7503 188.351 98.4099 188.542 98.0017 188.672C97.5935 188.803 97.1296 188.859 96.6119 188.841C96.0982 188.821 95.6423 188.733 95.2461 188.576C94.8479 188.417 94.5233 188.21 94.2704 187.955C94.0176 187.7 93.8125 187.391 93.6552 187.029C93.4979 186.667 93.3884 186.282 93.3307 185.876C93.273 185.468 93.253 185.026 93.269 184.548ZM97.8265 185.259L98.0156 180.09C98.0594 178.911 97.719 178.31 96.9962 178.284C96.7792 178.276 96.594 178.324 96.4387 178.428C96.2834 178.531 96.1679 178.675 96.0902 178.862C96.0126 179.047 95.9549 179.23 95.919 179.413C95.8832 179.596 95.8633 179.795 95.8533 180.013L95.6642 185.181C95.6224 186.356 95.9589 186.955 96.6756 186.981C97.4004 187.007 97.7846 186.434 97.8265 185.259Z" fill="#F4F4F2"/>
<path d="M105.91 188.53L104.753 176.621L107.373 176.367C107.968 176.309 108.498 176.315 108.96 176.383C109.424 176.45 109.836 176.59 110.198 176.797C110.561 177.004 110.851 177.304 111.066 177.693C111.282 178.083 111.419 178.565 111.473 179.132C111.497 179.379 111.509 179.6 111.511 179.797C111.513 179.992 111.493 180.217 111.453 180.472C111.413 180.729 111.347 180.958 111.256 181.159C111.164 181.362 111.023 181.567 110.834 181.772C110.644 181.977 110.415 182.155 110.145 182.306C111.078 184.504 111.887 186.362 112.57 187.881L110.075 188.124L108.18 182.772L107.781 182.81L108.315 188.295L105.91 188.53ZM107.644 181.342L108.333 181.276C108.518 181.259 108.671 181.181 108.791 181.046C108.91 180.91 108.992 180.745 109.032 180.548C109.073 180.353 109.097 180.173 109.107 180.014C109.115 179.853 109.113 179.702 109.099 179.56C109.085 179.419 109.062 179.274 109.028 179.126C108.994 178.979 108.942 178.816 108.874 178.636C108.805 178.459 108.707 178.318 108.58 178.21C108.452 178.105 108.303 178.061 108.136 178.077L107.335 178.155L107.644 181.342Z" fill="#F4F4F2"/>
<path d="M116.82 183.383L115.844 179.283C115.189 176.532 116.008 174.885 118.297 174.341C118.781 174.226 119.225 174.188 119.633 174.224C120.042 174.262 120.398 174.363 120.707 174.527C121.015 174.69 121.29 174.917 121.531 175.206C121.774 175.494 121.977 175.821 122.14 176.187C122.303 176.553 122.443 176.966 122.552 177.428L122.715 178.112L120.466 178.648L120.27 177.834C120.223 177.631 120.175 177.455 120.127 177.304C120.079 177.155 120.012 176.99 119.924 176.812C119.836 176.635 119.741 176.496 119.639 176.392C119.538 176.291 119.406 176.213 119.249 176.165C119.092 176.115 118.919 176.113 118.729 176.159C118.009 176.33 117.786 176.99 118.058 178.136L119.255 183.162C119.528 184.303 120.022 184.79 120.742 184.619C121.459 184.448 121.674 183.771 121.393 182.586L121.172 181.655L119.84 181.971L119.438 180.283L123.126 179.405L124.551 185.394L122.934 185.78L122.443 185.035C122.319 185.392 122.096 185.71 121.776 185.989C121.455 186.268 121.101 186.453 120.712 186.546C120.294 186.646 119.896 186.66 119.516 186.588C119.136 186.517 118.805 186.381 118.524 186.182C118.242 185.981 117.985 185.73 117.754 185.426C117.521 185.121 117.332 184.798 117.182 184.458C117.029 184.115 116.91 183.757 116.82 183.383Z" fill="#F4F4F2"/>
<path d="M129.529 183.853L127.609 171.764L129.604 170.989L136.338 181.209L134.114 182.073L132.728 179.865L131.273 180.431L131.765 182.985L129.529 183.853ZM130.889 178.983L132.041 178.537L129.871 174.617L130.889 178.983Z" fill="#F4F4F2"/>
<path d="M141.153 178.925L135.365 168.444L136.89 167.602L142.216 171.815L139.19 166.334L140.948 165.364L146.734 175.843L145.269 176.653L139.765 172.106L142.975 177.92L141.153 178.925Z" fill="#F4F4F2"/>
<path d="M151.582 172.668L144.665 162.904L146.64 161.506L153.557 171.27L151.582 172.668Z" fill="#F4F4F2"/>
<path d="M155.406 164.853L152.77 161.894C150.888 159.783 150.811 157.96 152.537 156.418C152.901 156.094 153.268 155.855 153.638 155.7C154.008 155.546 154.365 155.469 154.711 155.469C155.055 155.471 155.404 155.54 155.752 155.682C156.101 155.823 156.433 156.016 156.75 156.263C157.068 156.508 157.383 156.809 157.7 157.163L158.384 157.932L156.608 159.517L155.874 158.692C155.728 158.531 155.601 158.394 155.49 158.282C155.378 158.171 155.241 158.051 155.079 157.926C154.916 157.8 154.769 157.713 154.637 157.661C154.506 157.609 154.363 157.593 154.209 157.611C154.056 157.629 153.913 157.697 153.781 157.816C153.258 158.28 153.389 158.953 154.173 159.835L157.61 163.692C158.392 164.568 159.044 164.773 159.567 164.307C159.722 164.168 159.812 164.006 159.84 163.823C159.866 163.64 159.83 163.445 159.73 163.24C159.631 163.035 159.519 162.848 159.396 162.674C159.272 162.503 159.121 162.316 158.94 162.115L158.122 161.197L159.888 159.624L160.561 160.377C160.857 160.723 161.11 161.064 161.315 161.394C161.522 161.727 161.688 162.081 161.809 162.459C161.931 162.838 161.984 163.2 161.968 163.552C161.95 163.903 161.847 164.265 161.658 164.637C161.469 165.012 161.186 165.366 160.808 165.703C160.421 166.047 160.029 166.298 159.629 166.455C159.231 166.611 158.852 166.682 158.492 166.668C158.132 166.652 157.767 166.567 157.397 166.406C157.029 166.244 156.684 166.037 156.364 165.782C156.049 165.52 155.728 165.211 155.406 164.853Z" fill="#F4F4F2"/>
<path d="M132.444 47.9202C101.438 103.259 70.0312 74.5703 68.0521 68.4578C66.073 62.3453 74.8833 21.2682 132.444 47.9202Z" fill="url(#paint2_linear_1101_2159)"/>
<path d="M96.2292 68.2366C96.2312 68.1391 96.1555 68.0594 96.058 68.0574H96.052C94.7917 68.0276 93.5612 67.6075 92.3805 67.1356C91.1959 66.6518 90.051 66.0704 88.9301 65.4432C87.8091 64.818 86.712 64.1431 85.6349 63.4422C85.2725 63.2053 84.9101 62.9624 84.5498 62.7175C90.1446 60.4437 95.5542 58.7215 100.209 57.4472C100.287 57.5228 100.381 57.5846 100.49 57.6264C101.49 58.0186 102.475 58.367 103.477 58.7075C104.476 59.046 105.482 59.3626 106.497 59.6493C107.512 59.936 108.534 60.2028 109.573 60.4059C110.61 60.6089 111.66 60.7782 112.723 60.8021C112.811 60.8041 112.89 60.7384 112.9 60.6488C112.912 60.5532 112.844 60.4636 112.749 60.4517C111.729 60.3203 110.728 60.0455 109.742 59.7409C108.757 59.4342 107.787 59.0679 106.827 58.6816C105.868 58.2974 104.918 57.8812 103.978 57.4452C103.526 57.2361 103.074 57.0231 102.626 56.8041C109.776 54.9723 114.618 54.2894 114.618 54.2894C107.921 54.2078 101.529 55.0699 95.6637 56.4357C95.9305 56.1789 96.2013 55.926 96.4761 55.6771C97.7364 54.5363 99.0764 53.485 100.494 52.5452C101.205 52.0813 101.936 51.6453 102.686 51.2471C103.441 50.8568 104.213 50.5044 105.006 50.1978C105.802 49.9031 106.616 49.6582 107.447 49.4711C108.279 49.2999 109.127 49.1943 109.979 49.1585H109.983C110.075 49.1545 110.149 49.0809 110.151 48.9873C110.153 48.8897 110.077 48.81 109.979 48.8081C109.103 48.7881 108.225 48.8399 107.353 48.9614C106.485 49.0988 105.625 49.2959 104.783 49.5487C103.943 49.8135 103.118 50.1241 102.312 50.4785C101.509 50.8409 100.725 51.2411 99.9584 51.6732C98.4313 52.5472 96.9758 53.5447 95.5961 54.6398C94.9072 55.1873 94.2342 55.7568 93.5811 56.3481C93.2805 56.6229 92.9858 56.8977 92.6951 57.1784C88.0739 58.4208 83.827 59.9499 80.0719 61.5308C80.49 60.9494 80.9121 60.372 81.3402 59.7986C82.4253 58.3432 83.5443 56.9116 84.7031 55.5159C85.8658 54.1241 87.0684 52.7642 88.3586 51.4979C89.0037 50.8648 89.6747 50.2595 90.3815 49.706C91.0904 49.1585 91.841 48.6508 92.6653 48.3362L92.6732 48.3342C92.7588 48.3004 92.8046 48.2068 92.7768 48.1172C92.7489 48.0256 92.6493 47.9738 92.5577 48.0017C91.6518 48.2844 90.8434 48.7682 90.0769 49.2859C89.3123 49.8116 88.5896 50.387 87.8947 50.9922C86.5029 52.2008 85.2008 53.5029 83.9385 54.8369C82.6802 56.1749 81.4637 57.5507 80.279 58.9524C79.2078 60.2187 78.1665 61.499 77.1411 62.815C68.2232 66.8987 62.7559 70.9106 62.7559 70.9106L64.056 73.8772C69.9116 69.5627 76.4522 66.1281 82.8335 63.4183C83.5303 63.8245 84.2312 64.2147 84.942 64.597C86.0988 65.2162 87.2715 65.8056 88.4701 66.3432C89.6667 66.8827 90.8893 67.3765 92.1496 67.7687C93.4079 68.149 94.716 68.4775 96.064 68.3959C96.1556 68.4019 96.2272 68.3282 96.2292 68.2366Z" fill="#6CBE43"/>
<path d="M68.4902 151.759C99.4967 96.4205 130.903 125.109 132.882 131.222C134.862 137.332 126.051 178.412 68.4902 151.759Z" fill="url(#paint3_linear_1101_2159)"/>
<path d="M104.706 131.443C104.704 131.541 104.779 131.621 104.877 131.623H104.883C106.143 131.652 107.374 132.073 108.554 132.544C109.737 133.028 110.884 133.61 112.005 134.237C113.126 134.862 114.223 135.537 115.3 136.238C115.662 136.475 116.025 136.718 116.385 136.963C110.79 139.236 105.381 140.959 100.726 142.233C100.648 142.157 100.554 142.095 100.445 142.054C99.4453 141.663 98.4598 141.313 97.4583 140.972C96.4588 140.634 95.4533 140.317 94.4379 140.031C93.4224 139.744 92.401 139.477 91.3617 139.274C90.3244 139.071 89.2751 138.902 88.2119 138.878C88.1243 138.876 88.0446 138.942 88.0347 139.031C88.0227 139.127 88.0905 139.216 88.186 139.228C89.2055 139.36 90.2069 139.635 91.1925 139.939C92.178 140.246 93.1477 140.612 94.1074 140.998C95.0671 141.383 96.0168 141.801 96.9566 142.235C97.4085 142.444 97.8605 142.657 98.3085 142.876C91.1586 144.708 86.3164 145.391 86.3164 145.391C93.0143 145.472 99.4055 144.61 105.271 143.244C105.004 143.501 104.734 143.754 104.459 144.003C103.198 145.144 101.859 146.195 100.441 147.135C99.7301 147.599 98.9994 148.035 98.2487 148.433C97.4941 148.823 96.7216 149.176 95.9292 149.482C95.1327 149.777 94.3184 150.022 93.4882 150.209C92.6559 150.38 91.8077 150.488 90.9556 150.522H90.9516C90.86 150.526 90.7863 150.599 90.7843 150.693C90.7823 150.79 90.858 150.87 90.9556 150.872C91.8316 150.892 92.7097 150.84 93.5817 150.719C94.4498 150.581 95.3099 150.384 96.1521 150.131C96.9924 149.866 97.8167 149.556 98.623 149.201C99.4254 148.839 100.21 148.439 100.976 148.007C102.504 147.133 103.959 146.135 105.339 145.04C106.028 144.493 106.701 143.923 107.354 143.332C107.654 143.057 107.949 142.782 108.24 142.502C112.861 141.259 117.108 139.73 120.863 138.149C120.445 138.731 120.023 139.308 119.595 139.881C118.51 141.337 117.391 142.768 116.232 144.164C115.069 145.556 113.866 146.916 112.576 148.182C111.931 148.815 111.26 149.42 110.553 149.974C109.845 150.522 109.094 151.029 108.272 151.344L108.264 151.346C108.178 151.38 108.132 151.473 108.16 151.563C108.19 151.654 108.288 151.706 108.379 151.678C109.285 151.396 110.093 150.912 110.86 150.394C111.625 149.868 112.347 149.293 113.042 148.688C114.434 147.477 115.736 146.177 116.996 144.841C118.255 143.503 119.471 142.127 120.656 140.726C121.727 139.459 122.768 138.179 123.794 136.863C132.712 132.779 138.179 128.767 138.179 128.767L136.879 125.801C131.023 130.115 124.483 133.55 118.101 136.258C117.403 135.852 116.704 135.461 115.991 135.079C114.834 134.46 113.661 133.87 112.463 133.333C111.266 132.793 110.044 132.3 108.783 131.907C107.525 131.527 106.217 131.198 104.869 131.28C104.779 131.278 104.708 131.352 104.706 131.443Z" fill="#6CBE43"/>
<path d="M56.133 78.4609L47.4621 116.613H40.4238L34.5064 91.3131L28.6906 116.613H23.8543L31.699 81.8775C29.4889 82.7615 27.7727 84.1135 26.5482 85.9333C25.3237 87.7531 24.7125 90.0905 24.7125 92.9457C24.7125 93.5908 24.7383 94.1184 24.7881 94.5266C24.8399 94.9348 24.9076 95.2673 24.9912 95.5221C25.0748 95.779 25.1525 95.982 25.2202 96.1353C25.2879 96.2887 25.3556 96.432 25.4252 96.5694C23.6711 96.5694 22.3292 96.205 21.4053 95.4723C20.4795 94.7416 20.0176 93.4574 20.0176 91.6217C20.0176 90.0906 20.362 88.5356 21.0509 86.9547C21.7398 85.3718 22.7433 83.9442 24.0594 82.6699C25.3755 81.3937 27.0041 80.3584 28.9414 79.5599C30.8807 78.7615 33.0907 78.3613 35.5716 78.3613C35.9797 78.3613 36.4974 78.3952 37.1286 78.4629C37.7578 78.5306 38.4287 78.7356 39.1435 79.0741L45.1107 106.158L51.1813 78.4609H56.133Z" fill="#AD822A"/>
<path d="M79.1878 91.1103L75.4646 108.454C75.3292 109.032 75.2615 109.575 75.2615 110.087C75.2615 110.802 75.4307 111.293 75.7712 111.564C76.1117 111.837 76.6393 111.972 77.3521 111.972C78.3377 111.972 79.1799 111.546 79.8767 110.696C80.5736 109.846 81.1091 108.775 81.4835 107.483H83.6259C82.9111 109.557 82.1047 111.198 81.2027 112.406C80.3008 113.613 79.3829 114.533 78.4471 115.16C77.5113 115.789 76.6014 116.189 75.7194 116.359C74.8334 116.528 74.0529 116.614 73.374 116.614C71.9802 116.614 70.8494 116.239 69.9813 115.491C69.1132 114.744 68.5776 113.639 68.3745 112.175C68.0002 112.755 67.5581 113.332 67.0484 113.91C66.5387 114.489 65.9693 114.999 65.3402 115.441C64.711 115.883 64.022 116.241 63.2734 116.512C62.5248 116.785 61.6925 116.92 60.7746 116.92C59.8906 116.92 59.0485 116.775 58.2501 116.486C57.4517 116.199 56.7289 115.729 56.0818 115.084C55.4347 114.439 54.925 113.597 54.5526 112.56C54.1783 111.522 53.9912 110.24 53.9912 108.709C53.9912 107.554 54.1107 106.31 54.3496 104.986C54.5865 103.66 54.9429 102.334 55.4208 101.008C55.8966 99.6817 56.4919 98.4074 57.2047 97.183C57.9195 95.9585 58.7677 94.8793 59.7552 93.9435C60.7408 93.0097 61.8379 92.2611 63.0445 91.6996C64.251 91.1382 65.6029 90.8574 67.1002 90.8574C67.5083 90.8574 67.9424 90.8833 68.4004 90.9331C68.8603 90.9848 69.2844 91.1043 69.6766 91.2895C70.0668 91.4766 70.4073 91.7494 70.696 92.1058C70.9847 92.4622 71.1799 92.9321 71.2834 93.5095L71.7931 91.1123H79.1878V91.1103ZM68.7329 94.0172C67.6438 94.0172 66.6582 94.5209 65.7742 95.5224C64.8882 96.5259 64.1415 97.7504 63.5283 99.1959C62.9171 100.641 62.4412 102.173 62.1007 103.787C61.7602 105.402 61.591 106.806 61.591 107.994C61.591 108.982 61.6846 109.736 61.8718 110.264C62.0589 110.792 62.2799 111.182 62.5347 111.437C62.7896 111.692 63.0604 111.845 63.3511 111.895C63.6398 111.947 63.9046 111.972 64.1415 111.972C64.5158 111.972 64.9141 111.879 65.3402 111.692C65.7662 111.505 66.1824 111.224 66.5905 110.849C66.9987 110.475 67.3551 110.007 67.6617 109.448C67.9683 108.886 68.2053 108.233 68.3765 107.483L70.8235 95.9565C70.8235 95.8211 70.7796 95.6419 70.696 95.4189C70.6104 95.1979 70.4929 94.9849 70.3396 94.7818C70.1863 94.5767 69.9832 94.3995 69.7284 94.2462C69.4715 94.0948 69.141 94.0172 68.7329 94.0172Z" fill="#AD822A"/>
<path d="M94.0298 83.0498L92.2956 91.1076H95.3559L94.9477 93.1484H91.8875L88.6242 108.452C88.4888 109.029 88.4211 109.572 88.4211 110.084C88.4211 110.799 88.5904 111.291 88.9308 111.562C89.2713 111.834 89.7989 111.97 90.5117 111.97C91.4972 111.97 92.4151 111.544 93.2653 110.693C94.1155 109.843 94.7268 108.772 95.1011 107.48H97.2434C96.5286 109.555 95.6964 111.213 94.7446 112.453C93.7929 113.694 92.8233 114.648 91.8377 115.309C90.8502 115.972 89.8905 116.406 88.9567 116.611C88.0209 116.816 87.2126 116.917 86.5336 116.917C85.0025 116.917 83.7103 116.432 82.6571 115.464C81.6018 114.494 81.0762 112.939 81.0762 110.797C81.0762 109.879 81.2115 108.774 81.4843 107.48L84.5446 93.1484H82.8621L83.2703 91.1076H84.9547L86.4858 84.0692L94.0298 83.0498Z" fill="#AD822A"/>
<path d="M118.514 91.1104L114.843 108.454C114.707 109.032 114.64 109.575 114.64 110.087C114.64 110.802 114.809 111.294 115.149 111.564C115.49 111.837 116.017 111.972 116.73 111.972C117.716 111.972 118.558 111.546 119.255 110.696C119.952 109.846 120.487 108.775 120.862 107.483H123.004C122.289 109.557 121.481 111.216 120.581 112.456C119.679 113.697 118.761 114.65 117.825 115.311C116.889 115.974 115.98 116.409 115.096 116.614C114.212 116.819 113.429 116.92 112.75 116.92C111.287 116.92 110.124 116.512 109.256 115.696C108.388 114.879 107.87 113.673 107.701 112.074C107.054 113.129 106.401 113.971 105.736 114.599C105.073 115.228 104.418 115.714 103.772 116.052C103.125 116.393 102.496 116.622 101.885 116.741C101.274 116.858 100.694 116.92 100.151 116.92C98.6217 116.92 97.3275 116.434 96.2743 115.467C95.219 114.497 94.6934 112.942 94.6934 110.8C94.6934 109.882 94.8288 108.777 95.1016 107.483L98.5699 91.1104H105.915L102.243 108.454C102.142 108.964 102.09 109.442 102.09 109.882C102.09 110.459 102.2 110.953 102.423 111.359C102.644 111.767 103.042 111.972 103.621 111.972C104.607 111.972 105.441 111.546 106.12 110.696C106.799 109.846 107.326 108.775 107.701 107.483L111.169 91.1104H118.514Z" fill="#AD822A"/>
<path d="M131.673 91.1104L130.958 94.3239C131.943 93.3722 132.973 92.5559 134.044 91.8749C135.115 91.194 136.16 90.8535 137.18 90.8535C138.335 90.8535 139.211 91.2438 139.806 92.0262C140.399 92.8087 140.698 93.6927 140.698 94.6783C140.698 95.1203 140.62 95.5623 140.469 96.0043C140.316 96.4464 140.087 96.8465 139.78 97.2029C139.473 97.5593 139.091 97.848 138.633 98.069C138.173 98.292 137.638 98.3995 137.026 98.3995C136.312 98.3995 135.828 98.2303 135.573 97.8898C135.318 97.5514 135.139 97.183 135.037 96.7928C134.936 96.4025 134.84 96.0362 134.757 95.6957C134.671 95.3573 134.442 95.186 134.068 95.186C133.421 95.186 132.809 95.3732 132.232 95.7475C131.655 96.1218 131.025 96.6136 130.345 97.2268L126.265 116.61H118.92L124.328 91.1064H131.673V91.1104Z" fill="#AD822A"/>
<path d="M164.574 91.1103L160.85 108.454C160.715 109.032 160.647 109.575 160.647 110.087C160.647 110.802 160.816 111.293 161.157 111.564C161.497 111.837 162.025 111.972 162.738 111.972C163.723 111.972 164.566 111.546 165.262 110.696C165.959 109.846 166.495 108.775 166.869 107.483H169.012C168.297 109.557 167.49 111.198 166.588 112.406C165.687 113.613 164.769 114.533 163.835 115.16C162.899 115.789 161.989 116.189 161.107 116.359C160.223 116.528 159.441 116.614 158.762 116.614C157.368 116.614 156.237 116.239 155.369 115.491C154.501 114.744 153.965 113.639 153.762 112.175C153.388 112.755 152.946 113.332 152.436 113.91C151.926 114.489 151.357 114.999 150.728 115.441C150.099 115.883 149.41 116.241 148.661 116.512C147.913 116.785 147.08 116.92 146.162 116.92C145.276 116.92 144.436 116.775 143.638 116.486C142.839 116.199 142.117 115.729 141.47 115.084C140.822 114.439 140.313 113.597 139.938 112.56C139.564 111.522 139.377 110.24 139.377 108.709C139.377 107.554 139.496 106.31 139.735 104.986C139.972 103.66 140.329 102.334 140.806 101.008C141.282 99.6817 141.878 98.4074 142.592 97.183C143.307 95.9585 144.155 94.8793 145.143 93.9435C146.129 93.0097 147.226 92.2611 148.432 91.6996C149.639 91.1382 150.991 90.8574 152.488 90.8574C152.896 90.8574 153.33 90.8833 153.788 90.9331C154.248 90.9848 154.672 91.1043 155.064 91.2895C155.455 91.4766 155.795 91.7494 156.084 92.1058C156.372 92.4622 156.568 92.9321 156.671 93.5095L157.181 91.1123H164.574V91.1103ZM154.117 94.0172C153.027 94.0172 152.042 94.5209 151.158 95.5224C150.272 96.5259 149.525 97.7504 148.912 99.1959C148.301 100.641 147.825 102.173 147.484 103.787C147.144 105.402 146.975 106.806 146.975 107.994C146.975 108.982 147.068 109.736 147.255 110.264C147.443 110.792 147.664 111.182 147.918 111.437C148.173 111.692 148.446 111.845 148.735 111.895C149.024 111.947 149.288 111.972 149.525 111.972C149.9 111.972 150.298 111.879 150.724 111.692C151.15 111.505 151.566 111.224 151.974 110.849C152.382 110.475 152.739 110.007 153.045 109.448C153.352 108.886 153.589 108.233 153.76 107.483L156.207 95.9565C156.207 95.8211 156.163 95.6419 156.08 95.4189C155.994 95.1979 155.877 94.9849 155.723 94.7818C155.57 94.5767 155.367 94.3995 155.112 94.2462C154.855 94.0948 154.525 94.0172 154.117 94.0172Z" fill="#AD822A"/>
<path d="M173.904 108.351C173.837 108.623 173.785 108.878 173.751 109.115C173.717 109.354 173.699 109.593 173.699 109.83C173.699 110.409 173.853 110.895 174.159 111.284C174.466 111.674 175.009 111.871 175.792 111.871C176.268 111.871 176.616 111.837 176.837 111.769C177.058 111.702 177.253 111.634 177.425 111.564C177.355 112.482 177.152 113.273 176.813 113.936C176.473 114.599 176.049 115.15 175.537 115.592C175.027 116.034 174.448 116.367 173.803 116.588C173.156 116.809 172.493 116.92 171.814 116.92C170.283 116.92 168.991 116.426 167.937 115.441C166.882 114.455 166.356 112.874 166.356 110.698C166.356 109.78 166.492 108.675 166.765 107.383L172.222 81.828L179.77 80.8066L173.904 108.351Z" fill="#AD822A"/>
<defs>
<linearGradient id="paint0_linear_1101_2159" x1="99.3077" y1="244.488" x2="100.486" y2="-1.84688" gradientUnits="userSpaceOnUse">
<stop offset="0.0391" stop-color="#22680B"/>
<stop offset="0.486" stop-color="#C6A868"/>
<stop offset="1" stop-color="#22680B"/>
</linearGradient>
<linearGradient id="paint1_linear_1101_2159" x1="99.3067" y1="244.488" x2="100.485" y2="-1.84668" gradientUnits="userSpaceOnUse">
<stop offset="0.0391" stop-color="#22680B"/>
<stop offset="0.486" stop-color="#C6A868"/>
<stop offset="1" stop-color="#22680B"/>
</linearGradient>
<linearGradient id="paint2_linear_1101_2159" x1="99.228" y1="244.488" x2="100.406" y2="-1.84742" gradientUnits="userSpaceOnUse">
<stop offset="0.0391" stop-color="#22680B"/>
<stop offset="0.486" stop-color="#C6A868"/>
<stop offset="1" stop-color="#22680B"/>
</linearGradient>
<linearGradient id="paint3_linear_1101_2159" x1="100.322" y1="244.493" x2="101.501" y2="-1.84167" gradientUnits="userSpaceOnUse">
<stop offset="0.0391" stop-color="#22680B"/>
<stop offset="0.486" stop-color="#C6A868"/>
<stop offset="1" stop-color="#22680B"/>
</linearGradient>
</defs>
</svg>
