<svg width="200" height="150" viewBox="0 0 200 150" fill="none" xmlns="http://www.w3.org/2000/svg">
<path d="M139.177 52.2529C139.177 30.6152 121.635 13.0771 100.001 13.0771C78.3632 13.0771 60.8252 30.6152 60.8252 52.2529C60.8252 62.1725 64.5174 71.2214 70.5942 78.123C64.5174 85.0247 60.8252 94.0735 60.8252 103.993C60.8252 125.631 78.3649 143.171 100.001 143.171C121.637 143.171 139.177 125.631 139.177 103.993C139.177 94.0752 135.485 85.0247 129.406 78.123C135.485 71.2214 139.177 62.1725 139.177 52.2529Z" fill="white"/>
<path d="M133.838 55.7805C133.838 37.0903 118.688 21.9434 99.999 21.9434C81.3104 21.9434 66.1602 37.0903 66.1602 55.7805C66.1602 64.3466 69.3516 72.1647 74.5986 78.1236C69.3499 84.0842 66.1602 91.9024 66.1602 100.467C66.1602 119.157 81.3087 134.304 99.999 134.304C118.686 134.304 133.838 119.157 133.838 100.467C133.838 91.9007 130.646 84.0826 125.399 78.1236C130.646 72.1631 133.838 64.3449 133.838 55.7805Z" fill="#6CBE43"/>
<path d="M99.9995 16.5112C121.109 16.5112 138.283 32.9429 138.283 53.1404C138.283 62.0485 134.892 70.6392 128.737 77.328L128.005 78.1234L128.737 78.9172C134.892 85.6077 138.283 94.1983 138.283 103.106C138.283 123.304 121.11 139.736 99.9995 139.736C78.8903 139.736 61.714 123.306 61.714 103.106C61.714 94.1983 65.105 85.6077 71.262 78.9172L71.9936 78.1234L71.262 77.328C65.105 70.6392 61.714 62.0485 61.714 53.1404C61.7156 32.9429 78.8903 16.5112 99.9995 16.5112ZM99.9995 15.3066C78.1587 15.3066 60.457 32.244 60.457 53.1388C60.457 62.7163 64.1853 71.4575 70.3177 78.1218C64.1853 84.7861 60.457 93.5273 60.457 103.105C60.457 124.001 78.1604 140.937 99.9995 140.937C121.839 140.937 139.542 124 139.542 103.105C139.542 93.5257 135.814 84.7861 129.68 78.1218C135.814 71.4575 139.542 62.7163 139.542 53.1388C139.543 32.244 121.839 15.3066 99.9995 15.3066Z" fill="url(#paint0_linear_1101_2129)"/>
<path d="M194.435 3.66871C173.098 77.7127 128.001 52.4842 123.967 45.8035C119.931 39.1228 118.968 -11.9054 194.435 3.66871Z" fill="url(#paint1_linear_1101_2129)"/>
<path d="M157.231 37.7333C157.206 37.6187 157.093 37.5434 156.979 37.568L156.972 37.5696C155.475 37.8822 153.9 37.7267 152.373 37.496C150.84 37.2521 149.322 36.8806 147.823 36.4518C146.323 36.023 144.84 35.5287 143.372 34.9985C142.877 34.8184 142.382 34.6319 141.889 34.442C147.876 30.2015 153.799 26.6665 158.951 23.8695C159.064 23.9366 159.193 23.984 159.332 24.0053C160.622 24.1919 161.885 24.3326 163.163 24.457C164.438 24.5797 165.716 24.678 166.996 24.7336C168.276 24.7925 169.559 24.8236 170.844 24.7762C172.127 24.7287 173.415 24.6403 174.68 24.3719C174.785 24.349 174.86 24.2508 174.849 24.1411C174.837 24.0233 174.733 23.9382 174.615 23.9497H174.612C173.369 24.0757 172.111 24.0298 170.862 23.9415C169.612 23.8531 168.363 23.6878 167.121 23.4979C165.879 23.3081 164.64 23.079 163.407 22.8253C162.815 22.7026 162.221 22.5749 161.63 22.4423C169.579 18.2951 175.116 16.1462 175.116 16.1462C167.173 17.9056 159.851 20.6961 153.291 23.9366C153.537 23.5601 153.786 23.1853 154.041 22.8155C155.214 21.1166 156.509 19.5013 157.926 17.9989C158.638 17.2526 159.383 16.5357 160.16 15.8566C160.944 15.1855 161.761 14.5554 162.613 13.9728C163.474 13.4033 164.37 12.8877 165.301 12.4377C166.239 12.004 167.211 11.6439 168.211 11.3657L168.216 11.364C168.322 11.3346 168.389 11.2249 168.366 11.1153C168.342 11.0007 168.229 10.9254 168.114 10.95C167.072 11.1693 166.047 11.4737 165.05 11.8599C164.062 12.2625 163.1 12.7339 162.172 13.2674C161.252 13.8124 160.363 14.4098 159.507 15.053C158.658 15.7027 157.841 16.395 157.054 17.1184C155.489 18.5766 154.044 20.1592 152.717 21.8351C152.052 22.6731 151.416 23.5323 150.807 24.4144C150.527 24.822 150.255 25.2295 149.989 25.6436C144.868 28.3947 140.267 31.3783 136.266 34.2898C136.599 33.4879 136.938 32.6859 137.285 31.8905C138.166 29.8677 139.09 27.8661 140.076 25.894C141.064 23.9251 142.112 21.9841 143.285 20.1281C143.873 19.2002 144.498 18.2984 145.182 17.4473C145.868 16.6028 146.615 15.7944 147.503 15.1954L147.511 15.1904C147.602 15.1283 147.632 15.0039 147.575 14.9057C147.514 14.8042 147.385 14.7715 147.283 14.8304C146.29 15.4163 145.467 16.2117 144.706 17.0366C143.948 17.8696 143.252 18.7517 142.596 19.6601C141.285 21.4767 140.105 23.3752 138.984 25.3048C137.866 27.236 136.809 29.1999 135.796 31.1868C134.879 32.9822 134.002 34.7857 133.156 36.6253C123.739 43.9262 118.384 50.1863 118.384 50.1863L120.742 53.3352C126.474 46.6087 133.257 40.7348 140.054 35.7628C140.992 36.0492 141.93 36.3176 142.876 36.5729C144.416 36.9837 145.966 37.3569 147.532 37.6613C149.097 37.9673 150.679 38.2128 152.278 38.3274C153.871 38.4272 155.509 38.455 157.082 37.9837C157.188 37.9493 157.254 37.8413 157.231 37.7333Z" fill="#6CBE43"/>
<path d="M7.62988 146.333C28.9665 72.2892 74.0636 97.5177 78.0995 104.197C82.1338 110.879 83.0977 161.907 7.62988 146.333Z" fill="url(#paint2_linear_1101_2129)"/>
<path d="M44.8332 112.268C44.8578 112.383 44.9707 112.458 45.0853 112.434L45.0918 112.432C46.5893 112.119 48.1638 112.275 49.6907 112.506C51.2242 112.749 52.7414 113.121 54.2405 113.55C55.7413 113.979 57.2241 114.473 58.6922 115.003C59.1864 115.183 59.6823 115.37 60.1749 115.559C54.1882 119.8 48.2652 123.335 43.1131 126.132C43.0002 126.065 42.8709 126.018 42.7318 125.996C41.4422 125.81 40.1787 125.669 38.9005 125.545C37.6256 125.422 36.3473 125.325 35.0675 125.268C33.7877 125.211 32.5046 125.178 31.2198 125.225C29.9367 125.273 28.6487 125.363 27.3836 125.63C27.2788 125.653 27.2036 125.751 27.215 125.86C27.2265 125.978 27.3312 126.063 27.449 126.052H27.4523C28.6945 125.926 29.9531 125.972 31.2018 126.06C32.4522 126.148 33.7009 126.314 34.9431 126.504C36.1853 126.693 37.4243 126.923 38.6566 127.176C39.2491 127.299 39.8432 127.427 40.434 127.559C32.4849 131.706 26.9482 133.855 26.9482 133.855C34.8908 132.096 42.213 129.305 48.7726 126.065C48.5271 126.441 48.2783 126.816 48.023 127.186C46.8495 128.885 45.555 130.5 44.1377 132.003C43.4257 132.749 42.6811 133.466 41.9037 134.145C41.1197 134.816 40.3031 135.446 39.4504 136.029C38.5895 136.598 37.6943 137.114 36.7631 137.564C35.8253 137.998 34.8531 138.358 33.8531 138.636L33.8482 138.637C33.7418 138.667 33.6748 138.777 33.6977 138.886C33.7222 139.001 33.8351 139.074 33.9497 139.052C34.9922 138.832 36.0168 138.528 37.0135 138.142C38.0036 137.739 38.9643 137.268 39.8923 136.734C40.8121 136.189 41.7007 135.592 42.5567 134.95C43.4061 134.3 44.2228 133.608 45.01 132.885C46.5746 131.427 48.0197 129.844 49.347 128.168C50.0115 127.33 50.6482 126.471 51.257 125.589C51.5368 125.181 51.8085 124.774 52.0753 124.36C57.1963 121.608 61.7968 118.625 65.7984 115.713C65.4645 116.515 65.1257 117.317 64.7787 118.113C63.8982 120.135 62.9735 122.137 61.9883 124.109C60.9998 126.078 59.9523 128.019 58.7789 129.875C58.1913 130.803 57.5662 131.705 56.882 132.556C56.1963 133.4 55.4484 134.209 54.5613 134.808L54.5531 134.813C54.4615 134.875 54.432 134.999 54.4893 135.097C54.5499 135.199 54.6792 135.232 54.7806 135.173C55.7741 134.587 56.5973 133.791 57.3583 132.967C58.1161 132.134 58.8116 131.251 59.4679 130.343C60.7788 128.526 61.9588 126.628 63.0799 124.698C64.1977 122.767 65.255 120.803 66.2681 118.816C67.1846 117.021 68.0618 115.217 68.9079 113.378C78.325 106.077 83.6801 99.8168 83.6801 99.8168L81.3217 96.668C75.5903 103.394 68.8065 109.268 62.0096 114.24C61.0718 113.954 60.134 113.686 59.188 113.43C57.648 113.019 56.0981 112.646 54.5318 112.342C52.9672 112.036 51.3846 111.79 49.7857 111.676C48.1932 111.576 46.555 111.548 44.9822 112.019C44.8758 112.052 44.8103 112.16 44.8332 112.268Z" fill="#6CBE43"/>
<path d="M199 86.863C199 99.3039 188.913 109.393 176.47 109.393H23.5297C11.0857 109.393 1 99.304 1 86.863V70.1957C1 57.7548 11.0857 47.666 23.5297 47.666H176.47C188.913 47.666 199 57.7548 199 70.1957V86.863Z" fill="#6CBE43" stroke="#F4F4F2" stroke-width="2"/>
<path d="M176.47 47.7707C188.837 47.7707 198.895 57.8327 198.895 70.1973V86.8647C198.895 99.2294 188.837 109.291 176.47 109.291H23.5297C11.1634 109.291 1.10145 99.2294 1.10145 86.8647V70.1973C1.10145 57.8327 11.1618 47.7707 23.5297 47.7707H176.47ZM176.47 46.666H23.5297C10.5333 46.666 0 57.2026 0 70.1957V86.863C0 99.8562 10.5333 110.393 23.5297 110.393H176.47C189.465 110.393 200 99.8562 200 86.863V70.1957C200 57.2026 189.465 46.666 176.47 46.666Z" fill="#6CBE43"/>
<path d="M86.7177 124.073L89.4607 122.446L92.2053 124.071L91.5064 120.96L93.8976 118.85L90.7209 118.559L89.4574 115.628L88.1923 118.559L85.0156 118.854L87.4165 120.962L86.7177 124.073Z" fill="#6CBE43"/>
<path d="M97.5143 127.278L100.843 125.302L104.172 127.276L103.324 123.497L106.231 120.938L102.375 120.579L100.838 117.024L99.3048 120.579L95.4473 120.942L98.3572 123.499L97.5143 127.278Z" fill="#6CBE43"/>
<path d="M109.481 124.073L112.226 122.446L114.965 124.071L114.27 120.96L116.661 118.85L113.486 118.559L112.219 115.628L110.956 118.559L107.782 118.854L110.18 120.962L109.481 124.073Z" fill="#6CBE43"/>
<path d="M86.7177 40.6709L89.4607 39.0457L92.2053 40.6692L91.5064 37.558L93.8976 35.4484L90.7209 35.1571L89.4574 32.2275L88.1923 35.1571L85.0156 35.4517L87.4165 37.5596L86.7177 40.6709Z" fill="#6CBE43"/>
<path d="M97.5143 39.2795L100.843 37.3041L104.172 39.2762L103.324 35.4989L106.231 32.9376L102.375 32.5792L100.838 29.0244L99.3048 32.5792L95.4473 32.9425L98.3572 35.5005L97.5143 39.2795Z" fill="#6CBE43"/>
<path d="M109.481 40.6709L112.226 39.0457L114.965 40.6692L114.27 37.558L116.661 35.4484L113.486 35.1571L112.219 32.2275L110.956 35.1571L107.782 35.4517L110.18 37.5596L109.481 40.6709Z" fill="url(#paint3_linear_1101_2129)"/>
<path d="M31.8914 57.2913C31.0501 57.8068 30.2384 58.5956 29.4512 59.6611C28.6656 60.7282 27.916 61.9769 27.2041 63.4106C26.4905 64.8426 25.8342 66.3974 25.2303 68.0684C24.628 69.741 24.1059 71.4398 23.6673 73.1665C23.2287 74.8948 22.8916 76.6034 22.6526 78.2924C22.4153 79.983 22.2975 81.5263 22.2975 82.924C22.2975 84.798 22.5446 86.2578 23.0389 87.3053C23.5331 88.3527 24.3842 88.8764 25.5936 88.8764C26.9471 88.8764 28.3023 88.1236 29.6574 86.6162C31.0109 85.1089 32.2301 83.1613 33.3087 80.7735C34.3888 78.3857 35.2677 75.6934 35.9453 72.6984C36.6228 69.7034 36.9616 66.7166 36.9616 63.7396C36.9616 62.1226 36.8421 60.7445 36.6032 59.6054C36.3642 58.4664 35.9616 57.5286 35.3921 56.7937C34.8242 56.0589 34.073 55.5172 33.1385 55.1669C32.204 54.8167 31.0403 54.6432 29.6459 54.6432C27.6656 54.6432 25.7409 54.9755 23.8719 55.635C22.0013 56.2962 20.3434 57.234 18.8949 58.4467C17.4465 59.6595 16.2829 61.139 15.4024 62.8836C14.5219 64.6299 14.0817 66.5873 14.0817 68.7541C14.0817 69.7836 14.1373 70.4808 14.2469 70.849C14.3566 71.2157 14.4859 71.5299 14.6332 71.7868C12.8525 71.7868 11.4696 71.4366 10.486 70.7394C9.50239 70.0422 9.00977 68.8458 9.00977 67.1552C9.00977 65.2453 9.62513 63.3795 10.8575 61.5612C12.0882 59.7429 13.7249 58.1358 15.7641 56.7365C17.8033 55.3404 20.147 54.2193 22.7917 53.3748C25.4382 52.5303 28.1566 52.1064 30.9503 52.1064C33.4118 52.1064 35.4985 52.4469 37.2071 53.1261C38.9157 53.8053 40.2938 54.7709 41.3412 56.0196C42.3886 57.2684 43.1415 58.7479 43.6014 60.4565C44.0613 62.1651 44.2904 64.0309 44.2904 66.0505C44.2904 67.8507 44.1251 69.7901 43.7945 71.867C43.4639 73.9439 42.9418 76.0011 42.2266 78.0404C41.5114 80.0796 40.6129 82.055 39.5311 83.9666C38.4493 85.8781 37.1645 87.5589 35.6785 89.0106C34.1924 90.464 32.4871 91.621 30.5608 92.4835C28.6345 93.3477 26.4971 93.7781 24.1501 93.7781C22.6461 93.7781 21.2795 93.5768 20.0504 93.1726C18.8213 92.7683 17.7673 92.1251 16.8868 91.243C16.0063 90.3608 15.3271 89.2217 14.8509 87.8257C14.373 86.4297 14.1357 84.721 14.1357 82.6998C14.1357 81.2301 14.2731 79.5673 14.5481 77.7114C14.823 75.8555 15.2355 73.9619 15.7854 72.0323C16.3353 70.1044 17.021 68.2288 17.8459 66.4089C18.6691 64.5906 19.6412 62.972 20.7591 61.5579C21.8769 60.1439 23.1223 59.0048 24.4955 58.139C25.8686 57.2765 27.3988 56.8445 29.0846 56.8445C29.4872 56.8445 29.9274 56.8723 30.4037 56.9279C30.8848 56.9885 31.3791 57.108 31.8914 57.2913Z" fill="#F4F4F2"/>
<path d="M57.0844 65.8899L56.3135 69.3628C57.379 68.335 58.4903 67.4512 59.649 66.7164C60.8061 65.9815 61.937 65.6133 63.0384 65.6133C64.2872 65.6133 65.2348 66.0372 65.878 66.8817C66.5212 67.7278 66.8419 68.6819 66.8419 69.749C66.8419 70.2269 66.7601 70.7048 66.5932 71.1811C66.4279 71.6589 66.1791 72.091 65.8485 72.4773C65.5179 72.8619 65.1055 73.1761 64.6079 73.4151C64.1104 73.654 63.5327 73.7735 62.8715 73.7735C62.1006 73.7735 61.5769 73.5902 61.3003 73.2219C61.0238 72.8553 60.8323 72.4609 60.721 72.037C60.6113 71.6148 60.5099 71.2187 60.4182 70.8521C60.3265 70.4855 60.0778 70.3006 59.6735 70.3006C58.9747 70.3006 58.3135 70.5035 57.6883 70.9061C57.0631 71.312 56.3839 71.8439 55.6491 72.5051L51.2384 93.4522H43.3008L49.1435 65.8882L57.0844 65.8899Z" fill="#F4F4F2"/>
<path d="M92.584 65.8902L87.1259 91.469C88.8149 90.8814 90.2027 90.0173 91.2878 88.8782C92.3712 87.7391 93.2992 85.9748 94.0717 83.5854H96.3875C95.836 85.4233 95.1829 86.947 94.4301 88.1613C93.6756 89.3741 92.8589 90.3675 91.9768 91.1383C91.0947 91.9108 90.1929 92.5082 89.2764 92.9288C88.3566 93.3527 87.4761 93.6735 86.63 93.8944L85.8035 97.8632C85.3992 99.8485 84.8199 101.446 84.067 102.659C83.3125 103.871 82.486 104.817 81.5859 105.498C80.6841 106.177 79.7398 106.637 78.7464 106.876C77.7546 107.115 76.7988 107.235 75.879 107.235C74.1884 107.235 72.7367 106.794 71.524 105.912C70.3112 105.03 69.7057 103.688 69.7057 101.888C69.7057 100.749 69.9806 99.7388 70.5322 98.855C71.0837 97.9729 71.7907 97.202 72.6548 96.5392C73.5173 95.878 74.483 95.3167 75.5484 94.8584C76.6138 94.3985 77.6613 94.0041 78.6907 93.6735L79.7381 88.9878C78.9297 89.9796 77.964 90.8454 76.8446 91.5802C75.7235 92.3151 74.3537 92.6817 72.7367 92.6817C71.7809 92.6817 70.8709 92.5262 70.0084 92.2136C69.1443 91.901 68.3636 91.3953 67.6664 90.6965C66.9676 89.9993 66.416 89.0893 66.0134 87.9682C65.6092 86.8471 65.4062 85.4609 65.4062 83.8063C65.4062 82.6296 65.5339 81.3726 65.7925 80.0306C66.0495 78.6886 66.4357 77.3384 66.9496 75.9783C67.4635 74.6199 68.1067 73.3156 68.8792 72.0652C69.6517 70.8164 70.5698 69.7134 71.6352 68.7576C72.7007 67.8018 73.8856 67.0391 75.1916 66.4696C76.496 65.9 77.9559 65.6152 79.5745 65.6152C80.0164 65.6152 80.4845 65.6431 80.9803 65.6987C81.4762 65.7527 81.9361 65.8836 82.3584 66.0849C82.7806 66.2863 83.1489 66.5727 83.4615 66.9393C83.774 67.3059 83.9852 67.8214 84.0948 68.4826L84.6464 65.8902H92.584ZM72.7383 101.115C72.7383 101.519 72.8938 101.924 73.2064 102.328C73.519 102.732 73.9871 102.933 74.6122 102.933C75.1998 102.933 75.789 102.529 76.3765 101.721C76.9641 100.911 77.442 99.6815 77.8102 98.0269L78.1408 96.4279C77.442 96.6849 76.7628 96.9696 76.1016 97.2822C75.4404 97.5932 74.861 97.9434 74.3651 98.3296C73.8692 98.7143 73.4732 99.1365 73.1802 99.598C72.8856 100.06 72.7383 100.565 72.7383 101.115ZM81.2848 69.0325C80.108 69.0325 79.0426 69.5382 78.0868 70.548C77.131 71.5595 76.3225 72.782 75.6613 74.2141C75.0001 75.6477 74.4846 77.1731 74.118 78.79C73.7514 80.407 73.5665 81.8227 73.5665 83.0354C73.5665 84.1025 73.6679 84.9192 73.8692 85.4887C74.0705 86.0583 74.3111 86.4805 74.5861 86.7571C74.861 87.0321 75.1556 87.199 75.4682 87.253C75.7808 87.3087 76.0656 87.3365 76.3225 87.3365C77.1294 87.3365 78.0393 86.9322 79.0508 86.1237C80.0606 85.3169 80.7512 84.1025 81.1178 82.4855L83.5433 71.075C83.5056 70.7444 83.3305 70.3222 83.0196 69.8066C82.707 69.2911 82.1293 69.0325 81.2848 69.0325Z" fill="#F4F4F2"/>
<path d="M120.589 65.8902L116.564 84.6328C116.417 85.2596 116.345 85.8455 116.345 86.3971C116.345 87.1696 116.528 87.7014 116.896 87.996C117.263 88.2906 117.832 88.4363 118.605 88.4363C119.67 88.4363 120.58 87.9764 121.333 87.0583C122.086 86.1401 122.665 84.9814 123.07 83.5854H125.385C124.613 85.8275 123.741 87.6 122.767 88.906C121.793 90.2104 120.801 91.2038 119.79 91.8814C118.778 92.5622 117.796 92.9943 116.841 93.1776C115.885 93.3609 115.04 93.4525 114.306 93.4525C112.798 93.4525 111.577 93.0483 110.639 92.2398C109.702 91.4329 109.124 90.2366 108.903 88.6572C108.499 89.2824 108.021 89.9076 107.469 90.5312C106.918 91.158 106.302 91.7079 105.623 92.1858C104.942 92.6637 104.198 93.0499 103.391 93.3445C102.582 93.6375 101.682 93.7848 100.689 93.7848C99.733 93.7848 98.8231 93.6277 97.9606 93.3167C97.0964 93.0057 96.3158 92.4984 95.6186 91.7995C94.9197 91.1023 94.3682 90.194 93.9656 89.0713C93.5613 87.9518 93.3584 86.564 93.3584 84.9094C93.3584 83.6606 93.486 82.3186 93.7446 80.8866C94.0016 79.4529 94.3862 78.0192 94.9017 76.5872C95.4156 75.1535 96.0588 73.7754 96.8313 72.4514C97.6021 71.129 98.5219 69.9621 99.5874 68.9507C100.653 67.9409 101.838 67.1324 103.144 66.5252C104.448 65.9196 105.908 65.6152 107.527 65.6152C107.969 65.6152 108.437 65.6431 108.932 65.6987C109.428 65.7527 109.888 65.8836 110.311 66.0849C110.733 66.2863 111.101 66.5808 111.414 66.9671C111.726 67.3533 111.937 67.8591 112.047 68.4842L112.599 65.8918H120.589V65.8902ZM109.288 69.0325C108.111 69.0325 107.045 69.5742 106.09 70.6593C105.134 71.7427 104.325 73.0668 103.664 74.6281C103.003 76.1911 102.487 77.8457 102.121 79.5903C101.753 81.3366 101.569 82.8521 101.569 84.1385C101.569 85.2056 101.671 86.0223 101.872 86.5918C102.073 87.163 102.312 87.5836 102.589 87.8602C102.866 88.1368 103.158 88.3021 103.471 88.3561C103.784 88.4117 104.068 88.4395 104.325 88.4395C104.73 88.4395 105.162 88.3381 105.62 88.1368C106.08 87.9355 106.53 87.6311 106.97 87.2268C107.41 86.8242 107.797 86.3169 108.127 85.7113C108.458 85.1058 108.715 84.3971 108.9 83.5886L111.546 71.1307C111.546 70.9834 111.5 70.7919 111.409 70.5513C111.317 70.3123 111.188 70.0832 111.022 69.8623C110.857 69.6413 110.636 69.4482 110.361 69.2829C110.086 69.116 109.728 69.0325 109.288 69.0325Z" fill="#F4F4F2"/>
<path d="M138.945 73.4976C138.945 71.6236 138.284 70.6858 136.961 70.6858C135.969 70.6858 135.105 71.1817 134.37 72.1735C133.636 73.1653 133.066 74.3617 132.662 75.7561L128.912 93.4512H120.975L126.817 65.8873H134.755L134.149 68.7546C135.325 67.4322 136.483 66.5861 137.622 66.2195C138.761 65.8529 139.753 65.668 140.599 65.668C142.364 65.668 143.825 66.1557 144.982 67.1278C146.139 68.1016 146.719 69.6908 146.719 71.8953C146.719 72.9967 146.581 74.2209 146.305 75.5613C146.03 76.9034 145.727 78.2257 145.395 79.5301C145.064 80.8345 144.761 82.0653 144.485 83.2224C144.21 84.3811 144.071 85.345 144.071 86.1159C144.071 86.8147 144.226 87.3745 144.539 87.7967C144.851 88.2206 145.429 88.4301 146.275 88.4301C146.863 88.4301 147.386 88.3106 147.846 88.0717C148.306 87.8327 148.71 87.5021 149.059 87.0799C149.408 86.6593 149.73 86.1519 150.025 85.5644C150.318 84.9768 150.612 84.3156 150.907 83.5792H153.223C152.452 85.859 151.624 87.6691 150.741 89.0094C149.859 90.3515 148.959 91.3711 148.041 92.0699C147.121 92.7671 146.231 93.227 145.367 93.448C144.503 93.6689 143.704 93.7786 142.969 93.7786C141.756 93.7786 140.737 93.6034 139.91 93.2548C139.084 92.9046 138.413 92.4365 137.899 91.849C137.383 91.2614 137.017 90.5904 136.796 89.836C136.577 89.0831 136.465 88.3204 136.465 87.5496C136.465 86.6314 136.593 85.5365 136.851 84.2682C137.108 82.9998 137.393 81.7248 137.706 80.4368C138.017 79.1504 138.303 77.8919 138.56 76.6595C138.815 75.4369 138.945 74.3813 138.945 73.4976Z" fill="#F4F4F2"/>
<path d="M162.592 65.8905L158.623 84.6331C158.476 85.26 158.402 85.8459 158.402 86.3974C158.402 87.1699 158.585 87.7018 158.954 87.9964C159.32 88.291 159.89 88.4366 160.662 88.4366C161.728 88.4366 162.721 87.9767 163.639 87.0586C164.557 86.1404 165.219 84.9817 165.623 83.5857H167.939C167.166 85.8279 166.266 87.6183 165.237 88.9604C164.207 90.3024 163.16 91.3302 162.094 92.047C161.029 92.7639 159.99 93.2319 158.98 93.4529C157.968 93.6738 157.096 93.7835 156.361 93.7835C154.708 93.7835 153.311 93.2598 152.172 92.2123C151.032 91.1632 150.463 89.4824 150.463 87.1683C150.463 86.1765 150.609 84.9817 150.903 83.5857L154.653 65.8905H162.592ZM155.757 58.5601C155.757 57.3474 156.18 56.3081 157.026 55.4456C157.87 54.5815 158.9 54.1494 160.112 54.1494C161.325 54.1494 162.363 54.5815 163.227 55.4456C164.089 56.3098 164.523 57.3474 164.523 58.5601C164.523 59.7729 164.089 60.8007 163.227 61.6468C162.363 62.4929 161.325 62.9152 160.112 62.9152C158.9 62.9152 157.87 62.4929 157.026 61.6468C156.178 60.8007 155.757 59.7712 155.757 58.5601Z" fill="#F4F4F2"/>
<path d="M180.618 73.7802C181.06 72.651 181.279 71.5774 181.279 70.5561C181.279 69.9015 181.159 69.363 180.922 68.944C180.685 68.5267 180.31 68.3156 179.799 68.3156C179.215 68.3156 178.631 68.5823 178.047 69.1159C177.462 69.6494 176.914 70.3466 176.403 71.2108C175.893 72.0749 175.408 73.0585 174.952 74.1599C174.495 75.2614 174.104 76.4021 173.773 77.5772C173.444 78.7539 173.189 79.9029 173.007 81.0239C172.824 82.145 172.734 83.1646 172.734 84.0828C172.734 85.8111 173.045 87.0041 173.667 87.6653C174.287 88.3265 175.073 88.6571 176.024 88.6571C176.572 88.6571 177.138 88.5671 177.722 88.3822C178.307 88.1989 178.893 87.9599 179.477 87.6653C180.061 87.3724 180.619 87.05 181.148 86.7014C181.678 86.3511 182.163 85.9944 182.601 85.6261C182.307 87.2071 181.857 88.5197 181.251 89.5671C180.645 90.6145 179.919 91.4508 179.074 92.076C178.228 92.7012 177.292 93.1431 176.263 93.3984C175.233 93.6554 174.168 93.783 173.065 93.783C170.492 93.783 168.425 93.1038 166.863 91.7405C165.301 90.3789 164.521 88.1318 164.521 85.0009C164.521 83.9338 164.631 82.7113 164.852 81.3284C165.073 79.9487 165.422 78.5297 165.9 77.0764C166.377 75.6231 166.993 74.1861 167.746 72.7672C168.498 71.3499 169.426 70.0979 170.53 69.0111C171.633 67.9244 172.909 67.0406 174.361 66.3598C175.813 65.679 177.475 65.3369 179.349 65.3369C180.562 65.3369 181.564 65.4842 182.354 65.7788C183.143 66.0734 183.768 66.4596 184.228 66.9375C184.688 67.4154 185.009 67.9571 185.192 68.5643C185.375 69.1699 185.469 69.8049 185.469 70.4645C185.469 71.8621 185.166 72.8719 184.559 73.4971C183.953 74.1239 183.282 74.4349 182.547 74.4349C181.848 74.4349 181.205 74.2172 180.618 73.7802Z" fill="#F4F4F2"/>
<defs>
<linearGradient id="paint0_linear_1101_2129" x1="99.4179" y1="199.798" x2="100.387" y2="-2.68817" gradientUnits="userSpaceOnUse">
<stop offset="0.0391" stop-color="#22680B"/>
<stop offset="0.486" stop-color="#AD822A"/>
<stop offset="1" stop-color="#22680B"/>
</linearGradient>
<linearGradient id="paint1_linear_1101_2129" x1="157.608" y1="200.076" x2="158.577" y2="-2.4097" gradientUnits="userSpaceOnUse">
<stop offset="0.0391" stop-color="#22680B"/>
<stop offset="0.486" stop-color="#C6A868"/>
<stop offset="1" stop-color="#22680B"/>
</linearGradient>
<linearGradient id="paint2_linear_1101_2129" x1="43.2626" y1="199.529" x2="44.2314" y2="-2.95662" gradientUnits="userSpaceOnUse">
<stop offset="0.0391" stop-color="#22680B"/>
<stop offset="0.486" stop-color="#C6A868"/>
<stop offset="1" stop-color="#22680B"/>
</linearGradient>
<linearGradient id="paint3_linear_1101_2129" x1="111.435" y1="199.855" x2="112.404" y2="-2.63083" gradientUnits="userSpaceOnUse">
<stop offset="0.0391" stop-color="#22680B"/>
<stop offset="0.486" stop-color="#AD822A"/>
<stop offset="1" stop-color="#22680B"/>
</linearGradient>
</defs>
</svg>
