<svg width="553" height="67" viewBox="0 0 553 67" fill="none" xmlns="http://www.w3.org/2000/svg">
<path d="M33.4332 67C22.7665 67 14.5999 64.4 8.9332 59.2C3.3332 54 0.533203 45.6 0.533203 34C0.533203 26 1.79987 19.5667 4.3332 14.7C6.86654 9.76667 10.5665 6.2 15.4332 4C20.3665 1.73333 26.3665 0.599996 33.4332 0.599996C40.4999 0.599996 46.4665 1.73333 51.3332 4C56.2665 6.2 59.9999 9.76667 62.5332 14.7C65.0665 19.5667 66.3332 26 66.3332 34C66.3332 45.6 63.4999 54 57.8332 59.2C52.1665 64.4 44.0332 67 33.4332 67ZM33.4332 51C38.2332 51 41.6999 49.6667 43.8332 47C46.0332 44.2667 47.1332 39.9333 47.1332 34C47.1332 27.6667 46.0332 23.2 43.8332 20.6C41.6999 17.9333 38.2332 16.6 33.4332 16.6C28.6332 16.6 25.1332 17.9333 22.9332 20.6C20.7999 23.2 19.7332 27.6667 19.7332 34C19.7332 39.9333 20.7999 44.2667 22.9332 47C25.1332 49.6667 28.6332 51 33.4332 51ZM103.334 67C97.334 67 92.034 66.0333 87.434 64.1C82.9007 62.1 79.334 59.2 76.734 55.4C74.134 51.5333 72.834 46.8 72.834 41.2V1.59999H91.634V39.2C91.634 47.0667 95.534 51 103.334 51C107.067 51 109.934 50.0333 111.934 48.1C113.934 46.1667 114.934 43.2 114.934 39.2V1.59999H133.734V41.2C133.734 46.8 132.434 51.5333 129.834 55.4C127.301 59.2 123.734 62.1 119.134 64.1C114.601 66.0333 109.334 67 103.334 67ZM142.279 66V1.59999H175.779C181.046 1.59999 185.346 2.56666 188.679 4.5C192.079 6.43333 194.613 9.13333 196.279 12.6C197.946 16 198.779 19.9667 198.779 24.5C198.779 28.8333 197.679 32.6667 195.479 36C193.346 39.2667 190.479 41.7667 186.879 43.5C187.613 44.1 188.246 44.8333 188.779 45.7C189.313 46.5 189.913 47.6333 190.579 49.1L197.979 66H178.379L171.579 50.5C171.046 49.3 170.379 48.4667 169.579 48C168.846 47.4667 167.779 47.2 166.379 47.2H161.079V66H142.279ZM161.079 32.8H170.979C173.713 32.8 175.813 32.1 177.279 30.7C178.813 29.2333 179.579 27.1667 179.579 24.5C179.579 18.8333 176.913 16 171.579 16H161.079V32.8ZM226.264 66V1.59999H261.664C268.197 1.59999 273.164 3.13333 276.564 6.2C279.964 9.26666 281.664 13.6667 281.664 19.4C281.664 22.7333 281.03 25.5333 279.764 27.8C278.564 30.0667 276.964 31.8667 274.964 33.2C277.697 34.2667 279.864 35.8333 281.464 37.9C283.13 39.9 283.964 42.9 283.964 46.9C283.964 52.9667 282.097 57.6667 278.364 61C274.63 64.3333 269.33 66 262.464 66H226.264ZM244.364 27.3H256.564C261.164 27.3 263.464 25.2333 263.464 21.1C263.464 19.0333 262.897 17.4667 261.764 16.4C260.697 15.3333 258.797 14.8 256.064 14.8H244.364V27.3ZM244.364 52.9H257.364C259.897 52.9 261.764 52.3667 262.964 51.3C264.164 50.2333 264.764 48.4667 264.764 46C264.764 43.9333 264.164 42.3667 262.964 41.3C261.764 40.2333 259.764 39.7 256.964 39.7H244.364V52.9ZM291.01 66V1.59999H324.51C329.776 1.59999 334.076 2.56666 337.41 4.5C340.81 6.43333 343.343 9.13333 345.01 12.6C346.676 16 347.51 19.9667 347.51 24.5C347.51 28.8333 346.41 32.6667 344.21 36C342.076 39.2667 339.21 41.7667 335.61 43.5C336.343 44.1 336.976 44.8333 337.51 45.7C338.043 46.5 338.643 47.6333 339.31 49.1L346.71 66H327.11L320.31 50.5C319.776 49.3 319.11 48.4667 318.31 48C317.576 47.4667 316.51 47.2 315.11 47.2H309.81V66H291.01ZM309.81 32.8H319.71C322.443 32.8 324.543 32.1 326.01 30.7C327.543 29.2333 328.31 27.1667 328.31 24.5C328.31 18.8333 325.643 16 320.31 16H309.81V32.8ZM347.994 66L372.694 1.59999H392.594L417.294 66H397.694L392.294 52.3H372.894L367.594 66H347.994ZM375.394 38.8H389.794L382.594 19.9L375.394 38.8ZM424.311 66V1.59999H440.311L464.611 35.7V1.59999H483.411V66H467.311L443.111 32V66H424.311ZM492.377 66V1.59999H521.177C527.777 1.59999 533.41 2.7 538.077 4.9C542.744 7.03333 546.31 10.5 548.777 15.3C551.244 20.0333 552.477 26.3333 552.477 34.2C552.477 45.2667 549.777 53.3333 544.377 58.4C538.977 63.4667 531.244 66 521.177 66H492.377ZM511.177 51.6H518.777C521.91 51.6 524.544 51.1667 526.677 50.3C528.81 49.3667 530.444 47.6667 531.577 45.2C532.71 42.6667 533.277 39 533.277 34.2C533.277 29.4 532.744 25.7 531.677 23.1C530.677 20.4333 529.11 18.6 526.977 17.6C524.844 16.5333 522.11 16 518.777 16H511.177V51.6Z" fill="#3F3B39" fill-opacity="0.05"/>
</svg>
