<svg width="476" height="67" viewBox="0 0 476 67" fill="none" xmlns="http://www.w3.org/2000/svg">
<path d="M0.65625 66L25.3563 1.59999H45.2563L69.9563 66H50.3563L44.9563 52.3H25.5563L20.2563 66H0.65625ZM28.0563 38.8H42.4563L35.2563 19.9L28.0563 38.8ZM76.9727 66V1.59999H112.373C118.906 1.59999 123.873 3.13333 127.273 6.2C130.673 9.26666 132.373 13.6667 132.373 19.4C132.373 22.7333 131.739 25.5333 130.473 27.8C129.273 30.0667 127.673 31.8667 125.673 33.2C128.406 34.2667 130.573 35.8333 132.173 37.9C133.839 39.9 134.673 42.9 134.673 46.9C134.673 52.9667 132.806 57.6667 129.073 61C125.339 64.3333 120.039 66 113.173 66H76.9727ZM95.0727 27.3H107.273C111.873 27.3 114.173 25.2333 114.173 21.1C114.173 19.0333 113.606 17.4667 112.473 16.4C111.406 15.3333 109.506 14.8 106.773 14.8H95.0727V27.3ZM95.0727 52.9H108.073C110.606 52.9 112.473 52.3667 113.673 51.3C114.873 50.2333 115.473 48.4667 115.473 46C115.473 43.9333 114.873 42.3667 113.673 41.3C112.473 40.2333 110.473 39.7 107.673 39.7H95.0727V52.9ZM172.619 67C161.952 67 153.785 64.4 148.119 59.2C142.519 54 139.719 45.6 139.719 34C139.719 26 140.985 19.5667 143.519 14.7C146.052 9.76667 149.752 6.2 154.619 4C159.552 1.73333 165.552 0.599996 172.619 0.599996C179.685 0.599996 185.652 1.73333 190.519 4C195.452 6.2 199.185 9.76667 201.719 14.7C204.252 19.5667 205.519 26 205.519 34C205.519 45.6 202.685 54 197.019 59.2C191.352 64.4 183.219 67 172.619 67ZM172.619 51C177.419 51 180.885 49.6667 183.019 47C185.219 44.2667 186.319 39.9333 186.319 34C186.319 27.6667 185.219 23.2 183.019 20.6C180.885 17.9333 177.419 16.6 172.619 16.6C167.819 16.6 164.319 17.9333 162.119 20.6C159.985 23.2 158.919 27.6667 158.919 34C158.919 39.9333 159.985 44.2667 162.119 47C164.319 49.6667 167.819 51 172.619 51ZM242.52 67C236.52 67 231.22 66.0333 226.62 64.1C222.086 62.1 218.52 59.2 215.92 55.4C213.32 51.5333 212.02 46.8 212.02 41.2V1.59999H230.82V39.2C230.82 47.0667 234.72 51 242.52 51C246.253 51 249.12 50.0333 251.12 48.1C253.12 46.1667 254.12 43.2 254.12 39.2V1.59999H272.92V41.2C272.92 46.8 271.62 51.5333 269.02 55.4C266.486 59.2 262.92 62.1 258.32 64.1C253.786 66.0333 248.52 67 242.52 67ZM295.565 66V15.6H277.465V1.59999H332.465V15.6H314.365V66H295.565ZM387.93 67C381.93 67 376.63 66.0333 372.03 64.1C367.496 62.1 363.93 59.2 361.33 55.4C358.73 51.5333 357.43 46.8 357.43 41.2V1.59999H376.23V39.2C376.23 47.0667 380.13 51 387.93 51C391.663 51 394.53 50.0333 396.53 48.1C398.53 46.1667 399.53 43.2 399.53 39.2V1.59999H418.33V41.2C418.33 46.8 417.03 51.5333 414.43 55.4C411.896 59.2 408.33 62.1 403.73 64.1C399.196 66.0333 393.93 67 387.93 67ZM447.975 67C443.642 67 439.542 66.6667 435.675 66C431.808 65.2667 428.508 64.2667 425.775 63V47.5C428.775 48.9 432.108 50.0333 435.775 50.9C439.442 51.7667 442.875 52.2 446.075 52.2C449.408 52.2 451.908 51.9333 453.575 51.4C455.308 50.8 456.175 49.5 456.175 47.5C456.175 46.1 455.675 45 454.675 44.2C453.742 43.4 452.242 42.6667 450.175 42C448.175 41.3333 445.542 40.5 442.275 39.5C437.942 38.1 434.508 36.5667 431.975 34.9C429.442 33.2333 427.608 31.2 426.475 28.8C425.408 26.4 424.875 23.4667 424.875 20C424.875 13.6667 427.108 8.86667 431.575 5.6C436.108 2.26666 442.808 0.599996 451.675 0.599996C455.208 0.599996 458.842 0.899996 462.575 1.5C466.375 2.1 469.442 2.76666 471.775 3.5V19.1C468.642 17.8333 465.642 16.9333 462.775 16.4C459.908 15.8667 457.208 15.6 454.675 15.6C451.742 15.6 449.242 15.8333 447.175 16.3C445.108 16.7667 444.075 17.9667 444.075 19.9C444.075 21.5667 444.942 22.8 446.675 23.6C448.475 24.3333 451.642 25.3 456.175 26.5C461.442 27.9 465.442 29.6 468.175 31.6C470.975 33.6 472.875 35.9333 473.875 38.6C474.875 41.2 475.375 44.1667 475.375 47.5C475.375 53.3667 473.108 58.1 468.575 61.7C464.042 65.2333 457.175 67 447.975 67Z" fill="#3F3B39" fill-opacity="0.05"/>
</svg>
