<svg width="302" height="67" viewBox="0 0 302 67" fill="none" xmlns="http://www.w3.org/2000/svg">
<path d="M-0.00390607 66V1.59999H35.3961C41.9294 1.59999 46.8961 3.13333 50.2961 6.2C53.6961 9.26666 55.3961 13.6667 55.3961 19.4C55.3961 22.7333 54.7628 25.5333 53.4961 27.8C52.2961 30.0667 50.6961 31.8667 48.6961 33.2C51.4294 34.2667 53.5961 35.8333 55.1961 37.9C56.8628 39.9 57.6961 42.9 57.6961 46.9C57.6961 52.9667 55.8294 57.6667 52.0961 61C48.3628 64.3333 43.0628 66 36.1961 66H-0.00390607ZM18.0961 27.3H30.2961C34.8961 27.3 37.1961 25.2333 37.1961 21.1C37.1961 19.0333 36.6294 17.4667 35.4961 16.4C34.4294 15.3333 32.5294 14.8 29.7961 14.8H18.0961V27.3ZM18.0961 52.9H31.0961C33.6294 52.9 35.4961 52.3667 36.6961 51.3C37.8961 50.2333 38.4961 48.4667 38.4961 46C38.4961 43.9333 37.8961 42.3667 36.6961 41.3C35.4961 40.2333 33.4961 39.7 30.6961 39.7H18.0961V52.9ZM64.7422 66V1.59999H83.5422V51.6H112.542V66H64.7422ZM147.498 67C136.831 67 128.664 64.4 122.998 59.2C117.398 54 114.598 45.6 114.598 34C114.598 26 115.864 19.5667 118.398 14.7C120.931 9.76667 124.631 6.2 129.498 4C134.431 1.73333 140.431 0.599996 147.498 0.599996C154.564 0.599996 160.531 1.73333 165.398 4C170.331 6.2 174.064 9.76667 176.598 14.7C179.131 19.5667 180.398 26 180.398 34C180.398 45.6 177.564 54 171.898 59.2C166.231 64.4 158.098 67 147.498 67ZM147.498 51C152.298 51 155.764 49.6667 157.898 47C160.098 44.2667 161.198 39.9333 161.198 34C161.198 27.6667 160.098 23.2 157.898 20.6C155.764 17.9333 152.298 16.6 147.498 16.6C142.698 16.6 139.198 17.9333 136.998 20.6C134.864 23.2 133.798 27.6667 133.798 34C133.798 39.9333 134.864 44.2667 136.998 47C139.198 49.6667 142.698 51 147.498 51ZM220.598 67C209.132 67 200.398 64.2 194.398 58.6C188.398 52.9333 185.398 44.8667 185.398 34.4C185.398 23.6 188.498 15.2667 194.698 9.4C200.898 3.53333 209.965 0.599996 221.898 0.599996C225.898 0.599996 229.498 0.83333 232.698 1.3C235.965 1.76666 239.032 2.46666 241.898 3.4V19.5C238.965 18.3667 235.932 17.6 232.798 17.2C229.665 16.8 226.465 16.6 223.198 16.6C216.998 16.6 212.332 18 209.198 20.8C206.132 23.6 204.598 28.1333 204.598 34.4C204.598 40.2667 205.932 44.5 208.598 47.1C211.332 49.7 215.332 51 220.598 51C222.332 51 223.965 50.9 225.498 50.7C227.032 50.4333 228.465 50.1 229.798 49.7V40.3H216.998V28.7H245.498V61.1C243.032 62.6333 239.732 64 235.598 65.2C231.532 66.4 226.532 67 220.598 67ZM273.635 67C269.302 67 265.202 66.6667 261.335 66C257.468 65.2667 254.168 64.2667 251.435 63V47.5C254.435 48.9 257.768 50.0333 261.435 50.9C265.102 51.7667 268.535 52.2 271.735 52.2C275.068 52.2 277.568 51.9333 279.235 51.4C280.968 50.8 281.835 49.5 281.835 47.5C281.835 46.1 281.335 45 280.335 44.2C279.402 43.4 277.902 42.6667 275.835 42C273.835 41.3333 271.202 40.5 267.935 39.5C263.602 38.1 260.168 36.5667 257.635 34.9C255.102 33.2333 253.268 31.2 252.135 28.8C251.068 26.4 250.535 23.4667 250.535 20C250.535 13.6667 252.768 8.86667 257.235 5.6C261.768 2.26666 268.468 0.599996 277.335 0.599996C280.868 0.599996 284.502 0.899996 288.235 1.5C292.035 2.1 295.102 2.76666 297.435 3.5V19.1C294.302 17.8333 291.302 16.9333 288.435 16.4C285.568 15.8667 282.868 15.6 280.335 15.6C277.402 15.6 274.902 15.8333 272.835 16.3C270.768 16.7667 269.735 17.9667 269.735 19.9C269.735 21.5667 270.602 22.8 272.335 23.6C274.135 24.3333 277.302 25.3 281.835 26.5C287.102 27.9 291.102 29.6 293.835 31.6C296.635 33.6 298.535 35.9333 299.535 38.6C300.535 41.2 301.035 44.1667 301.035 47.5C301.035 53.3667 298.768 58.1 294.235 61.7C289.702 65.2333 282.835 67 273.635 67Z" fill="#3F3B39" fill-opacity="0.05"/>
</svg>
