<svg width="573" height="67" viewBox="0 0 573 67" fill="none" xmlns="http://www.w3.org/2000/svg">
<path d="M36.6188 67C24.9521 67 16.0521 64.1333 9.91875 58.4C3.78542 52.6667 0.71875 44.5667 0.71875 34.1C0.71875 23.3 3.71875 15.0333 9.71875 9.3C15.7188 3.5 24.6521 0.599996 36.5188 0.599996C40.5188 0.599996 44.0854 0.899996 47.2188 1.5C50.3521 2.1 53.3521 2.93333 56.2188 4V20.4C50.4854 17.8667 44.3521 16.6 37.8188 16.6C31.7521 16.6 27.2521 18 24.3188 20.8C21.3854 23.5333 19.9188 27.9667 19.9188 34.1C19.9188 40.1 21.4521 44.4333 24.5188 47.1C27.6521 49.7 32.1521 51 38.0188 51C41.2188 51 44.3188 50.7 47.3188 50.1C50.3854 49.5 53.4188 48.5667 56.4188 47.3V63.8C53.5521 64.8 50.5188 65.5667 47.3188 66.1C44.1854 66.7 40.6188 67 36.6188 67ZM93.3844 67C82.7177 67 74.551 64.4 68.8844 59.2C63.2844 54 60.4844 45.6 60.4844 34C60.4844 26 61.751 19.5667 64.2844 14.7C66.8177 9.76667 70.5177 6.2 75.3844 4C80.3177 1.73333 86.3177 0.599996 93.3844 0.599996C100.451 0.599996 106.418 1.73333 111.284 4C116.218 6.2 119.951 9.76667 122.484 14.7C125.018 19.5667 126.284 26 126.284 34C126.284 45.6 123.451 54 117.784 59.2C112.118 64.4 103.984 67 93.3844 67ZM93.3844 51C98.1844 51 101.651 49.6667 103.784 47C105.984 44.2667 107.084 39.9333 107.084 34C107.084 27.6667 105.984 23.2 103.784 20.6C101.651 17.9333 98.1844 16.6 93.3844 16.6C88.5844 16.6 85.0844 17.9333 82.8844 20.6C80.751 23.2 79.6844 27.6667 79.6844 34C79.6844 39.9333 80.751 44.2667 82.8844 47C85.0844 49.6667 88.5844 51 93.3844 51ZM133.285 66V1.59999H149.285L173.585 35.7V1.59999H192.385V66H176.285L152.085 32V66H133.285ZM215.452 66V15.6H197.352V1.59999H252.352V15.6H234.252V66H215.452ZM246.813 66L271.513 1.59999H291.413L316.113 66H296.513L291.113 52.3H271.713L266.413 66H246.813ZM274.213 38.8H288.613L281.413 19.9L274.213 38.8ZM351.56 67C339.893 67 330.993 64.1333 324.86 58.4C318.727 52.6667 315.66 44.5667 315.66 34.1C315.66 23.3 318.66 15.0333 324.66 9.3C330.66 3.5 339.593 0.599996 351.46 0.599996C355.46 0.599996 359.027 0.899996 362.16 1.5C365.293 2.1 368.293 2.93333 371.16 4V20.4C365.427 17.8667 359.293 16.6 352.76 16.6C346.693 16.6 342.193 18 339.26 20.8C336.327 23.5333 334.86 27.9667 334.86 34.1C334.86 40.1 336.393 44.4333 339.46 47.1C342.593 49.7 347.093 51 352.96 51C356.16 51 359.26 50.7 362.26 50.1C365.327 49.5 368.36 48.5667 371.36 47.3V63.8C368.493 64.8 365.46 65.5667 362.26 66.1C359.127 66.7 355.56 67 351.56 67ZM392.502 66V15.6H374.402V1.59999H429.402V15.6H411.302V66H392.502ZM484.867 67C478.867 67 473.567 66.0333 468.967 64.1C464.434 62.1 460.867 59.2 458.267 55.4C455.667 51.5333 454.367 46.8 454.367 41.2V1.59999H473.167V39.2C473.167 47.0667 477.067 51 484.867 51C488.601 51 491.467 50.0333 493.467 48.1C495.467 46.1667 496.467 43.2 496.467 39.2V1.59999H515.267V41.2C515.267 46.8 513.967 51.5333 511.367 55.4C508.834 59.2 505.267 62.1 500.667 64.1C496.134 66.0333 490.867 67 484.867 67ZM544.913 67C540.579 67 536.479 66.6667 532.613 66C528.746 65.2667 525.446 64.2667 522.713 63V47.5C525.713 48.9 529.046 50.0333 532.713 50.9C536.379 51.7667 539.813 52.2 543.013 52.2C546.346 52.2 548.846 51.9333 550.513 51.4C552.246 50.8 553.113 49.5 553.113 47.5C553.113 46.1 552.613 45 551.613 44.2C550.679 43.4 549.179 42.6667 547.113 42C545.113 41.3333 542.479 40.5 539.213 39.5C534.879 38.1 531.446 36.5667 528.913 34.9C526.379 33.2333 524.546 31.2 523.413 28.8C522.346 26.4 521.813 23.4667 521.813 20C521.813 13.6667 524.046 8.86667 528.513 5.6C533.046 2.26666 539.746 0.599996 548.613 0.599996C552.146 0.599996 555.779 0.899996 559.513 1.5C563.313 2.1 566.379 2.76666 568.713 3.5V19.1C565.579 17.8333 562.579 16.9333 559.713 16.4C556.846 15.8667 554.146 15.6 551.613 15.6C548.679 15.6 546.179 15.8333 544.113 16.3C542.046 16.7667 541.013 17.9667 541.013 19.9C541.013 21.5667 541.879 22.8 543.613 23.6C545.413 24.3333 548.579 25.3 553.113 26.5C558.379 27.9 562.379 29.6 565.113 31.6C567.913 33.6 569.813 35.9333 570.813 38.6C571.813 41.2 572.313 44.1667 572.313 47.5C572.313 53.3667 570.046 58.1 565.513 61.7C560.979 65.2333 554.113 67 544.913 67Z" fill="#3F3B39" fill-opacity="0.05"/>
</svg>
