<svg width="313" height="41" viewBox="0 0 313 41" fill="none" xmlns="http://www.w3.org/2000/svg">
<path d="M20.2673 40.6C13.8673 40.6 8.96734 39.04 5.56734 35.92C2.20734 32.8 0.527344 27.76 0.527344 20.8C0.527344 16 1.28734 12.14 2.80734 9.22C4.32734 6.26 6.54734 4.12 9.46734 2.8C12.4273 1.44 16.0273 0.759997 20.2673 0.759997C24.5073 0.759997 28.0873 1.44 31.0073 2.8C33.9673 4.12 36.2073 6.26 37.7273 9.22C39.2473 12.14 40.0073 16 40.0073 20.8C40.0073 27.76 38.3073 32.8 34.9073 35.92C31.5073 39.04 26.6273 40.6 20.2673 40.6ZM20.2673 31C23.1473 31 25.2273 30.2 26.5073 28.6C27.8273 26.96 28.4873 24.36 28.4873 20.8C28.4873 17 27.8273 14.32 26.5073 12.76C25.2273 11.16 23.1473 10.36 20.2673 10.36C17.3873 10.36 15.2873 11.16 13.9673 12.76C12.6873 14.32 12.0473 17 12.0473 20.8C12.0473 24.36 12.6873 26.96 13.9673 28.6C15.2873 30.2 17.3873 31 20.2673 31ZM62.2078 40.6C58.6078 40.6 55.4278 40.02 52.6678 38.86C49.9478 37.66 47.8078 35.92 46.2478 33.64C44.6878 31.32 43.9078 28.48 43.9078 25.12V1.36H55.1878V23.92C55.1878 28.64 57.5278 31 62.2078 31C64.4478 31 66.1678 30.42 67.3678 29.26C68.5678 28.1 69.1678 26.32 69.1678 23.92V1.36H80.4478V25.12C80.4478 28.48 79.6678 31.32 78.1078 33.64C76.5878 35.92 74.4478 37.66 71.6878 38.86C68.9678 40.02 65.8078 40.6 62.2078 40.6ZM85.575 40V1.36H105.675C108.835 1.36 111.415 1.94 113.415 3.1C115.455 4.26 116.975 5.88 117.975 7.96C118.975 10 119.475 12.38 119.475 15.1C119.475 17.7 118.815 20 117.495 22C116.215 23.96 114.495 25.46 112.335 26.5C112.775 26.86 113.155 27.3 113.475 27.82C113.795 28.3 114.155 28.98 114.555 29.86L118.995 40H107.235L103.155 30.7C102.835 29.98 102.435 29.48 101.955 29.2C101.515 28.88 100.875 28.72 100.035 28.72H96.855V40H85.575ZM96.855 20.08H102.795C104.435 20.08 105.695 19.66 106.575 18.82C107.495 17.94 107.955 16.7 107.955 15.1C107.955 11.7 106.355 10 103.155 10H96.855V20.08ZM148.626 40.6C146.026 40.6 143.566 40.4 141.246 40C138.926 39.56 136.946 38.96 135.306 38.2V28.9C137.106 29.74 139.106 30.42 141.306 30.94C143.506 31.46 145.566 31.72 147.486 31.72C149.486 31.72 150.986 31.56 151.986 31.24C153.026 30.88 153.546 30.1 153.546 28.9C153.546 28.06 153.246 27.4 152.646 26.92C152.086 26.44 151.186 26 149.946 25.6C148.746 25.2 147.166 24.7 145.206 24.1C142.606 23.26 140.546 22.34 139.026 21.34C137.506 20.34 136.406 19.12 135.726 17.68C135.086 16.24 134.766 14.48 134.766 12.4C134.766 8.6 136.106 5.72 138.786 3.76C141.506 1.76 145.526 0.759997 150.846 0.759997C152.966 0.759997 155.146 0.939997 157.386 1.3C159.666 1.66 161.506 2.06 162.906 2.5V11.86C161.026 11.1 159.226 10.56 157.506 10.24C155.786 9.92 154.166 9.76 152.646 9.76C150.886 9.76 149.386 9.9 148.146 10.18C146.906 10.46 146.286 11.18 146.286 12.34C146.286 13.34 146.806 14.08 147.846 14.56C148.926 15 150.826 15.58 153.546 16.3C156.706 17.14 159.106 18.16 160.746 19.36C162.426 20.56 163.566 21.96 164.166 23.56C164.766 25.12 165.066 26.9 165.066 28.9C165.066 32.42 163.706 35.26 160.986 37.42C158.266 39.54 154.146 40.6 148.626 40.6ZM177.707 40V9.76H166.847V1.36H199.847V9.76H188.987V40H177.707ZM220.775 40.6C214.375 40.6 209.475 39.04 206.075 35.92C202.715 32.8 201.035 27.76 201.035 20.8C201.035 16 201.795 12.14 203.315 9.22C204.835 6.26 207.055 4.12 209.975 2.8C212.935 1.44 216.535 0.759997 220.775 0.759997C225.015 0.759997 228.595 1.44 231.515 2.8C234.475 4.12 236.715 6.26 238.235 9.22C239.755 12.14 240.515 16 240.515 20.8C240.515 27.76 238.815 32.8 235.415 35.92C232.015 39.04 227.135 40.6 220.775 40.6ZM220.775 31C223.655 31 225.735 30.2 227.015 28.6C228.335 26.96 228.995 24.36 228.995 20.8C228.995 17 228.335 14.32 227.015 12.76C225.735 11.16 223.655 10.36 220.775 10.36C217.895 10.36 215.795 11.16 214.475 12.76C213.195 14.32 212.555 17 212.555 20.8C212.555 24.36 213.195 26.96 214.475 28.6C215.795 30.2 217.895 31 220.775 31ZM244.716 40V1.36H264.816C267.976 1.36 270.556 1.94 272.556 3.1C274.596 4.26 276.116 5.88 277.116 7.96C278.116 10 278.616 12.38 278.616 15.1C278.616 17.7 277.956 20 276.636 22C275.356 23.96 273.636 25.46 271.476 26.5C271.916 26.86 272.296 27.3 272.616 27.82C272.936 28.3 273.296 28.98 273.696 29.86L278.136 40H266.376L262.296 30.7C261.976 29.98 261.576 29.48 261.096 29.2C260.656 28.88 260.016 28.72 259.176 28.72H255.996V40H244.716ZM255.996 20.08H261.936C263.576 20.08 264.836 19.66 265.716 18.82C266.636 17.94 267.096 16.7 267.096 15.1C267.096 11.7 265.496 10 262.296 10H255.996V20.08ZM282.802 40V1.36H312.082V10H294.082V16.3H309.862V25.06H294.082V31.36H312.082V40H282.802Z" fill="#3F3B39" fill-opacity="0.05"/>
</svg>
