<svg width="273" height="272" viewBox="0 0 273 272" fill="none" xmlns="http://www.w3.org/2000/svg">
<g clip-path="url(#clip0_1315_1846)">
<mask id="mask0_1315_1846" style="mask-type:luminance" maskUnits="userSpaceOnUse" x="70" y="36" width="133" height="200">
<path d="M184.583 36H88.4172C78.3009 36 70.1 44.1868 70.1 54.2857V217.714C70.1 227.813 78.3009 236 88.4172 236H184.583C194.699 236 202.9 227.813 202.9 217.714V54.2857C202.9 44.1868 194.699 36 184.583 36Z" fill="white"/>
</mask>
<g mask="url(#mask0_1315_1846)">
<path fill-rule="evenodd" clip-rule="evenodd" d="M70.1 72.5714C70.1 55.3315 70.1 46.7115 75.465 41.3558C80.83 36 89.4648 36 106.734 36H166.265C183.535 36 192.17 36 197.535 41.3558C202.9 46.7115 202.9 55.3315 202.9 72.5714V199.429C202.9 216.669 202.9 225.289 197.535 230.644C192.17 236 183.535 236 166.265 236H106.734C89.4648 236 80.83 236 75.465 230.644C70.1 225.289 70.1 216.669 70.1 199.429V72.5714ZM185.155 45.1428C186.231 45.0818 186.421 45.3675 185.728 45.9999C162.572 60.1639 143.777 78.7354 129.345 101.714C124.728 109.186 120.339 116.805 116.179 124.571C108.887 109.293 99.347 95.5789 87.5587 83.4285C87.177 83.0474 87.177 82.6668 87.5587 82.2857C93.5404 84.0222 99.3596 86.2131 105.017 88.8571C108.381 90.8239 111.434 93.2051 114.176 96C127.67 81.6599 142.744 69.3742 159.397 59.1428C168.018 54.4599 176.604 49.7933 185.155 45.1428ZM83.8245 126.588V165.143H99.8247C101.962 165.143 103.713 164.986 105.079 164.671C106.445 164.338 107.558 163.927 108.416 163.438C109.292 162.949 110.106 162.284 110.859 161.445C111.612 160.588 112.252 159.486 112.777 158.14C113.32 156.776 113.592 155.316 113.592 153.76C113.592 151.137 112.812 148.969 111.253 147.255C110.167 146.067 108.617 145.096 106.603 144.345C108.32 143.575 109.607 142.465 110.465 141.013C111.323 139.545 111.753 137.927 111.753 136.161C111.753 134.43 111.306 132.787 110.413 131.23C109.537 129.674 108.25 128.511 106.551 127.742C104.869 126.973 102.802 126.588 100.35 126.588H83.8245ZM98.6424 143.007H89.0003V131.099H98.6424C100.604 131.099 102.119 131.283 103.188 131.65C104.239 132.017 105.053 132.655 105.631 133.565C106.226 134.457 106.524 135.567 106.524 136.895C106.524 137.962 106.349 138.906 105.999 139.728C105.649 140.533 105.237 141.145 104.764 141.564C104.309 141.966 103.704 142.281 102.951 142.509C101.9 142.841 100.464 143.007 98.6424 143.007ZM99.2729 160.606H89.0003V147.203H99.2729C102.426 147.203 104.729 147.754 106.183 148.855C107.636 149.939 108.363 151.566 108.363 153.734C108.363 156.025 107.707 157.747 106.393 158.901C105.097 160.037 102.723 160.606 99.2729 160.606ZM120.475 126.588V165.143H125.651V148.593H137.553C139.672 148.593 141.222 148.812 142.203 149.249C143.183 149.686 143.893 150.315 144.331 151.137C144.769 151.959 145.032 153.209 145.119 154.888L145.382 160.789C145.434 161.926 145.522 162.817 145.645 163.464C145.715 163.954 145.855 164.513 146.065 165.143H152.502V164.277C151.941 163.963 151.521 163.595 151.241 163.176C150.96 162.739 150.759 162.223 150.636 161.629C150.566 161.191 150.496 160.186 150.426 158.612L150.242 153.445C150.172 151.33 149.761 149.73 149.008 148.646C148.254 147.562 147.107 146.74 145.566 146.18C147.265 145.358 148.596 144.222 149.559 142.771C150.522 141.302 151.004 139.343 151.004 136.895C151.004 134.745 150.496 132.857 149.481 131.23C148.465 129.605 147.055 128.424 145.25 127.69C143.464 126.955 141.082 126.588 138.104 126.588H120.475ZM137.185 144.266H125.651V131.099H138.315C140.696 131.099 142.413 131.493 143.464 132.279C145.005 133.434 145.776 135.191 145.776 137.551C145.776 139.353 145.399 140.813 144.646 141.931C144.068 142.771 143.131 143.4 141.835 143.82C140.942 144.117 139.392 144.266 137.185 144.266ZM182.742 134.299C183.442 135.243 184.029 136.485 184.502 138.023H189.547C189.214 135.733 188.531 133.792 187.497 132.201C186.044 129.998 184.108 128.354 181.691 127.27C179.291 126.169 176.655 125.618 173.783 125.618C170.227 125.618 167.049 126.431 164.246 128.057C161.461 129.683 159.342 132.096 157.888 135.296C156.434 138.478 155.707 142.115 155.707 146.206C155.707 149.389 156.18 152.326 157.126 155.019C157.809 156.96 158.825 158.752 160.173 160.395C161.54 162.039 163.291 163.403 165.428 164.487C167.565 165.571 170.166 166.113 173.231 166.113C175.631 166.113 177.724 165.773 179.511 165.09C181.314 164.391 182.943 163.394 184.397 162.101C185.851 160.806 187.033 159.285 187.944 157.537C188.872 155.789 189.494 153.725 189.809 151.347H184.817C184.275 154.494 182.961 156.986 180.876 158.822C178.792 160.641 176.314 161.55 173.441 161.55C169.956 161.55 166.996 160.186 164.561 157.458C162.144 154.73 160.935 150.893 160.935 145.944C160.935 142.605 161.496 139.754 162.617 137.394C163.755 135.016 165.288 133.224 167.215 132.017C169.159 130.793 171.392 130.181 173.914 130.181C175.841 130.181 177.558 130.549 179.064 131.283C180.57 132.017 181.796 133.023 182.742 134.299ZM90.0726 207.429H83.3411V171.429H102.43V176.709H90.0726V185.829H101.661V191.109H90.0726V207.429ZM106.805 191.685V186.549C107.094 177.381 107.815 170.565 118.586 170.565C129.356 170.565 130.077 177.381 130.366 186.549V191.685C130.366 201.285 129.645 208.293 118.586 208.293C107.527 208.293 106.805 201.285 106.805 191.685ZM113.729 185.061V195.045C113.729 198.021 113.97 202.869 118.586 202.869C123.394 202.869 123.442 197.925 123.442 194.469V185.253C123.442 185.177 123.442 185.098 123.442 185.017C123.446 182.039 123.454 175.989 118.586 175.989C113.645 175.989 113.697 181.475 113.725 184.467V184.469C113.727 184.679 113.729 184.878 113.729 185.061ZM136.2 191.685V186.549C136.489 177.381 137.21 170.565 147.98 170.565C158.751 170.565 159.472 177.381 159.761 186.549V191.685C159.761 201.285 159.039 208.293 147.98 208.293C136.921 208.293 136.2 201.285 136.2 191.685ZM143.124 185.061V195.045C143.124 198.021 143.364 202.869 147.98 202.869C152.789 202.869 152.837 197.925 152.837 194.469V185.253C152.837 185.178 152.837 185.102 152.837 185.023V185.017C152.841 182.039 152.848 175.989 147.98 175.989C143.04 175.989 143.091 181.475 143.12 184.467C143.121 184.565 143.122 184.659 143.122 184.75C143.123 184.858 143.124 184.962 143.124 185.061ZM172.855 202.149H175.788C181.798 202.149 182.183 198.981 182.183 188.565C182.183 180.069 181.317 176.709 177.278 176.709H172.855V202.149ZM178.576 207.429H166.123V171.429H180.163C181.798 171.429 185.068 172.149 187.135 175.509C188.674 178.005 189.107 181.989 189.107 187.941C189.107 195.045 189.107 203.253 183.577 206.469C182.086 207.333 180.259 207.429 178.576 207.429ZM92.0715 223.689H89.4888C89.4814 223.807 89.478 223.95 89.4742 224.11C89.4497 225.135 89.4092 226.834 88.1883 226.834C86.4298 226.834 86.3382 224.987 86.3382 223.854V220.05C86.3382 219.981 86.3375 219.905 86.3367 219.824C86.326 218.685 86.3062 216.594 88.1883 216.594C89.2622 216.594 89.3575 217.782 89.4293 218.678C89.442 218.837 89.4539 218.986 89.4705 219.118H91.9982C92.0166 218.77 91.9799 218.423 91.9433 218.075C91.7601 215.735 90.4779 214.565 88.1883 214.528C84.0852 214.528 83.8104 217.125 83.7005 220.617V222.574C83.7005 226.231 83.9753 228.901 88.1883 228.901C91.0457 228.901 91.8883 226.981 92.0166 224.475C92.0257 224.347 92.0349 224.215 92.044 224.083C92.0532 223.95 92.0623 223.817 92.0715 223.689ZM94.0436 228.571H101.261V226.56H96.608V222.336H100.894V220.325H96.608V216.869H101.261V214.857H94.0436V228.571ZM105.803 222.665H106.261C106.318 222.665 106.374 222.665 106.43 222.665C107.109 222.663 107.798 222.662 108.441 222.848C109.281 223.093 109.302 224.155 109.318 224.983C109.319 225.022 109.319 225.059 109.32 225.097C109.323 225.255 109.324 225.436 109.325 225.631C109.33 226.569 109.337 227.845 109.595 228.571H112.416V228.315C111.839 227.943 111.859 225.029 111.865 224.15C111.866 224.081 111.866 224.023 111.866 223.982C111.866 222.665 111.408 221.696 109.888 221.495V221.458C111.61 221.221 111.995 219.648 111.995 218.149C111.995 215.625 110.309 214.857 108.093 214.857H103.239V228.571H105.803V222.665ZM105.803 220.654V216.869H107.708C108.679 216.887 109.32 217.143 109.32 218.679C109.32 220.05 108.661 220.599 107.818 220.654H105.803ZM113.217 214.857V216.869H116.221V228.571H118.786V216.869H121.771V214.857H113.217ZM123.328 228.571H125.893V214.857H123.328V228.571ZM128.499 228.571H131.064V222.354H135.478V220.343H131.064V216.869H135.772V214.857H128.499V228.571ZM137.585 228.571H140.15V214.857H137.585V228.571ZM150.798 223.689H148.215C148.208 223.807 148.204 223.95 148.2 224.109C148.175 225.135 148.135 226.834 146.914 226.834C145.156 226.834 145.064 224.987 145.064 223.854V220.05C145.064 219.981 145.063 219.905 145.063 219.824C145.052 218.685 145.032 216.594 146.914 216.594C147.988 216.594 148.083 217.782 148.155 218.678C148.168 218.837 148.18 218.986 148.197 219.118H150.724C150.743 218.77 150.706 218.423 150.67 218.075C150.486 215.735 149.204 214.565 146.914 214.528C142.811 214.528 142.537 217.125 142.427 220.617V222.574C142.427 226.231 142.702 228.901 146.914 228.901C149.772 228.901 150.615 226.981 150.743 224.475C150.752 224.347 150.761 224.214 150.77 224.081C150.779 223.949 150.789 223.817 150.798 223.689ZM151.762 228.571H154.51L155.188 225.097H158.192L158.869 228.571H161.617L158.503 214.857H155.041L151.762 228.571ZM155.591 223.086L156.36 219.191C156.464 218.67 156.52 218.162 156.577 217.645C156.589 217.527 156.603 217.409 156.616 217.289C156.635 216.978 156.671 216.667 156.708 216.375H156.745C156.781 216.667 156.818 216.978 156.836 217.289C156.85 217.409 156.863 217.527 156.876 217.645C156.932 218.161 156.988 218.67 157.093 219.191L157.789 223.086H155.591ZM161.085 214.857V216.869H164.089V228.571H166.654V216.869H169.639V214.857H161.085ZM171.105 228.571H178.322V226.56H173.669V222.336H177.955V220.325H173.669V216.869H178.322V214.857H171.105V228.571ZM184.092 226.56H182.974V216.869H184.659C186.198 216.869 186.528 218.149 186.528 221.385C186.528 225.353 186.381 226.56 184.092 226.56ZM180.41 228.571H185.154C185.795 228.571 186.491 228.535 187.059 228.206C189.165 226.981 189.165 223.854 189.165 221.147C189.165 218.88 189.001 217.362 188.414 216.411C187.627 215.131 186.381 214.857 185.758 214.857H180.41V228.571Z" fill="#6CBE43"/>
</g>
</g>
<defs>
<clipPath id="clip0_1315_1846">
<rect width="132.8" height="200" fill="white" transform="translate(70.1 36)"/>
</clipPath>
</defs>
</svg>
