<svg width="273" height="272" viewBox="0 0 273 272" fill="none" xmlns="http://www.w3.org/2000/svg">
<g clip-path="url(#clip0_1315_1892)">
<path fill-rule="evenodd" clip-rule="evenodd" d="M217.908 150.057L169.908 150.044V158.063L213.189 158.045L213.253 157.855" fill="#221F1F"/>
<path fill-rule="evenodd" clip-rule="evenodd" d="M69.3519 136.863H91.3652V128.582H61.4004L61.0847 128.58V158.059H69.1207V136.986" fill="#221F1F"/>
<path fill-rule="evenodd" clip-rule="evenodd" d="M61.0869 99.6468L121.241 99.6382L121.369 99.5841C134.353 99.703 144.841 110.232 144.841 123.199C144.841 136.186 134.319 146.725 121.304 146.816L121.096 146.805L106.38 146.79V116.975H114.688V138.681L115.382 138.663H121.113L121.431 138.659C129.841 138.491 136.602 131.644 136.602 123.229C136.602 114.765 129.772 107.892 121.304 107.793L69.3195 107.789L69.1207 107.793V116.806L69.1273 116.968L91.3067 116.975L91.3282 125.255L61.1755 125.251L61.0847 125.244" fill="#221F1F"/>
<path fill-rule="evenodd" clip-rule="evenodd" d="M181.566 88.7961L217.908 150.057L223.099 141.459L190.892 88.7961H181.566Z" fill="#221F1F"/>
<path fill-rule="evenodd" clip-rule="evenodd" d="M144.272 158.063L181.538 95.9758L212.274 146.838H169.908V138.902H197.411L181.538 112.42L155.519 158.063" fill="#221F1F"/>
<path fill-rule="evenodd" clip-rule="evenodd" d="M94.6164 149.795L94.6509 116.973H102.959V149.795L102.957 149.861H121.113L121.303 149.869C136.013 149.763 147.904 137.849 147.904 123.167C147.904 108.511 136.046 96.6072 121.368 96.4688L121.113 96.4775L58.1161 96.4754L58.114 158.059H50.0801L50.0823 88.4761L121.113 88.4718H121.433C138.327 88.6253 152.349 100.36 155.382 116.355L172.241 88.7961H181.566L152.652 137.233L149.846 141.971C143.628 151.086 133.302 157.873 121.433 157.979L121.113 157.981H94.6164" fill="#221F1F"/>
<path d="M51.4576 181.251H52.5645V173.944H55.0724V173.045H48.9152V173.944H51.4144V181.251H51.4576Z" fill="#010202"/>
<path d="M55.8326 181.251H56.9396V177.697C56.9396 177.49 56.9482 177.334 57.0088 177.187C57.2076 176.599 57.7179 176.114 58.4097 176.114C59.4215 176.114 59.7242 176.919 59.7242 177.87V181.251H60.883V177.74C60.883 175.708 59.5772 175.224 58.7902 175.224C58.3838 175.224 57.9773 175.345 57.6574 175.527C57.3287 175.708 57.0607 175.976 56.8877 176.287H56.9396V172.604H55.7808V181.251H55.8326Z" fill="#010202"/>
<path d="M67.3641 178.501C67.3727 178.389 67.3987 178.216 67.3987 178C67.3987 176.919 66.8539 175.224 64.9254 175.224C63.2131 175.224 62.1149 176.625 62.1149 178.406C62.1149 180.179 63.2477 181.381 65.0638 181.381C65.9977 181.381 66.6463 181.182 67.0614 180.992L66.8712 180.231C66.4388 180.413 65.9718 180.542 65.2108 180.542C64.1385 180.542 63.2477 179.946 63.2218 178.501H67.3641ZM63.2304 177.732C63.3169 176.988 63.7579 175.994 64.8389 175.994C66.0496 175.994 66.2918 177.048 66.2745 177.732H63.2304Z" fill="#010202"/>
<path d="M71.3065 181.251H72.4049V177.542H75.5094V176.659H72.4049V173.935H75.7601V173.045H71.2546V181.251H71.3065Z" fill="#010202"/>
<path d="M79.3148 175.224C77.6889 175.224 76.3486 176.383 76.3486 178.354C76.3486 180.213 77.6283 181.381 79.2198 181.381C80.6465 181.381 82.1943 180.438 82.1943 178.259C82.1943 176.452 81.0097 175.224 79.3148 175.224ZM79.2974 176.028C80.5601 176.028 81.0097 177.291 81.0097 178.294C81.0097 179.617 80.292 180.585 79.2717 180.585C78.2252 180.585 77.5162 179.608 77.5162 178.32C77.5162 177.196 78.0264 176.028 79.2974 176.028Z" fill="#010202"/>
<path d="M85.9997 175.224C84.3738 175.224 83.0334 176.383 83.0334 178.354C83.0334 180.213 84.3132 181.381 85.9047 181.381C87.3313 181.381 88.8792 180.438 88.8792 178.259C88.8792 176.452 87.6945 175.224 85.9997 175.224ZM85.9823 176.028C87.245 176.028 87.6945 177.291 87.6945 178.294C87.6945 179.617 86.9768 180.585 85.9565 180.585C84.9101 180.585 84.2011 179.608 84.2011 178.32C84.2011 177.196 84.7113 176.028 85.9823 176.028Z" fill="#010202"/>
<path d="M94.1628 172.604V176.123H94.2064C93.9382 175.647 93.3069 175.224 92.4073 175.224C90.9719 175.224 89.7005 176.426 89.718 178.389C89.718 180.179 90.8595 181.381 92.2865 181.381C93.2462 181.381 93.9901 180.888 94.3184 180.231H94.2666L94.3184 181.251H95.3649C95.3304 180.854 95.3217 180.257 95.3217 179.729V172.604H94.1628ZM94.1628 178.778C94.1628 178.951 94.1458 179.098 94.1109 179.245C93.9208 180.049 93.3069 180.525 92.5892 180.525C91.4302 180.525 90.8856 179.531 90.8856 178.337C90.8856 177.04 91.5082 176.062 92.6149 176.062C93.4193 176.062 93.9552 176.625 94.1109 177.308C94.1458 177.438 94.1628 177.619 94.1628 177.758V178.778Z" fill="#010202"/>
<path d="M103.819 177.637C103.819 176.452 103.344 175.224 101.536 175.224C100.801 175.224 100.057 175.432 99.5558 175.76L99.8065 176.504C100.282 176.184 100.836 176.019 101.381 176.019C102.591 176.019 102.669 176.893 102.669 177.377V177.498C100.447 177.49 99.132 178.268 99.132 179.695C99.132 180.542 99.7895 181.381 100.983 181.381C101.821 181.381 102.479 180.975 102.807 180.508H102.773L102.851 181.251H103.914C103.845 180.854 103.819 180.352 103.819 179.842V177.637ZM102.695 179.262C102.695 179.375 102.669 179.496 102.635 179.608C102.461 180.11 102.029 180.594 101.259 180.594C100.715 180.594 100.282 180.265 100.282 179.574C100.282 178.424 101.579 178.216 102.695 178.242V179.262Z" fill="#010202"/>
<path d="M105.511 181.251H106.618V177.706C106.618 177.524 106.644 177.343 106.687 177.213C106.869 176.616 107.388 176.114 108.088 176.114C109.1 176.114 109.403 176.901 109.403 177.853V181.251H110.562V177.732C110.562 175.708 109.256 175.224 108.443 175.224C107.465 175.224 106.748 175.769 106.463 176.331H106.506L106.445 175.362H105.416C105.451 175.847 105.459 176.348 105.459 176.953V181.251H105.511Z" fill="#010202"/>
<path d="M116.238 172.604V176.123H116.282C116.013 175.647 115.382 175.224 114.483 175.224C113.047 175.224 111.776 176.426 111.793 178.389C111.793 180.179 112.935 181.381 114.362 181.381C115.321 181.381 116.065 180.888 116.394 180.231H116.342L116.394 181.251H117.44C117.406 180.854 117.397 180.257 117.397 179.729V172.604H116.238ZM116.238 178.778C116.238 178.951 116.221 179.098 116.186 179.245C115.996 180.049 115.382 180.525 114.664 180.525C113.505 180.525 112.961 179.531 112.961 178.337C112.961 177.04 113.583 176.062 114.69 176.062C115.495 176.062 116.031 176.625 116.186 177.308C116.221 177.438 116.238 177.619 116.238 177.758V178.778Z" fill="#010202"/>
<path d="M121.752 181.226C122.288 181.286 122.92 181.321 123.672 181.321C125.272 181.321 126.561 180.914 127.33 180.145C128.1 179.392 128.524 178.294 128.524 176.953C128.524 175.63 128.082 174.679 127.356 174.005C126.638 173.339 125.523 172.984 124.001 172.984C123.162 172.984 122.401 173.053 121.7 173.166V181.226H121.752ZM122.816 173.935C123.092 173.875 123.508 173.823 124.053 173.823C126.292 173.823 127.339 175.051 127.33 176.988C127.33 179.202 126.145 180.473 123.879 180.473C123.473 180.473 123.075 180.456 122.85 180.421V173.935H122.816Z" fill="#010202"/>
<path d="M129.827 181.251H130.925V178.112C130.925 177.93 130.942 177.758 130.968 177.611C131.115 176.806 131.617 176.236 132.369 176.236C132.516 176.236 132.629 176.244 132.776 176.287V175.276C132.638 175.232 132.551 175.224 132.43 175.224C131.712 175.224 131.02 175.725 130.752 176.512H130.787L130.752 175.362H129.732C129.766 175.907 129.775 176.504 129.775 177.196V181.251H129.827Z" fill="#010202"/>
<path d="M138.738 175.362H137.614V178.977C137.614 179.167 137.579 179.366 137.518 179.522C137.328 179.998 136.878 180.499 136.161 180.499C135.183 180.499 134.881 179.738 134.881 178.622V175.362H133.722V178.804C133.722 180.871 134.881 181.381 135.806 181.381C136.852 181.381 137.492 180.767 137.778 180.292H137.726L137.786 181.252H138.824C138.79 180.785 138.772 180.257 138.772 179.643V175.362H138.738Z" fill="#010202"/>
<path d="M145.585 176.979C145.585 176.262 145.603 175.786 145.628 175.362H144.608L144.556 176.244H144.608C144.349 175.76 143.769 175.224 142.74 175.224C141.391 175.224 140.042 176.357 140.042 178.354C140.042 179.989 141.14 181.225 142.601 181.225C143.51 181.225 144.167 180.784 144.495 180.24H144.452V180.897C144.452 182.384 143.691 182.955 142.601 182.955C141.867 182.955 141.278 182.739 140.829 182.453L140.552 183.31C141.036 183.63 141.858 183.794 142.558 183.794C143.302 183.794 144.158 183.63 144.729 183.093C145.3 182.574 145.585 181.753 145.585 180.395V176.979ZM144.435 178.744C144.435 178.925 144.409 179.133 144.349 179.314C144.124 179.998 143.57 180.413 142.913 180.413C141.754 180.413 141.209 179.453 141.209 178.294C141.209 176.928 141.901 176.062 142.93 176.062C143.708 176.062 144.184 176.573 144.374 177.196C144.426 177.343 144.435 177.498 144.435 177.68V178.744Z" fill="#010202"/>
<path d="M154.125 178.674L155.007 181.251H156.227L153.425 173.045H152.059L149.274 181.251H150.45L151.306 178.674H154.125ZM151.522 177.844L152.327 175.466C152.482 174.965 152.621 174.471 152.742 173.979H152.681C152.802 174.454 152.923 174.947 153.105 175.483L153.909 177.844H151.522Z" fill="#010202"/>
<path d="M161.18 172.604V176.123H161.223C160.956 175.647 160.324 175.224 159.425 175.224C157.989 175.224 156.718 176.426 156.735 178.389C156.735 180.179 157.877 181.381 159.304 181.381C160.264 181.381 161.008 180.888 161.336 180.231H161.284L161.336 181.251H162.382C162.348 180.854 162.339 180.257 162.339 179.729V172.604H161.18ZM161.18 178.778C161.18 178.951 161.163 179.098 161.128 179.245C160.938 180.049 160.324 180.525 159.607 180.525C158.448 180.525 157.903 179.531 157.903 178.337C157.903 177.04 158.525 176.062 159.632 176.062C160.437 176.062 160.973 176.625 161.128 177.308C161.163 177.438 161.18 177.619 161.18 177.758V178.778Z" fill="#010202"/>
<path d="M164.078 181.251H165.159V177.697C165.159 177.515 165.185 177.334 165.246 177.17C165.419 176.633 165.868 176.097 166.535 176.097C167.356 176.097 167.719 176.781 167.719 177.723V181.251H168.852V177.611C168.852 177.412 168.886 177.221 168.938 177.074C169.12 176.556 169.552 176.097 170.167 176.097C171.031 176.097 171.394 176.781 171.394 177.913V181.251H172.527V177.783C172.527 175.734 171.334 175.224 170.556 175.224C169.993 175.224 169.57 175.371 169.215 175.639C168.973 175.82 168.739 176.08 168.558 176.409H168.61C168.351 175.708 167.702 175.224 166.898 175.224C165.929 175.224 165.341 175.751 165.012 176.305H165.047L165.004 175.362H163.983C164.018 175.847 164.027 176.348 164.027 176.953V181.251H164.078Z" fill="#010202"/>
<path d="M175.34 181.251V175.362H174.181V181.251H175.34ZM174.769 173.036C174.38 173.036 174.051 173.321 174.051 173.702C174.051 174.065 174.363 174.359 174.743 174.359C175.167 174.359 175.47 174.065 175.461 173.702C175.461 173.321 175.167 173.036 174.769 173.036Z" fill="#010202"/>
<path d="M177.083 181.251H178.189V177.706C178.189 177.524 178.215 177.343 178.259 177.213C178.44 176.616 178.959 176.114 179.66 176.114C180.672 176.114 180.974 176.901 180.974 177.853V181.251H182.133V177.732C182.133 175.708 180.827 175.224 180.014 175.224C179.037 175.224 178.319 175.769 178.034 176.331H178.077L178.017 175.362H176.988C177.022 175.847 177.031 176.348 177.031 176.953V181.251H177.083Z" fill="#010202"/>
<path d="M184.947 181.251V175.362H183.788V181.251H184.947ZM184.377 173.036C183.987 173.036 183.658 173.321 183.658 173.702C183.658 174.065 183.97 174.359 184.35 174.359C184.774 174.359 185.077 174.065 185.068 173.702C185.068 173.321 184.774 173.036 184.377 173.036Z" fill="#010202"/>
<path d="M186.24 180.975C186.655 181.217 187.286 181.381 187.926 181.381C189.327 181.381 190.166 180.646 190.166 179.608C190.166 178.735 189.612 178.216 188.583 177.827C187.822 177.541 187.502 177.316 187.502 176.832C187.502 176.391 187.822 176.028 188.453 176.028C188.998 176.028 189.387 176.218 189.681 176.417L189.967 175.604C189.621 175.397 189.076 175.224 188.479 175.224C187.208 175.224 186.395 176.002 186.395 176.953C186.395 177.663 186.94 178.242 188.004 178.622C188.791 178.916 189.05 179.193 189.05 179.703C189.05 180.196 188.73 180.585 187.952 180.585C187.416 180.585 186.879 180.361 186.508 180.118L186.222 180.975H186.24Z" fill="#010202"/>
<path d="M191.701 174.273V175.362H190.793V176.175H191.701V179.392C191.701 180.084 191.822 180.603 192.134 180.923C192.384 181.217 192.825 181.381 193.327 181.381C193.734 181.381 194.062 181.312 194.313 181.217L194.261 180.413C194.062 180.473 193.898 180.499 193.604 180.499C193.007 180.499 192.834 180.084 192.834 179.349V176.175H194.374V175.362H192.834V173.936L191.701 174.299V174.273Z" fill="#010202"/>
<path d="M195.541 181.251H196.64V178.112C196.64 177.93 196.657 177.758 196.683 177.611C196.83 176.806 197.332 176.236 198.084 176.236C198.231 176.236 198.343 176.244 198.49 176.287V175.276C198.352 175.232 198.266 175.224 198.145 175.224C197.427 175.224 196.735 175.725 196.467 176.512H196.502L196.467 175.362H195.446C195.481 175.907 195.49 176.504 195.49 177.196V181.251H195.541Z" fill="#010202"/>
<path d="M203.639 177.637C203.639 176.452 203.163 175.224 201.356 175.224C200.621 175.224 199.877 175.432 199.376 175.76L199.626 176.504C200.102 176.184 200.655 176.019 201.2 176.019C202.411 176.019 202.489 176.893 202.489 177.377V177.498C200.266 177.49 198.952 178.268 198.952 179.695C198.952 180.542 199.609 181.381 200.802 181.381C201.641 181.381 202.299 180.975 202.627 180.508H202.593L202.67 181.251H203.734C203.665 180.854 203.639 180.352 203.639 179.842V177.637ZM202.515 179.262C202.515 179.375 202.489 179.496 202.454 179.608C202.281 180.11 201.849 180.594 201.079 180.594C200.535 180.594 200.102 180.265 200.102 179.574C200.102 178.424 201.399 178.216 202.515 178.242V179.262Z" fill="#010202"/>
<path d="M205.473 174.273V175.362H204.564V176.175H205.473V179.392C205.473 180.084 205.594 180.603 205.905 180.923C206.156 181.217 206.597 181.381 207.098 181.381C207.505 181.381 207.833 181.312 208.084 181.217L208.032 180.413C207.833 180.473 207.669 180.499 207.375 180.499C206.778 180.499 206.605 180.084 206.605 179.349V176.175H208.145V175.362H206.605V173.936L205.473 174.299V174.273Z" fill="#010202"/>
<path d="M210.419 181.252V175.362H209.261V181.252H210.419ZM209.849 173.036C209.459 173.036 209.131 173.322 209.131 173.702C209.131 174.065 209.442 174.359 209.823 174.359C210.246 174.359 210.549 174.065 210.54 173.702C210.54 173.322 210.246 173.036 209.849 173.036Z" fill="#010202"/>
<path d="M214.652 175.224C213.026 175.224 211.686 176.383 211.686 178.355C211.686 180.214 212.966 181.381 214.557 181.381C215.984 181.381 217.532 180.439 217.532 178.26C217.532 176.452 216.347 175.224 214.652 175.224ZM214.635 176.028C215.898 176.028 216.347 177.291 216.347 178.294C216.347 179.617 215.63 180.586 214.609 180.586C213.563 180.586 212.854 179.609 212.854 178.32C212.854 177.196 213.364 176.028 214.635 176.028Z" fill="#010202"/>
<path d="M218.846 181.252H219.953V177.706C219.953 177.524 219.979 177.343 220.022 177.213C220.204 176.616 220.723 176.115 221.423 176.115C222.435 176.115 222.738 176.902 222.738 177.853V181.252H223.897V177.732C223.897 175.708 222.591 175.224 221.778 175.224C220.801 175.224 220.083 175.769 219.798 176.331H219.841L219.78 175.362H218.751C218.786 175.847 218.794 176.348 218.794 176.954V181.252H218.846Z" fill="#010202"/>
</g>
<defs>
<clipPath id="clip0_1315_1892">
<rect width="220" height="130.755" fill="white" transform="translate(26.5 70.6227)"/>
</clipPath>
</defs>
</svg>
