<svg width="273" height="272" viewBox="0 0 273 272" fill="none" xmlns="http://www.w3.org/2000/svg">
<g clip-path="url(#clip0_1315_1853)">
<mask id="mask0_1315_1853" style="mask-type:luminance" maskUnits="userSpaceOnUse" x="16" y="121" width="29" height="30">
<path d="M16.5 121.599H44.6776V150.403H16.5V121.599Z" fill="white"/>
</mask>
<g mask="url(#mask0_1315_1853)">
<path d="M44.4144 134.64C44.3474 138.525 44.0651 141.851 41.6962 145.173C39.0785 148.81 35.1591 150.403 30.7037 150.403C22.3337 150.403 16.5 144.713 16.5 136.338C16.5 127.677 22.3672 121.991 30.9525 121.991C36.432 121.991 40.6721 124.461 42.9692 129.447L36.3938 132.204C35.4414 129.658 33.4267 127.964 30.6367 127.964C26.076 127.964 23.7119 132.309 23.7119 136.372C23.7119 140.507 26.1813 144.713 30.742 144.713C33.7473 144.713 36.0444 143.158 36.322 140.081H30.6702V134.64H44.4144Z" fill="#0F9F4A"/>
</g>
<path d="M54.1722 143.651H62.4753V149.518H47.2427V122.872H54.1722V143.651Z" fill="#0F9F4A"/>
<mask id="mask1_1315_1853" style="mask-type:luminance" maskUnits="userSpaceOnUse" x="61" y="121" width="33" height="30">
<path d="M61.8292 121.599H93.6822V150.403H61.8292V121.599Z" fill="white"/>
</mask>
<g mask="url(#mask1_1315_1853)">
<path d="M92.4762 135.702C92.4762 144.321 86.2932 150.403 77.7413 150.403C69.1895 150.403 63.0065 144.321 63.0065 135.702C63.0065 127.643 70.07 121.991 77.7413 121.991C85.4079 121.991 92.4762 127.643 92.4762 135.702ZM70.2136 135.735C70.2136 140.33 73.6066 143.689 77.7413 143.689C81.8761 143.689 85.2691 140.33 85.2691 135.735C85.2691 132.06 81.8761 128.705 77.7413 128.705C73.6066 128.705 70.2136 132.06 70.2136 135.735Z" fill="#0F9F4A"/>
</g>
<path d="M95.6921 149.518V122.872H105.589C110.322 122.872 113.504 124.709 113.504 129.801C113.504 132.204 112.724 134.147 110.571 135.242V135.309C114.389 135.807 116.012 138.387 116.012 142.095C116.012 147.68 111.241 149.518 106.364 149.518H95.6921ZM102.617 133.333H103.397C105.235 133.333 107.139 133.012 107.139 130.754C107.139 128.313 104.986 128.174 103.115 128.174H102.617V133.333ZM102.617 144.215H103.502C105.55 144.215 109.015 144.321 109.015 141.392C109.015 138.176 105.589 138.492 103.325 138.492H102.617V144.215Z" fill="#0F9F4A"/>
<path d="M126.363 144.89L124.53 149.518H117.18L127.426 122.872H134.992L145.022 149.518H137.638L135.91 144.89H126.363ZM131.206 131.108H131.139L128.273 139.588H134.034L131.206 131.108Z" fill="#0F9F4A"/>
<path d="M153.895 143.651H162.198V149.518H146.965V122.872H153.895V143.651Z" fill="#0F9F4A"/>
<mask id="mask2_1315_1853" style="mask-type:luminance" maskUnits="userSpaceOnUse" x="161" y="121" width="29" height="30">
<path d="M161.064 121.599H189.241V150.403H161.064V121.599Z" fill="white"/>
</mask>
<g mask="url(#mask2_1315_1853)">
<path d="M188.437 136.123C188.504 139.727 188.121 142.699 185.681 145.527C183.24 148.35 179.531 149.977 175.822 149.977C168.328 149.977 162.112 143.756 162.112 136.267C162.112 128.634 168.328 122.412 175.995 122.412C180.661 122.412 184.446 124.499 187.269 128.174L185.116 130.189C182.886 127.045 179.885 125.169 175.961 125.169C169.883 125.169 165.079 130.294 165.079 136.3C165.079 139.128 166.208 141.813 168.189 143.828C170.132 145.771 172.961 147.221 175.751 147.221C180.378 147.221 185.255 143.828 185.255 138.88H177.339V136.123H188.437Z" fill="#0F9F4A"/>
</g>
<mask id="mask3_1315_1853" style="mask-type:luminance" maskUnits="userSpaceOnUse" x="191" y="144" width="6" height="7">
<path d="M191.691 144.876H196.592V150.403H191.691V144.876Z" fill="white"/>
</mask>
<g mask="url(#mask3_1315_1853)">
<path d="M196.142 147.963C196.142 149.059 195.257 149.977 194.161 149.977C193.065 149.977 192.18 149.059 192.18 147.963C192.18 146.905 193.065 146.02 194.161 146.02C195.257 146.02 196.142 146.905 196.142 147.963Z" fill="#0F9F4A"/>
</g>
<path d="M206.603 141.957L203.387 149.518H200.133L212.432 121.599L224.411 149.518H221.123L217.979 141.957H206.603ZM212.36 128.528L207.8 139.2H216.816L212.36 128.528Z" fill="#0F9F4A"/>
<mask id="mask4_1315_1853" style="mask-type:luminance" maskUnits="userSpaceOnUse" x="228" y="144" width="6" height="7">
<path d="M228.445 144.876H233.345V150.403H228.445V144.876Z" fill="white"/>
</mask>
<g mask="url(#mask4_1315_1853)">
<path d="M233.14 147.963C233.14 149.059 232.254 149.977 231.158 149.977C230.062 149.977 229.182 149.059 229.182 147.963C229.182 146.905 230.062 146.02 231.158 146.02C232.254 146.02 233.14 146.905 233.14 147.963Z" fill="#0F9F4A"/>
</g>
<path d="M241.902 149.518H238.935V122.872H243.314C245.611 122.872 247.98 122.943 249.923 124.288C251.904 125.666 252.928 127.997 252.928 130.366C252.928 132.519 252.043 134.711 250.382 136.09C248.583 137.573 246.286 137.855 244.056 137.855H241.902V149.518ZM241.902 135.099H243.883C247.166 135.099 249.961 134.108 249.961 130.294C249.961 125.949 246.458 125.628 242.998 125.628H241.902V135.099Z" fill="#0F9F4A"/>
<mask id="mask5_1315_1853" style="mask-type:luminance" maskUnits="userSpaceOnUse" x="251" y="144" width="6" height="7">
<path d="M251.722 144.876H256.498V150.403H251.722V144.876Z" fill="white"/>
</mask>
<g mask="url(#mask5_1315_1853)">
<path d="M256.498 147.963C256.498 149.059 255.613 149.977 254.517 149.977C253.421 149.977 252.54 149.059 252.54 147.963C252.54 146.905 253.421 146.02 254.517 146.02C255.613 146.02 256.498 146.905 256.498 147.963Z" fill="#0F9F4A"/>
</g>
</g>
<defs>
<clipPath id="clip0_1315_1853">
<rect width="240" height="28.8024" fill="white" transform="translate(16.5 121.599)"/>
</clipPath>
</defs>
</svg>
