<svg width="273" height="272" viewBox="0 0 273 272" fill="none" xmlns="http://www.w3.org/2000/svg">
<path fill-rule="evenodd" clip-rule="evenodd" d="M133.406 36.0144C159.72 35.606 182.79 43.8614 202.615 60.7803C222.353 78.4063 233.544 100.415 236.189 126.807C237.949 150.338 232.236 171.866 219.051 191.393C207.781 207.408 193.093 219.257 174.987 226.939C173.788 227.442 172.57 227.891 171.335 228.287C171.304 216.763 171.335 205.24 171.429 193.717C185.244 185.38 195.031 173.702 200.789 158.682C206.975 141.148 206.288 123.894 198.728 106.92C191.148 91.0966 179.27 79.6816 163.093 72.6753C146.962 66.1492 130.634 65.6227 114.113 71.0955C97.6787 77.0588 85.1449 87.5755 76.5118 102.645C67.6318 119.128 65.7275 136.383 70.799 154.407C76.0712 171.387 86.3261 184.491 101.564 193.717C101.673 205.271 101.689 216.826 101.611 228.38C78.7535 219.606 61.2405 204.676 49.0716 183.587C38.2656 163.893 34.4259 142.922 37.5524 120.674C41.3615 97.6681 51.8038 78.2613 68.8791 62.453C87.1306 46.0079 108.639 37.1951 133.406 36.0144Z" fill="#019C9A"/>
<path fill-rule="evenodd" clip-rule="evenodd" d="M133.499 45.772C133.749 45.772 133.998 45.772 134.248 45.772C134.43 49.587 134.68 53.3972 134.998 57.2024C134.31 57.2489 133.624 57.2644 132.937 57.2488C131.068 54.7635 129.211 52.2698 127.365 49.768C127.475 52.4322 127.615 55.0962 127.786 57.7599C127.156 57.7325 126.532 57.7635 125.913 57.8529C125.592 54.0128 125.28 50.1717 124.977 46.3296C125.672 46.3383 126.358 46.3228 127.037 46.2831C128.926 48.8387 130.814 51.3942 132.703 53.9498C132.55 51.2551 132.377 48.5602 132.188 45.8649C132.643 45.8945 133.081 45.8636 133.499 45.772Z" fill="#FDFEFE"/>
<path fill-rule="evenodd" clip-rule="evenodd" d="M144.176 46.2367C144.83 46.2596 145.47 46.3526 146.095 46.5155C147.171 50.4184 148.218 54.3214 149.233 58.2247C148.606 58.209 147.983 58.1625 147.36 58.0853C147.284 58.0566 147.222 58.0102 147.172 57.9459C146.94 57.1484 146.737 56.343 146.564 55.5297C146.517 55.4212 146.439 55.3438 146.33 55.2974C145.002 55.1715 143.675 55.0321 142.349 54.8792C142.214 54.8847 142.09 54.9156 141.975 54.9721C141.616 55.7465 141.256 56.521 140.898 57.2954C140.173 57.3846 139.455 57.3381 138.744 57.156C140.619 53.5442 142.429 49.9045 144.176 46.2367Z" fill="#FCFEFE"/>
<path fill-rule="evenodd" clip-rule="evenodd" d="M114.769 48.2811C114.983 48.2573 115.187 48.2882 115.378 48.374C117.661 51.6811 119.955 54.9801 122.261 58.271C121.59 58.5152 120.903 58.6701 120.201 58.7357C119.682 58.0317 119.198 57.3036 118.749 56.5518C118.697 56.5033 118.634 56.4724 118.562 56.4589C117.146 56.8023 115.741 57.174 114.347 57.5741C114.244 58.5018 114.166 59.4311 114.113 60.362C113.448 60.4728 112.792 60.6277 112.147 60.8266C112.115 60.7027 112.084 60.5788 112.053 60.4549C112.512 56.5141 113.011 52.58 113.551 48.6528C113.972 48.5413 114.378 48.4173 114.769 48.2811Z" fill="#FCFEFE"/>
<path fill-rule="evenodd" clip-rule="evenodd" d="M158.036 48.6529C159.868 48.5946 161.413 49.214 162.672 50.5115C163.257 51.4492 163.492 52.4714 163.375 53.5782C162.708 53.467 162.052 53.3122 161.408 53.1136C161.506 51.6219 160.82 50.7081 159.347 50.3721C158.33 50.2183 157.503 50.5435 156.866 51.3479C156.028 52.735 155.544 54.2373 155.414 55.855C155.646 58.2038 156.957 59.226 159.347 58.9217C159.495 58.856 159.636 58.7786 159.769 58.6894C159.971 58.0089 160.174 57.3274 160.378 56.6449C159.658 56.3684 158.924 56.1206 158.177 55.9015C158.214 55.4383 158.324 54.9892 158.505 54.554C159.886 54.8346 161.259 55.1753 162.625 55.5762C162.674 55.6284 162.706 55.6903 162.719 55.7621C162.322 57.1456 161.916 58.5241 161.501 59.8975C160.523 60.4769 159.461 60.7092 158.317 60.5944C154.851 60.1287 153.244 58.1616 153.494 54.6934C153.744 53.1132 154.306 51.6574 155.18 50.3257C155.952 49.4403 156.904 48.8828 158.036 48.6529Z" fill="#FCFEFE"/>
<path fill-rule="evenodd" clip-rule="evenodd" d="M144.831 48.8387C145.336 50.3766 145.742 51.9565 146.049 53.5782C144.947 53.5555 143.854 53.4471 142.771 53.2529C143.47 51.7894 144.156 50.318 144.831 48.8387Z" fill="#169F9D"/>
<path fill-rule="evenodd" clip-rule="evenodd" d="M114.956 50.8832C115.906 52.2083 116.811 53.5712 117.672 54.9721C116.618 55.2801 115.556 55.5589 114.488 55.8085C114.672 54.1685 114.828 52.5267 114.956 50.8832Z" fill="#109E9C"/>
<path fill-rule="evenodd" clip-rule="evenodd" d="M103.624 51.5338C105.29 54.9552 106.913 58.4091 108.494 61.8955C108.422 62.009 108.328 62.1019 108.213 62.1743C107.793 62.3363 107.387 62.5221 106.996 62.7319C106.875 62.7954 106.766 62.7799 106.668 62.6854C105.497 60.1756 104.374 57.6355 103.296 55.0652C103.389 57.9024 103.561 60.7368 103.811 63.5682C103.796 63.7696 103.78 63.9709 103.765 64.1723C103.334 64.4176 102.882 64.588 102.407 64.6834C100.172 62.5591 97.9714 60.4062 95.8042 58.2248C97.0871 60.8021 98.3514 63.4041 99.5971 66.0309C99.0511 66.3715 98.4737 66.6503 97.8646 66.8673C97.8177 66.8363 97.7709 66.8053 97.7241 66.7743C96.1289 63.3612 94.5368 59.9537 92.9478 56.552C93.6502 56.1696 94.3682 55.8134 95.1018 55.4833C95.1955 55.4214 95.2891 55.4214 95.3828 55.4833C97.6122 57.6026 99.813 59.7555 101.985 61.942C101.795 58.8142 101.592 55.6856 101.377 52.556C102.154 52.2633 102.903 51.9225 103.624 51.5338Z" fill="#FCFEFE"/>
<path fill-rule="evenodd" clip-rule="evenodd" d="M170.211 52.463C172.502 53.491 174.78 54.5443 177.048 55.6226C176.831 56.1177 176.581 56.5823 176.298 57.0166C174.675 56.2731 173.051 55.5297 171.428 54.7863C170.982 55.6422 170.56 56.5097 170.164 57.3883C170.101 57.4812 170.101 57.5742 170.164 57.6671C171.541 58.3273 172.931 58.9468 174.332 59.5257C174.195 60.0741 173.961 60.5697 173.629 61.0126C172.302 60.4085 170.976 59.8045 169.649 59.2004C169.555 59.1385 169.462 59.1385 169.368 59.2004C168.863 60.1862 168.395 61.193 167.963 62.2207C169.552 63.041 171.175 63.7999 172.833 64.4974C172.876 64.5359 172.907 64.5824 172.927 64.6368C172.734 65.1135 172.515 65.5781 172.271 66.0308C169.962 65.0085 167.682 63.9398 165.435 62.8247C167.041 59.3739 168.633 55.92 170.211 52.463Z" fill="#FCFEFE"/>
<path fill-rule="evenodd" clip-rule="evenodd" d="M182.292 58.4105C182.974 58.7804 183.63 59.1986 184.259 59.6651C184.359 59.7338 184.422 59.8267 184.446 59.9439C183.63 62.9201 182.896 65.9094 182.245 68.9116C184.796 67.1116 187.372 65.3459 189.972 63.6146C190.687 64.0772 191.374 64.5729 192.032 65.1015C189.87 68.2463 187.685 71.375 185.476 74.4874C184.989 74.1439 184.49 73.8186 183.978 73.5116C183.882 73.4142 183.867 73.3057 183.931 73.1864C185.494 70.89 187.149 68.6597 188.895 66.4954C188.957 66.4334 188.957 66.3716 188.895 66.3096C186.39 68.0402 183.877 69.7594 181.356 71.4672C180.872 71.3735 180.45 71.1412 180.091 70.7702C180.075 70.6928 180.06 70.6153 180.045 70.5379C180.771 67.6089 181.474 64.6816 182.152 61.756C180.649 64.1761 179.072 66.5458 177.422 68.8651C176.82 68.5824 176.258 68.2106 175.737 67.75C177.942 64.648 180.128 61.5348 182.292 58.4105Z" fill="#FDFEFE"/>
<path fill-rule="evenodd" clip-rule="evenodd" d="M81.6157 63.8004C81.6735 63.8107 81.7203 63.8417 81.7562 63.8933C82.2912 66.5701 82.8843 69.2341 83.5356 71.8853C84.4364 72.9144 85.3261 73.9521 86.2046 74.9985C85.7157 75.4531 85.2006 75.8713 84.6594 76.253C83.7231 75.2155 82.8023 74.1622 81.8966 73.0934C79.3545 72.0952 76.8259 71.0729 74.3108 70.0267C74.8145 69.5113 75.3607 69.0467 75.9497 68.6328C77.7678 69.4351 79.594 70.2096 81.4284 70.956C80.9975 69.0445 80.5292 67.1394 80.0236 65.2408C80.5581 64.7598 81.0887 64.2797 81.6157 63.8004Z" fill="#FCFEFE"/>
<path fill-rule="evenodd" clip-rule="evenodd" d="M196.902 69.5622C197 69.5483 197.094 69.5637 197.183 69.6086C198.917 71.3136 200.634 73.0328 202.334 74.7662C201.987 75.2201 201.582 75.5764 201.116 75.8349C199.852 74.5804 198.588 73.3258 197.323 72.0713C196.573 72.8006 195.839 73.544 195.123 74.3016C196.155 75.4027 197.232 76.4559 198.354 77.4612C198.416 77.5541 198.416 77.6471 198.354 77.74C198.01 78.0808 197.667 78.4215 197.323 78.7622C196.2 77.6471 195.076 76.5319 193.952 75.4168C193.108 76.239 192.28 77.0754 191.47 77.9259C192.795 79.1946 194.107 80.4801 195.404 81.7825C195.013 82.1697 194.623 82.5568 194.233 82.9441C192.453 81.1926 190.688 79.427 188.942 77.6471C191.563 74.9219 194.217 72.2269 196.902 69.5622Z" fill="#FCFDFD"/>
<path fill-rule="evenodd" clip-rule="evenodd" d="M70.8457 73.3722C71.3352 73.6405 71.7723 73.9813 72.1568 74.3944C71.3985 75.3101 70.6181 76.2084 69.8155 77.0894C72.3267 79.2249 74.8241 81.3778 77.3077 83.548C76.9026 84.0583 76.4656 84.5385 75.9965 84.9884C73.4991 82.882 71.0018 80.7756 68.5043 78.6692C67.7266 79.5342 66.9462 80.4015 66.163 81.2712C65.7155 80.9668 65.3097 80.6106 64.9456 80.2025C66.9319 77.9377 68.8986 75.6609 70.8457 73.3722Z" fill="#FCFEFD"/>
<path fill-rule="evenodd" clip-rule="evenodd" d="M206.08 79.2268C206.255 79.2602 206.396 79.3531 206.501 79.5056C206.834 79.9325 207.13 80.3816 207.391 80.8531C206.149 83.7646 204.979 86.6919 203.879 89.635C206.041 88.0748 208.211 86.5259 210.388 84.9885C210.809 85.484 211.215 85.9951 211.606 86.5218C208.5 88.7903 205.379 91.0362 202.24 93.2592C201.801 92.7455 201.396 92.2035 201.023 91.633C202.264 88.7229 203.434 85.7956 204.535 82.8511C202.373 84.4113 200.203 85.9601 198.026 87.4976C197.628 86.9873 197.253 86.4607 196.902 85.9178C199.936 83.6493 202.996 81.4189 206.08 79.2268Z" fill="#FDFEFE"/>
<path fill-rule="evenodd" clip-rule="evenodd" d="M61.855 84.4309C62.3647 84.6375 62.833 84.9163 63.2598 85.2673C62.3155 86.8008 61.3477 88.3187 60.3566 89.8208C61.2307 90.3784 62.1048 90.936 62.9789 91.4936C63.8554 90.2352 64.6983 88.9497 65.5075 87.637C65.957 87.798 66.394 88.0148 66.8186 88.2875C66.9077 88.3542 66.9232 88.4316 66.8654 88.5198C66.0225 89.7587 65.2264 91.0288 64.4773 92.33C65.3939 93.0177 66.3616 93.6372 67.3805 94.1886C68.3636 92.7008 69.3313 91.1984 70.2838 89.6815C70.8255 89.7975 71.2938 90.0609 71.6885 90.4714C70.3853 92.5934 69.0585 94.6999 67.7083 96.7906C64.4348 94.7565 61.1726 92.712 57.9216 90.6572C59.2353 88.5801 60.5464 86.5047 61.855 84.4309Z" fill="#FCFEFE"/>
<path fill-rule="evenodd" clip-rule="evenodd" d="M129.004 88.9845C131.348 88.6906 133.565 89.0779 135.653 90.1461C137.761 91.5397 138.604 93.4602 138.182 95.9078C137.308 95.9698 136.433 95.9698 135.56 95.9078C135.507 93.5142 134.29 92.0893 131.907 91.633C130.695 91.4072 129.509 91.5001 128.348 91.9118C126.824 92.6947 126.309 93.9183 126.803 95.5825C126.98 95.9487 127.214 96.2739 127.505 96.5583C128.115 97.0005 128.771 97.3723 129.472 97.6734C131.629 98.4278 133.72 99.3262 135.747 100.368C138.644 102.294 139.314 104.819 137.76 107.942C136.687 109.428 135.236 110.342 133.406 110.684C130.683 111.248 128.124 110.845 125.726 109.476C123.765 107.973 123.078 106.052 123.666 103.714C124.478 103.652 125.289 103.652 126.101 103.714C126.148 103.76 126.194 103.807 126.241 103.853C126.158 105.939 127.11 107.317 129.098 107.989C130.913 108.536 132.661 108.381 134.342 107.524C135.618 106.383 135.852 105.066 135.044 103.574C134.15 102.688 133.104 102.022 131.907 101.577C129.938 100.884 128.033 100.047 126.194 99.0674C124.231 97.7797 123.403 95.9675 123.713 93.631C124.103 91.6013 125.274 90.2229 127.225 89.4956C127.825 89.3083 128.418 89.138 129.004 88.9845Z" fill="#2F343D"/>
<path fill-rule="evenodd" clip-rule="evenodd" d="M116.642 89.1705C117.454 89.155 118.266 89.1705 119.077 89.2169C119.163 89.2517 119.241 89.2981 119.311 89.3563C119.374 96.388 119.374 103.42 119.311 110.451C119.264 110.498 119.217 110.544 119.17 110.591C118.328 110.653 117.485 110.653 116.642 110.591C116.532 110.544 116.455 110.467 116.408 110.358C116.345 103.389 116.345 96.419 116.408 89.4492C116.473 89.3386 116.551 89.2456 116.642 89.1705Z" fill="#2E343D"/>
<path fill-rule="evenodd" clip-rule="evenodd" d="M214.228 91.3078C214.351 91.292 214.461 91.323 214.555 91.4008C215.908 94.0533 217.235 96.7173 218.536 99.3927C218.082 99.6642 217.614 99.912 217.131 100.136C216.569 99.083 216.007 98.0297 215.445 96.9766C212.562 98.3608 209.689 99.7702 206.829 101.205C206.735 101.267 206.642 101.267 206.548 101.205C206.195 100.647 205.946 100.074 205.799 99.4857C208.671 98.0608 211.543 96.6358 214.415 95.2109C214.516 95.1305 214.532 95.0376 214.462 94.9321C214.015 93.9378 213.532 92.962 213.01 92.0048C213.422 91.77 213.828 91.5377 214.228 91.3078Z" fill="#FBFDFD"/>
<path fill-rule="evenodd" clip-rule="evenodd" d="M153.822 89.9604C151.99 89.0636 150.054 88.7384 148.015 88.9846C144.644 89.6503 142.63 91.6638 141.975 95.0251C141.912 98.2156 141.912 101.406 141.975 104.597C142.169 106.189 142.793 107.583 143.848 108.779C145.747 110.481 147.98 111.178 150.544 110.87C154.213 110.453 156.414 108.455 157.147 104.876C157.209 101.561 157.209 98.2467 157.147 94.9321C156.78 92.7748 155.673 91.1175 153.822 89.9604ZM154.15 95.3968C153.577 92.7391 151.906 91.4381 149.139 91.4937C147.027 91.7453 145.67 92.8914 145.065 94.9321C144.914 98.0266 144.882 101.124 144.972 104.225C145.346 106.858 146.876 108.221 149.561 108.314C152.204 108.231 153.733 106.899 154.15 104.318C154.212 101.344 154.212 98.3705 154.15 95.3968Z" fill="#2E343D"/>
<path fill-rule="evenodd" clip-rule="evenodd" d="M55.2059 95.6755C55.7043 95.8917 56.2037 96.1085 56.7044 96.326C55.9984 97.9283 55.2804 99.5236 54.5504 101.112C55.5766 101.653 56.638 102.086 57.7346 102.413C58.3141 101.092 58.9072 99.7759 59.514 98.4634C59.9983 98.4833 60.4666 98.6227 60.9187 98.8816C60.9914 99.0461 60.9759 99.2164 60.8719 99.3927C60.3127 100.611 59.7664 101.834 59.233 103.063C59.5114 103.295 59.8236 103.481 60.1695 103.621C61.2972 104.092 62.421 104.572 63.541 105.061C63.6424 105.142 63.658 105.235 63.5878 105.34C63.3658 105.858 63.1317 106.369 62.8854 106.874C59.3552 105.44 55.8433 103.938 52.3495 102.366C53.2355 100.119 54.1877 97.8882 55.2059 95.6755Z" fill="#FCFEFE"/>
<path fill-rule="evenodd" clip-rule="evenodd" d="M60.7314 110.359C60.9812 110.359 61.2309 110.359 61.4806 110.359C61.2951 111.033 61.139 111.715 61.0124 112.403C60.044 112.457 59.0762 112.519 58.1091 112.589C57.7587 113.964 57.4154 115.342 57.079 116.724C57.0869 116.827 57.1182 116.92 57.1726 117.003C57.8721 117.434 58.5589 117.883 59.233 118.351C59.23 119.077 59.0895 119.79 58.8115 120.488C55.4803 118.084 52.1245 115.714 48.7439 113.379C48.8764 112.869 49.0169 112.358 49.1653 111.845C49.2122 111.737 49.2902 111.66 49.3995 111.613C53.194 111.224 56.9714 110.806 60.7314 110.359Z" fill="#FCFEFE"/>
<path fill-rule="evenodd" clip-rule="evenodd" d="M219.94 111.938C221.492 111.879 222.631 112.53 223.359 113.89C224.164 115.504 224.164 117.114 223.359 118.722C222.836 119.454 222.134 119.919 221.252 120.116C221.167 119.49 221.043 118.87 220.877 118.257C222.356 117.536 222.745 116.421 222.048 114.912C221.55 113.984 220.817 113.721 219.847 114.122C219.563 114.36 219.36 114.655 219.238 115.005C219.084 116.247 218.896 117.487 218.676 118.722C218.155 120.647 216.89 121.499 214.883 121.278C213.852 120.936 213.118 120.269 212.682 119.28C211.997 117.747 211.934 116.198 212.495 114.633C212.98 113.608 213.776 112.989 214.883 112.775C214.938 113.377 215.062 113.966 215.258 114.54C214.776 114.785 214.354 115.126 213.994 115.562C213.47 116.898 213.704 118.09 214.696 119.14C216.144 119.559 216.94 119.018 217.084 117.514C217.162 116.516 217.286 115.525 217.459 114.54C217.77 113.163 218.597 112.296 219.94 111.938Z" fill="#FCFEFE"/>
<path fill-rule="evenodd" clip-rule="evenodd" d="M55.5805 112.775C55.8632 112.759 56.1441 112.775 56.4234 112.821C56.12 113.855 55.8235 114.893 55.5337 115.934C54.1758 115.021 52.8178 114.106 51.4598 113.193C52.8395 113.018 54.2131 112.879 55.5805 112.775Z" fill="#139E9C"/>
<path fill-rule="evenodd" clip-rule="evenodd" d="M86.0175 117.793C89.1454 117.437 92.0173 118.103 94.6335 119.791C97.6742 122.277 98.5952 125.39 97.3963 129.13C96.8549 130.453 96.168 131.692 95.3359 132.847C94.3723 134.082 93.3734 135.291 92.339 136.472C90.2459 138.657 88.1699 140.856 86.1111 143.07C86.1307 143.125 86.162 143.171 86.2048 143.209C90.2007 143.24 94.1964 143.271 98.1923 143.302C98.2703 143.379 98.3484 143.457 98.4264 143.534C98.4889 145.052 98.4889 146.57 98.4264 148.088C98.3796 148.258 98.2703 148.367 98.0987 148.413C91.4181 148.475 84.7375 148.475 78.057 148.413C78.0102 148.367 77.9634 148.32 77.9166 148.274C77.8113 147.46 77.7645 146.638 77.7761 145.811C77.7632 145.012 77.81 144.222 77.9166 143.441C81.4473 139.721 84.9437 135.973 88.4056 132.197C89.6278 130.86 90.6268 129.373 91.4025 127.736C92.0313 125.717 91.3914 124.245 89.4826 123.322C87.6949 122.701 86.0873 122.996 84.6595 124.205C84.3355 124.631 84.0857 125.096 83.9103 125.599C83.8065 126.339 83.744 127.082 83.723 127.829C83.688 127.915 83.6412 127.992 83.5825 128.062C81.7156 128.213 79.8425 128.244 77.9634 128.154C76.9669 124.306 78.1844 121.332 81.6158 119.233C83.0051 118.48 84.4722 117.999 86.0175 117.793Z" fill="#2E343D"/>
<path fill-rule="evenodd" clip-rule="evenodd" d="M110.274 117.793C112.637 117.578 114.916 117.903 117.11 118.769C121.072 120.76 122.68 123.935 121.933 128.294C121.424 129.955 120.643 131.474 119.592 132.847C118.628 134.082 117.629 135.291 116.595 136.472C114.502 138.657 112.426 140.856 110.367 143.07C110.387 143.125 110.418 143.171 110.461 143.209C114.457 143.24 118.452 143.271 122.448 143.302C122.526 143.379 122.605 143.457 122.682 143.534C122.745 145.052 122.745 146.57 122.682 148.088C122.648 148.173 122.601 148.251 122.542 148.32C115.836 148.475 109.124 148.505 102.407 148.413C102.235 148.367 102.126 148.258 102.079 148.088C101.988 146.53 102.019 144.981 102.173 143.441C105.894 139.563 109.546 135.629 113.13 131.639C113.759 130.86 114.352 130.055 114.909 129.223C115.299 128.543 115.611 127.831 115.846 127.086C116.084 125.406 115.444 124.182 113.926 123.415C112.026 122.663 110.325 122.957 108.822 124.298C108.102 125.362 107.821 126.539 107.979 127.829C107.885 127.993 107.744 128.101 107.558 128.154C105.778 128.217 103.999 128.217 102.219 128.154C101.355 125.223 102.011 122.652 104.186 120.441C105.952 118.954 107.981 118.072 110.274 117.793Z" fill="#2E343D"/>
<path fill-rule="evenodd" clip-rule="evenodd" d="M49.2121 122.718C49.5555 122.718 49.8988 122.718 50.2423 122.718C50.2152 123.339 50.1684 123.958 50.1018 124.577C48.8488 124.643 48.1308 125.293 47.9478 126.528C47.8962 127.142 47.9898 127.73 48.2287 128.294C49.0092 129.161 49.7897 129.161 50.5701 128.294C51.1632 127.117 51.7564 125.94 52.3495 124.763C53.6003 123.071 55.1455 122.746 56.9852 123.787C57.6306 124.339 58.0208 125.036 58.1559 125.878C58.4035 127.535 58.0601 129.052 57.1257 130.431C56.3535 131.334 55.3701 131.767 54.1757 131.732C54.1803 131.049 54.2115 130.368 54.2693 129.688C55.6744 129.673 56.4393 128.96 56.5638 127.551C56.7973 126.666 56.5632 125.938 55.8614 125.367C55.2027 125.121 54.5939 125.199 54.0352 125.599C53.762 125.986 53.5122 126.389 53.286 126.807C52.919 127.97 52.3571 129.023 51.6002 129.967C50.4143 131.041 49.1188 131.18 47.7137 130.385C46.9289 129.71 46.4763 128.859 46.3557 127.829C46.0659 125.869 46.7059 124.305 48.2756 123.136C48.5933 122.986 48.9055 122.846 49.2121 122.718Z" fill="#FCFEFD"/>
<path fill-rule="evenodd" clip-rule="evenodd" d="M142.115 118.862C139.835 117.929 137.463 117.572 134.998 117.793C129.982 118.462 127.093 121.281 126.335 126.249C126.272 130.865 126.272 135.48 126.335 140.096C126.605 143.689 128.338 146.307 131.533 147.949C133.73 148.814 136.008 149.123 138.369 148.878C143.541 148.207 146.459 145.311 147.126 140.189C147.188 135.512 147.188 130.834 147.126 126.157C146.745 122.839 145.076 120.408 142.115 118.862ZM140.945 126.435C140.303 123.989 138.695 122.844 136.122 122.997C134.305 123.265 133.134 124.287 132.61 126.064C132.456 130.706 132.424 135.353 132.516 140.003C132.877 142.345 134.251 143.584 136.637 143.72C139.079 143.682 140.515 142.474 140.945 140.096C141.007 135.542 141.007 130.989 140.945 126.435Z" fill="#2E343D"/>
<path fill-rule="evenodd" clip-rule="evenodd" d="M167.963 119.512C165.475 118.073 162.79 117.5 159.909 117.793C158.973 117.932 158.036 118.133 157.1 118.397C153.423 119.79 151.409 122.438 151.059 126.342C150.996 131.051 150.996 135.759 151.059 140.468C151.395 143.476 152.815 145.814 155.32 147.484C157.976 148.852 160.786 149.286 163.749 148.785C168.336 147.981 171.005 145.302 171.756 140.747C171.819 135.791 171.819 130.834 171.756 125.878C171.415 123.2 170.15 121.079 167.963 119.512ZM164.639 124.298C163.51 123.301 162.183 122.867 160.659 122.997C158.829 123.403 157.69 124.518 157.24 126.342C157.178 130.927 157.178 135.512 157.24 140.096C157.65 142.406 159.038 143.614 161.408 143.72C163.615 143.651 165.004 142.566 165.575 140.468C165.729 135.886 165.761 131.302 165.669 126.714C165.529 125.818 165.186 125.013 164.639 124.298Z" fill="#2E343D"/>
<path fill-rule="evenodd" clip-rule="evenodd" d="M192.781 119.605C190.192 118.046 187.382 117.442 184.353 117.793C183.411 117.954 182.475 118.187 181.543 118.49C177.916 120.046 175.965 122.788 175.69 126.714C175.603 131.331 175.634 135.947 175.783 140.561C176.065 143.344 177.33 145.559 179.576 147.205C182.087 148.682 184.803 149.239 187.724 148.878C192.769 148.239 195.687 145.436 196.481 140.468C196.543 135.698 196.543 130.927 196.481 126.156C196.181 123.439 194.949 121.255 192.781 119.605ZM190.3 126.342C189.624 123.937 188.016 122.822 185.477 122.997C183.618 123.277 182.447 124.33 181.965 126.156C181.812 130.707 181.781 135.261 181.871 139.817C182.161 142.305 183.566 143.606 186.085 143.72C188.253 143.669 189.627 142.615 190.206 140.561C190.36 135.825 190.391 131.085 190.3 126.342Z" fill="#2E343D"/>
<path fill-rule="evenodd" clip-rule="evenodd" d="M225.185 124.112C225.307 124.289 225.369 124.505 225.372 124.763C225.438 125.289 225.454 125.815 225.419 126.342C223.726 127.33 222.024 128.306 220.315 129.27C222.133 130.078 223.974 130.837 225.841 131.546C225.935 132.29 225.982 133.033 225.981 133.777C223.509 132.66 221.027 131.559 218.536 130.478C217.098 130.502 215.661 130.579 214.228 130.71C214.193 130.025 214.131 129.344 214.04 128.666C215.513 128.611 216.98 128.502 218.442 128.34C220.711 126.952 222.959 125.542 225.185 124.112Z" fill="#FCFEFE"/>
<path fill-rule="evenodd" clip-rule="evenodd" d="M217.037 137.68C217.318 137.68 217.599 137.68 217.88 137.68C217.827 138.363 217.764 139.044 217.693 139.724C216.464 139.749 215.731 140.369 215.492 141.583C215.388 142.253 215.45 142.903 215.679 143.534C216.423 144.447 217.235 144.509 218.114 143.72C218.715 142.675 219.247 141.59 219.706 140.468C220.792 138.514 222.337 138.034 224.342 139.027C225.295 139.865 225.763 140.917 225.747 142.187C225.8 143.767 225.238 145.068 224.061 146.09C223.371 146.493 222.622 146.695 221.814 146.694C221.859 146.011 221.921 145.329 222.001 144.65C223.227 144.689 223.929 144.099 224.108 142.884C224.275 142.074 224.071 141.377 223.499 140.793C222.726 140.284 222.054 140.392 221.486 141.118C220.884 142.167 220.353 143.251 219.894 144.371C218.862 146.137 217.379 146.648 215.445 145.904C214.486 145.287 213.971 144.404 213.9 143.256C213.66 141.687 214.004 140.261 214.93 138.981C215.499 138.32 216.202 137.886 217.037 137.68Z" fill="#FCFEFE"/>
<path fill-rule="evenodd" clip-rule="evenodd" d="M52.5835 143.256C54.5588 143.026 56.2289 143.614 57.5939 145.021C58.0049 145.589 58.317 146.209 58.5304 146.88C58.7894 148.226 59.0235 149.574 59.2328 150.922C55.4012 151.53 51.5615 152.134 47.7136 152.734C47.5416 151.308 47.3543 149.882 47.1517 148.46C47.2792 146.087 48.4655 144.492 50.7105 143.674C51.3494 143.543 51.9737 143.403 52.5835 143.256Z" fill="#FCFEFE"/>
<path fill-rule="evenodd" clip-rule="evenodd" d="M52.49 145.3C55.6345 144.829 57.2266 146.161 57.2663 149.296C54.5121 149.653 51.765 150.056 49.0249 150.504C48.9565 149.839 48.8941 149.173 48.8376 148.506C48.8677 147.111 49.5545 146.182 50.8979 145.718C51.4367 145.561 51.9674 145.422 52.49 145.3Z" fill="#079C9A"/>
<path fill-rule="evenodd" clip-rule="evenodd" d="M222.75 151.619C223.22 151.713 223.688 151.821 224.155 151.945C224.242 151.981 224.304 152.042 224.342 152.13C223.631 154.998 222.913 157.863 222.188 160.726C222.141 160.757 222.094 160.789 222.048 160.819C221.555 160.686 221.071 160.53 220.596 160.355C220.922 159.217 221.203 158.071 221.439 156.916C218.271 156.231 215.117 155.472 211.98 154.639C211.927 154.573 211.897 154.495 211.886 154.407C212.025 153.917 212.134 153.422 212.214 152.92C212.263 152.825 212.34 152.764 212.448 152.734C215.622 153.537 218.806 154.281 222.001 154.965C222.251 153.849 222.501 152.733 222.75 151.619Z" fill="#FDFEFE"/>
<path fill-rule="evenodd" clip-rule="evenodd" d="M106.621 156.173C107.928 155.992 109.145 156.224 110.274 156.87C111.128 157.589 111.565 158.503 111.585 159.611C110.929 159.611 110.274 159.611 109.618 159.611C109.577 158.626 109.078 158.022 108.12 157.799C107.103 157.661 106.369 158.048 105.919 158.961C105.585 160.488 105.616 162.005 106.012 163.514C106.541 164.387 107.305 164.682 108.307 164.397C109.156 164.188 109.562 163.646 109.524 162.771C110.211 162.771 110.898 162.771 111.585 162.771C111.284 165.066 109.957 166.181 107.604 166.116C105.312 165.979 104.001 164.771 103.671 162.492C103.59 161.404 103.622 160.319 103.765 159.24C104.156 157.69 105.108 156.668 106.621 156.173Z" fill="#30363F"/>
<path fill-rule="evenodd" clip-rule="evenodd" d="M112.989 156.266C115.143 156.266 117.297 156.266 119.451 156.266C119.451 156.793 119.451 157.319 119.451 157.846C117.936 157.815 116.438 157.846 114.956 157.938C114.956 158.682 114.956 159.425 114.956 160.169C116.219 160.262 117.5 160.292 118.796 160.262C118.796 160.757 118.796 161.253 118.796 161.749C117.516 161.749 116.236 161.749 114.956 161.749C114.956 162.616 114.956 163.484 114.956 164.351C116.438 164.444 117.936 164.474 119.451 164.444C119.451 164.939 119.451 165.435 119.451 165.93C117.297 165.93 115.143 165.93 112.989 165.93C112.989 162.709 112.989 159.488 112.989 156.266Z" fill="#2D343C"/>
<path fill-rule="evenodd" clip-rule="evenodd" d="M136.496 156.266C136.496 156.793 136.496 157.319 136.496 157.846C135.48 157.815 134.482 157.846 133.499 157.938C133.499 160.603 133.499 163.266 133.499 165.93C132.844 165.93 132.188 165.93 131.533 165.93C131.533 163.235 131.533 160.541 131.533 157.846C130.533 157.846 129.535 157.846 128.536 157.846C128.536 157.319 128.536 156.793 128.536 156.266C131.189 156.266 133.843 156.266 136.496 156.266Z" fill="#2D343C"/>
<path fill-rule="evenodd" clip-rule="evenodd" d="M139.774 156.266C139.774 159.488 139.774 162.709 139.774 165.93C139.119 165.93 138.463 165.93 137.807 165.93C137.807 162.709 137.807 159.488 137.807 156.266C138.463 156.266 139.119 156.266 139.774 156.266Z" fill="#2D343C"/>
<path fill-rule="evenodd" clip-rule="evenodd" d="M141.741 156.266C141.741 159.488 141.741 162.709 141.741 165.93C142.396 165.93 143.052 165.93 143.707 165.93C143.038 166.022 142.351 166.053 141.647 166.023C141.616 162.755 141.647 159.502 141.741 156.266Z" fill="#62666D"/>
<path fill-rule="evenodd" clip-rule="evenodd" d="M141.741 156.266C143.832 156.266 145.924 156.266 148.015 156.266C148.015 156.793 148.015 157.319 148.015 157.846C146.563 157.815 145.127 157.846 143.707 157.938C143.707 158.775 143.707 159.611 143.707 160.448C144.988 160.448 146.267 160.448 147.547 160.448C147.547 160.975 147.547 161.5 147.547 162.027C146.267 162.027 144.988 162.027 143.707 162.027C143.707 163.328 143.707 164.629 143.707 165.93C143.052 165.93 142.396 165.93 141.741 165.93C141.741 162.709 141.741 159.488 141.741 156.266Z" fill="#2D343C"/>
<path fill-rule="evenodd" clip-rule="evenodd" d="M149.42 156.266C149.42 159.488 149.42 162.709 149.42 165.93C150.076 165.93 150.731 165.93 151.387 165.93C150.717 166.022 150.031 166.053 149.327 166.023C149.296 162.755 149.327 159.502 149.42 156.266Z" fill="#62666D"/>
<path fill-rule="evenodd" clip-rule="evenodd" d="M149.42 156.266C150.076 156.266 150.731 156.266 151.387 156.266C151.387 159.488 151.387 162.709 151.387 165.93C150.731 165.93 150.076 165.93 149.42 165.93C149.42 162.709 149.42 159.488 149.42 156.266Z" fill="#2D343C"/>
<path fill-rule="evenodd" clip-rule="evenodd" d="M159.16 161.749C157.849 161.749 156.538 161.749 155.227 161.749C155.196 162.632 155.228 163.5 155.32 164.351C156.819 164.351 158.317 164.351 159.816 164.351C159.816 164.908 159.816 165.466 159.816 166.023C157.631 166.023 155.445 166.023 153.26 166.023C153.26 162.771 153.26 159.518 153.26 156.266C155.445 156.266 157.631 156.266 159.816 156.266C159.816 156.823 159.816 157.381 159.816 157.938C158.317 157.938 156.819 157.938 155.32 157.938C155.32 158.682 155.32 159.425 155.32 160.169C156.601 160.169 157.88 160.169 159.16 160.169C159.16 160.696 159.16 161.222 159.16 161.749Z" fill="#30363F"/>
<path fill-rule="evenodd" clip-rule="evenodd" d="M161.033 156.266C162.313 156.25 163.594 156.266 164.873 156.312C167.308 156.962 168.525 158.542 168.525 161.052C168.59 163.747 167.311 165.389 164.685 165.977C163.468 166.024 162.251 166.039 161.033 166.024C161.033 162.771 161.033 159.518 161.033 156.266Z" fill="#2F353E"/>
<path fill-rule="evenodd" clip-rule="evenodd" d="M56.2361 156.452C60.2448 156.202 62.1647 158.06 61.9958 162.027C61.5505 163.678 60.5359 164.84 58.9521 165.512C57.6559 166.093 56.2979 166.418 54.8782 166.488C52.1914 166.238 50.6618 164.783 50.2892 162.12C50.2232 160.501 50.8319 159.185 52.1154 158.171C53.382 157.335 54.7556 156.761 56.2361 156.452Z" fill="#FCFEFE"/>
<path fill-rule="evenodd" clip-rule="evenodd" d="M119.452 156.266C119.544 156.806 119.575 157.363 119.545 157.938C118.016 157.938 116.486 157.938 114.956 157.938C116.438 157.846 117.936 157.815 119.452 157.846C119.452 157.319 119.452 156.793 119.452 156.266Z" fill="#6D7077"/>
<path fill-rule="evenodd" clip-rule="evenodd" d="M136.496 156.266C136.589 156.806 136.62 157.363 136.59 157.938C135.56 157.938 134.529 157.938 133.499 157.938C134.482 157.846 135.48 157.815 136.496 157.846C136.496 157.319 136.496 156.793 136.496 156.266Z" fill="#6F7379"/>
<path fill-rule="evenodd" clip-rule="evenodd" d="M148.015 156.266C148.108 156.806 148.139 157.363 148.109 157.938C146.641 157.938 145.175 157.938 143.707 157.938C145.127 157.846 146.563 157.815 148.015 157.846C148.015 157.319 148.015 156.793 148.015 156.266Z" fill="#62666D"/>
<path fill-rule="evenodd" clip-rule="evenodd" d="M126.101 165.931C126.836 165.961 127.554 165.93 128.255 165.838C127.63 164.52 126.944 163.235 126.194 161.981C127.156 161.554 127.734 160.825 127.927 159.797C128.142 157.81 127.253 156.649 125.258 156.312C123.729 156.266 122.199 156.25 120.669 156.266V166.024H122.729V162.399C123.264 162.369 123.794 162.399 124.321 162.492C124.939 163.626 125.533 164.773 126.101 165.931ZM125.164 158.078C124.361 157.947 123.549 157.901 122.729 157.939V160.82C123.448 160.835 124.166 160.82 124.883 160.773C125.589 160.569 125.932 160.104 125.913 159.379C125.93 158.793 125.68 158.359 125.164 158.078Z" fill="#2F353E"/>
<path fill-rule="evenodd" clip-rule="evenodd" d="M128.536 157.846C129.535 157.846 130.533 157.846 131.533 157.846C131.533 160.541 131.533 163.236 131.533 165.931C132.188 165.931 132.844 165.931 133.499 165.931C132.83 166.023 132.143 166.053 131.439 166.024C131.439 163.329 131.439 160.634 131.439 157.939C130.455 157.969 129.486 157.938 128.536 157.846Z" fill="#85888E"/>
<path fill-rule="evenodd" clip-rule="evenodd" d="M163 157.939C165.385 157.626 166.541 158.664 166.465 161.052C166.516 162.087 166.235 163.016 165.622 163.84C165.314 164.07 164.97 164.224 164.592 164.304C164.062 164.351 163.532 164.367 163 164.351C163 162.213 163 160.076 163 157.939Z" fill="#FAFAFA"/>
<path fill-rule="evenodd" clip-rule="evenodd" d="M56.6107 158.403C57.9241 158.136 59.0324 158.477 59.9354 159.425C60.7587 161.098 60.3685 162.415 58.7647 163.375C57.2685 164.172 55.6764 164.544 53.9884 164.49C52.6757 164.117 52.0201 163.249 52.0217 161.888C52.0658 161.036 52.4405 160.355 53.1456 159.844C54.2406 159.207 55.3957 158.727 56.6107 158.403Z" fill="#059C9A"/>
<path fill-rule="evenodd" clip-rule="evenodd" d="M114.956 160.169C116.267 160.169 117.578 160.169 118.89 160.169C118.92 160.714 118.889 161.239 118.796 161.749C118.796 161.253 118.796 160.757 118.796 160.262C117.5 160.293 116.22 160.262 114.956 160.169Z" fill="#80848A"/>
<path fill-rule="evenodd" clip-rule="evenodd" d="M209.639 161.749C212.727 163.002 215.818 164.257 218.91 165.512C219.41 165.699 219.879 165.932 220.315 166.209C219.401 168.496 218.434 170.758 217.412 172.993C216.897 172.839 216.429 172.607 216.007 172.296C216.681 170.664 217.368 169.038 218.068 167.418C217.138 166.971 216.186 166.567 215.211 166.209C215.164 166.24 215.117 166.272 215.071 166.302C214.481 167.689 213.919 169.083 213.385 170.484C212.917 170.324 212.448 170.153 211.98 169.973C211.931 169.921 211.9 169.859 211.886 169.787C212.452 168.366 213.045 166.957 213.666 165.559C212.56 165.069 211.436 164.636 210.294 164.258C209.67 165.962 208.967 167.635 208.187 169.276C207.866 169.125 207.538 168.985 207.204 168.858C207.018 168.813 206.894 168.705 206.829 168.533C207.741 166.259 208.678 163.998 209.639 161.749Z" fill="#FCFEFE"/>
<path fill-rule="evenodd" clip-rule="evenodd" d="M159.16 161.749C157.897 161.842 156.616 161.872 155.32 161.842C155.32 162.678 155.32 163.514 155.32 164.351C155.228 163.501 155.196 162.633 155.227 161.749C156.538 161.749 157.849 161.749 159.16 161.749Z" fill="#74787E"/>
<path fill-rule="evenodd" clip-rule="evenodd" d="M112.989 156.266C112.989 159.488 112.989 162.709 112.989 165.93C115.143 165.93 117.297 165.93 119.451 165.93C119.451 165.435 119.451 164.939 119.451 164.444C117.936 164.474 116.438 164.444 114.956 164.351C116.485 164.351 118.016 164.351 119.545 164.351C119.545 164.908 119.545 165.466 119.545 166.023C117.328 166.023 115.113 166.023 112.896 166.023C112.865 162.755 112.896 159.502 112.989 156.266Z" fill="#62666D"/>
<path fill-rule="evenodd" clip-rule="evenodd" d="M128.255 165.838C128.305 165.843 128.337 165.874 128.349 165.931C127.584 166.053 126.835 166.053 126.101 165.931C126.836 165.961 127.554 165.93 128.255 165.838Z" fill="#65696F"/>
<path fill-rule="evenodd" clip-rule="evenodd" d="M139.774 156.266C139.868 159.502 139.899 162.755 139.868 166.023C139.164 166.053 138.477 166.022 137.807 165.93C138.463 165.93 139.119 165.93 139.774 165.93C139.774 162.709 139.774 159.488 139.774 156.266Z" fill="#797C82"/>
<path fill-rule="evenodd" clip-rule="evenodd" d="M62.3233 169.369C65.0089 169.201 66.7726 170.378 67.6147 172.9C67.973 175.333 67.0833 177.177 64.9456 178.43C63.6195 179.281 62.1679 179.761 60.5907 179.87C58.1547 179.653 56.6874 178.352 56.1891 175.967C55.9604 174.081 56.6003 172.548 58.109 171.367C59.4002 170.447 60.805 169.782 62.3233 169.369Z" fill="#FCFEFE"/>
<path fill-rule="evenodd" clip-rule="evenodd" d="M62.9789 171.228C64.4708 171.124 65.4542 171.774 65.9289 173.179C66.1012 174.372 65.711 175.347 64.7583 176.107C63.7971 176.785 62.7669 177.342 61.6677 177.779C59.8236 178.328 58.5593 177.723 57.8748 175.967C57.7671 175.345 57.8608 174.757 58.1558 174.201C58.9841 173.132 60.0298 172.342 61.2931 171.832C61.849 171.581 62.4109 171.38 62.9789 171.228Z" fill="#079C9A"/>
<path fill-rule="evenodd" clip-rule="evenodd" d="M205.05 172.157C208.327 174.186 211.573 176.261 214.79 178.383C214.358 179.135 213.875 179.848 213.338 180.521C210.287 179.867 207.243 179.233 204.207 178.615C206.098 181.096 207.971 183.59 209.826 186.096C209.342 186.809 208.859 187.521 208.375 188.234C205.119 186.193 201.888 184.118 198.682 182.007C199.064 181.466 199.423 180.908 199.759 180.335C202.204 181.925 204.623 183.52 207.017 185.121C205.152 182.659 203.31 180.18 201.491 177.686C201.706 177.368 201.909 177.043 202.1 176.71C202.175 176.59 202.284 176.527 202.428 176.525C205.424 177.171 208.42 177.775 211.418 178.337C208.903 176.893 206.436 175.375 204.02 173.783C204.384 173.252 204.728 172.71 205.05 172.157Z" fill="#FDFEFE"/>
<path fill-rule="evenodd" clip-rule="evenodd" d="M109.43 175.502C127.412 175.487 145.393 175.502 163.374 175.549C164.62 175.855 165.447 176.614 165.856 177.826C165.919 196.381 165.919 214.935 165.856 233.491C165.51 234.887 164.62 235.708 163.187 235.953C145.33 236.016 127.474 236.016 109.618 235.953C108.288 235.624 107.46 234.804 107.136 233.491C107.074 214.935 107.074 196.381 107.136 177.826C107.546 176.691 108.311 175.917 109.43 175.502Z" fill="#009C9A"/>
<path fill-rule="evenodd" clip-rule="evenodd" d="M67.6616 182.565C67.8368 182.598 67.9773 182.691 68.083 182.844C68.8921 183.988 69.7662 185.072 70.7053 186.096C71.9554 185.15 73.2197 184.221 74.4982 183.308C74.9479 183.767 75.3537 184.262 75.7157 184.795C72.7133 187.171 69.6696 189.494 66.5846 191.765C65.0346 189.897 63.5517 187.977 62.1361 186.003C62.4034 185.753 62.6843 185.521 62.979 185.306C63.1246 185.186 63.2806 185.124 63.4472 185.121C64.4618 186.437 65.4764 187.753 66.4909 189.07C66.5892 189.165 66.6985 189.18 66.8187 189.117C67.6616 188.466 68.5045 187.815 69.3473 187.165C68.3995 185.949 67.463 184.726 66.5378 183.494C66.9438 183.215 67.3185 182.905 67.6616 182.565Z" fill="#FCFEFE"/>
<path fill-rule="evenodd" clip-rule="evenodd" d="M153.541 188.42C153.855 188.404 154.166 188.42 154.477 188.466C154.611 188.51 154.721 188.587 154.805 188.698C155.036 189.294 155.286 189.883 155.554 190.464C155.634 190.848 155.603 191.22 155.461 191.579C151.149 195.901 147.216 200.517 143.66 205.426C140.541 210.19 137.856 215.209 135.606 220.48C134.907 221.466 133.954 221.792 132.75 221.456C132.125 221.262 131.579 220.937 131.111 220.48C128.028 216.39 124.203 213.184 119.639 210.862C118.888 210.347 118.622 209.65 118.843 208.771C119.097 207.29 119.737 206.005 120.762 204.915C121.545 204.302 122.42 204.147 123.385 204.45C126.672 205.605 129.309 207.603 131.298 210.444C135.311 203.963 140.26 198.248 146.142 193.298C148.454 191.439 150.919 189.813 153.541 188.42Z" fill="#FEFEFE"/>
</svg>
