<svg width="273" height="272" viewBox="0 0 273 272" fill="none" xmlns="http://www.w3.org/2000/svg">
<path opacity="0.964" fill-rule="evenodd" clip-rule="evenodd" d="M134.3 41C137.032 40.4455 139.298 41.1789 141.1 43.2C142.337 43.9456 143.67 44.4122 145.1 44.6C147.105 44.1968 148.972 43.4635 150.7 42.4C152.395 42.0708 153.995 42.3375 155.5 43.2C157.324 46.5788 160.124 47.9122 163.9 47.2C165.705 46.0985 167.572 45.9651 169.5 46.8C171.318 48.9549 173.318 50.9549 175.5 52.8C178.44 52.9693 181.374 53.236 184.3 53.6C184.9 54.2 185.5 54.8 186.1 55.4C186.579 57.8736 187.846 59.8069 189.9 61.2C192.486 61.519 195.02 62.0524 197.5 62.8C198.347 63.4923 198.947 64.359 199.3 65.4C199.769 70.1358 202.369 72.7358 207.1 73.2C208.767 73.8 209.9 74.9333 210.5 76.6C209.871 81.8288 212.071 85.0956 217.1 86.4C219.499 88.5732 220.166 91.24 219.1 94.4C219.279 95.5824 219.612 96.7156 220.1 97.8C221.892 99.4948 223.759 101.095 225.7 102.6C226.559 104.794 226.426 106.927 225.3 109C224.945 110.829 225.212 112.562 226.1 114.2C227.092 115.228 228.158 116.161 229.3 117C230.462 119.06 230.595 121.194 229.7 123.4C227.462 125.954 227.329 128.621 229.3 131.4C231.386 133.205 232.053 135.471 231.3 138.2C230.808 139.493 230.008 140.56 228.9 141.4C228.444 142.425 228.11 143.491 227.9 144.6C228.807 146.903 229.607 149.236 230.3 151.6C230.17 154.266 228.904 156.199 226.5 157.4C225.256 159.089 224.856 160.956 225.3 163C227.326 167.324 226.193 170.457 221.9 172.4C220.339 173.788 219.406 175.521 219.1 177.6C220.631 182.806 218.764 186.006 213.5 187.2C212.327 188.106 211.46 189.239 210.9 190.6C210.831 192.634 210.564 194.634 210.1 196.6C209.351 197.484 208.484 198.217 207.5 198.8C202.064 199.304 199.197 202.304 198.9 207.8C198.3 208.4 197.7 209 197.1 209.6C194.526 209.937 191.992 210.47 189.5 211.2C187.676 212.912 186.41 214.979 185.7 217.4C183.432 219.454 180.899 219.854 178.1 218.6C176.033 218.9 174.299 219.834 172.9 221.4C172.327 223.439 171.06 224.839 169.1 225.6C166.245 225.698 163.445 225.431 160.7 224.8C159.522 225.122 158.455 225.656 157.5 226.4C155.869 229.548 153.336 230.614 149.9 229.6C145.967 226.913 142.367 227.313 139.1 230.8C137.359 231.558 135.626 231.558 133.9 230.8C130.633 227.313 127.033 226.913 123.1 229.6C119.664 230.614 117.131 229.548 115.5 226.4C114.545 225.656 113.478 225.122 112.3 224.8C109.555 225.431 106.755 225.698 103.9 225.6C102.859 225.247 101.992 224.647 101.3 223.8C99.4 219.382 96.2 217.915 91.7 219.4C90.2948 219.267 89.0284 218.8 87.9 218C86.808 216.462 85.9412 214.795 85.3 213C84.7 212.4 84.1 211.8 83.5 211.2C81.0076 210.47 78.474 209.937 75.9 209.6C75.0164 208.851 74.2831 207.984 73.7 207C73.6268 203.58 72.0935 201.114 69.1 199.6C66.5396 199.592 64.4729 198.592 62.9 196.6C62.5809 194.014 62.0476 191.48 61.3 189C59.5701 187.169 57.5035 185.902 55.1 185.2C53.1903 182.965 52.7903 180.498 53.9 177.8C53.6511 175.635 52.7177 173.835 51.1 172.4C49.0607 171.827 47.6607 170.56 46.9 168.6C47.0403 165.787 47.307 162.987 47.7 160.2C47.4442 159.155 46.9775 158.222 46.3 157.4C44.0063 156.114 42.8063 154.18 42.7 151.6C43.3977 149.234 44.1977 146.901 45.1 144.6C43.769 141.801 42.4357 139.001 41.1 136.2C41.3671 133.932 42.3671 132.066 44.1 130.6C45.402 128.059 45.1353 125.659 43.3 123.4C41.8857 119.562 42.9523 116.629 46.5 114.6C47.7435 112.926 48.1435 111.059 47.7 109C45.6827 104.918 46.6827 101.918 50.7 100C53.6205 97.6392 54.4205 94.7056 53.1 91.2C53.3113 89.1772 54.2447 87.5772 55.9 86.4C60.9154 85.1056 63.1154 81.8392 62.5 76.6C63.1 74.9333 64.2333 73.8 65.9 73.2C70.8173 72.6825 73.4173 69.9491 73.7 65C74.4961 63.4038 75.7628 62.4038 77.5 62C82.572 62.5014 85.7052 60.3014 86.9 55.4C89.07 52.9891 91.7364 52.3224 94.9 53.4C97.0864 53.3067 98.82 52.3734 100.1 50.6C100.746 48.4385 102.146 47.0385 104.3 46.4C107.087 46.7929 109.887 47.0596 112.7 47.2C114.778 46.4566 116.378 45.1233 117.5 43.2C118.562 42.6237 119.695 42.2904 120.9 42.2C122.988 42.5446 124.921 43.278 126.7 44.4C128.261 44.6953 129.727 44.4286 131.1 43.6C132.242 42.7876 133.309 41.921 134.3 41Z" fill="#006838"/>
<path fill-rule="evenodd" clip-rule="evenodd" d="M130.3 48.6C166.196 47.7106 193.596 62.3773 212.5 92.6C226.046 117.916 227.513 143.916 216.9 170.6C202.279 201.739 177.812 219.272 143.5 223.2C110.142 224.819 83.676 212.219 64.1 185.4C47.1555 158.782 44.4888 130.782 56.1 101.4C68.6362 74.4689 89.3696 57.4689 118.3 50.4C122.344 49.6988 126.344 49.0988 130.3 48.6Z" fill="#3BB44C"/>
<path fill-rule="evenodd" clip-rule="evenodd" d="M130.3 51.8C164.979 50.9018 191.446 65.0351 209.7 94.2C224.454 122.398 224.32 150.532 209.3 178.6C190.805 207.749 164.205 221.549 129.5 220C105.405 217.655 85.7379 207.188 70.4999 188.6C50.983 162.246 47.1163 133.712 58.8999 103C73.2823 72.8199 97.0823 55.7532 130.3 51.8Z" fill="#FCFDFC"/>
<path fill-rule="evenodd" clip-rule="evenodd" d="M145.5 57.8C147.158 59.0473 147.091 60.2473 145.3 61.4C144.636 60.8733 144.17 60.2066 143.9 59.4C144.447 58.864 144.98 58.3307 145.5 57.8Z" fill="#1B7245"/>
<path fill-rule="evenodd" clip-rule="evenodd" d="M141.1 67.3999C140.708 68.6499 140.575 69.9832 140.7 71.3999C139.9 71.3999 139.1 71.3999 138.3 71.3999C138.3 68.9999 138.3 66.5999 138.3 64.1999C137.513 64.1042 136.78 64.2375 136.1 64.5999C135.901 65.5239 135.835 66.4572 135.9 67.3999C135.508 68.6499 135.375 69.9832 135.5 71.3999C134.7 71.3999 133.9 71.3999 133.1 71.3999C133.1 70.7333 133.1 70.0666 133.1 69.3999C133.496 67.2098 133.629 64.9431 133.5 62.5999C134.167 62.5999 134.833 62.5999 135.5 62.5999C135.76 62.7215 136.027 62.8549 136.3 62.9999C140.351 61.5795 141.951 63.0462 141.1 67.3999Z" fill="#146E40"/>
<path fill-rule="evenodd" clip-rule="evenodd" d="M126.7 62.6C127.974 62.4079 129.108 62.6745 130.1 63.4C130.5 65.5333 130.9 67.6667 131.3 69.8C131.84 69.7783 132.307 69.9783 132.7 70.4C131.766 71.7895 130.499 72.1229 128.9 71.4C125.209 73.5817 123.609 72.515 124.1 68.2C125.063 66.952 126.33 66.4187 127.9 66.6C127.9 65.9334 127.9 65.2667 127.9 64.6C126.707 64.4418 125.64 64.7085 124.7 65.4C124.385 65.1032 124.119 64.7699 123.9 64.4C124.859 63.7903 125.792 63.1903 126.7 62.6Z" fill="#197143"/>
<path fill-rule="evenodd" clip-rule="evenodd" d="M135.5 62.6001C134.833 62.6001 134.167 62.6001 133.5 62.6001C133.629 64.9433 133.496 67.2099 133.1 69.4001C133.1 67.0001 133.1 64.6001 133.1 62.2001C133.994 62.0822 134.794 62.2155 135.5 62.6001Z" fill="#4E9674"/>
<path fill-rule="evenodd" clip-rule="evenodd" d="M143.5 63C144.433 63 145.367 63 146.3 63C145.902 66.0541 145.636 69.1208 145.5 72.2C144.567 72.2 143.633 72.2 142.7 72.2C143.11 69.15 143.377 66.0833 143.5 63Z" fill="#187043"/>
<path fill-rule="evenodd" clip-rule="evenodd" d="M121.5 63.4C122.131 64.3975 121.864 65.1309 120.7 65.6C122.97 69.0932 122.037 71.1599 117.9 71.8C117.9 72.2 117.9 72.6 117.9 73C119.374 72.7985 120.84 72.5319 122.3 72.2C123.265 72.1625 123.998 72.5625 124.5 73.4C125.129 76.0772 124.262 78.1436 121.9 79.6C120.461 80.1108 118.994 80.244 117.5 80C116.742 79.2768 116.542 78.41 116.9 77.4C117.344 76.7852 117.944 76.5188 118.7 76.6C118.812 78.09 119.612 78.5568 121.1 78C122.336 77.7236 122.803 76.9904 122.5 75.8C120.503 75.7317 118.503 75.5984 116.5 75.4C116.209 74.3078 116.275 73.2412 116.7 72.2C114.525 70.9145 113.792 69.0478 114.5 66.6C115.748 64.9431 117.415 64.2098 119.5 64.4C120.296 64.2506 120.963 63.9172 121.5 63.4Z" fill="#166F41"/>
<path fill-rule="evenodd" clip-rule="evenodd" d="M148.7 63.4C150.788 63.64 152.788 64.1733 154.7 65C152.967 67.1333 151.233 69.2667 149.5 71.4C150.838 71.9029 152.171 71.9029 153.5 71.4C153.877 72.1879 153.61 72.7879 152.7 73.2C150.316 73.5045 148.049 73.1045 145.9 72C147.538 69.7933 149.271 67.66 151.1 65.6C150.22 65.1827 149.286 64.8494 148.3 64.6C148.551 64.2333 148.684 63.8333 148.7 63.4Z" fill="#1A7144"/>
<path fill-rule="evenodd" clip-rule="evenodd" d="M117.1 66.1999C117.856 66.1185 118.456 66.3852 118.9 66.9999C119.401 68.0053 119.601 69.072 119.5 70.1999C117.083 69.9057 116.283 68.5724 117.1 66.1999Z" fill="#F3F7F5"/>
<path fill-rule="evenodd" clip-rule="evenodd" d="M157.1 66.2C158.742 66.0935 160.342 66.2935 161.9 66.8C162.478 67.2504 162.744 67.8504 162.7 68.6C162.289 70.4333 161.756 72.2333 161.1 74C161.228 74.6613 161.628 75.0613 162.3 75.2C161.002 76.5792 159.802 76.5124 158.7 75C154.172 75.1752 153.105 73.3752 155.5 69.6C156.785 69.3189 158.052 69.3856 159.3 69.8C160.159 69.3614 160.359 68.7614 159.9 68C159.004 67.6092 158.071 67.4092 157.1 67.4C157.1 67 157.1 66.6 157.1 66.2Z" fill="#126E40"/>
<path fill-rule="evenodd" clip-rule="evenodd" d="M111.5 66.2C112.812 66.4122 113.345 67.2122 113.1 68.6C112.121 68.404 111.454 68.7373 111.1 69.6C111.824 71.6386 112.624 73.6386 113.5 75.6C112.672 76.2092 111.739 76.5428 110.7 76.6C109.762 73.6605 108.829 70.7272 107.9 67.8C108.91 67.2433 109.777 67.3767 110.5 68.2C110.646 67.4193 110.98 66.7526 111.5 66.2Z" fill="#166F42"/>
<path fill-rule="evenodd" clip-rule="evenodd" d="M98.7 67.4C104.132 67.1018 107.066 69.7018 107.5 75.2C106.561 80.2056 103.628 81.9388 98.7 80.4C95.708 77.9508 94.4412 74.8176 94.9 71C95.6484 69.2025 96.9152 68.0025 98.7 67.4Z" fill="#116D3F"/>
<path fill-rule="evenodd" clip-rule="evenodd" d="M135.9 67.4C135.9 68.8667 135.9 70.3333 135.9 71.8C134.876 71.9207 133.943 71.7873 133.1 71.4C133.9 71.4 134.7 71.4 135.5 71.4C135.375 69.9833 135.508 68.6499 135.9 67.4Z" fill="#90BDA8"/>
<path fill-rule="evenodd" clip-rule="evenodd" d="M126.7 67.8C127.233 67.8 127.767 67.8 128.3 67.8C128.308 68.4242 128.441 69.0242 128.7 69.6C128.262 70.4588 127.662 70.6588 126.9 70.2C126.702 69.411 126.635 68.611 126.7 67.8Z" fill="#F1F6F3"/>
<path fill-rule="evenodd" clip-rule="evenodd" d="M141.1 67.4C141.1 68.8667 141.1 70.3333 141.1 71.8C140.076 71.9207 139.143 71.7873 138.3 71.4C139.1 71.4 139.9 71.4 140.7 71.4C140.575 69.9833 140.708 68.6499 141.1 67.4Z" fill="#559979"/>
<path fill-rule="evenodd" clip-rule="evenodd" d="M167.5 67.8C167.921 67.7402 168.321 67.8069 168.7 68C168.82 68.5282 168.886 69.1282 168.9 69.8C169.468 70.1841 170.068 70.5174 170.7 70.8C170.501 71.2633 170.168 71.5966 169.7 71.8C168.947 71.3576 168.214 71.3576 167.5 71.8C166.538 73.3128 165.938 74.9128 165.7 76.6C166.438 76.82 167.038 77.22 167.5 77.8C165.889 78.3836 164.356 78.2504 162.9 77.4C163.04 74.7154 163.906 72.2487 165.5 70C165.233 69.7333 164.967 69.4667 164.7 69.2C165.643 68.6898 166.577 68.2231 167.5 67.8Z" fill="#177042"/>
<path fill-rule="evenodd" clip-rule="evenodd" d="M174.7 67.8C175.1 67.8 175.5 67.8 175.9 67.8C175.843 68.505 175.976 69.1717 176.3 69.8C174.191 71.704 173.258 71.1707 173.5 68.2C174.016 68.295 174.416 68.1616 174.7 67.8Z" fill="#207448"/>
<path fill-rule="evenodd" clip-rule="evenodd" d="M98.7 69.4C99.6428 69.3347 100.576 69.4013 101.5 69.6C103.398 71.4623 104.731 73.6623 105.5 76.2C104.616 78.876 102.882 79.6092 100.3 78.4C98.2288 76.3268 97.0956 73.86 96.9 71C97.4588 70.3719 98.0588 69.8385 98.7 69.4Z" fill="#F9FBFA"/>
<path fill-rule="evenodd" clip-rule="evenodd" d="M157.9 70.6C158.3 70.6 158.7 70.6 159.1 70.6C159.03 71.5444 158.897 72.4777 158.7 73.4C158.167 73.4 157.633 73.4 157.1 73.4C156.966 72.3248 157.233 71.3914 157.9 70.6Z" fill="#F0F6F3"/>
<path fill-rule="evenodd" clip-rule="evenodd" d="M171.9 71.8C172.803 71.9847 173.603 72.3847 174.3 73C172.953 75.2156 171.686 77.4824 170.5 79.8C169.468 80.6764 168.468 80.5432 167.5 79.4C169.072 76.9212 170.539 74.3878 171.9 71.8Z" fill="#136E40"/>
<path fill-rule="evenodd" clip-rule="evenodd" d="M175.9 75.4C180.044 75.3421 181.844 77.342 181.3 81.4C179.493 85.144 176.893 85.8772 173.5 83.6C171.998 81.718 171.931 79.7848 173.3 77.8C174.125 76.9064 174.992 76.1064 175.9 75.4Z" fill="#136E40"/>
<path fill-rule="evenodd" clip-rule="evenodd" d="M177.5 77C178.573 77.0652 179.24 77.5984 179.5 78.6C178.916 80.6516 177.716 82.2516 175.9 83.4C174.797 82.7648 174.464 81.8316 174.9 80.6C175.574 79.2468 176.441 78.0468 177.5 77Z" fill="#F5F9F7"/>
<path fill-rule="evenodd" clip-rule="evenodd" d="M90.3 78.2C92.2108 79.0684 92.2776 80.0016 90.5 81C90.2332 81.4 90.2332 81.8 90.5 82.2C91.9468 83.6956 93.3468 85.2288 94.7 86.8C94.0932 87.474 93.4264 88.074 92.7 88.6C90.7748 86.2076 88.7748 83.8744 86.7 81.6C87.356 80.6644 88.156 80.3312 89.1 80.6C89.3824 79.7184 89.7824 78.9184 90.3 78.2Z" fill="#136E40"/>
<path fill-rule="evenodd" clip-rule="evenodd" d="M184.7 80.6C185.674 81.1084 186.274 81.9084 186.5 83C188.163 83.3264 189.296 84.26 189.9 85.8C188.354 88.35 186.421 90.6164 184.1 92.6C183.5 92 182.9 91.4 182.3 90.8C183.833 89.2668 185.367 87.7332 186.9 86.2C187.119 84.5352 186.386 83.9352 184.7 84.4C183.152 85.8136 181.752 87.3468 180.5 89C179.826 88.3932 179.226 87.7264 178.7 87C180.709 84.8584 182.709 82.7252 184.7 80.6Z" fill="#106D3F"/>
<path fill-rule="evenodd" clip-rule="evenodd" d="M129.9 81.4001C132.058 81.0221 132.724 81.8221 131.9 83.8001C129.821 84.2521 129.154 83.4521 129.9 81.4001Z" fill="#4ABA57"/>
<path fill-rule="evenodd" clip-rule="evenodd" d="M135.9 81C137.831 80.954 138.364 81.8208 137.5 83.6C135.195 83.7672 134.662 82.9004 135.9 81Z" fill="#48B956"/>
<path fill-rule="evenodd" clip-rule="evenodd" d="M141.1 81.4C143.363 81.0716 144.03 81.9384 143.1 84C141.005 84.2376 140.338 83.3708 141.1 81.4Z" fill="#4CBB58"/>
<path fill-rule="evenodd" clip-rule="evenodd" d="M124.7 82.2001C126.906 82.1893 127.44 83.0561 126.3 84.8001C123.995 84.9673 123.462 84.1005 124.7 82.2001Z" fill="#4CBB59"/>
<path fill-rule="evenodd" clip-rule="evenodd" d="M147.1 82.2C149.031 82.154 149.564 83.0208 148.7 84.8C146.374 84.9496 145.841 84.0828 147.1 82.2Z" fill="#4BBA57"/>
<path fill-rule="evenodd" clip-rule="evenodd" d="M119.1 83.8C120.949 83.3632 121.682 84.03 121.3 85.8C120.03 86.4648 119.03 86.198 118.3 85C118.577 84.5928 118.844 84.1928 119.1 83.8Z" fill="#48B955"/>
<path fill-rule="evenodd" clip-rule="evenodd" d="M152.3 83.7999C154.562 83.7299 155.095 84.5963 153.9 86.3999C151.75 86.4275 151.216 85.5607 152.3 83.7999Z" fill="#4EBB5A"/>
<path fill-rule="evenodd" clip-rule="evenodd" d="M83.5 84.6C88.3432 84.4248 89.0768 86.0248 85.7 89.4C85.4264 89.9136 85.4932 90.3804 85.9 90.8C86.7272 91.0748 87.5272 91.008 88.3 90.6C88.8736 89.5812 89.54 88.6476 90.3 87.8C90.7948 90.2168 89.9948 92.15 87.9 93.6C85.0816 93.89 83.0148 92.7568 81.7 90.2C81.0236 87.844 81.6236 85.9776 83.5 84.6Z" fill="#167042"/>
<path fill-rule="evenodd" clip-rule="evenodd" d="M113.9 85.8C115.749 85.3632 116.482 86.03 116.1 87.8C114.852 88.8772 113.852 88.6772 113.1 87.2C113.291 86.6788 113.558 86.2124 113.9 85.8Z" fill="#52BC5D"/>
<path fill-rule="evenodd" clip-rule="evenodd" d="M157.5 85.8C159.706 85.7892 160.24 86.656 159.1 88.4C157.216 88.4328 156.683 87.566 157.5 85.8Z" fill="#41B750"/>
<path fill-rule="evenodd" clip-rule="evenodd" d="M130.7 86.1999C153.338 85.0155 170.204 94.2155 181.3 113.8C190.858 136.68 186.791 156.746 169.1 174C155.486 184.799 140.152 188.266 123.1 184.4C103.765 177.998 91.8317 164.865 87.3001 145C84.3289 119.135 94.5289 100.668 117.9 89.5999C122.119 88.0791 126.386 86.9459 130.7 86.1999Z" fill="#3DB64C"/>
<path fill-rule="evenodd" clip-rule="evenodd" d="M83.5 86.6C85.718 86.8484 85.9848 87.6484 84.3 89C83.144 88.4652 82.8772 87.6652 83.5 86.6Z" fill="#E8F1ED"/>
<path fill-rule="evenodd" clip-rule="evenodd" d="M109.1 88.2C111.199 88.256 111.599 89.1224 110.3 90.8C108.244 90.7544 107.844 89.8876 109.1 88.2Z" fill="#44B852"/>
<path fill-rule="evenodd" clip-rule="evenodd" d="M162.7 88.2C163.661 88.1572 164.394 88.5572 164.9 89.4C164.842 90.7796 164.108 91.246 162.7 90.8C161.676 89.9376 161.676 89.0708 162.7 88.2Z" fill="#47B954"/>
<path fill-rule="evenodd" clip-rule="evenodd" d="M104.3 91.4C104.967 91.4 105.633 91.4 106.3 91.4C106.697 93.47 105.897 94.2036 103.9 93.6C103.397 92.7696 103.53 92.036 104.3 91.4Z" fill="#42B751"/>
<path fill-rule="evenodd" clip-rule="evenodd" d="M130.7 91.4C150.076 90.1212 164.943 97.588 175.3 113.8C181.146 124.393 182.68 135.593 179.9 147.4C150.967 147.4 122.033 147.4 93.0999 147.4C89.0019 126.285 95.8019 109.685 113.5 97.6C118.925 94.5264 124.658 92.4596 130.7 91.4Z" fill="#FDFEFD"/>
<path fill-rule="evenodd" clip-rule="evenodd" d="M167.1 91.4C169.094 91.322 169.761 92.1888 169.1 94C167.005 94.2376 166.338 93.3708 167.1 91.4Z" fill="#42B851"/>
<path fill-rule="evenodd" clip-rule="evenodd" d="M192.7 96.6C191.536 97.9804 190.069 98.4472 188.3 98C186.581 96.468 186.714 95.1348 188.7 94C190.167 93 191.633 92 193.1 91C193.74 91.214 193.94 91.614 193.7 92.2C192.93 92.752 192.196 93.352 191.5 94C192.468 94.6036 192.868 95.47 192.7 96.6Z" fill="#1B7246"/>
<path fill-rule="evenodd" clip-rule="evenodd" d="M69.9 91.4C71.9459 92.626 73.9459 93.9592 75.9 95.4C76.0796 93.9668 76.6128 92.7 77.5 91.6C78.1668 91.3332 78.8332 91.3332 79.5 91.6C81.7432 92.9104 83.8768 94.3772 85.9 96C85.4096 96.654 84.8764 97.254 84.3 97.8C82.5128 96.7452 80.7792 95.612 79.1 94.4C77.358 94.2116 76.8248 94.9448 77.5 96.6C79.3032 97.7012 81.0364 98.9012 82.7 100.2C82.4504 101.102 81.9172 101.768 81.1 102.2C77.0444 99.4108 73.0442 96.5444 69.1 93.6C69.4856 92.91 69.7523 92.1764 69.9 91.4Z" fill="#146F41"/>
<path fill-rule="evenodd" clip-rule="evenodd" d="M100.3 94.6C102.297 94.7988 102.697 95.6656 101.5 97.2C98.844 97.4364 98.444 96.57 100.3 94.6Z" fill="#4FBC5B"/>
<path fill-rule="evenodd" clip-rule="evenodd" d="M171.5 94.9999C173.494 94.9219 174.161 95.7887 173.5 97.5999C171.405 97.8375 170.738 96.9707 171.5 94.9999Z" fill="#47B954"/>
<path fill-rule="evenodd" clip-rule="evenodd" d="M190.3 94.6C190.734 94.648 191.001 94.9148 191.1 95.4C190.506 96.8844 189.573 97.218 188.3 96.4C188.996 95.7932 189.662 95.1932 190.3 94.6Z" fill="#EEF5F1"/>
<path fill-rule="evenodd" clip-rule="evenodd" d="M192.7 96.5999C193.538 96.1583 193.938 96.4919 193.9 97.5999C193.58 98.6391 193.046 99.5723 192.3 100.4C193.275 100.319 194.208 99.9851 195.1 99.3999C195.808 99.6139 195.942 99.9475 195.5 100.4C193.942 101.2 192.276 101.533 190.5 101.4C189.367 101.333 188.233 101.267 187.1 101.2C186.023 100.017 186.156 99.7499 187.5 100.4C190.391 100.782 192.124 99.5151 192.7 96.5999Z" fill="#197245"/>
<path fill-rule="evenodd" clip-rule="evenodd" d="M95.9 98.6C98.1064 98.5892 98.6396 99.456 97.5 101.2C96.8464 101.398 96.1796 101.464 95.5 101.4C95.4792 100.439 95.6124 99.5056 95.9 98.6Z" fill="#49BA56"/>
<path fill-rule="evenodd" clip-rule="evenodd" d="M175.9 98.6C176.874 98.8396 177.54 99.4396 177.9 100.4C176.841 102.292 175.908 102.226 175.1 100.2C175.201 99.5708 175.467 99.0376 175.9 98.6Z" fill="#46B954"/>
<path fill-rule="evenodd" clip-rule="evenodd" d="M72.3001 99.4C73.0537 99.4848 73.587 99.8848 73.9001 100.6C73.2099 101.291 72.6765 102.091 72.3001 103C72.5667 103.133 72.8334 103.267 73.1001 103.4C74.2226 102.482 75.4893 101.815 76.9001 101.4C79.3425 101.882 80.2757 103.348 79.7001 105.8C79.1741 106.997 78.3741 107.93 77.3001 108.6C76.7905 108.186 76.3239 107.719 75.9001 107.2C76.6221 106.811 77.2889 106.344 77.9001 105.8C78.6133 104.388 78.2133 103.788 76.7001 104C75.147 105.897 73.347 106.23 71.3001 105C70.7314 103.988 70.5981 102.921 70.9001 101.8C71.4575 101.045 71.9242 100.245 72.3001 99.4Z" fill="#187143"/>
<path fill-rule="evenodd" clip-rule="evenodd" d="M92.3 103C94.5592 102.924 95.0928 103.791 93.9 105.6C93.2552 105.888 92.6552 105.822 92.1 105.4C91.904 104.582 91.9708 103.782 92.3 103Z" fill="#47B955"/>
<path fill-rule="evenodd" clip-rule="evenodd" d="M178.7 103.4C180.502 103.011 181.369 103.678 181.3 105.4C180.847 106.084 180.247 106.284 179.5 106C178.808 105.284 178.542 104.418 178.7 103.4Z" fill="#47B955"/>
<path fill-rule="evenodd" clip-rule="evenodd" d="M202.7 103.8C204.306 103.734 205.906 103.8 207.5 104C207.997 104.462 208.397 104.995 208.7 105.6C205.426 108.674 202.093 111.674 198.7 114.6C199.1 114.867 199.5 115.133 199.9 115.4C199.482 116.307 199.416 117.24 199.7 118.2C200.298 118.699 200.898 118.699 201.5 118.2C201.742 116.841 202.075 115.508 202.5 114.2C204.074 113.074 205.541 113.208 206.9 114.6C207.604 115.843 207.937 117.176 207.9 118.6C207.233 118.6 206.567 118.6 205.9 118.6C205.965 117.657 205.899 116.724 205.7 115.8C205.3 115.267 204.9 115.267 204.5 115.8C204.523 117.602 203.923 119.136 202.7 120.4C200.983 120.881 199.583 120.414 198.5 119C198.138 116.933 197.538 114.933 196.7 113C197.73 111.685 198.93 110.552 200.3 109.6C199.487 108.442 198.954 107.175 198.7 105.8C196.96 106.216 195.227 106.216 193.5 105.8C193.367 105.533 193.233 105.267 193.1 105C196.354 104.558 199.554 104.158 202.7 103.8Z" fill="#126E40"/>
<path fill-rule="evenodd" clip-rule="evenodd" d="M203.9 105C204.449 104.937 204.983 105.004 205.5 105.2C204.108 106.258 202.774 107.392 201.5 108.6C200.872 107.612 200.472 106.545 200.3 105.4C201.585 105.524 202.785 105.391 203.9 105Z" fill="#E9F2EE"/>
<path fill-rule="evenodd" clip-rule="evenodd" d="M69.1 107.4C71.9218 106.844 74.2552 107.644 76.1 109.8C77.164 114.337 75.3639 116.404 70.7 116C67.6614 114.965 66.5281 112.898 67.3 109.8C67.8328 108.936 68.4328 108.136 69.1 107.4Z" fill="#146F41"/>
<path fill-rule="evenodd" clip-rule="evenodd" d="M89.0999 107.8C91.5219 107.577 92.0551 108.444 90.6999 110.4C90.0551 110.688 89.4551 110.622 88.8999 110.2C88.7039 109.382 88.7707 108.582 89.0999 107.8Z" fill="#47B954"/>
<path fill-rule="evenodd" clip-rule="evenodd" d="M182.3 107.8C184.172 107.95 184.706 108.884 183.9 110.6C182.715 110.972 181.915 110.505 181.5 109.2C181.691 108.679 181.958 108.212 182.3 107.8Z" fill="#4CBB58"/>
<path fill-rule="evenodd" clip-rule="evenodd" d="M131.5 135C131.107 133.481 130.973 131.881 131.1 130.2C131.225 121.336 135.358 115.27 143.5 112C148.822 111.544 154.155 111.278 159.5 111.2C161.831 110.735 163.764 109.602 165.3 107.8C162.637 113.226 160.637 118.959 159.3 125C157.383 131.584 153.316 136.317 147.1 139.2C143.465 140.456 139.865 141.789 136.3 143.2C134.934 143.7 133.867 144.567 133.1 145.8C134.396 134.35 139.996 125.616 149.9 119.6C150.455 119.244 150.389 119.044 149.7 119C140.853 121.244 134.787 126.578 131.5 135Z" fill="#3CB64C"/>
<path fill-rule="evenodd" clip-rule="evenodd" d="M69.1 109.8C71.4244 109.708 73.4244 110.441 75.1 112C74.8099 113.634 73.8766 114.167 72.3 113.6C71.1865 113.243 70.1198 112.777 69.1 112.2C68.6223 111.394 68.6223 110.594 69.1 109.8Z" fill="#F7FAF8"/>
<path fill-rule="evenodd" clip-rule="evenodd" d="M86.7 112.6C88.6312 112.554 89.1644 113.421 88.3 115.2C87.6464 115.398 86.9796 115.464 86.3 115.4C86.2192 114.42 86.3524 113.487 86.7 112.6Z" fill="#44B852"/>
<path fill-rule="evenodd" clip-rule="evenodd" d="M184.7 113C186.631 112.954 187.164 113.821 186.3 115.6C184.328 115.771 183.795 114.904 184.7 113Z" fill="#41B750"/>
<path fill-rule="evenodd" clip-rule="evenodd" d="M60.6999 115C61.2333 115 61.7666 115 62.2999 115C62.4549 117.612 63.7216 119.346 66.0999 120.2C69.1429 119.878 71.7429 118.678 73.8999 116.6C74.5409 118.182 74.2743 119.582 73.0999 120.8C71.1238 121.528 69.1238 122.194 67.0999 122.8C67.3666 123.067 67.6333 123.333 67.8999 123.6C69.5055 123.935 71.1055 124.268 72.6999 124.6C72.764 125.28 72.6973 125.946 72.4999 126.6C72.1429 126.832 71.7429 126.966 71.2999 127C67.2213 126.22 63.1547 125.42 59.0999 124.6C58.8465 123.234 59.3798 122.434 60.6999 122.2C62.1598 122.6 63.6265 122.8 65.0999 122.8C64.1149 121.414 62.9816 120.148 61.6999 119C60.8974 117.786 60.5641 116.452 60.6999 115Z" fill="#156F41"/>
<path fill-rule="evenodd" clip-rule="evenodd" d="M165.5 113C168.507 113.155 169.507 114.622 168.5 117.4C166.899 119.003 165.433 118.87 164.1 117C163.602 115.294 164.069 113.961 165.5 113Z" fill="#6AC673"/>
<path fill-rule="evenodd" clip-rule="evenodd" d="M165.5 114.2C167.838 113.54 168.705 114.473 168.1 117C167.377 117.758 166.51 117.958 165.5 117.6C165.776 117.173 165.976 116.706 166.1 116.2C166.486 116.904 166.953 117.038 167.5 116.6C167.348 115.992 167.282 115.325 167.3 114.6C166.758 114.248 166.158 114.114 165.5 114.2Z" fill="#EBF7EC"/>
<path fill-rule="evenodd" clip-rule="evenodd" d="M164.7 114.6C165.149 115.315 165.216 116.115 164.9 117C164.18 116.254 164.114 115.454 164.7 114.6Z" fill="#F8FCF8"/>
<path fill-rule="evenodd" clip-rule="evenodd" d="M84.7 117.8C86.5272 117.633 87.1272 118.433 86.5 120.2C85.9416 121.011 85.2752 121.144 84.5 120.6C84.2188 119.628 84.2852 118.695 84.7 117.8Z" fill="#4BBA58"/>
<path fill-rule="evenodd" clip-rule="evenodd" d="M186.7 118.2C188.631 118.154 189.164 119.021 188.3 120.8C186.328 120.971 185.795 120.104 186.7 118.2Z" fill="#3FB74F"/>
<path fill-rule="evenodd" clip-rule="evenodd" d="M104.3 119.4C105.086 120.195 106.019 120.795 107.1 121.2C111.923 121.234 116.723 121.5 121.5 122C124.829 123.462 127.029 125.929 128.1 129.4C128.876 132.162 129.276 134.962 129.3 137.8C126.826 131.404 122.226 127.738 115.5 126.8C122.514 130.607 126.714 136.407 128.1 144.2C127.614 143.58 127.014 143.114 126.3 142.8C123.342 141.947 120.409 141.014 117.5 140C113.444 138.231 110.71 135.231 109.3 131C108.132 126.887 106.465 123.02 104.3 119.4Z" fill="#3EB64D"/>
<path fill-rule="evenodd" clip-rule="evenodd" d="M200.7 121.4C203.925 120.495 205.525 121.695 205.5 125C207.698 124.775 208.098 123.708 206.7 121.8C207.046 121.367 207.446 121.3 207.9 121.6C209.507 123.177 209.84 124.977 208.9 127C206.902 127.7 204.836 128.167 202.7 128.4C202.365 128.804 202.232 129.271 202.3 129.8C200.402 129.302 199.868 128.102 200.7 126.2C199.138 124.555 199.138 122.955 200.7 121.4Z" fill="#177042"/>
<path fill-rule="evenodd" clip-rule="evenodd" d="M83.1 123.4C85.522 123.177 86.0552 124.044 84.7 126C82.728 126.171 82.1948 125.304 83.1 123.4Z" fill="#4ABA57"/>
<path fill-rule="evenodd" clip-rule="evenodd" d="M188.3 123.4C190.205 123.637 190.738 124.637 189.9 126.4C187.461 126.459 186.928 125.459 188.3 123.4Z" fill="#53BD5E"/>
<path fill-rule="evenodd" clip-rule="evenodd" d="M201.9 123.8C202.7 123.8 203.5 123.8 204.3 123.8C204.3 124.333 204.3 124.867 204.3 125.4C203.495 125.606 202.695 125.672 201.9 125.6C201.409 125.004 201.409 124.404 201.9 123.8Z" fill="#EFF6F3"/>
<path fill-rule="evenodd" clip-rule="evenodd" d="M82.2999 129C82.9667 129 83.6331 129 84.2999 129C84.3647 129.811 84.2979 130.611 84.0999 131.4C81.9603 131.958 81.3603 131.158 82.2999 129Z" fill="#42B751"/>
<path fill-rule="evenodd" clip-rule="evenodd" d="M189.1 129C189.758 128.914 190.358 129.048 190.9 129.4C191.203 130.308 191.136 131.174 190.7 132C190.055 132.288 189.455 132.222 188.9 131.8C188.619 130.828 188.685 129.895 189.1 129Z" fill="#4FBC5B"/>
<path fill-rule="evenodd" clip-rule="evenodd" d="M131.1 130.2C130.973 131.881 131.107 133.481 131.5 135C131.343 135.672 131.143 136.338 130.9 137C130.573 134.66 130.639 132.394 131.1 130.2Z" fill="#7ACD84"/>
<path fill-rule="evenodd" clip-rule="evenodd" d="M63.9 131.8C66.5666 131.8 69.2333 131.8 71.9 131.8C71.9 132.733 71.9 133.667 71.9 134.6C69.4963 134.534 67.0963 134.6 64.7 134.8C64.4446 135.483 64.4446 136.216 64.7 137C67.118 136.921 69.518 137.055 71.9 137.4C71.9 138.2 71.9 139 71.9 139.8C68.8333 139.8 65.7666 139.8 62.7 139.8C62.564 138.742 62.8306 137.809 63.5 137C62.3071 135.108 62.4405 133.374 63.9 131.8Z" fill="#1A7144"/>
<path fill-rule="evenodd" clip-rule="evenodd" d="M203.9 149.4C204.284 148.694 204.418 147.894 204.3 147C203.534 146.886 202.868 147.02 202.3 147.4C202.053 147.444 201.853 147.578 201.7 147.8C201.63 149.153 201.43 150.486 201.1 151.8C199.79 150.47 199.324 148.87 199.7 147C199.974 145.977 200.574 145.244 201.5 144.8C200.191 142.606 200.591 140.739 202.7 139.2C204.167 138.533 205.633 137.867 207.1 137.2C205.179 136.575 203.179 136.242 201.1 136.2C201.1 135.4 201.1 134.6 201.1 133.8C205.646 133.703 210.179 133.836 214.7 134.2C214.7 135 214.7 135.8 214.7 136.6C212.696 136.534 210.696 136.6 208.7 136.8C210.735 138.033 212.535 139.567 214.1 141.4C214.299 142.324 214.365 143.257 214.3 144.2C213.9 144.2 213.5 144.2 213.1 144.2C212.522 142.018 211.189 140.418 209.1 139.4C206.544 140.078 204.277 141.278 202.3 143C202.002 143.494 201.868 144.028 201.9 144.6C204.918 143.946 207.251 144.879 208.9 147.4C209.381 151.186 207.781 152.786 204.1 152.2C203.901 151.276 203.835 150.343 203.9 149.4Z" fill="#176F42"/>
<path fill-rule="evenodd" clip-rule="evenodd" d="M81.9 134.6C84.322 134.377 84.8552 135.244 83.5 137.2C81.528 137.371 80.9948 136.504 81.9 134.6Z" fill="#4EBB5A"/>
<path fill-rule="evenodd" clip-rule="evenodd" d="M189.5 134.6C191.405 134.837 191.938 135.837 191.1 137.6C188.661 137.659 188.128 136.659 189.5 134.6Z" fill="#4EBB5A"/>
<path fill-rule="evenodd" clip-rule="evenodd" d="M82.3 140.2C84.2312 140.154 84.7644 141.021 83.9 142.8C81.928 142.971 81.3948 142.104 82.3 140.2Z" fill="#3EB64E"/>
<path fill-rule="evenodd" clip-rule="evenodd" d="M70.3001 140.2C72.2316 140.828 72.7649 142.094 71.9001 144C74.0817 147.691 73.015 149.291 68.7001 148.8C67.589 147.806 67.0557 146.54 67.1001 145C66.4425 144.914 65.8425 145.048 65.3001 145.4C64.9873 146.503 65.1873 147.503 65.9001 148.4C65.6899 148.677 65.4233 148.877 65.1001 149C63.5088 147.427 62.9754 145.56 63.5001 143.4C63.7102 143.123 63.9768 142.923 64.3001 142.8C66.1493 142.417 68.016 142.15 69.9001 142C70.2521 141.458 70.3855 140.858 70.3001 140.2Z" fill="#156F41"/>
<path fill-rule="evenodd" clip-rule="evenodd" d="M189.5 140.2C191.057 140.697 191.457 141.697 190.7 143.2C188.074 143.122 187.674 142.122 189.5 140.2Z" fill="#4FBC5B"/>
<path fill-rule="evenodd" clip-rule="evenodd" d="M68.3 144.6C69.111 144.535 69.911 144.602 70.7 144.8C71.0347 145.204 71.168 145.671 71.1 146.2C70.2699 146.279 69.4699 146.346 68.7 146.4C68.348 145.858 68.2146 145.258 68.3 144.6Z" fill="#F0F6F3"/>
<path fill-rule="evenodd" clip-rule="evenodd" d="M83.5 145.4C85.0568 145.897 85.4568 146.897 84.7 148.4C82.8668 148.774 82.2668 148.04 82.9 146.2C83.1868 145.982 83.3868 145.716 83.5 145.4Z" fill="#47B954"/>
<path fill-rule="evenodd" clip-rule="evenodd" d="M188.3 145.8C189.441 145.741 190.108 146.274 190.3 147.4C189.367 149.533 188.433 149.533 187.5 147.4C187.601 146.771 187.867 146.238 188.3 145.8Z" fill="#4DBB5A"/>
<path fill-rule="evenodd" clip-rule="evenodd" d="M202.3 147.4C202.868 147.02 203.534 146.886 204.3 147C204.418 147.894 204.284 148.694 203.9 149.4C203.9 148.733 203.9 148.067 203.9 147.4C203.367 147.4 202.833 147.4 202.3 147.4Z" fill="#95C0AC"/>
<path fill-rule="evenodd" clip-rule="evenodd" d="M205.5 147.8C207.17 147.532 207.704 148.132 207.1 149.6C206.583 149.796 206.049 149.863 205.5 149.8C205.5 149.133 205.5 148.467 205.5 147.8Z" fill="#F8FBF9"/>
<path fill-rule="evenodd" clip-rule="evenodd" d="M74.3 148.2C78.866 148.433 80.9328 150.833 80.5 155.4C79.7768 156.158 78.91 156.358 77.9 156C77.2852 155.556 77.0188 154.956 77.1 154.2C77.6288 154.268 78.0956 154.135 78.5 153.8C79.1464 151.661 78.4132 150.528 76.3 150.4C76.2317 152.397 76.0984 154.397 75.9 156.4C74.8078 156.691 73.7412 156.625 72.7 156.2C70.6146 159.019 68.2813 159.286 65.7 157C65.2328 154.995 64.7662 152.995 64.3 151C65.2646 150.855 65.8646 151.255 66.1 152.2C67.5379 151.418 69.0712 151.218 70.7 151.6C71.8284 152.456 72.3617 153.59 72.3 155C72.7 155 73.1 155 73.5 155C73.5143 153.419 73.2476 151.886 72.7 150.4C72.8604 149.376 73.3937 148.643 74.3 148.2Z" fill="#116D3F"/>
<path fill-rule="evenodd" clip-rule="evenodd" d="M84.7 151C86.2948 151.061 86.8948 151.861 86.5 153.4C85.2404 154.411 84.374 154.078 83.9 152.4C84.0912 151.879 84.358 151.412 84.7 151Z" fill="#49BA56"/>
<path fill-rule="evenodd" clip-rule="evenodd" d="M186.7 151.4C188.631 151.354 189.164 152.221 188.3 154C185.982 154.23 185.448 153.363 186.7 151.4Z" fill="#47B955"/>
<path fill-rule="evenodd" clip-rule="evenodd" d="M112.7 153.4C111.788 153.231 111.121 153.498 110.7 154.2C110.338 153.916 110.205 153.516 110.3 153C111.194 152.882 111.994 153.016 112.7 153.4Z" fill="#9AD9A3"/>
<path fill-rule="evenodd" clip-rule="evenodd" d="M117.1 153.4C117.943 153.013 118.876 152.879 119.9 153C119.995 153.516 119.862 153.916 119.5 154.2C118.933 153.477 118.133 153.21 117.1 153.4Z" fill="#8FD598"/>
<path fill-rule="evenodd" clip-rule="evenodd" d="M198.3 153C201.397 153.513 204.464 154.18 207.5 155C207.303 155.922 207.17 156.856 207.1 157.8C203.975 157.052 200.908 156.119 197.9 155C198.224 154.372 198.357 153.705 198.3 153Z" fill="#1C7244"/>
<path fill-rule="evenodd" clip-rule="evenodd" d="M112.7 153.4C113.511 157.465 114.245 161.598 114.9 165.8C115.861 161.713 116.594 157.58 117.1 153.4C118.133 153.21 118.933 153.477 119.5 154.2C118.435 159.787 117.368 165.387 116.3 171C115.383 171.102 114.516 170.969 113.7 170.6C112.527 165.16 111.527 159.693 110.7 154.2C111.121 153.498 111.788 153.231 112.7 153.4Z" fill="#F7FCF8"/>
<path fill-rule="evenodd" clip-rule="evenodd" d="M123.9 168.6C125.285 168.993 126.752 169.126 128.3 169C128.3 169.667 128.3 170.333 128.3 171C126.033 171 123.767 171 121.5 171C121.5 165.133 121.5 159.267 121.5 153.4C123.767 153.4 126.033 153.4 128.3 153.4C128.3 154.067 128.3 154.733 128.3 155.4C126.833 155.4 125.367 155.4 123.9 155.4C123.9 157.267 123.9 159.133 123.9 161C125.233 161 126.567 161 127.9 161C127.9 161.667 127.9 162.333 127.9 163C126.567 163 125.233 163 123.9 163C123.9 164.867 123.9 166.733 123.9 168.6Z" fill="#FEFEFE"/>
<path fill-rule="evenodd" clip-rule="evenodd" d="M139.1 153.8C139.1 155.267 139.1 156.733 139.1 158.2C138.433 158.2 137.767 158.2 137.1 158.2C137.1 157.267 137.1 156.333 137.1 155.4C135.767 155.4 134.433 155.4 133.1 155.4C133.1 159.8 133.1 164.2 133.1 168.6C134.35 168.992 135.683 169.125 137.1 169C137.227 167.187 137.094 165.454 136.7 163.8C136.273 163.426 135.74 163.293 135.1 163.4C135.1 162.867 135.1 162.333 135.1 161.8C136.433 161.8 137.767 161.8 139.1 161.8C139.1 164.6 139.1 167.4 139.1 170.2C139.056 170.447 138.922 170.647 138.7 170.8C136.167 171.067 133.633 171.067 131.1 170.8C130.638 165.163 130.571 159.497 130.9 153.8C133.673 153.269 136.406 153.269 139.1 153.8Z" fill="#FEFEFE"/>
<path fill-rule="evenodd" clip-rule="evenodd" d="M144.7 153C145.617 152.898 146.484 153.031 147.3 153.4C148.283 159.25 149.417 165.05 150.7 170.8C149.776 170.999 148.843 171.065 147.9 171C147.9 169.933 147.9 168.867 147.9 167.8C146.567 167.8 145.233 167.8 143.9 167.8C143.87 168.882 143.737 169.949 143.5 171C142.7 171 141.9 171 141.1 171C142.073 164.94 143.273 158.94 144.7 153Z" fill="#F6FBF6"/>
<path fill-rule="evenodd" clip-rule="evenodd" d="M158.3 163C158.413 163.316 158.613 163.582 158.9 163.8C159.1 160.336 159.166 156.869 159.1 153.4C159.767 153.4 160.433 153.4 161.1 153.4C161.1 159.267 161.1 165.133 161.1 171C160.313 171.096 159.58 170.962 158.9 170.6C157.76 167.523 156.627 164.456 155.5 161.4C155.305 161.011 155.105 160.611 154.9 160.2C154.7 163.798 154.634 167.398 154.7 171C153.9 171 153.1 171 152.3 171C152.3 165.133 152.3 159.267 152.3 153.4C153.142 153.28 153.942 153.414 154.7 153.8C155.981 156.845 157.181 159.911 158.3 163Z" fill="#FDFEFD"/>
<path fill-rule="evenodd" clip-rule="evenodd" d="M159.1 153.4C159.166 156.869 159.1 160.336 158.9 163.8C158.613 163.582 158.413 163.316 158.3 163C158.567 159.8 158.833 156.6 159.1 153.4Z" fill="#9BD9A4"/>
<path fill-rule="evenodd" clip-rule="evenodd" d="M69.1 153.4C71.6027 153.786 71.7361 154.653 69.5 156C68.5761 156.199 67.6427 156.265 66.7 156.2C66.6373 155.651 66.704 155.117 66.9 154.6C67.6505 154.156 68.3838 153.756 69.1 153.4Z" fill="#EBF3EF"/>
<path fill-rule="evenodd" clip-rule="evenodd" d="M139.1 153.8C139.493 155.319 139.627 156.919 139.5 158.6C138.606 158.718 137.806 158.584 137.1 158.2C137.767 158.2 138.433 158.2 139.1 158.2C139.1 156.733 139.1 155.267 139.1 153.8Z" fill="#BEE7C3"/>
<path fill-rule="evenodd" clip-rule="evenodd" d="M210.3 155.8C212.444 156.975 212.377 158.042 210.1 159C209.633 158.333 209.167 157.667 208.7 157C209.26 156.592 209.794 156.192 210.3 155.8Z" fill="#1F7448"/>
<path fill-rule="evenodd" clip-rule="evenodd" d="M86.7 156.2C87.8408 156.141 88.5076 156.674 88.7 157.8C87.6652 159.97 86.732 159.904 85.9 157.6C86.0912 157.079 86.358 156.612 86.7 156.2Z" fill="#4DBB59"/>
<path fill-rule="evenodd" clip-rule="evenodd" d="M184.7 156.6C186.631 156.554 187.164 157.421 186.3 159.2C183.825 159.586 183.292 158.72 184.7 156.6Z" fill="#48BA56"/>
<path fill-rule="evenodd" clip-rule="evenodd" d="M197.9 156.6C198.658 156.819 199.324 157.219 199.9 157.8C198.885 158.481 198.085 159.348 197.5 160.4C197.739 160.92 198.139 161.254 198.7 161.4C199.709 160.458 200.775 159.591 201.9 158.8C204.017 158.514 205.217 159.447 205.5 161.6C205.262 162.942 204.662 164.076 203.7 165C203.142 164.888 202.675 164.621 202.3 164.2C202.99 163.509 203.524 162.709 203.9 161.8C203.767 161.4 203.5 161.133 203.1 161C202.091 161.942 201.025 162.809 199.9 163.6C196.903 163.561 195.77 162.028 196.5 159C196.87 158.123 197.337 157.323 197.9 156.6Z" fill="#177043"/>
<path fill-rule="evenodd" clip-rule="evenodd" d="M73.5 158.2C76.4613 159.1 77.728 161.1 77.3 164.2C75.5564 166.569 73.223 167.436 70.3 166.8C67.0364 164.357 67.103 162.024 70.5 159.8C71.905 160.599 72.8383 161.799 73.3 163.4C74.4641 163.655 75.1974 163.122 75.5 161.8C74.7288 160.658 74.0621 159.458 73.5 158.2Z" fill="#146F41"/>
<path fill-rule="evenodd" clip-rule="evenodd" d="M145.5 157.4C145.789 157.567 145.989 157.834 146.1 158.2C146.564 160.586 146.898 162.986 147.1 165.4C146.13 165.523 145.197 165.39 144.3 165C144.916 162.503 145.316 159.97 145.5 157.4Z" fill="#4DBB5A"/>
<path fill-rule="evenodd" clip-rule="evenodd" d="M155.5 161.4C155.233 164.6 154.967 167.8 154.7 171C154.634 167.398 154.7 163.798 154.9 160.2C155.105 160.611 155.305 161.011 155.5 161.4Z" fill="#6DC878"/>
<path fill-rule="evenodd" clip-rule="evenodd" d="M89.1 161.4C90.4332 161.133 91.2332 161.667 91.5 163C90.8968 164.167 90.03 164.434 88.9 163.8C88.6288 162.961 88.6956 162.161 89.1 161.4Z" fill="#47B954"/>
<path fill-rule="evenodd" clip-rule="evenodd" d="M139.1 170.2C139.1 167.4 139.1 164.6 139.1 161.8C137.767 161.8 136.433 161.8 135.1 161.8C135.1 162.333 135.1 162.867 135.1 163.4C134.72 162.832 134.586 162.166 134.7 161.4C136.3 161.4 137.9 161.4 139.5 161.4C139.63 164.408 139.497 167.341 139.1 170.2Z" fill="#C8EACD"/>
<path fill-rule="evenodd" clip-rule="evenodd" d="M181.9 161.8C184.322 161.577 184.855 162.444 183.5 164.4C182.855 164.688 182.255 164.622 181.7 164.2C181.504 163.382 181.571 162.582 181.9 161.8Z" fill="#46B954"/>
<path fill-rule="evenodd" clip-rule="evenodd" d="M70.7 162.6C72.6339 163.506 72.6339 164.306 70.7 165C69.7003 164.242 69.7003 163.442 70.7 162.6Z" fill="#EEF5F1"/>
<path fill-rule="evenodd" clip-rule="evenodd" d="M195.1 163.4C198.952 163.58 200.018 165.38 198.3 168.8C198.7 169.801 199.367 170.001 200.3 169.4C200.516 168.586 200.783 167.786 201.1 167C202.242 168.939 201.976 170.739 200.3 172.4C199.633 172.667 198.967 172.667 198.3 172.4C196.746 171.556 195.146 170.823 193.5 170.2C193.041 170.327 192.708 170.594 192.5 171C191.398 169.129 191.865 167.862 193.9 167.2C193.424 165.679 193.824 164.412 195.1 163.4Z" fill="#166F41"/>
<path fill-rule="evenodd" clip-rule="evenodd" d="M91.9 166.2C94.1632 165.872 94.83 166.738 93.9 168.8C91.8048 169.038 91.138 168.171 91.9 166.2Z" fill="#4BBA58"/>
<path fill-rule="evenodd" clip-rule="evenodd" d="M195.1 166.2C196.644 166.12 197.378 166.786 197.3 168.2C196.548 168.542 195.814 168.408 195.1 167.8C194.65 167.277 194.65 166.743 195.1 166.2Z" fill="#EEF5F1"/>
<path fill-rule="evenodd" clip-rule="evenodd" d="M179.1 166.2C180.927 166.033 181.527 166.833 180.9 168.6C179.754 169.73 178.888 169.53 178.3 168C178.518 167.366 178.784 166.766 179.1 166.2Z" fill="#51BC5C"/>
<path fill-rule="evenodd" clip-rule="evenodd" d="M78.7 167.4C80.402 167.569 81.1356 168.502 80.9 170.2C77.8144 173.484 74.8146 176.817 71.9 180.2C71.4156 179.431 70.8823 178.698 70.3 178C72.8334 175.2 75.3667 172.4 77.9 169.6C74.3524 170.102 70.8191 170.836 67.3 171.8C66.7796 171.561 66.4462 171.161 66.3 170.6C70.4655 169.459 74.5988 168.392 78.7 167.4Z" fill="#156F41"/>
<path fill-rule="evenodd" clip-rule="evenodd" d="M123.9 168.6C125.5 168.6 127.1 168.6 128.7 168.6C128.818 169.494 128.684 170.294 128.3 171C128.3 170.333 128.3 169.667 128.3 169C126.752 169.126 125.285 168.993 123.9 168.6Z" fill="#A8DEAF"/>
<path fill-rule="evenodd" clip-rule="evenodd" d="M136.7 163.8C137.094 165.454 137.227 167.187 137.1 169C135.683 169.125 134.35 168.992 133.1 168.6C134.3 168.6 135.5 168.6 136.7 168.6C136.7 167 136.7 165.4 136.7 163.8Z" fill="#BEE7C3"/>
<path fill-rule="evenodd" clip-rule="evenodd" d="M95.9001 170.2C97.6509 170.568 98.1841 171.568 97.5001 173.2C95.0613 173.259 94.5281 172.259 95.9001 170.2Z" fill="#4EBB5A"/>
<path fill-rule="evenodd" clip-rule="evenodd" d="M175.9 170.6C177.489 170.83 177.889 171.697 177.1 173.2C174.437 173.412 174.037 172.546 175.9 170.6Z" fill="#49BA56"/>
<path fill-rule="evenodd" clip-rule="evenodd" d="M190.7 170.6C193.336 172.167 195.869 173.9 198.3 175.8C198.095 176.94 197.428 177.474 196.3 177.4C196.435 178.463 196.168 179.396 195.5 180.2C194.974 179.875 194.508 179.475 194.1 179C194.538 178.162 194.671 177.229 194.5 176.2C192.768 175.065 191.102 173.865 189.5 172.6C190.005 171.988 190.405 171.322 190.7 170.6Z" fill="#177042"/>
<path fill-rule="evenodd" clip-rule="evenodd" d="M99.9 174.2C100.874 174.44 101.54 175.04 101.9 176C100.841 177.892 99.9076 177.826 99.1 175.8C99.2008 175.171 99.4672 174.638 99.9 174.2Z" fill="#48B955"/>
<path fill-rule="evenodd" clip-rule="evenodd" d="M171.5 174.6C173.431 174.554 173.964 175.421 173.1 177.2C170.636 177.551 170.102 176.684 171.5 174.6Z" fill="#4EBB5A"/>
<path fill-rule="evenodd" clip-rule="evenodd" d="M103.5 178.2C104.336 178.127 105.136 178.261 105.9 178.6C106.511 180.434 105.845 181.034 103.9 180.4C103.538 179.72 103.404 178.987 103.5 178.2Z" fill="#43B851"/>
<path fill-rule="evenodd" clip-rule="evenodd" d="M167.1 178.2C168.996 178.064 169.53 178.864 168.7 180.6C166.238 181.178 165.704 180.378 167.1 178.2Z" fill="#4ABA57"/>
<path fill-rule="evenodd" clip-rule="evenodd" d="M82.3 181.4C85.4976 180.932 86.8976 182.265 86.5 185.4C86.314 185.972 85.9804 186.439 85.5 186.8C82.432 187.589 80.8988 186.456 80.9 183.4C81.2988 182.671 81.7656 182.004 82.3 181.4Z" fill="#41B750"/>
<path fill-rule="evenodd" clip-rule="evenodd" d="M108.7 181C110.557 181.049 111.224 181.916 110.7 183.6C108.198 183.974 107.531 183.107 108.7 181Z" fill="#4EBB5A"/>
<path fill-rule="evenodd" clip-rule="evenodd" d="M162.3 181.4C164.149 180.963 164.882 181.63 164.5 183.4C163.189 184.606 162.189 184.406 161.5 182.8C161.691 182.279 161.958 181.812 162.3 181.4Z" fill="#52BD5D"/>
<path fill-rule="evenodd" clip-rule="evenodd" d="M185.1 181.4C187.456 180.972 188.79 181.905 189.1 184.2C188.759 186.841 187.292 187.708 184.7 186.8C183.542 185.636 183.209 184.236 183.7 182.6C184.158 182.146 184.625 181.746 185.1 181.4Z" fill="#3EB64D"/>
<path fill-rule="evenodd" clip-rule="evenodd" d="M113.5 183.8C115.922 183.577 116.455 184.444 115.1 186.4C113.214 186.412 112.681 185.546 113.5 183.8Z" fill="#45B853"/>
<path fill-rule="evenodd" clip-rule="evenodd" d="M157.5 183.8C159.599 183.856 159.999 184.722 158.7 186.4C156.559 186.47 156.159 185.604 157.5 183.8Z" fill="#44B852"/>
<path fill-rule="evenodd" clip-rule="evenodd" d="M96.7 184.6C98.1892 184.489 99.1224 185.156 99.5 186.6C98.756 187.885 97.956 189.152 97.1 190.4C99.4644 190.415 101.798 190.082 104.1 189.4C105.328 189.495 105.928 190.162 105.9 191.4C105.872 191.909 105.739 192.375 105.5 192.8C103.006 193.495 100.473 193.962 97.9 194.2C98.6232 197.199 98.7564 200.199 98.3 203.2C97.1612 203.578 96.1612 203.378 95.3 202.6C95.0792 199.999 94.6124 197.466 93.9 195C92.9188 196.096 91.9856 197.23 91.1 198.4C89.6976 198.738 88.7644 198.204 88.3 196.8C91.026 192.675 93.826 188.609 96.7 184.6Z" fill="#116D3E"/>
<path fill-rule="evenodd" clip-rule="evenodd" d="M118.7 185.8C120.7 185.4 121.5 186.2 121.1 188.2C118.736 188.77 117.936 187.97 118.7 185.8Z" fill="#42B751"/>
<path fill-rule="evenodd" clip-rule="evenodd" d="M151.9 185.8C154.322 185.577 154.855 186.444 153.5 188.4C151.528 188.571 150.995 187.704 151.9 185.8Z" fill="#4ABA57"/>
<path fill-rule="evenodd" clip-rule="evenodd" d="M173.1 185.8C178.194 185.892 180.26 188.425 179.3 193.4C180.966 194.232 182.566 195.166 184.1 196.2C184.413 197.692 183.813 198.625 182.3 199C180.172 197.868 178.038 196.868 175.9 196C175.493 196.42 175.426 196.886 175.7 197.4C176.817 198.581 177.684 199.915 178.3 201.4C177.906 202.859 176.972 203.326 175.5 202.8C172.613 199.246 169.879 195.58 167.3 191.8C167.033 191.267 167.033 190.733 167.3 190.2C169.153 188.58 171.086 187.113 173.1 185.8Z" fill="#0D6C3D"/>
<path fill-rule="evenodd" clip-rule="evenodd" d="M123.9 187.4C124.711 187.335 125.511 187.402 126.3 187.6C127.029 189.538 126.362 190.205 124.3 189.6C123.446 188.978 123.313 188.244 123.9 187.4Z" fill="#49BA56"/>
<path fill-rule="evenodd" clip-rule="evenodd" d="M146.3 187.4C147.111 187.335 147.911 187.402 148.7 187.6C149.089 189.472 148.289 190.139 146.3 189.6C145.799 188.869 145.799 188.136 146.3 187.4Z" fill="#4ABA57"/>
<path fill-rule="evenodd" clip-rule="evenodd" d="M129.5 188.2C130.342 188.08 131.142 188.214 131.9 188.6C132.271 189.107 132.338 189.64 132.1 190.2C129.74 191.2 128.873 190.534 129.5 188.2Z" fill="#4DBB59"/>
<path fill-rule="evenodd" clip-rule="evenodd" d="M141.1 188.2C142.776 187.948 143.51 188.614 143.3 190.2C140.692 191.192 139.958 190.525 141.1 188.2Z" fill="#49BA56"/>
<path fill-rule="evenodd" clip-rule="evenodd" d="M135.1 188.6C135.911 188.535 136.711 188.602 137.5 188.8C137.922 189.355 137.988 189.955 137.7 190.6C135.34 191.6 134.473 190.934 135.1 188.6Z" fill="#4FBB5A"/>
<path fill-rule="evenodd" clip-rule="evenodd" d="M173.9 189.4C175.433 189.276 176.033 189.943 175.7 191.4C175.004 192.296 174.138 192.963 173.1 193.4C172.524 192.854 171.99 192.254 171.5 191.6C172.258 190.773 173.058 190.04 173.9 189.4Z" fill="#F1F6F4"/>
<path fill-rule="evenodd" clip-rule="evenodd" d="M162.7 192.2C164.9 191.932 165.767 192.866 165.3 195C163.208 196.03 161.142 197.096 159.1 198.2C159.374 199.019 159.84 199.686 160.5 200.2C161.887 199.627 163.287 199.094 164.7 198.6C166.463 199.346 166.73 200.479 165.5 202C164.118 202.592 162.784 203.259 161.5 204C161.787 204.795 162.187 205.528 162.7 206.2C164.657 205.288 166.657 204.488 168.7 203.8C169.821 203.988 170.354 204.655 170.3 205.8C170.272 206.309 170.139 206.775 169.9 207.2C167.098 208.334 164.298 209.468 161.5 210.6C160.888 210.588 160.422 210.322 160.1 209.8C158.188 205.578 156.388 201.311 154.7 197C154.85 196.247 155.25 195.647 155.9 195.2C158.257 194.307 160.524 193.307 162.7 192.2Z" fill="#0C6C3D"/>
<path fill-rule="evenodd" clip-rule="evenodd" d="M109.9 194.2C118.026 193.723 121.426 197.456 120.1 205.4C117.768 209.56 114.234 211.093 109.5 210C104.362 206.982 103.095 202.782 105.7 197.4C106.89 195.981 108.29 194.914 109.9 194.2Z" fill="#0A6B3C"/>
<path fill-rule="evenodd" clip-rule="evenodd" d="M149.1 197C149.989 196.871 150.722 197.138 151.3 197.8C152.362 202.56 153.028 207.36 153.3 212.2C152.429 213.626 151.362 213.76 150.1 212.6C149.802 210.909 149.469 209.242 149.1 207.6C147.384 207.678 145.65 207.745 143.9 207.8C144.277 209.922 144.344 212.056 144.1 214.2C142.506 215.01 141.44 214.61 140.9 213C139.894 208.376 139.361 203.71 139.3 199C140.466 198.395 141.533 198.528 142.5 199.4C142.906 200.976 143.106 202.576 143.1 204.2C144.972 204.132 146.839 203.999 148.7 203.8C148.434 202.338 148.168 200.872 147.9 199.4C147.887 198.359 148.287 197.559 149.1 197Z" fill="#106D3E"/>
<path fill-rule="evenodd" clip-rule="evenodd" d="M110.7 197.8C115.573 197.402 117.506 199.536 116.5 204.2C115.189 206.444 113.256 207.177 110.7 206.4C108.369 205.147 107.503 203.214 108.1 200.6C108.778 199.457 109.644 198.524 110.7 197.8Z" fill="#FAFCFB"/>
<path fill-rule="evenodd" clip-rule="evenodd" d="M127.9 198.2C130.824 197.686 133.29 198.486 135.3 200.6C136.352 202.42 135.952 203.754 134.1 204.6C132.894 204.461 132.228 203.794 132.1 202.6C130.965 201.766 129.765 201.632 128.5 202.2C128.17 203.08 128.37 203.814 129.1 204.4C134.386 204.616 136.186 207.216 134.5 212.2C131.442 215.245 128.242 215.378 124.9 212.6C124.07 211.513 123.803 210.313 124.1 209C124.823 208.242 125.69 208.042 126.7 208.4C127.159 209.395 127.826 210.195 128.7 210.8C130.784 211.314 131.584 210.581 131.1 208.6C126.47 208.309 124.403 205.909 124.9 201.4C125.576 199.992 126.576 198.925 127.9 198.2Z" fill="#0E6C3D"/>
</svg>
