<svg width="172" height="180" viewBox="0 0 172 180" fill="none" xmlns="http://www.w3.org/2000/svg">
<path d="M141.347 38.6379C141.326 38.1911 141.304 37.7553 141.271 37.3085C141.01 33.6801 140.291 30.1715 139.168 26.8482C138.427 26.6303 137.686 26.4341 136.935 26.2489C134.733 25.7259 132.467 25.3663 130.146 25.192C129.405 25.1484 128.664 25.1157 127.912 25.0939C127.684 25.0939 127.455 25.083 127.215 25.083H126.921C126.038 25.083 125.156 25.1048 124.295 25.1593C121.865 25.3009 119.479 25.6496 117.169 26.1944C110.686 27.6763 104.758 30.6401 99.7568 34.6825C97.5231 36.4804 95.4637 38.4853 93.6441 40.6972C92.4346 42.1464 91.3232 43.6828 90.3098 45.2845C89.133 47.1369 88.0979 49.0873 87.2153 51.1249C86.1693 48.7386 84.9271 46.4831 83.5106 44.3474C82.5518 42.92 81.5166 41.558 80.3943 40.2396C78.6618 38.2129 76.755 36.3605 74.6847 34.6825C69.6725 30.6292 63.7341 27.6763 57.2509 26.1835C54.6576 25.5733 51.9662 25.2138 49.2095 25.1048C48.632 25.083 48.0654 25.0721 47.4879 25.0721H47.2155C46.9649 25.0721 46.7143 25.083 46.4528 25.083C45.1125 25.1157 43.7832 25.2029 42.4757 25.3663C40.7541 25.5515 39.0761 25.8457 37.4416 26.2489C36.7007 26.4232 35.9815 26.6085 35.2515 26.8264C33.9984 30.5747 33.2466 34.5409 33.0723 38.6379C33.0614 38.7032 33.0614 38.7686 33.0614 38.834C33.0396 39.3897 33.0287 39.9563 33.0287 40.5229C33.0287 62.446 49.3076 80.5554 70.4461 83.432C71.1653 83.5301 71.8844 83.6063 72.6144 83.6717C73.7477 83.7698 74.9026 83.8133 76.0576 83.8242L74.2053 81.8847L73.8457 81.5033L65.7717 73.0588C52.9142 70.8142 42.857 60.3866 41.179 47.333C41.0156 46.0581 40.9284 44.7724 40.9284 43.4648C40.9284 40.512 41.3534 37.6681 42.1488 34.9767C46.747 42.822 52.0752 50.1878 58.0463 56.9761C63.2329 62.86 68.8771 68.3081 74.968 73.255C76.0032 74.1158 77.0492 74.933 78.117 75.7502C78.8689 76.3386 79.6098 76.8943 80.3725 77.45H80.3834C82.0723 78.7139 83.8048 79.9234 85.5591 81.1002C86.1039 81.4598 86.6596 81.8303 87.2044 82.1789C87.7819 81.8194 88.3267 81.438 88.8824 81.0675H88.8933C90.6367 79.9016 92.3365 78.6921 94.0036 77.45H94.0145C94.7881 76.8834 95.5509 76.3059 96.3136 75.7066C97.3705 74.9003 98.4057 74.0831 99.4299 73.2441C105.532 68.2645 111.22 62.7838 116.417 56.878C122.377 50.0897 127.695 42.7457 132.282 34.9005C133.099 37.6027 133.524 40.4902 133.524 43.454C133.524 44.1404 133.502 44.8051 133.448 45.4806C132.489 60.0052 121.19 71.7186 106.85 73.3203L99.5934 80.9258L99.5498 80.9804L96.8584 83.7915C97.2725 83.8024 97.6974 83.8134 98.1115 83.8134C99.3754 83.8134 100.618 83.7589 101.849 83.6608C102.568 83.5954 103.265 83.5191 103.963 83.4211C125.123 80.5663 141.413 62.446 141.413 40.512C141.413 39.8691 141.402 39.2371 141.369 38.6052L141.347 38.6379ZM81.0154 63.492C80.9936 64.854 80.8737 66.2051 80.6667 67.5236C74.238 62.1082 68.2996 56.148 62.9169 49.6866C60.487 46.7664 58.1661 43.7482 55.976 40.6319C55.5946 40.087 55.2024 39.5313 54.8319 38.9865C53.4263 36.938 52.0861 34.8569 50.7894 32.743H50.9529C52.4783 32.743 53.982 32.852 55.4421 33.0699C62.5355 34.1377 68.8226 37.6681 73.3881 42.7675C73.6932 43.1053 74.0092 43.4757 74.3034 43.8353C75.4039 45.1864 76.3845 46.6247 77.2344 48.172C79.6643 52.4978 81.0372 57.4882 81.0372 62.8056C81.0372 63.0344 81.0372 63.2632 81.0154 63.5029V63.492ZM121.756 35.6414C121.495 36.0555 121.222 36.4804 120.939 36.8945C120.917 36.9271 120.906 36.9489 120.884 36.9816C120.46 37.6354 120.013 38.2783 119.577 38.932C117.158 42.4624 114.597 45.8838 111.873 49.1853C106.393 55.8102 100.334 61.9339 93.753 67.4691C93.546 66.1725 93.4261 64.854 93.4152 63.5029C93.3934 63.2741 93.3934 63.0453 93.3934 62.8056C93.3934 57.7279 94.6574 52.9336 96.8802 48.7495C97.7519 47.1042 98.7762 45.546 99.9311 44.1077C100.28 43.661 100.661 43.2033 101.043 42.7784C105.608 37.679 111.873 34.1377 118.978 33.0808C120.329 32.8847 121.713 32.7757 123.129 32.7648C123.249 32.7539 123.358 32.7539 123.478 32.7539H123.587C122.977 33.7346 122.377 34.7043 121.756 35.6632V35.6414Z" fill="#6CBE45"/>
<path d="M129.743 20.5829H123.478C121.103 12.9229 113.976 7.3658 105.532 7.3658C105.085 7.3658 104.628 7.3767 104.192 7.42029C98.5692 7.80165 93.6333 10.6891 90.4516 14.9495C89.9613 15.6142 89.5036 16.3116 89.1005 17.0525C88.7736 17.6409 88.4794 18.2293 88.2179 18.8504C87.9782 19.4279 87.7711 19.9945 87.5859 20.5937C87.0629 22.2827 86.7578 24.0805 86.7469 25.9329C86.7251 24.0805 86.4309 22.2936 85.897 20.5937C85.7771 20.1906 85.6355 19.7656 85.4721 19.3734C85.0798 18.3165 84.5677 17.314 84.0011 16.366C83.5434 15.6251 83.0422 14.9169 82.4865 14.2413C79.4683 10.5802 75.1098 8.07406 70.1303 7.50746C69.422 7.42029 68.7028 7.37671 67.9619 7.37671C59.5283 7.37671 52.3913 12.9337 50.0159 20.5937H42.868C42.977 19.94 43.1187 19.308 43.2821 18.6869C46.0933 7.9433 55.889 0.0108902 67.5152 0.0108902C71.209 0.0108902 74.7284 0.817214 77.8883 2.2664C81.1245 3.72649 83.9793 5.86215 86.3002 8.48812C88.839 5.58974 92.0533 3.29065 95.6818 1.83056C98.591 0.653779 101.751 0 105.074 0C117.387 0 127.629 8.88037 129.732 20.5829H129.743Z" fill="#C6A969"/>
<path d="M19.2392 135.467C20.2634 133.658 20.2634 132.264 20.2634 130.313V102.157C20.2634 98.9104 17.7137 97.2433 15.2076 97.2433C12.8867 97.2433 10.6094 98.7688 10.6094 101.787C10.6094 103.639 11.7208 105.132 13.3007 105.132C14.2269 105.132 15.1095 104.576 15.48 103.65C16.3626 104.576 16.8202 105.873 16.8202 107.224C16.8202 111.626 13.802 114.645 9.21468 114.645C4.20245 114.645 0.682983 110.613 0.682983 105.415C0.682983 100.218 4.81264 95.6307 11.4048 95.6307C18.313 95.6307 21.1896 98.7797 29.2636 98.7797C33.3497 98.7797 37.6646 97.8971 42.3935 97.6683L43.0909 104.489C38.2203 103.193 32.8812 103.193 29.3072 103.193V112.193H38.2094L38.5363 115.625H29.3072V130.335C29.3072 132.285 29.3072 133.68 30.3315 135.489H19.2392V135.467Z" fill="#6CBE45"/>
<path d="M43.3197 135.467C44.344 133.658 44.344 132.264 44.344 130.313V113.01C44.344 111.713 43.9299 110.831 43.3197 110.231C46.338 110.231 51.6662 109.861 53.3878 107.867V117.467H53.7583C55.153 109.392 60.7645 105.819 66.9753 109.349L65.537 116.54C58.716 113.479 54.7716 118.164 53.3769 123.263V130.313C53.3769 132.264 53.3769 133.658 54.4012 135.467H43.3088H43.3197Z" fill="#6CBE45"/>
<path d="M67.956 121.923C67.956 112.324 74.4501 107.867 82.9382 107.867C91.4263 107.867 97.8333 112.324 97.8333 121.923C97.8333 131.523 90.1842 136.023 82.9382 136.023C75.6923 136.023 67.956 131.708 67.956 121.923ZM88.7785 121.923C88.7785 115.385 85.4334 112.836 82.9382 112.836C80.443 112.836 76.9998 115.385 76.9998 121.923C76.9998 128.461 80.3449 130.923 82.9382 130.923C85.5315 130.923 88.7785 128.33 88.7785 121.923Z" fill="#6CBE45"/>
<path d="M99.1735 135.467L112.717 113.62C108.773 113.62 102.791 113.806 99.7728 115.102L100.372 108.652H124.583L111.083 130.825C115.027 130.869 121.805 130.499 124.671 129.017L124.017 135.467H99.1517H99.1735Z" fill="#6CBE45"/>
<path d="M128.168 127.818C128.168 121.879 133.137 119.417 138.138 119.417C141.385 119.417 144.589 120.387 146.626 121.967C145.602 121.367 144.262 121.04 142.911 121.04C139.152 121.04 136.231 123.078 136.231 126.51C136.231 128.973 137.953 130.455 140.034 130.455C142.584 130.455 145.558 127.905 146.626 123.034V117.565C146.626 114.971 144.349 113.391 141.244 113.391C138.966 113.391 136.275 114.176 133.54 115.897L131.688 110.558C135.12 108.837 139.25 107.867 143.15 107.867C149.786 107.867 155.681 110.744 155.681 117.608V131.762C155.681 133.201 155.866 134.312 157.076 135.478H151.323C147.52 135.478 146.637 133.015 146.637 130.378V127.317H146.496C145.384 132.928 141.211 136.175 136.526 136.175C132.352 136.175 128.179 133.255 128.179 127.829L128.168 127.818Z" fill="#6CBE45"/>
<path d="M160.225 135.467C161.249 133.658 161.249 132.264 161.249 130.313V102.158C161.249 100.861 160.835 99.9783 160.225 99.3791C163.243 99.3791 168.571 99.0086 170.293 97.0146V130.324C170.293 132.275 170.293 133.669 171.317 135.478H160.225V135.467Z" fill="#6CBE45"/>
<path d="M171.284 151.953C171.273 151.68 171.252 151.419 171.241 151.136C171.077 148.924 170.641 146.788 169.966 144.772C169.519 144.642 169.061 144.522 168.604 144.413C167.264 144.097 165.891 143.879 164.474 143.77C164.027 143.737 163.57 143.726 163.123 143.704C162.981 143.704 162.84 143.704 162.698 143.704H162.513C161.979 143.704 161.445 143.715 160.911 143.759C159.429 143.846 157.98 144.053 156.574 144.38C152.63 145.284 149.023 147.082 145.983 149.545C144.621 150.634 143.368 151.866 142.257 153.206C141.516 154.089 140.851 155.026 140.23 155.995C140.23 155.995 140.219 156.017 140.208 156.028C139.043 157.869 138.302 159.94 137.953 162.075C137.604 164.211 137.408 166.521 137.408 168.809C137.408 172.089 137.789 175.271 138.519 178.332C138.803 178.147 139.086 177.962 139.369 177.777C140.426 177.058 141.461 176.328 142.486 175.565C142.954 175.216 143.423 174.878 143.88 174.508C144.523 174.018 145.155 173.516 145.776 173.004C149.492 169.975 152.957 166.641 156.106 163.045C159.734 158.916 162.97 154.437 165.76 149.676C166.261 151.321 166.523 153.075 166.523 154.884C166.523 155.298 166.512 155.712 166.479 156.115C165.891 164.952 159.015 172.078 150.298 173.048L145.874 177.679L145.842 177.711L144.207 179.422C145.253 179.455 146.245 179.422 147.247 179.335C147.683 179.291 148.108 179.248 148.533 179.182C161.401 177.439 171.317 166.423 171.317 153.086C171.317 152.694 171.317 152.302 171.284 151.931V151.953ZM159.364 150.133C159.2 150.395 159.037 150.645 158.874 150.896C158.852 150.918 158.852 150.929 158.841 150.95C158.579 151.343 158.307 151.746 158.035 152.138C156.564 154.285 155.005 156.366 153.349 158.371C150.015 162.402 146.332 166.129 142.322 169.496C142.192 168.7 142.126 167.905 142.115 167.077C142.104 166.935 142.104 166.793 142.104 166.652C142.104 163.557 142.878 160.648 144.218 158.098C144.752 157.096 145.373 156.159 146.071 155.276C146.288 155.004 146.517 154.731 146.746 154.459C149.525 151.354 153.338 149.207 157.653 148.553C158.481 148.433 159.32 148.368 160.181 148.357C160.257 148.357 160.323 148.357 160.399 148.357H160.464C160.094 148.946 159.723 149.534 159.353 150.122L159.364 150.133Z" fill="#6CBE45"/>
<path d="M17.5066 179.455C18.2912 178.071 18.2912 177.004 18.2912 175.511V153.795C18.2912 151.201 16.0139 149.818 13.8455 149.818C11.6772 149.818 9.82486 151.06 9.82486 153.588C9.82486 155.004 10.6747 156.29 12.0259 156.29C12.8104 156.29 13.5513 155.756 13.7366 154.939C14.6301 155.538 15.0877 156.541 15.0877 157.565C15.0877 160.474 12.9956 162.326 10.0755 162.326C6.77393 162.326 4.10437 159.733 4.10437 155.854C4.10437 151.735 7.4059 148.782 11.7862 148.782C16.9727 148.782 18.7924 151.234 25.3628 151.234C28.065 151.234 31.0506 150.733 34.4284 150.493L34.886 154.939C31.1487 153.947 26.3543 153.947 23.6194 153.947V161.803H31.2249L31.4755 164.004H23.6194V175.522C23.6194 177.014 23.6194 178.082 24.4039 179.466H17.5066V179.455Z" fill="#C6A969"/>
<path d="M34.1779 173.702C34.1779 169.224 38.0569 167.197 41.925 167.197C44.344 167.197 46.7956 167.981 48.3211 169.289C47.3622 168.69 46.0111 168.297 44.6927 168.297C41.6308 168.297 39.0375 169.932 39.0375 173.026C39.0375 175.304 40.563 176.579 42.4154 176.579C44.7253 176.579 47.3949 174.269 48.3211 169.997V165.268C48.3211 163.024 46.436 161.575 43.8101 161.575C42.034 161.575 39.9746 162.25 37.8716 163.634L36.7711 160.365C39.1901 159.047 42.1429 158.273 44.8779 158.273C49.5305 158.273 53.6602 160.474 53.6602 165.421V176.905C53.6602 177.864 53.8018 178.682 54.728 179.466H51.2085C48.9312 179.466 48.332 177.973 48.332 176.372V173.07H48.2557C47.2968 177.625 43.9844 180 40.5085 180C37.3051 180 34.1779 177.723 34.1779 173.713V173.702Z" fill="#C6A969"/>
<path d="M57.7133 179.455C58.4978 178.071 58.4978 177.003 58.4978 175.511V162.25C58.4978 161.073 58.2472 160.441 57.7133 159.907C59.7726 159.907 62.8345 159.515 63.826 158.306V165.661H64.1093C65.3188 159.581 69.3395 156.769 74.0575 159.297L73.0987 163.667C67.7704 161.215 64.7849 165.334 63.826 169.888V175.5C63.826 176.993 63.826 178.06 64.6105 179.444H57.7133V179.455Z" fill="#C6A969"/>
<path d="M76.019 179.455C76.8035 178.071 76.8035 177.003 76.8035 175.511V162.25C76.8035 161.073 76.5529 160.441 76.019 159.907C78.0784 159.907 81.1402 159.515 82.1317 158.306V164.811H82.3497C82.7746 160.725 86.2941 158.306 89.9879 158.306C93.6817 158.306 96.4929 160.398 96.4929 164.778V164.811H96.7108C97.1357 160.725 100.655 158.306 104.349 158.306C108.043 158.306 110.854 160.398 110.854 164.778V175.511C110.854 177.003 110.854 178.071 111.639 179.455H104.741C105.526 178.071 105.526 177.003 105.526 175.511V165.911C105.526 159.94 96.7108 160.725 96.4929 168.297V175.511C96.4929 177.003 96.4929 178.071 97.2774 179.455H90.3801C91.1646 178.071 91.1646 177.003 91.1646 175.511V165.454C91.1646 159.94 82.3496 160.725 82.1317 168.297V175.511C82.1317 177.003 82.1317 178.071 82.9162 179.455H76.019Z" fill="#C6A969"/>
<path d="M115.681 173.56C122.687 176.906 129.367 175.87 129.367 172.286C129.399 167.557 114.722 172.035 114.646 164.288C114.57 157.706 126.239 157.391 132.243 159.951L131.884 164.429C128.19 162.512 119.233 162.196 119.157 165.639C119.081 170.433 133.878 165.53 133.485 173.855C133.202 180.142 122.611 181.634 115.18 178.05L115.681 173.571V173.56Z" fill="#C6A969"/>
</svg>
