<svg width="339" height="262" viewBox="0 0 339 262" fill="none" xmlns="http://www.w3.org/2000/svg">
<g opacity="0.1">
<path d="M337.721 120.78C337.721 119.39 337.558 117.999 337.476 116.609C336.658 105.243 334.45 94.3672 330.934 83.982C328.644 83.3279 326.273 82.6736 323.983 82.1012C317.114 80.4657 310.082 79.321 302.804 78.8303C300.515 78.6668 298.143 78.5849 295.854 78.5032C295.118 78.5032 294.382 78.5032 293.727 78.5032H292.828C290.048 78.5032 287.349 78.5032 284.651 78.7485C277.046 79.1573 269.605 80.3023 262.409 81.9377C242.211 86.5988 223.648 95.839 208.03 108.432C201.079 113.993 194.619 120.289 188.977 127.24C185.215 131.737 181.699 136.562 178.592 141.55C174.912 147.356 171.723 153.407 168.942 159.785C165.671 152.344 161.828 145.311 157.412 138.606C154.387 134.109 151.198 129.856 147.682 125.768C142.285 119.471 136.315 113.665 129.855 108.432C114.236 95.839 95.6741 86.5988 75.4762 81.9377C67.3807 80.057 59.0399 78.9121 50.372 78.585C48.573 78.585 46.774 78.5032 45.0568 78.5032H44.239C43.4213 78.5032 42.6855 78.5032 41.8678 78.5032C37.6974 78.5849 33.5268 78.9122 29.4382 79.4028C24.123 79.9752 18.8079 80.8747 13.738 82.183C11.4484 82.7555 9.15875 83.3279 6.86912 83.982C2.94403 95.6755 0.654261 108.023 0.0818525 120.862C0.0818525 121.107 0.0818525 121.27 0.0818525 121.516C0.0818525 123.233 0 125.032 0 126.831C0 195.275 50.781 251.779 116.772 260.693C118.979 261.02 121.269 261.265 123.559 261.429C127.075 261.756 130.673 261.838 134.271 261.919L128.465 255.868L127.32 254.641L102.134 228.311C61.9838 221.278 30.6649 188.733 25.4314 148.092C24.9408 144.085 24.6136 140.078 24.6136 135.989C24.6136 126.749 25.922 117.918 28.457 109.495C42.7672 133.945 59.4489 157.005 78.093 178.184C94.284 196.583 111.865 213.51 130.918 228.965C134.107 231.663 137.378 234.198 140.731 236.733C143.102 238.532 145.392 240.331 147.763 242.048C153.078 245.974 158.475 249.735 163.872 253.415C165.59 254.56 167.307 255.705 169.024 256.768C170.823 255.623 172.54 254.478 174.258 253.333C179.655 249.735 184.97 245.892 190.203 242.048C192.575 240.249 195.028 238.45 197.399 236.651C200.67 234.116 203.941 231.581 207.13 228.965C226.183 213.428 243.928 196.337 260.119 177.857C278.763 156.678 295.281 133.782 309.591 109.25C312.126 117.672 313.435 126.667 313.435 135.989C313.435 138.115 313.435 140.242 313.189 142.286C310.164 187.588 274.92 224.14 230.19 229.128L207.539 252.842L207.376 253.006L198.953 261.756C200.261 261.756 201.57 261.756 202.878 261.756C206.803 261.756 210.728 261.592 214.572 261.265C216.779 261.02 218.987 260.856 221.195 260.529C287.186 251.616 338.048 195.029 338.048 126.667C338.048 124.705 338.048 122.66 337.885 120.698L337.721 120.78ZM149.481 198.382C149.481 202.634 149.072 206.886 148.418 210.975C128.383 194.048 109.821 175.485 93.0573 155.369C85.4524 146.293 78.2565 136.807 71.3876 127.158C70.161 125.441 69.0162 123.723 67.7896 122.006C63.3739 115.628 59.2034 109.168 55.1965 102.544H55.6874C60.4302 102.544 65.0912 102.871 69.6704 103.607C91.8308 106.96 111.375 117.918 125.685 133.863C126.666 134.926 127.647 136.071 128.547 137.216C131.981 141.468 135.007 145.966 137.705 150.709C145.31 164.201 149.562 179.819 149.562 196.338C149.562 197.074 149.562 197.81 149.562 198.464L149.481 198.382ZM276.555 111.458C275.737 112.766 274.838 114.074 274.02 115.383C274.02 115.464 273.938 115.546 273.857 115.628C272.548 117.672 271.158 119.717 269.768 121.679C262.245 132.718 254.231 143.349 245.727 153.652C228.636 174.341 209.747 193.476 189.222 210.73C188.568 206.641 188.159 202.552 188.159 198.3C188.159 197.564 188.159 196.828 188.159 196.174C188.159 180.31 192.084 165.346 199.035 152.344C201.733 147.192 204.922 142.368 208.52 137.87C209.583 136.48 210.81 135.09 211.955 133.7C226.183 117.754 245.727 106.715 267.887 103.444C272.139 102.79 276.473 102.463 280.807 102.463C281.216 102.463 281.543 102.463 281.87 102.463H282.197C280.317 105.488 278.436 108.514 276.474 111.539L276.555 111.458Z" fill="#6CBE43"/>
<path d="M301.496 64.4369H281.952C274.511 40.5593 252.268 23.2236 225.938 23.2236C224.547 23.2236 223.157 23.2236 221.767 23.3871C204.186 24.6137 188.813 33.6086 178.918 46.8558C177.365 48.9001 175.975 51.1081 174.666 53.3978C173.603 55.1968 172.704 57.0775 171.886 58.9582C171.15 60.7572 170.496 62.5563 169.924 64.3553C168.288 69.6705 167.389 75.2309 167.307 81.0367C167.307 75.2309 166.325 69.6705 164.69 64.3553C164.281 63.0469 163.872 61.8203 163.382 60.5119C162.155 57.241 160.601 54.1335 158.802 51.1079C157.33 48.8183 155.777 46.6104 154.06 44.4843C144.656 33.0362 131 25.268 115.545 23.469C113.337 23.2236 111.047 23.0599 108.757 23.0599C82.4267 23.0599 60.1845 40.3958 52.7432 64.2734H30.4192C30.7463 62.2291 31.2369 60.2665 31.7276 58.3039C40.4773 24.7771 71.0602 0 107.367 0C118.897 0 129.855 2.53508 139.749 7.03258C149.807 11.6118 158.802 18.2355 165.998 26.4945C173.93 17.4995 183.988 10.3035 195.273 5.72418C204.35 2.04442 214.244 0 224.548 0C262.981 0 294.954 27.721 301.496 64.1916V64.4369Z" fill="#6CBE43"/>
</g>
</svg>
