<svg width="127" height="44" viewBox="0 0 127 44" fill="none" xmlns="http://www.w3.org/2000/svg">
<g clip-path="url(#clip0_1380_1130)">
<path d="M57.1684 20.2129C57.1585 19.9753 57.1436 19.7525 57.1288 19.5149C56.9902 17.6139 56.6189 15.7822 56.0298 14.0396C55.6436 13.9258 55.2525 13.8218 54.8614 13.7278C53.7129 13.4505 52.5248 13.2674 51.3119 13.1733C50.9258 13.1485 50.5347 13.1337 50.1436 13.1238C50.0248 13.1238 49.901 13.1188 49.7822 13.1188H49.6288C49.1684 13.1188 48.708 13.1287 48.2525 13.1584C46.9803 13.2327 45.7327 13.4159 44.5248 13.6981C41.1337 14.4753 38.0347 16.0248 35.4159 18.1386C34.2476 19.0743 33.1733 20.1287 32.2179 21.2872C31.5842 22.0446 31.005 22.8466 30.4753 23.6881C29.8614 24.6535 29.3169 25.6782 28.8565 26.7426C28.3119 25.4951 27.6585 24.3119 26.9159 23.1981C26.4159 22.4505 25.8763 21.7377 25.2872 21.0495C24.3812 19.9901 23.3812 19.0198 22.302 18.1436C19.6783 16.0248 16.5743 14.4802 13.1783 13.6931C11.8218 13.3763 10.4159 13.1881 8.97035 13.1287C8.67332 13.1188 8.37134 13.1139 8.07431 13.1139H7.93075C7.79708 13.1139 7.66837 13.1188 7.53471 13.1188C6.83174 13.1337 6.13867 13.1832 5.45055 13.2674C4.55451 13.3664 3.67332 13.5198 2.81689 13.7278C2.43075 13.8218 2.04956 13.9159 1.67332 14.0248C1.005 16 0.613916 18.0693 0.524807 20.2179C0.519856 20.2525 0.519856 20.2872 0.519856 20.3218C0.509955 20.6139 0.505005 20.9109 0.505005 21.208C0.505005 32.6782 9.01986 42.1485 20.0793 43.6535C20.4555 43.703 20.8317 43.7476 21.2129 43.7822C21.807 43.8317 22.4109 43.8565 23.0149 43.8614L22.0496 42.8466L21.8614 42.6436L17.6387 38.2228C10.9109 37.0495 5.65352 31.5941 4.77728 24.7674C4.69312 24.099 4.64362 23.4258 4.64362 22.7426C4.64362 21.198 4.86639 19.708 5.28223 18.302C7.68817 22.406 10.4753 26.2624 13.5991 29.8119C16.3119 32.8911 19.2674 35.7377 22.4506 38.3268C22.9902 38.7773 23.5397 39.208 24.0941 39.6337C24.4852 39.9406 24.8763 40.2327 25.2723 40.5248H25.2773C26.1634 41.1882 27.0694 41.8218 27.9803 42.4357C28.2674 42.6238 28.5545 42.8169 28.8416 43C29.1387 42.8119 29.4307 42.6139 29.7228 42.4208H29.7278C30.6387 41.8119 31.5298 41.1783 32.406 40.5297H32.4109C32.8119 40.2327 33.2179 39.9307 33.6139 39.6188C34.1684 39.1981 34.708 38.7674 35.2426 38.3317C38.4357 35.7228 41.4109 32.8565 44.1288 29.7674C47.2476 26.2179 50.0298 22.3713 52.4258 18.2674C52.8515 19.6832 53.0743 21.1931 53.0743 22.7426C53.0743 23.099 53.0644 23.4505 53.0347 23.802C52.5347 31.3961 46.6238 37.5297 39.1189 38.3664L35.3218 42.3416L35.2971 42.3713L33.8862 43.8466C34.104 43.8515 34.3218 43.8565 34.5446 43.8565C35.208 43.8565 35.8565 43.8268 36.5001 43.7773C36.8763 43.7426 37.2426 43.703 37.604 43.6485C48.6684 42.1535 57.1931 32.6733 57.1931 21.203C57.1931 20.8713 57.1882 20.5347 57.1684 20.208V20.2129ZM25.609 33.2179C25.5991 33.9307 25.5347 34.6386 25.4258 35.3218C22.0644 32.4901 18.9555 29.3713 16.1436 25.9951C14.8713 24.4703 13.6585 22.8862 12.51 21.2575C12.307 20.9703 12.109 20.6832 11.9109 20.3961C11.1733 19.3268 10.4704 18.2377 9.79708 17.1287H9.88124C10.6832 17.1287 11.4654 17.1881 12.2278 17.302C15.9406 17.8614 19.2278 19.708 21.6139 22.3763C21.7773 22.5545 21.9357 22.7426 22.0892 22.9357C22.6634 23.6436 23.1783 24.3961 23.6189 25.203C24.8911 27.4654 25.609 30.0792 25.609 32.8565C25.609 32.9753 25.609 33.099 25.5991 33.2179H25.609ZM46.9208 18.6485C46.7822 18.8664 46.6387 19.0842 46.4951 19.307C46.4852 19.3218 46.4803 19.3367 46.4654 19.3515C46.2426 19.6931 46.01 20.0297 45.7822 20.3713C44.5149 22.2179 43.1733 24.0099 41.7525 25.7327C38.8862 29.1981 35.7179 32.401 32.2723 35.2971C32.1634 34.6188 32.0991 33.9258 32.0941 33.2179C32.0842 33.099 32.0842 32.9753 32.0842 32.8565C32.0842 30.1981 32.7476 27.6931 33.9109 25.5C34.3664 24.6386 34.901 23.8268 35.505 23.0693C35.6882 22.8317 35.8862 22.599 36.0842 22.3713C38.4704 19.703 41.7525 17.8515 45.4654 17.2971C46.1733 17.1931 46.8961 17.1337 47.6337 17.1287C47.6981 17.1238 47.7525 17.1238 47.8169 17.1238H47.8763C47.5595 17.6337 47.2426 18.1436 46.9208 18.6436V18.6485Z" fill="#F4F4F2"/>
<path d="M51.0941 10.7673H47.8119C46.5694 6.76238 42.8416 3.85644 38.4258 3.85644C38.1882 3.85644 37.9555 3.86139 37.7228 3.88614C34.7822 4.08911 32.1981 5.59406 30.5347 7.82178C30.2773 8.16832 30.0396 8.53465 29.8268 8.92079C29.6535 9.22772 29.505 9.53465 29.3664 9.85644C29.2377 10.1535 29.1288 10.4554 29.0396 10.7673C28.7624 11.6535 28.609 12.5941 28.604 13.5594C28.5941 12.5941 28.4357 11.6535 28.1585 10.7673C28.0941 10.5545 28.0198 10.3366 27.9357 10.1287C27.7278 9.57426 27.4654 9.05446 27.1634 8.55941C26.9208 8.17327 26.6634 7.80198 26.3713 7.4505C24.7921 5.53465 22.5099 4.22277 19.9109 3.93069C19.5446 3.88614 19.1634 3.86139 18.7773 3.86139C14.3614 3.86139 10.6337 6.76733 9.39113 10.7723H5.64856C5.70797 10.4307 5.78222 10.099 5.86638 9.77723C7.34163 4.14852 12.4654 0 18.5495 0C20.4852 0 22.3268 0.420792 23.9753 1.17822C25.6684 1.94554 27.1634 3.05941 28.3763 4.43564C29.708 2.92079 31.3862 1.71782 33.2872 0.955446C34.807 0.341584 36.4654 0 38.203 0C44.6436 0 50 4.64356 51.0991 10.7673H51.0941Z" fill="#F4F4F2"/>
<path d="M65.5841 18.5495C65.995 17.7277 65.995 17.0941 65.995 16.2079V3.41585C65.995 1.94061 64.9703 1.18318 63.9703 1.18318C63.0396 1.18318 62.1287 1.87625 62.1287 3.24754C62.1287 4.08912 62.5742 4.76734 63.2079 4.76734C63.5792 4.76734 63.9307 4.51486 64.0841 4.09407C64.4356 4.51486 64.6237 5.10397 64.6237 5.71783C64.6237 7.71783 63.4158 9.08912 61.5742 9.08912C59.5643 9.08912 58.1534 7.25744 58.1534 4.89605C58.1534 2.53467 59.8069 0.445557 62.4455 0.445557C65.2178 0.445557 66.3663 1.87625 69.6039 1.87625C71.2376 1.87625 72.9703 1.47526 74.8663 1.3713L75.1435 4.47031C73.193 3.8812 71.0544 3.8812 69.6237 3.8812V7.97031H73.193L73.3218 9.52972H69.6237V16.2129C69.6237 17.099 69.6237 17.7327 70.0346 18.5545H65.5891L65.5841 18.5495Z" fill="#F4F4F2"/>
<path d="M75.2327 18.5495C75.6436 17.7277 75.6436 17.094 75.6436 16.2079V8.34652C75.6436 7.75741 75.4752 7.35642 75.2327 7.08415C76.4406 7.08415 78.5792 6.91583 79.2673 6.00989V10.3713H79.4158C79.9752 6.70296 82.2228 5.07919 84.7129 6.68315L84.1386 9.95048C81.4059 8.55939 79.8267 10.6881 79.2673 13.0049V16.2079C79.2673 17.094 79.2673 17.7277 79.6782 18.5495H75.2327Z" fill="#F4F4F2"/>
<path d="M85.1039 12.396C85.1039 8.03464 87.7078 6.00989 91.1088 6.00989C94.5098 6.00989 97.0742 8.03464 97.0742 12.396C97.0742 16.7574 94.0049 18.802 91.1088 18.802C88.2128 18.802 85.1039 16.8416 85.1039 12.396ZM93.4504 12.396C93.4504 9.42573 92.1138 8.26731 91.1088 8.26731C90.1039 8.26731 88.7276 9.42573 88.7276 12.396C88.7276 15.3663 90.0643 16.4851 91.1088 16.4851C92.1534 16.4851 93.4504 15.3069 93.4504 12.396Z" fill="#F4F4F2"/>
<path d="M97.6188 18.5495L103.05 8.62376C101.47 8.62376 99.0693 8.70792 97.8614 9.29703L98.104 6.36633H107.807L102.396 16.4406C103.975 16.4604 106.688 16.2921 107.842 15.6188L107.579 18.5495H97.6139H97.6188Z" fill="#F4F4F2"/>
<path d="M109.238 15.0694C109.238 12.3713 111.228 11.2525 113.233 11.2525C114.535 11.2525 115.817 11.6931 116.634 12.4109C116.223 12.1387 115.683 11.9902 115.148 11.9902C113.643 11.9902 112.47 12.9159 112.47 14.4753C112.47 15.5941 113.158 16.2674 113.995 16.2674C115.02 16.2674 116.208 15.109 116.634 12.8961V10.4109C116.634 9.23273 115.723 8.51491 114.475 8.51491C113.564 8.51491 112.485 8.87134 111.391 9.65352L110.648 7.22778C112.025 6.4456 113.678 6.005 115.243 6.005C117.901 6.005 120.262 7.31194 120.262 10.4307V16.8614C120.262 17.5149 120.337 18.0199 120.822 18.5496H118.515C116.99 18.5496 116.639 17.4307 116.639 16.2327V14.8416H116.584C116.139 17.3911 114.465 18.8664 112.589 18.8664C110.916 18.8664 109.243 17.5397 109.243 15.0743L109.238 15.0694Z" fill="#F4F4F2"/>
<path d="M122.079 18.5495C122.49 17.7277 122.49 17.0941 122.49 16.2079V3.41586C122.49 2.82675 122.322 2.42576 122.079 2.15348C123.287 2.15348 125.426 1.98516 126.114 1.07922V16.2129C126.114 17.099 126.114 17.7327 126.525 18.5545H122.079V18.5495Z" fill="#F4F4F2"/>
<path d="M82.8861 37.1187V38.0643H79.2822C78.8119 38.0841 78.3911 38.1732 78.0148 38.3415C77.401 38.7574 76.802 39.1732 76.2178 39.5791C75.198 40.2821 74.1733 40.7871 73.1386 41.0841C72.7772 41.1782 72.3762 41.2227 71.9356 41.2227C70.9158 41.2227 70.0247 41.0049 69.2475 40.5692C67.6881 39.6682 66.604 38.589 65.995 37.3366C65.6188 36.6039 65.3564 35.6088 65.2129 34.3564C65.1683 34.0593 65.1436 33.7425 65.1436 33.4108C65.1436 31.5791 65.4851 29.9999 66.1683 28.6633C66.401 28.1782 66.896 27.9405 67.6535 27.9405C68.1931 27.9405 68.6188 28.1138 68.9208 28.4554C69.1535 28.7178 69.2723 28.995 69.2723 29.292C69.2723 29.9405 68.9059 30.3019 68.1782 30.3811C67.6089 30.4554 67.0941 30.8217 66.6238 31.4801C66.2921 31.9455 66.1238 32.7574 66.1238 33.9158C66.1238 34.5296 66.2079 35.0989 66.3812 35.6286C66.7574 36.797 67.4703 37.8415 68.5198 38.7623C69.5693 39.6831 70.6535 40.1484 71.7822 40.1682C72.8168 40.2128 73.9356 39.8762 75.1436 39.1534C75.3614 39.0049 76.0099 38.5197 77.0891 37.7029C77.6287 37.292 78.3564 37.0544 79.2772 36.9801V22.8267C79.2772 22.5841 78.9257 22.3465 78.2228 22.1039L78.396 21.2277L82.1336 20.5049V36.3267C82.1336 36.8564 82.3812 37.1187 82.8762 37.1187H82.8861Z" fill="#F4F4F2"/>
<path d="M88.9109 37.1485V38.0544H84.4406V37.1089H85.3317V22.6633C85.2772 22.1534 84.9257 21.9109 84.2772 21.9406L84.4505 21.0643L88.1881 20.3416V36.3168C88.1881 36.8713 88.4257 37.1534 88.9059 37.1534L88.9109 37.1485Z" fill="#F4F4F2"/>
<path d="M94.5149 39.7129C94.4901 40.9752 94.3564 41.8366 94.1238 42.302C93.9901 42.6188 93.604 42.9802 92.9604 43.3861C92.5545 43.6832 92.0099 43.8317 91.3267 43.8317C90.8862 43.8317 90.4406 43.7723 89.9901 43.6485V43.2426C90.5099 43.1238 90.9109 42.7475 91.1931 42.1139C91.401 41.604 91.5248 41.0545 91.5693 40.4703L91.5842 29.0049C91.604 28.5248 91.505 28.2624 91.2921 28.2228C91.0792 28.1832 90.8812 28.1535 90.6931 28.1238C90.5297 28.0049 90.5099 27.703 90.6238 27.2178L94.5099 26.4505V39.698L94.5149 39.7129ZM92.7574 25.5446C93.1782 25.5446 93.5396 25.3861 93.8317 25.0693C94.1238 24.7525 94.2723 24.3911 94.2723 23.9851C94.2723 23.5495 94.1238 23.1782 93.8317 22.8713C93.5396 22.5644 93.1832 22.4109 92.7574 22.4109C92.3317 22.4109 91.9753 22.5644 91.6782 22.8713C91.3812 23.1782 91.2327 23.5495 91.2327 23.9851C91.2327 24.396 91.3812 24.7574 91.6782 25.0693C91.9753 25.3812 92.3366 25.5446 92.7574 25.5446Z" fill="#F4F4F2"/>
<path d="M107.069 38.4307C107.069 40.3416 106.876 41.6535 106.49 42.3565C106.104 43.0644 105.48 43.5347 104.629 43.7773C104.099 43.9258 103.287 44 102.198 44C100.624 44 99.7971 43.9901 99.7278 43.9703C99.3218 43.9901 99.0149 44 98.8119 44C98.5495 43.6832 98.5842 43.406 98.9208 43.1634C99.505 43.1634 100.094 43.1485 100.688 43.1238C101.371 43.104 101.911 42.9753 102.307 42.7327C102.946 42.3169 103.347 41.6683 103.51 40.7971C103.584 40.3317 103.604 39.4456 103.579 38.1386C101.599 38.0644 100.243 37.8961 99.5149 37.6386C98.2921 37.2971 97.4555 36.5743 97.005 35.4802C96.6287 34.6089 96.4357 33.599 96.4357 32.4555C96.4357 31.1634 96.6733 30.0149 97.1436 29C97.6188 27.9901 98.3119 27.2228 99.2277 26.703C100.144 26.1832 101.158 25.9604 102.267 26.0347C104.129 26.1535 105.451 27.0792 106.223 28.807C106.673 29.7525 106.941 30.9555 107.035 32.4159C107.035 32.5099 107.059 33.802 107.114 36.2872C107.114 36.7228 107.099 37.4406 107.074 38.4307H107.069ZM101.599 27.4555C101.178 27.4258 100.807 27.7228 100.49 28.3317C100.119 29.1139 99.9357 30.3961 99.9357 32.1881C99.9109 33.9604 100.223 35.2525 100.881 36.0594C101.356 36.7376 102.005 37.0743 102.827 37.0743C103.059 37.0743 103.287 37.0396 103.5 36.9654L103.54 32.6634C103.559 31.203 103.411 29.9406 103.109 28.8763C102.832 27.9307 102.327 27.4555 101.599 27.4555Z" fill="#F4F4F2"/>
<path d="M112.946 42.3019C112.812 42.6188 112.426 42.9801 111.782 43.3861C111.376 43.6831 110.832 43.8316 110.149 43.8316C109.708 43.8316 109.262 43.7722 108.812 43.6485V43.2425C109.332 43.1237 109.733 42.7475 110.015 42.1138C110.223 41.6039 110.347 41.0544 110.391 40.4702L110.406 29.0049C110.426 28.5247 110.327 28.2623 110.114 28.2227C109.901 28.1831 109.703 28.1534 109.515 28.1237C109.352 28.0049 109.332 27.7029 109.446 27.2178L113.332 26.4504L113.317 36.5197C113.317 36.891 113.49 37.0643 113.842 37.0346H114.733V38.0494H113.371C113.297 38.0693 113.262 38.1485 113.262 38.2871C113.262 40.3465 113.153 41.6831 112.941 42.2871L112.946 42.3019Z" fill="#F4F4F2"/>
<path d="M123.544 34.7921C120.243 34.0941 117.926 33.1832 116.604 32.0644C116.143 31.599 115.916 30.901 115.916 29.9604C115.916 29.0198 116.168 28.2624 116.673 27.6188C117.267 26.8664 118.124 26.4852 119.238 26.4753C119.955 26.5149 120.693 26.6535 121.45 26.8911C123.277 27.4654 125.04 28.5 126.728 29.9852V35.7228C126.574 37.1881 125.366 37.9703 123.109 38.0644H114.049V37.0495H122.421C123.079 37.104 123.455 36.7624 123.554 36.0198L123.54 34.7921H123.544ZM123.569 29.3862C122.931 28.698 122.064 28.3564 120.975 28.3564C120.802 28.3564 120.644 28.3713 120.49 28.3961C120.168 28.4505 119.911 28.6832 119.728 29.0941C119.544 29.505 119.45 29.9753 119.45 30.5149C119.45 31.2574 119.604 31.8218 119.911 32.2129C120.431 32.7426 121.653 33.2228 123.569 33.6485V29.3862ZM121.411 25.6238C121.832 25.6238 122.198 25.4703 122.505 25.1634C122.812 24.8564 122.965 24.4852 122.965 24.0495C122.965 23.6139 122.812 23.2426 122.505 22.9406C122.198 22.6386 121.837 22.4901 121.411 22.4901C120.985 22.4901 120.648 22.6386 120.346 22.9406C120.04 23.2426 119.886 23.6139 119.886 24.0495C119.886 24.4852 120.04 24.8564 120.346 25.1634C120.653 25.4703 121.01 25.6238 121.411 25.6238Z" fill="#F4F4F2"/>
</g>
<defs>
<clipPath id="clip0_1380_1130">
<rect width="126.228" height="44" fill="white" transform="translate(0.5)"/>
</clipPath>
</defs>
</svg>
