<svg width="103" height="48" viewBox="0 0 103 48" fill="none" xmlns="http://www.w3.org/2000/svg">
<path d="M38.1155 22.4847C38.1086 22.351 38.1018 22.2207 38.0915 22.087C38.0126 21.0035 37.8 19.9578 37.464 18.967C37.2446 18.9018 37.0218 18.8435 36.7989 18.7887C36.144 18.631 35.4686 18.5247 34.776 18.4732C34.5566 18.4595 34.3338 18.4492 34.1109 18.4424C34.0423 18.4424 33.9738 18.4424 33.9052 18.4424H33.816C33.552 18.4424 33.2915 18.4492 33.0309 18.4664C32.3075 18.5075 31.5943 18.6138 30.9052 18.775C28.9749 19.2172 27.2058 20.0984 25.7143 21.3087C25.0492 21.8435 24.4355 22.4435 23.8903 23.1018C23.5303 23.5338 23.1978 23.9898 22.896 24.4698C22.5463 25.0218 22.2378 25.6047 21.9738 26.2115C21.6618 25.4984 21.2915 24.8264 20.8698 24.1921C20.5852 23.767 20.2766 23.359 19.9406 22.9681C19.4263 22.3647 18.8538 21.8092 18.24 21.3121C16.7452 20.1052 14.976 19.2241 13.0423 18.7784C12.2675 18.5967 11.4686 18.4904 10.6458 18.4561C10.4743 18.4492 10.3063 18.4458 10.1349 18.4458H10.0526C9.97719 18.4458 9.90176 18.4458 9.82633 18.4458C9.42519 18.4561 9.0309 18.4835 8.64004 18.5315C8.12918 18.5864 7.62518 18.6755 7.13833 18.7955C6.9189 18.847 6.7029 18.9052 6.4869 18.967C6.11318 20.0847 5.89033 21.2675 5.8389 22.4881C5.8389 22.5087 5.8389 22.5258 5.8389 22.5464C5.83204 22.7144 5.82861 22.8824 5.82861 23.0504C5.82861 29.5887 10.6835 34.9852 16.9818 35.8424C17.1943 35.8732 17.4103 35.8938 17.6263 35.9144C17.9658 35.9452 18.3086 35.9555 18.6515 35.959L18.0995 35.3829L17.9898 35.2698L15.5829 32.7498C11.7498 32.0812 8.74976 28.9715 8.25261 25.0801C8.20461 24.6995 8.17718 24.3155 8.17718 23.9247C8.17718 23.047 8.30404 22.1967 8.54061 21.391C9.91204 23.7292 11.4995 25.927 13.2789 27.9498C14.8252 29.7052 16.5086 31.327 18.3223 32.8047C18.6309 33.0618 18.9429 33.3052 19.2618 33.5487C19.4846 33.7235 19.7075 33.8881 19.9338 34.0561C20.4378 34.4332 20.9555 34.7932 21.4766 35.1464C21.6412 35.2561 21.8058 35.3624 21.9669 35.4687C22.1383 35.3589 22.3029 35.2492 22.4675 35.1361C22.9852 34.7898 23.4926 34.4264 23.9932 34.0561C24.2229 33.8847 24.4526 33.7167 24.6789 33.5384C24.9943 33.2984 25.3029 33.0515 25.608 32.8047C27.4286 31.3201 29.1258 29.6847 30.672 27.9258C32.448 25.9029 34.0355 23.7121 35.4 21.3738C35.6435 22.1795 35.7703 23.0401 35.7703 23.9247C35.7703 24.127 35.7635 24.3292 35.7463 24.5281C35.4618 28.8584 32.0915 32.3521 27.816 32.8287L25.6526 35.0949L25.6389 35.1121L24.8366 35.9521C24.96 35.9521 25.0869 35.959 25.2103 35.959C25.5875 35.959 25.9578 35.9418 26.3246 35.9144C26.5372 35.8938 26.7463 35.8732 26.9555 35.8424C33.264 34.9887 38.1189 29.5887 38.1189 23.0504C38.1189 22.8618 38.1189 22.6698 38.1052 22.4847H38.1155ZM20.1292 29.8972C20.1223 30.3052 20.088 30.7064 20.0229 31.0972C18.1063 29.4824 16.3372 27.7064 14.7326 25.7795C14.0092 24.9087 13.3166 24.007 12.6618 23.0812C12.5486 22.9167 12.432 22.7521 12.3223 22.591C11.904 21.9807 11.5029 21.3601 11.1189 20.7292H11.1669C11.6229 20.7292 12.0686 20.7635 12.504 20.8287C14.6195 21.1475 16.4915 22.2001 17.8526 23.7224C17.9452 23.8252 18.0378 23.9315 18.1235 24.0412C18.4526 24.4458 18.744 24.8744 18.9943 25.3338C19.7178 26.623 20.1292 28.111 20.1292 29.695C20.1292 29.7635 20.1292 29.8321 20.1223 29.9007L20.1292 29.8972ZM32.2732 21.5932C32.1943 21.7167 32.112 21.8435 32.0298 21.967C32.0229 21.9772 32.0195 21.9841 32.0126 21.9944C31.8858 22.1864 31.752 22.3818 31.6218 22.5738C30.9018 23.6264 30.1372 24.6481 29.3246 25.6321C27.6926 27.607 25.8858 29.4344 23.9212 31.0835C23.8595 30.6961 23.8218 30.3018 23.8183 29.9007C23.8115 29.8321 23.8115 29.7635 23.8115 29.695C23.8115 28.1795 24.1886 26.7532 24.8503 25.5018C25.1109 25.0115 25.416 24.5487 25.7589 24.1167C25.8652 23.983 25.9749 23.8492 26.0915 23.719C27.4526 22.1967 29.3212 21.1441 31.4366 20.8252C31.8412 20.767 32.2526 20.7327 32.6743 20.7292C32.712 20.7292 32.7429 20.7292 32.7806 20.7292H32.8149C32.6332 21.0207 32.4549 21.3087 32.2698 21.5967L32.2732 21.5932Z" fill="#F4F4F2"/>
<path d="M34.656 17.1051H32.7875C32.0777 14.8217 29.952 13.1657 27.4389 13.1657C27.3052 13.1657 27.1715 13.1657 27.0377 13.1829C25.3612 13.296 23.8903 14.1566 22.9406 15.4252C22.7932 15.6206 22.6595 15.8332 22.536 16.0526C22.4366 16.2274 22.3509 16.4023 22.272 16.5874C22.2 16.7589 22.1383 16.9269 22.0835 17.1051C21.9257 17.6091 21.8366 18.144 21.8332 18.696C21.8263 18.144 21.7372 17.6091 21.5795 17.1051C21.5417 16.9851 21.5006 16.8583 21.4526 16.7417C21.336 16.4263 21.1852 16.128 21.0137 15.8469C20.8766 15.6274 20.7292 15.4149 20.5612 15.2126C19.6629 14.1189 18.36 13.3714 16.8789 13.2069C16.6697 13.1794 16.4537 13.1692 16.2343 13.1692C13.7177 13.1692 11.592 14.8252 10.8857 17.1086H8.75317C8.78746 16.9166 8.8286 16.7246 8.8766 16.5429C9.7166 13.3371 12.6343 10.9749 16.1006 10.9749C17.2012 10.9749 18.2537 11.2149 19.1932 11.6469C20.1566 12.0823 21.0103 12.72 21.7029 13.5017C22.4606 12.6377 23.4172 11.952 24.5006 11.5166C25.368 11.1669 26.3109 10.9714 27.3017 10.9714C30.9703 10.9714 34.0252 13.6183 34.6526 17.1086L34.656 17.1051Z" fill="#F4F4F2"/>
<path d="M49.3578 23.5063C49.6801 22.9372 49.6801 22.4983 49.6801 21.8846V13.0252C49.6801 12.0034 48.8778 11.4789 48.0892 11.4789C47.3589 11.4789 46.6423 11.9589 46.6423 12.9086C46.6423 13.4914 46.9921 13.9612 47.4892 13.9612C47.7806 13.9612 48.0584 13.7863 48.1749 13.4949C48.4526 13.7863 48.5966 14.1943 48.5966 14.6194C48.5966 16.0046 47.6469 16.9543 46.2035 16.9543C44.6264 16.9543 43.5189 15.6857 43.5189 14.0503C43.5189 12.4149 44.8184 10.9714 46.8926 10.9714C49.0664 10.9714 49.9715 11.9623 52.5121 11.9623C53.7978 11.9623 55.1555 11.6846 56.6435 11.6126L56.8629 13.7589C55.3304 13.3509 53.6504 13.3509 52.5258 13.3509V16.1829H55.3269L55.4298 17.2629H52.5258V21.8914C52.5258 22.5052 52.5258 22.944 52.8481 23.5131H49.3578V23.5063Z" fill="#F4F4F2"/>
<path d="M56.935 23.5063C57.2572 22.9372 57.2572 22.4983 57.2572 21.8846V16.4401C57.2572 16.0321 57.127 15.7543 56.935 15.5658C57.8847 15.5658 59.5612 15.4492 60.1029 14.8218V17.8423H60.2195C60.6584 15.3018 62.4241 14.1772 64.3784 15.2881L63.9258 17.5509C61.7795 16.5875 60.5384 18.0618 60.0995 19.6663V21.8846C60.0995 22.4983 60.0995 22.9372 60.4218 23.5063H56.9315H56.935Z" fill="#F4F4F2"/>
<path d="M64.6869 19.2446C64.6869 16.2241 66.7303 14.8218 69.4012 14.8218C72.072 14.8218 74.088 16.2241 74.088 19.2446C74.088 22.2652 71.6812 23.6812 69.4012 23.6812C67.1212 23.6812 64.6869 22.3235 64.6869 19.2446ZM71.2389 19.2446C71.2389 17.1875 70.1863 16.3852 69.4012 16.3852C68.616 16.3852 67.5326 17.1875 67.5326 19.2446C67.5326 21.3018 68.5852 22.0766 69.4012 22.0766C70.2172 22.0766 71.2389 21.2606 71.2389 19.2446Z" fill="#F4F4F2"/>
<path d="M74.5098 23.5063L78.7715 16.632C77.5304 16.632 75.6481 16.6903 74.6984 17.0983L74.8869 15.0686H82.5052L78.2572 22.0457C79.4984 22.0595 81.6309 21.9429 82.5326 21.4766L82.3269 23.5063H74.5029H74.5098Z" fill="#F4F4F2"/>
<path d="M83.6332 21.0995C83.6332 19.2309 85.1966 18.4561 86.7703 18.4561C87.792 18.4561 88.8 18.7612 89.4412 19.2583C89.1189 19.0698 88.6972 18.9669 88.272 18.9669C87.0892 18.9669 86.1703 19.6081 86.1703 20.6881C86.1703 21.4629 86.712 21.9292 87.3669 21.9292C88.1692 21.9292 89.1052 21.1269 89.4412 19.5943V17.8732C89.4412 17.0572 88.7246 16.5601 87.7475 16.5601C87.0309 16.5601 86.184 16.8069 85.3235 17.3486L84.7406 15.6686C85.8206 15.1269 87.12 14.8218 88.3475 14.8218C90.4355 14.8218 92.2903 15.7269 92.2903 17.8869V22.3406C92.2903 22.7932 92.3486 23.1429 92.7292 23.5098H90.9189C89.7223 23.5098 89.4446 22.7349 89.4446 21.9052V20.9418H89.4C89.0503 22.7075 87.7372 23.7292 86.2629 23.7292C84.9498 23.7292 83.6366 22.8103 83.6366 21.1029L83.6332 21.0995Z" fill="#F4F4F2"/>
<path d="M93.7201 23.5063C94.0424 22.9371 94.0424 22.4983 94.0424 21.8846V13.0251C94.0424 12.6171 93.9121 12.3394 93.7201 12.1509C94.6698 12.1509 96.3464 12.0343 96.8881 11.4069V21.888C96.8881 22.5017 96.8881 22.9406 97.2104 23.5097H93.7201V23.5063Z" fill="#F4F4F2"/>
<path d="M48.48 35.9624C48.7578 35.4721 48.7578 35.095 48.7578 34.5636V26.9213C48.7578 26.0401 48.0652 25.5876 47.3863 25.5876C46.7555 25.5876 46.1383 26.0024 46.1383 26.8218C46.1383 27.3258 46.44 27.727 46.8686 27.727C47.1189 27.727 47.3589 27.5761 47.4618 27.3224C47.7018 27.5727 47.8252 27.9258 47.8252 28.2927C47.8252 29.4893 47.0058 30.3053 45.7612 30.3053C44.4001 30.3053 43.4435 29.2116 43.4435 27.799C43.4435 26.3864 44.5646 25.1418 46.3509 25.1418C48.2263 25.1418 49.0081 25.999 51.1989 25.999C52.3063 25.999 53.4789 25.759 54.7612 25.6973L54.9498 27.5487C53.6263 27.1956 52.1795 27.1956 51.2092 27.1956V29.6367H53.6263L53.7155 30.5693H51.2092V34.5601C51.2092 35.0881 51.2092 35.4653 51.4869 35.959H48.4766L48.48 35.9624Z" fill="#F4F4F2"/>
<path d="M54.4458 31.7829C54.4458 29.9692 55.9441 28.2446 57.9841 28.2446C58.4367 28.2446 58.8892 28.3201 59.383 28.4949C57.559 28.7589 56.8149 30.3703 56.8149 31.9063C56.8149 33.4423 57.5315 34.8138 58.6149 34.8138C59.7738 34.8138 60.3258 33.5555 60.3258 32.3726C60.3258 31.0766 59.5818 29.9932 58.4881 30.4595C58.5875 29.7052 59.3452 29.2766 60.175 29.2766C61.3818 29.2766 62.7807 30.2195 62.7807 32.3863C62.7807 34.8275 60.6515 36.1132 58.6904 36.1132C56.4378 36.1132 54.4492 34.8275 54.4492 31.7829H54.4458Z" fill="#F4F4F2"/>
<path d="M63.6138 31.7829C63.6138 29.9692 65.112 28.2446 67.152 28.2446C67.6046 28.2446 68.0572 28.3201 68.5509 28.4949C66.7269 28.7589 65.9829 30.3703 65.9829 31.9063C65.9829 33.4423 66.6995 34.8138 67.7829 34.8138C68.9418 34.8138 69.4938 33.5555 69.4938 32.3726C69.4938 31.0766 68.7498 29.9932 67.656 30.4595C67.7555 29.7052 68.5132 29.2766 69.3429 29.2766C70.5498 29.2766 71.9486 30.2195 71.9486 32.3863C71.9486 34.8275 69.8195 36.1132 67.8583 36.1132C65.6058 36.1132 63.6172 34.8275 63.6172 31.7829H63.6138Z" fill="#F4F4F2"/>
<path d="M78.0549 34.5909H77.9932C77.6675 35.5989 76.7589 36.1406 75.8023 36.1406C74.3555 36.1406 72.7817 34.944 72.7817 32.3623C72.7817 29.5543 74.3417 28.5086 75.7783 28.5086C76.7349 28.5086 77.64 28.9749 77.9932 29.7052H78.0549V27.2743C78.0549 26.784 78.0172 26.4309 77.7772 26.1292C78.6069 26.1292 80.0435 26.0298 80.5097 25.488V34.992C80.5097 36.4903 81.3909 36.9806 82.1075 36.9806C82.9886 36.9806 83.568 36.4526 83.568 35.6846C83.568 35.0435 83.1154 34.5018 82.4229 34.5018C82.2583 34.5018 82.0937 34.5395 81.9326 34.6663C81.8572 34.3886 81.8057 34.1109 81.8057 33.8366C81.8057 32.64 82.6115 31.7589 83.808 31.7589C85.1177 31.7589 85.9989 32.7909 85.9989 34.0389C85.9989 36.1783 83.9452 37.3509 81.9326 37.3509C80.2697 37.3509 78.4972 36.5589 78.0549 34.5943V34.5909ZM78.0549 34.1006V30.7783C77.7772 30.4012 77.2629 30.1372 76.7452 30.1372C75.9532 30.1372 75.2332 30.7543 75.2332 32.3143C75.2332 34.0252 76.0252 34.7829 76.8583 34.7829C77.3246 34.7829 77.7909 34.5326 78.0549 34.104V34.1006Z" fill="#F4F4F2"/>
</svg>
