<svg width="201" height="160" viewBox="0 0 201 160" fill="none" xmlns="http://www.w3.org/2000/svg">
<g opacity="0.1">
<path d="M1.18492 83.7064C1.18501 84.5288 1.28184 85.3513 1.33032 86.1737C1.81486 92.8984 3.1219 99.3327 5.20289 105.477C6.55756 105.863 7.96048 106.25 9.31513 106.589C13.3791 107.556 17.5398 108.233 21.8456 108.523C23.2002 108.619 24.6032 108.668 25.9579 108.716C26.3933 108.716 26.8287 108.716 27.2158 108.716L27.7479 108.716C29.3928 108.715 30.9893 108.715 32.5858 108.57C37.085 108.327 41.4875 107.65 45.7447 106.682C57.6941 103.923 68.6757 98.4546 77.9153 91.0031C82.0272 87.7129 85.8487 83.9872 89.1864 79.8746C91.4115 77.2135 93.4915 74.3589 95.3296 71.4075C97.5062 67.9724 99.3927 64.3922 101.037 60.6184C102.973 65.0207 105.247 69.1811 107.86 73.1479C109.65 75.8085 111.537 78.3241 113.618 80.7428C116.811 84.4676 120.344 87.9022 124.166 90.998C133.407 98.4474 144.39 103.913 156.34 106.669C161.129 107.781 166.064 108.458 171.192 108.651C172.257 108.651 173.321 108.699 174.337 108.699L174.821 108.699C175.305 108.699 175.74 108.699 176.224 108.699C178.691 108.65 181.159 108.457 183.578 108.166C186.722 107.827 189.867 107.294 192.866 106.52C194.221 106.181 195.575 105.842 196.93 105.455C199.251 98.5368 200.605 91.2313 200.943 83.6357C200.943 83.4906 200.943 83.3939 200.943 83.2488C200.943 82.2328 200.991 81.1685 200.991 80.1041C200.986 39.6107 170.939 6.18398 131.896 0.91498C130.59 0.721605 129.236 0.576637 127.881 0.480032C125.801 0.286744 123.672 0.238465 121.543 0.190324L124.979 3.7701L125.656 4.49569L140.558 20.0722C164.313 24.2301 182.845 43.483 185.944 67.5272C186.234 69.8977 186.428 72.2683 186.428 74.6873C186.429 80.1541 185.655 85.3791 184.156 90.3624C175.688 75.8979 165.817 62.2561 154.785 49.7271C145.205 38.8428 134.802 28.8295 123.529 19.6871C121.642 18.0908 119.707 16.5912 117.723 15.0916C116.32 14.0275 114.965 12.9633 113.562 11.9475C110.417 9.62563 107.224 7.40047 104.031 5.22376C103.015 4.54656 101.998 3.86935 100.982 3.24053C99.9181 3.91796 98.9022 4.59545 97.8863 5.27287C94.6935 7.40191 91.5492 9.6761 88.4532 11.9503C87.0503 13.0148 85.599 14.0793 84.1961 15.1438C82.2611 16.6438 80.3261 18.1438 78.4395 19.6921C67.1681 28.8854 56.6709 38.9978 47.093 49.9326C36.0639 62.4641 26.2929 76.0113 17.8281 90.526C16.3278 85.5431 15.5532 80.2215 15.5526 74.7063C15.5524 73.4484 15.5523 72.1905 15.6973 70.981C17.4843 44.1787 38.3334 22.5508 64.7965 19.5968L78.1961 5.56532L78.2928 5.4686L83.2752 0.291436C82.5012 0.291522 81.7271 0.291608 80.953 0.291694C78.6308 0.291952 76.3086 0.388951 74.0348 0.582724C72.7286 0.728011 71.4224 0.824897 70.1162 1.01855C31.0747 6.29624 0.986472 39.778 0.990971 80.2231C0.9911 81.3842 0.991326 82.5937 1.08821 83.7548L1.18492 83.7064ZM112.549 37.7821C112.549 35.2664 112.79 32.7506 113.177 30.3316C125.031 40.3448 136.014 51.3257 145.933 63.2259C150.433 68.5955 154.691 74.207 158.756 79.9153C159.482 80.9311 160.159 81.9471 160.885 82.9629C163.498 86.7362 165.966 90.5579 168.337 94.4764L168.046 94.4764C165.24 94.4768 162.483 94.2835 159.773 93.8484C146.662 91.8663 135.099 85.3847 126.631 75.9517C126.051 75.3228 125.47 74.6456 124.938 73.9683C122.906 71.4528 121.115 68.7922 119.519 65.9864C115.018 58.0043 112.502 48.7642 112.501 38.9916C112.501 38.5562 112.501 38.1207 112.501 37.7337L112.549 37.7821ZM37.3733 89.2177C37.857 88.4435 38.389 87.6693 38.8728 86.8952C38.8728 86.8468 38.9211 86.7985 38.9694 86.7501C39.7434 85.5405 40.5657 84.331 41.388 83.1698C45.8382 76.6381 50.5786 70.3483 55.6094 64.2519C65.7193 52.0108 76.8937 40.6888 89.0358 30.4794C89.4231 32.8983 89.6652 35.3174 89.6655 37.8331C89.6656 38.2685 89.6656 38.7038 89.6657 39.0908C89.6667 48.4764 87.3454 57.3302 83.234 65.0229C81.6378 68.071 79.7515 70.9255 77.6231 73.5866C76.9943 74.4091 76.2686 75.2317 75.5914 76.0542C67.1744 85.4891 55.6126 92.0215 42.502 93.9582C39.9863 94.3455 37.4221 94.5392 34.858 94.5395C34.6161 94.5396 34.4228 94.5396 34.2292 94.5396L34.0357 94.5396C35.1482 92.7495 36.2606 90.9594 37.4215 89.1692L37.3733 89.2177Z" fill="#F4F4F2"/>
<path d="M22.5627 121.127L34.1255 121.126C38.5295 135.252 51.6899 145.507 67.268 145.505C68.0904 145.505 68.9128 145.505 69.7352 145.408C80.1367 144.682 89.2315 139.359 95.0845 131.521C96.0036 130.311 96.8258 129.005 97.5997 127.65C98.2286 126.586 98.7606 125.473 99.2443 124.36C99.6795 123.296 100.066 122.231 100.405 121.167C101.372 118.022 101.904 114.732 101.952 111.298C101.952 114.732 102.533 118.022 103.501 121.167C103.743 121.941 103.985 122.666 104.276 123.44C105.002 125.375 105.921 127.214 106.985 129.004C107.856 130.358 108.776 131.664 109.792 132.922C115.356 139.695 123.436 144.29 132.58 145.353C133.886 145.498 135.241 145.595 136.595 145.595C152.174 145.593 165.332 135.335 169.733 121.208L182.94 121.206C182.747 122.416 182.457 123.577 182.166 124.738C176.992 144.574 158.9 159.235 137.419 159.237C130.598 159.238 124.115 157.739 118.261 155.079C112.31 152.37 106.988 148.452 102.73 143.566C98.0375 148.889 92.0874 153.147 85.4114 155.857C80.0415 158.034 74.1877 159.245 68.0919 159.245C45.3536 159.248 26.4355 142.849 22.5628 121.273L22.5627 121.127Z" fill="#F4F4F2"/>
</g>
</svg>
