<svg width="2578" height="2578" viewBox="0 0 2578 2578" fill="none" xmlns="http://www.w3.org/2000/svg">
<path d="M916.122 217.448L987.79 194.951L993.736 213.896L948.607 228.061L953.253 242.872L995.434 229.638L1001.41 248.654L959.227 261.895L968.461 291.318L941.922 299.644L916.122 217.448Z" fill="#AD832D"/>
<path d="M1162.59 216.83L1165.9 248.356L1138.56 251.233L1129.55 165.535L1181.37 160.087C1202.67 157.849 1214.88 167.091 1216.38 181.284C1217.53 192.323 1211.83 199.59 1203.75 203.355C1208.58 204.854 1216.9 208.135 1218.43 222.669L1218.91 227.315C1219.42 232.188 1220.08 238.425 1221.7 242.488L1193.98 245.401C1192.19 241.949 1191.31 236.713 1190.37 227.855L1190.07 224.964C1189.23 216.993 1186.37 214.33 1175.59 215.459L1162.59 216.83ZM1160.71 199.036L1177.77 197.246C1185.35 196.443 1189.3 193.232 1188.65 187.038C1188.05 181.334 1183.81 178.52 1175.87 179.352L1158.84 181.142L1160.71 199.036Z" fill="#AD832D"/>
<path d="M1448.79 209.073C1446.26 233.254 1428.11 252.384 1394.45 248.86C1363.56 245.628 1348.54 224.119 1351.17 198.979C1353.64 175.395 1372.4 156.009 1405.08 159.426C1436.01 162.658 1451.34 184.786 1448.79 209.073ZM1380.55 201.636C1378.99 216.532 1383.77 228.196 1397.81 229.666C1412.23 231.18 1418.08 219.032 1419.43 206.203C1420.99 191.335 1416.88 179.856 1402.41 178.343C1388.63 176.908 1382.02 187.656 1380.55 201.636Z" fill="#AD832D"/>
<path d="M1567.89 261.093L1628.37 228.338L1584.93 214.664L1590.83 195.946L1667.48 220.077L1661.79 238.162L1602.74 269.454L1651.83 284.911L1643.08 302.72L1562.74 277.431L1567.89 261.093Z" fill="#AD832D"/>
<path d="M1793.71 353.099L1781.11 364.422L1756.63 350.669L1827.23 291.546L1859.04 309.426L1847.08 401.517L1820.87 386.777L1823.64 369.913L1793.71 353.099ZM1827.73 349.362C1830.43 333.088 1832.4 322.965 1834.05 315.62L1833.67 315.414C1828.54 320.706 1819.24 329.486 1808.79 338.721L1827.73 349.362Z" fill="#AD832D"/>
<path d="M2003.18 408.634L2024.45 426.983L1981.16 477.141L2016.18 507.367L2000.66 520.324L1946.86 473.895L2003.18 408.634Z" fill="#AD832D"/>
<path d="M2251.23 690.612L2288.92 755.588L2271.74 765.547L2248.01 724.631L2234.58 732.416L2256.76 770.662L2239.51 780.664L2217.34 742.418L2190.66 757.89L2176.7 733.83L2251.23 690.612Z" fill="#AD832D"/>
<path d="M2338.36 990.717C2315.29 998.439 2290.35 989.843 2279.61 957.714C2269.74 928.234 2283.11 905.644 2307.09 897.617C2329.61 890.087 2355.04 899.144 2365.48 930.336C2375.34 959.83 2361.54 982.974 2338.36 990.717ZM2316.86 925.492C2302.64 930.244 2293.99 939.422 2298.47 952.826C2303.08 966.593 2316.57 966.884 2328.81 962.793C2343 958.055 2351.75 949.552 2347.13 935.742C2342.73 922.586 2330.2 921.024 2316.86 925.492Z" fill="#AD832D"/>
<path d="M2377.76 1218.82C2353.58 1221.48 2331.04 1207.8 2327.33 1174.12C2323.93 1143.24 2341.77 1123.99 2366.9 1121.22C2390.49 1118.63 2413.42 1132.87 2417.02 1165.54C2420.43 1196.47 2402.05 1216.15 2377.76 1218.82ZM2370.55 1150.53C2355.65 1152.16 2345.26 1159.31 2346.81 1173.34C2348.39 1187.77 2361.5 1190.92 2374.33 1189.5C2389.2 1187.87 2399.55 1181.41 2397.95 1166.94C2396.45 1153.17 2384.53 1148.99 2370.55 1150.53Z" fill="#AD832D"/>
<path d="M2420.22 1361.13L2415.75 1404.54C2412.56 1435.45 2392.03 1449.17 2369.47 1446.85C2343.01 1444.13 2327.26 1422.94 2330.09 1395.44L2334.52 1352.31L2420.22 1361.13ZM2350.92 1382.17L2349.68 1394.19C2348.26 1408 2355.87 1415.75 2371.85 1417.39C2385 1418.74 2395.2 1414.28 2396.92 1399.1L2398.17 1387.03L2350.92 1382.17Z" fill="#AD832D"/>
<path d="M1315.54 954.574C1303.62 962.509 1296.01 971.559 1282.99 979.401C1281.03 980.523 1280.42 982.136 1281.15 984.253L1289.41 1008.7C1290.39 1011.63 1291.89 1011.94 1293.9 1009.63C1306.31 995.263 1314.99 977.966 1319.94 957.742C1321.1 952.89 1319.63 951.832 1315.54 954.574Z" fill="#276934"/>
<path d="M1086.84 1303.23C1051.24 1300.44 1039.75 1268.1 1035.96 1235.32L1035.89 1051.72C1035.89 1048.61 1036.87 1045.88 1038.82 1043.51C1057.46 1020.86 1080.69 1013.65 1108.5 1021.86C1161.49 1037.54 1211.01 1061.89 1265.65 1036.88C1269.31 1035.26 1270.41 1032.53 1268.95 1028.67L1254.28 989.197C1253.18 986.149 1251.11 984.096 1248.04 983.038C1188.81 963.254 1118.95 929.378 1065.04 978.186C1055.42 986.867 1048.99 999 1041.76 1009.63C1037.84 1015.36 1035.89 1014.73 1035.89 1007.77V713.045C1035.89 708.875 1037.97 706.758 1042.13 706.701C1090.72 706.268 1137.05 706.325 1181.12 706.886C1267.06 708.008 1331 742.936 1372.93 811.692C1387.78 836.079 1391.63 834.402 1384.48 806.656C1376.22 774.739 1366.01 737.346 1353.85 694.483C1353.2 692.224 1351.11 690.661 1348.72 690.654L895.422 691.123C894.811 691.123 894.506 691.435 894.506 692.053L894.413 694.575C894.35 697.374 895.699 698.866 898.448 699.058C951.81 702.787 951.257 776.707 951.349 818.234C951.59 950.631 951.349 1076.06 950.617 1194.52C950.56 1202.88 950.447 1212.38 949.836 1222.19C947.541 1258.91 938.179 1300.08 897.809 1303.25C895.301 1303.43 894.144 1304.77 894.328 1307.26L894.513 1309.97C894.513 1310.28 894.662 1310.44 894.975 1310.44H949.843H1034.81H1035.97H1089.68C1089.98 1310.44 1090.14 1310.28 1090.14 1309.97L1090.32 1307.26C1090.51 1304.75 1089.34 1303.42 1086.84 1303.23Z" fill="#276934"/>
<path d="M1652.2 1653.67C1628.18 1661.26 1609.23 1653.11 1595.36 1629.22C1558.59 1565.75 1540.44 1485.4 1516.88 1414.85C1503.43 1374.66 1477.97 1351.7 1440.51 1345.97C1427.98 1344.05 1427.67 1340.84 1439.59 1336.36C1514.78 1307.99 1615.08 1268.14 1592.43 1163.62C1568.32 1052.65 1399.34 1074.4 1321.13 1073.28C1316.73 1073.22 1315.08 1075.36 1316.18 1079.72L1316.82 1082.15C1318.16 1087.31 1321.44 1089.86 1326.63 1089.8C1338.9 1089.65 1442.26 1091.52 1476.43 1115.95C1483.73 1121.17 1489.41 1127.72 1489.41 1127.72C1498.65 1138.36 1502.71 1149.28 1504.89 1155.29C1504.89 1155.29 1508.4 1164.98 1509.82 1174.63C1512.26 1191.23 1505.28 1248.99 1431.79 1294.92C1388.4 1322.05 1346 1348.71 1304.62 1374.9C1285.92 1386.75 1269.23 1402.71 1252.36 1417.55C1251.75 1418.1 1250.95 1418.41 1250.13 1418.42C1248.2 1418.45 1246.62 1416.9 1246.59 1414.94L1246.68 1315.27C1246.71 1241.94 1246.74 1168.62 1246.77 1095.3C1246.77 1091.63 1248.58 1089.8 1252.18 1089.8L1285.83 1089.42C1282.83 1084.07 1279.84 1078.72 1276.84 1073.37L1108.14 1073.64C1106.29 1073.64 1104.75 1075.12 1104.66 1077L1104.47 1079.8C1104.47 1080.49 1104.81 1080.86 1105.48 1080.93C1134.27 1082.73 1151.02 1098.66 1155.73 1128.7C1161.77 1167.4 1163.9 1214.35 1162.14 1269.48C1162.18 1292.16 1162.23 1314.85 1162.28 1337.54C1162.76 1430.1 1162.35 1516.5 1161.05 1596.72C1160.5 1633.4 1153.44 1683.89 1105.94 1684.92C1105.09 1684.98 1104.69 1685.44 1104.75 1686.31L1104.84 1689.49C1104.96 1691.98 1106.22 1693.22 1108.6 1693.22L1301.6 1693.03C1302.39 1693.03 1302.79 1692.69 1302.79 1692.01L1302.88 1689.58C1303.01 1686.78 1301.72 1685.25 1299.03 1685C1254.38 1680.99 1248.79 1634.05 1247.78 1598.02C1246.56 1555.28 1246.31 1506.2 1247.05 1450.76C1247.11 1447.46 1248.24 1444.57 1250.45 1442.08C1278.96 1410.91 1342.32 1357.62 1387.52 1367.33C1419.15 1374.14 1435.56 1416.88 1443.81 1445.44C1458.06 1494.84 1471.87 1539.6 1485.26 1579.73C1495.7 1610.9 1507.62 1635.85 1521.01 1654.58C1551.82 1697.6 1624.9 1711.04 1656.71 1659.52C1660.42 1653.51 1658.93 1651.55 1652.2 1653.67Z" fill="#AD832D"/>
<path d="M2098.02 306.591C2380.95 540.342 2561.63 893.93 2561.63 1288.76C2561.63 1529.52 2494.55 1754.71 2377.84 1946.91C2391.53 1926.52 2404.6 1905.67 2417.05 1884.51C2512.76 1702.89 2563.5 1497.46 2563.5 1290.63C2563.5 894.705 2382.03 540.498 2098.02 306.591ZM2025.18 250.721C2008.85 238.894 1992.03 227.691 1975.07 216.794C1992.03 227.841 2008.68 239.05 2025.18 250.721ZM1974.29 216.326C1957.17 205.273 1939.59 194.539 1921.85 184.423C1939.59 194.695 1957.17 205.273 1974.29 216.326ZM270.789 2053.2C270.476 2053.36 270.476 2053.67 270.789 2053.98C279.654 2065.34 288.683 2076.55 297.711 2087.44C299.111 2089 300.51 2090.71 301.917 2092.26C291.332 2079.35 281.061 2066.27 271.101 2053.04L270.789 2053.2ZM15.713 1279.88C16.8069 1107.6 52.2894 943.258 115.781 793.55C53.838 937.348 17.8938 1094.54 13.8447 1259.03C14.4698 1266.03 15.095 1272.89 15.713 1279.88Z" fill="url(#paint0_linear_1107_35)"/>
<path d="M1288.6 0C578.005 0 0 578.154 0 1288.76C0 1999.35 578.005 2577.35 1288.6 2577.35C1999.19 2577.35 2577.2 1999.35 2577.2 1288.76C2577.2 578.161 1999.19 0 1288.6 0ZM2377.05 1948.3C2348.58 1990.95 2317.76 2032.03 2284.62 2070.94C2188.13 2184.55 2073.89 2279.32 1945.35 2352.78C1927.45 2363.05 1767.31 2452.23 1639.08 2455.66C1611.53 2456.44 1584.76 2453.94 1574.49 2452.86C1573.87 2452.86 1573.4 2452.86 1573.09 2452.7C1572.62 2452.7 1572.31 2452.7 1572 2452.54L1567.17 2451.92C1566.71 2451.92 1566.24 2451.92 1565.62 2451.76L1563.44 2451.45C1562.19 2451.29 1560.95 2451.14 1559.54 2450.83C1558.14 2450.67 1556.75 2450.51 1555.19 2450.2L1553.48 2449.89C1550.05 2449.42 1546.32 2448.64 1542.28 2447.86C1511.77 2442.1 1481.11 2432.92 1451.23 2420.47C1447.8 2419.07 1444.38 2417.67 1440.8 2416.11C1436.75 2414.24 1432.55 2412.37 1428.35 2410.5C1304.16 2351.99 1204.56 2251.6 1108.22 2154.5L1107.91 2154.19C1044.41 2090.23 968 2046.65 881.002 2024.55C823.413 2009.92 757.271 2002.45 672.923 2000.9C632.93 2000.27 596.354 1999.34 564.139 1997.94C519.479 1996.23 481.034 1991.41 446.951 1983.31C393.575 1970.55 350.775 1947.51 316.224 1912.96C291.169 1887.91 266.42 1859.89 242.922 1830.01C151.569 1713.76 83.5595 1580.23 46.2088 1443.74C31.4262 1389.58 21.1545 1334.49 15.706 1279.86C15.0809 1272.86 14.4629 1266.01 13.8378 1259.01C17.8868 1094.51 53.831 937.319 115.774 793.521C118.573 786.986 121.372 780.294 124.334 773.759C301.91 373.798 679.771 81.5279 1130 25.5019C1140.28 24.1025 1150.7 22.8522 1161.29 21.9217C1181.68 19.748 1202.38 18.1852 1223.22 17.2546C1232.25 16.7858 1241.43 16.3241 1250.62 16.1678C1263.22 15.6989 1275.83 15.5427 1288.58 15.5427C1344.92 15.5427 1400.48 19.2792 1454.95 26.4325C1473.01 28.7696 1490.75 31.4121 1508.48 34.5235C1512.22 35.1486 1515.96 35.9229 1519.69 36.548C1534.79 39.3468 1549.88 42.4653 1564.82 45.733C1640.45 62.5401 1713.76 86.0387 1783.63 115.767C1793.12 119.66 1802.62 123.858 1812.11 128.22C1849.62 145.183 1886.19 164.015 1921.83 184.402C1939.57 194.518 1957.15 205.258 1974.27 216.304C1974.59 216.617 1974.9 216.773 1975.05 216.773C1992.01 227.67 2008.82 238.873 2025.16 250.7C2033.72 256.923 2042.13 263.153 2050.69 269.219C2066.88 281.203 2082.59 293.648 2098 306.57C2382.02 540.477 2563.48 894.69 2563.48 1290.6C2563.48 1497.43 2512.75 1702.86 2417.03 1884.48C2404.58 1905.64 2391.51 1926.49 2377.81 1946.88C2377.68 1947.37 2377.37 1947.84 2377.05 1948.3ZM305.959 1928.08C329.465 1952.36 355.293 1971.5 383.772 1985.82C426.571 2006.98 475.905 2018.5 524.146 2024.41C583.596 2031.57 643.827 2033.43 703.895 2037.32C784.357 2042.46 864.195 2053.82 939.209 2083.39C986.831 2102.22 1030.87 2128.06 1071.18 2161.05C1077.87 2166.34 1087.21 2174.74 1099.2 2185.79C1117.25 2202.75 1135.3 2219.25 1153.04 2235.44C1207.36 2284.93 1263.54 2330.37 1323.92 2369.74C1357.69 2391.69 1392.86 2410.52 1430.06 2426.54C1437.53 2429.81 1445.16 2432.77 1452.93 2435.57C1453.09 2435.57 1453.25 2435.73 1453.09 2436.04C1453.09 2436.2 1452.93 2436.36 1452.78 2436.36L1452.62 2436.2C1389.43 2415.03 1329.52 2382.51 1274.58 2345.15C1214.51 2304.22 1155.37 2255.67 1100.43 2207.12C1053.59 2165.56 1001.76 2133.34 944.806 2110.47C843.957 2070.01 737.666 2060.52 627.325 2051.33C591.374 2048.38 558.229 2044.49 527.882 2039.66C490.844 2033.74 455.049 2025.19 420.497 2011.49C379.879 1995.46 344.709 1972.43 314.824 1942.39C252.263 1879.36 198.879 1808.87 154.524 1731.98C150.632 1725.29 146.746 1718.6 142.697 1711.91C139.273 1706.15 136.78 1699.93 133.512 1693.86C133.356 1693.7 133.512 1693.55 133.668 1693.39C133.825 1693.39 133.825 1693.23 133.981 1693.23C134.137 1693.23 134.137 1693.39 134.137 1693.55C140.047 1706 147.364 1717.83 154.368 1729.65C197.643 1802.33 248.221 1868.47 305.959 1928.08ZM217.1 1814.31C217.1 1814 217.256 1813.85 217.413 1813.69L217.881 1813.38C217.881 1813.22 217.881 1813.22 218.038 1813.38C244.648 1848.86 273.439 1882.47 304.567 1913.91C313.283 1922.94 322.46 1931.19 331.958 1938.82C390.939 1986.13 466.109 2000.76 539.88 2005.58C599.792 2009.32 662.978 2009 722.585 2011.65C767.252 2013.67 809.113 2018.49 848.02 2026.12C933.149 2042.92 1010.49 2078.72 1075.86 2136.3C1084.88 2144.23 1094.07 2152.95 1103.56 2162.29C1145.74 2204.78 1188.53 2246.8 1233.51 2286.17C1235.84 2288.2 1238.18 2290.21 1240.67 2292.24C1262.31 2310.91 1284.4 2328.96 1307.44 2346.08C1322.85 2357.44 1338.41 2368.34 1354.44 2378.45C1354.59 2378.45 1354.59 2378.61 1354.75 2378.61C1356.93 2380.01 1359.26 2381.41 1361.44 2382.81C1365.95 2385.61 1370.62 2388.41 1375.29 2391.06C1386.81 2397.75 1398.48 2404.13 1410.15 2410.2C1412.63 2411.44 1415.13 2412.69 1417.47 2413.78C1419.95 2415.02 1422.6 2416.27 1425.09 2417.52C1428.67 2419.23 1432.25 2420.94 1435.83 2422.5C1435.98 2422.65 1436.14 2422.81 1435.98 2422.96C1435.98 2423.12 1435.83 2423.12 1435.67 2423.12C1413.1 2413.79 1391.32 2403.2 1370.16 2391.22C1270.24 2334.88 1184.65 2258.78 1100.92 2180.34C1054.86 2137.08 1002.1 2103 943.428 2079.49C861.723 2046.81 771.457 2035.14 683.217 2030.78C636.219 2028.45 592.482 2025.65 551.708 2022.22C491.952 2017.09 429.228 2004.48 377.876 1976.78C352.821 1963.24 330.722 1945.81 310.335 1925.11C287.141 1901.3 265.198 1876.24 244.342 1849.78C235.164 1837.96 226.136 1826.28 217.263 1814.77C217.1 1814.62 217.1 1814.47 217.1 1814.31ZM1517.06 2474.33C1517.21 2474.33 1517.37 2474.49 1517.37 2474.8C1517.37 2474.96 1517.21 2474.96 1517.06 2474.96C1477.99 2471.84 1439.56 2465.15 1401.89 2454.88C1334.35 2436.52 1270.55 2409.75 1207.05 2375.67C1162.39 2351.55 1121.92 2326.49 1079.43 2298.94C1012.82 2255.99 938.747 2225.17 862.803 2202.92C796.192 2183.47 729.582 2169.47 661.728 2154.52C543.297 2128.68 423.303 2095.7 333.819 2011.81C321.523 2000.14 309.39 1987.68 297.406 1974.3C269.39 1942.71 244.804 1912.21 223.948 1883.11C201.536 1851.67 185.823 1827.7 179.749 1818.05C163.255 1791.75 150.802 1769.65 150.802 1768.87C151.264 1768.87 174.763 1809.65 208.384 1857.58C219.743 1873.92 230.014 1887.46 232.813 1891.04C257.868 1924.97 285.103 1957.18 314.362 1987.84C395.443 2072.35 508.894 2105.5 621.415 2127.6C655.036 2134.13 688.495 2140.52 721.796 2146.74C776.423 2157.01 825.914 2168.54 870.418 2181.29C938.584 2201.06 1005.51 2230.32 1064.49 2269.07C1074.29 2275.45 1084.72 2282.61 1095.62 2290.23C1182.3 2351.55 1270.07 2403.22 1367.5 2438.71C1415.59 2456.28 1465.39 2468.11 1517.06 2474.33ZM1466.17 2430.44C1471.46 2432.31 1476.6 2434.17 1481.58 2435.89C1478.62 2434.95 1475.51 2434.02 1472.55 2432.93C1471.46 2432.46 1470.37 2432.15 1469.28 2431.69C1468.19 2431.38 1467.25 2430.91 1466.17 2430.44ZM1493.56 2522.73C1349.6 2535.95 1205.34 2517.59 1066.68 2474.33C1028.24 2462.35 990.262 2450.36 952.599 2438.22C744.215 2371.31 533.807 2291.93 371.489 2139.89C323.086 2094.44 277.8 2042 235.783 1982.08C235.314 1981.31 234.227 1980.68 233.758 1979.74C233.133 1978.5 233.133 1978.5 234.07 1979.59C237.494 1983.17 239.824 1987.37 242.787 1991.1C264.886 2019.74 283.717 2043.23 299.431 2061.45C352.033 2122.92 413.195 2175.53 482.604 2219.57C566.952 2272.95 657.999 2313.26 752.775 2347.96C805.221 2367.1 870.275 2389.67 948.237 2415.34C988.699 2428.73 1030.57 2443.36 1067.29 2456.59C1153.67 2487.71 1242.53 2508.41 1333.73 2518.53C1374.82 2523.2 1416.52 2524.75 1458.85 2523.2C1470.83 2522.88 1483.13 2522.42 1495.74 2522.27C1496.05 2522.11 1496.36 2522.11 1496.68 2522.11C1496.68 2522.27 1496.68 2522.27 1496.68 2522.27H1495.74C1495.58 2522.27 1495.27 2522.27 1495.11 2522.42C1494.65 2522.57 1494.18 2522.73 1493.56 2522.73ZM1494.8 2530.2C1494.8 2530.2 1494.8 2530.2 1494.8 2530.36C1487.49 2530.67 1480.02 2532.23 1472.7 2533C1375.12 2542.65 1277.55 2539.69 1180.28 2523.66C1135.92 2516.34 1091.26 2506.54 1046.59 2493.94C1038.19 2491.6 1029.32 2489.11 1019.98 2486.62C856.104 2440.87 697.211 2382.2 553.1 2293.64C436.999 2222.37 338.799 2133.04 258.5 2025.34C258.187 2025.03 258.187 2024.72 258.5 2024.41L258.969 2024.1C258.969 2024.1 258.969 2024.1 259.125 2024.25C310.789 2093.51 370.552 2153.9 438.249 2205.56C621.11 2344.53 846.152 2412.39 1064.5 2481.02C1196.63 2522.58 1335.92 2541.41 1474.42 2531.29C1481.27 2530.83 1487.81 2529.58 1494.65 2530.05C1494.8 2530.04 1494.8 2530.04 1494.8 2530.2ZM223.01 1904.42L223.323 1903.95C223.479 1903.79 223.635 1903.79 223.792 1904.1C250.558 1940.83 279.818 1976.31 311.407 2010.4C320.28 2019.74 328.996 2028.6 338.017 2036.86C388.751 2083.55 451.156 2117.63 517.454 2142.22C557.298 2157 601.184 2170.38 648.956 2182.52C690.981 2193.26 732.373 2203.68 772.992 2213.96C831.973 2228.75 885.974 2245.25 934.996 2263.45C980.751 2280.26 1026.66 2301.59 1069.46 2326.8C1112.26 2352.16 1152.72 2375.04 1198.79 2397.45C1289.05 2441.18 1384.6 2472.92 1483.74 2483.2C1491.36 2483.98 1498.37 2485.38 1506 2485.38C1506.15 2485.38 1506.15 2485.38 1506.15 2485.53C1506.15 2485.69 1506 2485.85 1505.68 2485.85C1453.86 2483.82 1402.04 2476.36 1350.22 2463.13C1255.6 2439.16 1167.51 2400.1 1081.29 2352.79C1030.87 2325.09 977.327 2301.27 920.526 2281.35C812.516 2243.54 696.735 2217.24 593.399 2183.47C555.117 2171.01 518.541 2156.54 483.527 2139.89C424.39 2112.03 373.031 2076.55 329.458 2033.45C291.169 1995.63 258.649 1954.23 222.854 1904.43C222.854 1904.42 222.854 1904.42 223.01 1904.42ZM202.467 1863.64C202.31 1863.33 202.467 1863.02 202.623 1862.86L203.092 1862.55C203.248 1862.55 203.404 1862.55 203.404 1862.7C234.063 1907.84 268.921 1951.88 308.452 1994.52C346.428 2035.61 392.026 2068.75 445.402 2093.66C498.935 2118.87 558.541 2136.77 616.123 2150.15C659.853 2160.27 704.833 2170.38 750.892 2180.5C819.684 2195.44 892.361 2215.51 957.408 2242.44C995.846 2258.31 1029.93 2275.27 1059.5 2293.64C1078.02 2305.16 1096.38 2316.67 1114.6 2328.34C1187.27 2374.57 1267.11 2416.12 1348.19 2443.98C1401.26 2462.34 1455.88 2474.17 1512.38 2479.77C1512.53 2479.77 1512.69 2479.77 1512.69 2480.08C1512.69 2480.24 1512.54 2480.24 1512.38 2480.24C1499.15 2479.31 1485.92 2478.22 1472.85 2476.66C1460.24 2475.26 1447.33 2473.39 1434.25 2471.06C1326.25 2451.45 1222.76 2407.87 1125.96 2352.62C1104.01 2340.02 1082.38 2327.41 1061.21 2314.96C1040.83 2303.13 1015.61 2290.53 985.574 2277.3C876.946 2229.99 759.445 2204.61 644.594 2175.05C580.626 2158.71 515.423 2138.01 456.129 2109.06C402.127 2082.61 354.974 2048.37 315.13 2006.04C302.059 1992.5 289.294 1978.02 276.692 1962.77C249.784 1930.25 225.035 1897.26 202.467 1863.64ZM265.497 2007.6C276.543 2021.61 287.752 2034.99 298.649 2047.76C333.357 2088.07 371.326 2123.7 412.562 2154.52C519.791 2234.51 645.227 2283.85 771.905 2326.65C825.125 2344.7 878.196 2362.6 931.423 2380.49C971.885 2394.19 1020.29 2412.08 1076.62 2434.65C1153.35 2465.15 1232.1 2488.19 1310.37 2501.57C1354.26 2509.05 1399.86 2513.4 1447.02 2514.8C1462.74 2515.27 1478.46 2514.64 1494.17 2514.8H1494.33L1494.17 2514.96C1473.16 2516.51 1450.75 2517.29 1426.94 2516.98C1399.71 2516.67 1374.03 2515.27 1349.75 2513.09C1259.95 2504.68 1173.88 2486.17 1091.72 2457.53C1018.1 2431.85 941.063 2405.55 860.607 2378.63C732.217 2335.52 604.288 2287.74 490.212 2216.31C425.782 2175.85 368.201 2127.75 317.467 2071.88C287.426 2038.89 259.572 2004.03 233.893 1967.61C233.737 1967.45 233.737 1967.3 233.893 1967.3L234.049 1967.14C234.205 1967.14 234.205 1967.3 234.362 1967.3C244.641 1981.14 254.92 1994.53 265.497 2007.6ZM239.043 1937.88C238.887 1937.57 238.887 1937.41 239.199 1937.26C239.356 1937.1 239.512 1937.1 239.668 1937.41C242.311 1941.31 245.109 1945.04 247.915 1948.62C267.99 1973.52 288.072 1997.18 308.147 2019.74C352.651 2069.38 407.434 2109.22 469.533 2140.04C530.852 2170.38 599.479 2193.72 665.152 2212.09C716.042 2226.26 766.151 2240.42 815.642 2254.42C859.997 2267.18 903.108 2281.19 944.97 2296.91C987.307 2312.78 1030.1 2331.77 1070.4 2353.87C1132.97 2388.26 1196.93 2419.23 1262.76 2443.04C1323.61 2465.14 1385.71 2480.08 1449.05 2487.86C1455.43 2488.64 1461.49 2489.11 1467.41 2489.42C1468.19 2489.42 1468.19 2489.42 1467.41 2489.58C1461.34 2490.04 1455.43 2489.89 1449.52 2488.79C1445.78 2488.18 1442.04 2488.64 1438.46 2488.18C1377.15 2481.48 1317.23 2468.88 1258.87 2450.67C1193.35 2429.97 1130.48 2403.2 1068.69 2372.39C989.168 2332.71 901.702 2302.67 815.947 2276.99C758.678 2259.71 706.545 2243.68 659.547 2228.89C597.917 2209.44 533.487 2184.38 475.436 2153.72C414.118 2121.35 360.422 2080.27 314.206 2030.46C287.284 2001.53 262.229 1970.56 239.043 1937.88ZM240.911 1952.2C241.068 1952.2 241.067 1952.2 241.067 1952.35C259.899 1976.32 279.818 2000.29 300.517 2024.25C330.551 2058.65 363.391 2088.53 399.186 2114.05C484.472 2175.06 584.697 2212.87 684.609 2243.68C814.875 2283.84 949.644 2319.79 1070.57 2380.49C1132.04 2411.14 1195.53 2437.6 1260.59 2457.99C1336.69 2481.64 1414.51 2495.02 1493.88 2498.29C1494.03 2498.29 1494.19 2498.45 1494.19 2498.6C1494.19 2498.76 1494.19 2498.76 1494.03 2498.76C1472.25 2498.76 1451.86 2497.98 1433.03 2496.58C1320.05 2488.49 1208.77 2458.3 1103.41 2413.63C1077.57 2402.73 1051.89 2390.75 1025.28 2379.86C973.299 2358.54 918.836 2339.24 865.921 2322.12C818.767 2306.71 771.45 2291.46 724.14 2276.06C638.542 2248.19 553.42 2215.98 475.451 2171.48C415.844 2137.39 363.086 2095.84 317.488 2046.82C293.833 2021.45 272.508 1995.77 253.371 1969.78C249.322 1964.18 245.124 1958.43 240.762 1952.51C240.755 1952.35 240.755 1952.35 240.911 1952.2ZM1456.68 2508.26C1383.06 2507.17 1310.07 2497.52 1237.55 2479.47C1187.44 2467.01 1141.85 2452.7 1101.06 2436.82C1070.09 2424.68 1039.75 2413.01 1010.17 2401.81C974.535 2388.11 934.073 2374.11 895.01 2361.19C828.4 2339.09 770.193 2319.33 720.709 2301.74C641.028 2273.58 561.816 2240.11 488.67 2197.16C423.303 2158.72 365.565 2112.03 315.3 2057.09C289.777 2029.24 265.966 1999.83 243.866 1969.17C243.866 1969.01 243.866 1968.85 243.866 1968.85H244.016C244.172 1968.7 244.328 1968.7 244.484 1968.85C246.353 1971.18 248.065 1973.52 249.933 1975.7C266.896 1997.49 284.641 2018.81 303.004 2039.97C332.263 2073.28 364.166 2103 398.874 2128.99C465.172 2178.64 539.248 2215.05 618.304 2245.4C647.407 2256.6 674.642 2266.41 699.697 2274.81C744.833 2289.74 791.205 2304.84 838.984 2320.1C876.804 2332.24 913.998 2344.84 950.574 2358.07C983.876 2370.06 1012.67 2381.42 1037.1 2392C1057.02 2400.72 1077.25 2409.43 1097.64 2418.3C1238.8 2479.15 1393.18 2514.02 1546.32 2503.12C1553.17 2502.65 1560.17 2502.18 1567.48 2501.72L1567.64 2501.88C1567.64 2501.88 1567.64 2501.88 1567.64 2502.03C1567.64 2502.03 1567.64 2502.04 1567.48 2502.19C1528.89 2506.86 1492 2508.88 1456.68 2508.26ZM1518.46 2446.63C1514.56 2445.7 1510.68 2444.76 1506.79 2443.67C1501.18 2442.12 1495.58 2440.56 1489.98 2438.69C1488.11 2438.07 1486.24 2437.6 1484.38 2436.98C1484.07 2436.82 1483.76 2436.67 1483.29 2436.51C1496.83 2440.87 1509.28 2444.29 1520.48 2447.1C1519.86 2446.94 1519.08 2446.78 1518.46 2446.63ZM197.018 1829.1C229.702 1878.43 266.74 1924.8 307.983 1968.54C347.202 2009.78 393.887 2040.29 448.67 2061.14C502.203 2081.52 559.323 2093.82 615.818 2102.85C657.523 2109.38 697.992 2115.92 737.055 2122.31C798.991 2132.42 862.952 2146.74 919.759 2167.13C981.695 2189.38 1037.57 2219.57 1087.52 2257.86C1161.6 2314.51 1236.77 2366.02 1318.48 2405.87C1351.79 2422.05 1386.8 2435.9 1423.37 2447.42C1434.11 2450.84 1444.69 2453.79 1454.65 2455.98C1454.81 2456.13 1454.81 2456.13 1454.81 2456.29L1454.65 2456.76C1454.65 2456.91 1454.5 2457.07 1454.19 2456.91C1408.74 2446.95 1364.08 2432.33 1320.2 2413.18C1238.33 2377.7 1161.62 2330.08 1088.93 2278.56C1042.86 2246.04 993.225 2219.58 939.841 2198.88C871.05 2172.27 797.442 2155.15 724.765 2141.46C668.427 2131.03 612.088 2120.91 556.218 2107.22C518.711 2098.03 484.01 2086.67 451.952 2073.45C396.238 2050.1 348.147 2016.65 307.529 1972.91C267.685 1929.95 231.584 1884.51 199.369 1836.58C182.875 1812.14 168.71 1789.27 157.352 1767.94C156.109 1765.92 155.483 1764.36 155.171 1763.74C155.483 1763.74 156.265 1765.14 157.821 1767.64C170.877 1789.1 183.948 1809.48 197.018 1829.1ZM159.049 1759.69C159.049 1759.69 159.206 1759.53 159.206 1759.69C163.255 1764.04 165.592 1770.12 168.859 1775.1C177.419 1787.85 185.51 1800.15 193.296 1811.82C220.68 1853.22 252.121 1893.84 287.447 1933.52C301.299 1949.24 314.682 1962.94 327.753 1974.61C367.284 2010.71 416.924 2035.46 469.682 2050.86C506.571 2061.76 547.183 2070.17 591.538 2075.92C636.049 2081.84 681.959 2087.75 729.269 2093.66C780.159 2100.04 829.962 2110.01 878.672 2123.54C944.813 2142.06 1005.67 2171.01 1061.06 2210.38C1078.65 2222.84 1097.95 2239.02 1116.32 2253.96C1180.59 2306.09 1247.98 2354.81 1320.81 2394.17C1366.41 2418.76 1414.19 2438.06 1463.99 2452.07C1464.31 2452.07 1464.31 2452.22 1464.31 2452.54C1464.31 2452.69 1464.15 2452.69 1463.99 2452.69C1424.93 2443.36 1386.49 2430.44 1348.98 2413.94C1257 2373.48 1174.68 2316.99 1094.84 2256.14C1044.42 2217.86 990.106 2187.35 930.187 2165.1C872.918 2143.78 809.732 2128.53 748.882 2118.56C699.391 2110.47 651.769 2102.68 605.702 2095.38C576.755 2090.71 545.627 2084.17 512.474 2075.77C480.885 2067.68 450.382 2056.78 420.497 2042.93C379.723 2023.94 343.615 1997.95 312.182 1965.12C270.476 1921.39 232.657 1874.54 198.886 1824.43C183.791 1802.02 170.564 1780.54 159.049 1759.69ZM1463.21 2429.51C1462.59 2429.19 1461.81 2428.89 1461.19 2428.58C1462.59 2429.2 1464.14 2429.82 1465.55 2430.29C1464.77 2429.98 1464.14 2429.82 1463.21 2429.51ZM1461.34 2444.45C1461.49 2444.6 1461.66 2444.76 1461.49 2444.91C1461.49 2445.06 1461.34 2445.22 1461.19 2445.22C1448.12 2441.8 1435.82 2438.06 1424.3 2434.02C1305.4 2391.69 1200.66 2316.52 1101.06 2234.35C1091.25 2226.26 1081.45 2218.63 1071.65 2211.47C1010.33 2166.03 939.99 2134.43 866.063 2114.67C787.469 2093.81 709.031 2084.94 624.058 2074.83C565.695 2067.83 503.758 2057.4 446.951 2037.79C396.061 2020.21 351.088 1991.88 313.581 1953.45C252.263 1890.73 199.817 1821.16 156.393 1744.75C156.236 1744.59 156.236 1744.44 156.393 1744.44C156.549 1744.44 156.549 1744.44 156.549 1744.44C156.705 1744.44 156.705 1744.44 156.705 1744.44C166.977 1761.09 177.554 1777.58 188.295 1793.77C218.641 1839.21 252.725 1882.79 290.693 1924.65C300.191 1935.24 310.15 1945.35 320.578 1955.16C379.403 2010.87 457.528 2034.99 537.209 2046.51C587.474 2053.67 637.128 2057.71 687.543 2062.23C765.824 2069.08 842.856 2080.28 914.758 2105.03C980.118 2127.6 1037.86 2160.43 1087.97 2203.54C1123.77 2234.36 1146.95 2254.28 1157.85 2263.3C1193.49 2293.03 1229.75 2320.72 1266.63 2346.09C1325.15 2386.71 1386.47 2419.55 1453.23 2442.11C1455.9 2443.05 1458.54 2443.83 1461.34 2444.45ZM270.789 2053.2L271.102 2053.05L271.251 2052.89H271.407C337.854 2137.86 415.979 2210.85 505.932 2271.7C594.486 2331.78 690.817 2380.02 790.268 2418.46C875.085 2451.14 965.35 2480.09 1061.37 2505.46C1106.82 2517.44 1151.48 2526.78 1195.36 2533.32C1317.06 2551.53 1437.68 2549.81 1557.2 2527.87C1560.94 2527.25 1564.36 2526 1568.25 2526C1568.4 2526 1568.4 2526 1568.4 2526C1568.4 2526.16 1568.4 2526.16 1568.25 2526.16C1557.97 2528.49 1547.7 2530.67 1537.27 2532.69C1445.61 2549.97 1353.63 2556.04 1261.19 2550.74C1190.07 2546.7 1119.41 2536.58 1049.54 2520.24C876.484 2479.94 713.385 2417.53 565.851 2322.75C465.783 2258.63 377.854 2181.75 301.91 2092.26C300.51 2090.71 299.104 2089 297.704 2087.44C288.676 2076.54 279.647 2065.34 270.782 2053.98C270.483 2053.66 270.484 2053.36 270.789 2053.2ZM1384.16 2558.21C1352.72 2560.55 1320.81 2561.79 1288.6 2561.79C984.345 2561.79 704.527 2454.41 485.246 2275.59C508.589 2293.03 532.556 2309.83 557.305 2326.01C720.404 2431.69 909.018 2501.25 1100.76 2538.6C1112.59 2540.78 1124.73 2542.97 1137.33 2544.98C1219.5 2558.05 1301.67 2562.57 1384.16 2558.21Z" fill="url(#paint1_linear_1107_35)"/>
<path d="M596.943 1857.94C570.93 1857.94 549.847 1842.77 549.847 1824.05V1799.25H580.584V1824.05C580.584 1830.43 588.071 1835.82 596.943 1835.82H643.642C648.572 1835.82 652.905 1832.71 652.905 1828.87L652.508 1732.18H683.444V1835.82C683.444 1848.01 669.848 1857.94 652.898 1857.94H596.943V1857.94Z" fill="#276934"/>
<path d="M718.919 1732.19H749.664V1839.23H718.919V1732.19Z" fill="#276934"/>
<path d="M762.471 1868.86L767.202 1847.03C772.722 1847.74 803.857 1849.86 813.511 1842.64C818.043 1839.94 820.018 1835.68 820.018 1829.45V1768.34H850.954V1829.45C850.954 1845.76 841.492 1854.83 833.614 1859.79C824.94 1865.04 813.12 1868.73 797.549 1870.01C785.92 1870.99 769.959 1870.7 762.471 1868.86ZM854.498 1743.67C854.498 1750.47 846.812 1756 837.35 1756C827.888 1756 820.209 1750.47 820.209 1743.67C820.209 1737.01 827.895 1731.47 837.35 1731.47C846.805 1731.47 854.498 1737.01 854.498 1743.67Z" fill="#276934"/>
<path d="M988.501 1865.45C973.526 1874.39 952.045 1876.65 934.116 1876.65C916.776 1876.65 902.782 1874.52 900.025 1873.96L906.724 1852.7C917.955 1854.39 954.02 1857.37 969.584 1848.43C971.949 1846.88 975.302 1844.33 976.68 1839.5H927.815C900.622 1839.5 878.551 1823.34 878.551 1803.78C878.551 1784.21 900.622 1768.33 927.815 1768.33H1007.82V1837.1C1007.81 1849.29 999.142 1859.36 988.501 1865.45ZM927.808 1817.53H977.27V1790.17H927.808C917.564 1790.17 909.09 1796.41 909.09 1803.78C909.083 1811.44 917.557 1817.53 927.808 1817.53Z" fill="#276934"/>
<path d="M1131.76 1817.11V1839.23H1116.59C1113.04 1839.23 1109.49 1838.8 1106.14 1838.23C1103.58 1849.15 1096.09 1855.81 1089.78 1859.78C1081.11 1865.03 1069.29 1868.71 1053.72 1869.99C1042.09 1870.99 1026.14 1870.7 1018.64 1868.86L1023.37 1847.03C1028.89 1847.74 1060.03 1849.86 1069.68 1842.64C1074.21 1839.94 1076.19 1835.68 1076.19 1829.45V1768.34H1107.12V1810.31C1107.12 1814 1111.45 1817.11 1116.58 1817.11H1131.76Z" fill="#276934"/>
<path d="M1204.07 1817.11V1839.23H1127.82V1817.11H1204.07Z" fill="#276934"/>
<path d="M1276.4 1817.11V1839.23H1200.14V1817.11H1276.4Z" fill="#276934"/>
<path d="M1348.72 1817.11V1839.23H1272.46V1817.11H1348.72Z" fill="#276934"/>
<path d="M1421.03 1817.11V1839.23H1344.77V1817.11H1421.03Z" fill="#276934"/>
<path d="M1493.35 1817.11V1839.23H1417.1V1817.11H1493.35Z" fill="#276934"/>
<path d="M1640.95 1767.76V1826.47C1640.95 1833.56 1632.87 1839.23 1623.02 1839.23H1488.82V1817.11H1515.03C1512.67 1813 1511.29 1808.46 1511.29 1803.35C1511.29 1783.79 1533.56 1767.76 1560.94 1767.76H1640.95ZM1610.61 1789.74H1560.95C1550.31 1789.74 1542.03 1795.99 1542.03 1803.35C1542.03 1811.15 1550.31 1817.11 1560.95 1817.11H1605.29C1608.25 1817.11 1610.61 1815.42 1610.61 1813.28V1789.74ZM1601.94 1743.67C1601.94 1750.47 1594.25 1756 1584.79 1756C1575.34 1756 1567.65 1750.47 1567.65 1743.67C1567.65 1737.01 1575.34 1731.47 1584.79 1731.47C1594.25 1731.47 1601.94 1737.01 1601.94 1743.67Z" fill="#276934"/>
<defs>
<linearGradient id="paint0_linear_1107_35" x1="199.903" y1="639.705" x2="2430.75" y2="1859.45" gradientUnits="userSpaceOnUse">
<stop offset="0.0391" stop-color="#276934"/>
<stop offset="0.486" stop-color="#AD832D"/>
<stop offset="1" stop-color="#276934"/>
</linearGradient>
<linearGradient id="paint1_linear_1107_35" x1="158.13" y1="670.6" x2="2419.1" y2="1906.81" gradientUnits="userSpaceOnUse">
<stop offset="0.0391" stop-color="#276934"/>
<stop offset="0.486" stop-color="#AD832D"/>
<stop offset="1" stop-color="#276934"/>
</linearGradient>
</defs>
</svg>
