<svg width="76" height="100" viewBox="0 0 76 100" fill="none" xmlns="http://www.w3.org/2000/svg">
<g clip-path="url(#clip0_1105_1850)">
<path d="M40.2856 39.9819C39.7831 40.3156 39.4615 40.6975 38.9127 41.0292C38.8303 41.0774 38.8042 41.1438 38.8363 41.2342L39.1841 42.2654C39.2263 42.388 39.2886 42.4021 39.373 42.3056C39.8956 41.6985 40.2615 40.9709 40.4705 40.1166C40.5188 39.9116 40.4585 39.8674 40.2856 39.9819Z" fill="#276934"/>
<path d="M30.6393 54.6855C29.1378 54.5669 28.6534 53.2041 28.4946 51.8211V44.0784C28.4926 43.9478 28.5328 43.8312 28.6152 43.7327C29.4011 42.7779 30.382 42.4724 31.5539 42.8201C33.789 43.4814 35.8775 44.5086 38.181 43.4533C38.3358 43.385 38.382 43.2704 38.3197 43.1076L37.7006 41.4432C37.6544 41.3146 37.5659 41.2282 37.4373 41.184C34.9388 40.3498 31.9921 38.9206 29.7187 40.9789C29.3127 41.3448 29.0413 41.8573 28.7358 42.3056C28.5709 42.5468 28.4885 42.5206 28.4885 42.2272V29.797C28.4885 29.6221 28.577 29.5317 28.7518 29.5297C30.8021 29.5116 32.7559 29.5136 34.6132 29.5377C38.2373 29.584 40.9348 31.0593 42.7036 33.9578C43.3307 34.987 43.4915 34.9146 43.19 33.7448C42.8423 32.398 42.4122 30.8221 41.8976 29.0131C41.8694 28.9186 41.781 28.8523 41.6805 28.8523L22.5629 28.8724C22.5368 28.8724 22.5247 28.8865 22.5247 28.9126L22.5207 29.0191C22.5187 29.1377 22.575 29.2 22.6915 29.2081C24.9428 29.3649 24.9187 32.4824 24.9227 34.2352C24.9328 39.8191 24.9227 45.1096 24.8926 50.1046C24.8905 50.4583 24.8845 50.8583 24.8604 51.2724C24.7639 52.8201 24.3679 54.5568 22.6654 54.6915C22.5589 54.6995 22.5106 54.7558 22.5187 54.8603L22.5267 54.9749C22.5267 54.989 22.5328 54.995 22.5468 54.995H30.7579C30.7699 54.995 30.778 54.989 30.778 54.9749L30.786 54.8603C30.7941 54.7558 30.7438 54.6995 30.6393 54.6915V54.6855Z" fill="#276934"/>
<path d="M54.4844 69.4673C53.4714 69.7869 52.6714 69.4432 52.0864 68.4362C50.5367 65.7588 49.7709 62.3698 48.7759 59.395C48.2091 57.7005 47.1357 56.7316 45.5538 56.4904C45.0251 56.41 45.0131 56.2733 45.5156 56.0844C48.6874 54.8884 52.9166 53.208 51.9618 48.798C50.9447 44.1186 43.8171 45.0352 40.5186 44.9869C40.3337 44.9849 40.2633 45.0754 40.3096 45.2583L40.3357 45.3608C40.392 45.5779 40.5307 45.6864 40.7498 45.6844C41.2663 45.6784 45.6261 45.7568 47.0673 46.7879C47.3749 47.007 47.6141 47.2844 47.6141 47.2844C48.004 47.7326 48.1749 48.1929 48.2673 48.4482C48.2673 48.4482 48.4161 48.8563 48.4744 49.2643C48.5769 49.9638 48.2834 52.4 45.1839 54.3377C43.3528 55.4814 41.5658 56.607 39.8211 57.7105C39.0332 58.211 38.3276 58.8844 37.6161 59.5095C37.59 59.5336 37.5558 59.5457 37.5216 59.5457C37.4412 59.5457 37.3729 59.4814 37.3729 59.399L37.3769 55.196C37.3769 52.1045 37.3789 49.011 37.3809 45.9196C37.3809 45.7648 37.4573 45.6864 37.6101 45.6864L39.0292 45.6703C38.9025 45.4452 38.7759 45.2181 38.6493 44.9929L31.5337 45.005C31.4553 45.005 31.391 45.0673 31.3869 45.1457L31.3789 45.2643C31.3789 45.2924 31.393 45.3085 31.4211 45.3125C32.6352 45.3889 33.3407 46.0603 33.5397 47.3286C33.795 48.9608 33.8834 50.9407 33.8111 53.2663C33.8111 54.2231 33.8151 55.1799 33.8171 56.1367C33.8372 60.0402 33.8211 63.6844 33.7648 67.0673C33.7407 68.6151 33.4432 70.7437 31.4412 70.7879C31.405 70.7899 31.389 70.81 31.391 70.8462L31.395 70.9809C31.401 71.0854 31.4533 71.1377 31.5538 71.1377L39.6945 71.1296C39.7287 71.1296 39.7447 71.1156 39.7447 71.0854L39.7488 70.9829C39.7548 70.8643 39.7005 70.8 39.5859 70.7899C37.7025 70.6211 37.4673 68.6412 37.4251 67.1216C37.3729 65.3186 37.3628 63.2482 37.395 60.9105C37.397 60.7718 37.4452 60.6492 37.5377 60.5447C38.7397 59.2301 41.4131 56.9829 43.3186 57.3909C44.6533 57.6784 45.3447 59.4814 45.6925 60.6854C46.2935 62.7698 46.8764 64.6573 47.4412 66.3497C47.8814 67.6643 48.3839 68.7176 48.9488 69.5055C50.2472 71.3206 53.3307 71.8874 54.6714 69.7146C54.8281 69.4593 54.7658 69.3769 54.4824 69.4673H54.4844Z" fill="#AD832D"/>
<path d="M24.9829 8.81211C24.6754 8.18095 24.0884 8.02819 23.2683 8.42819L21.8191 9.13573L22.7879 11.1196L24.197 10.4322C25.1156 9.98196 25.2985 9.45935 24.9829 8.8101V8.81211ZM24.9829 8.81211C24.6754 8.18095 24.0884 8.02819 23.2683 8.42819L21.8191 9.13573L22.7879 11.1196L24.197 10.4322C25.1156 9.98196 25.2985 9.45935 24.9829 8.8101V8.81211ZM24.9829 8.81211C24.6754 8.18095 24.0884 8.02819 23.2683 8.42819L21.8191 9.13573L22.7879 11.1196L24.197 10.4322C25.1156 9.98196 25.2985 9.45935 24.9829 8.8101V8.81211ZM35.8171 8.00206C35.606 6.37995 34.7739 5.19402 33.1779 5.40307C31.6301 5.60608 31.1116 6.8905 31.3306 8.55683C31.5497 10.2312 32.4502 11.399 33.9678 11.2001C35.6161 10.985 36.0181 9.52769 35.8191 8.00005L35.8171 8.00206ZM24.9829 8.81211C24.6754 8.18095 24.0884 8.02819 23.2683 8.42819L21.8191 9.13573L22.7879 11.1196L24.197 10.4322C25.1156 9.98196 25.2985 9.45935 24.9829 8.8101V8.81211ZM35.8171 8.00206C35.606 6.37995 34.7739 5.19402 33.1779 5.40307C31.6301 5.60608 31.1116 6.8905 31.3306 8.55683C31.5497 10.2312 32.4502 11.399 33.9678 11.2001C35.6161 10.985 36.0181 9.52769 35.8191 8.00005L35.8171 8.00206ZM24.9829 8.81211C24.6754 8.18095 24.0884 8.02819 23.2683 8.42819L21.8191 9.13573L22.7879 11.1196L24.197 10.4322C25.1156 9.98196 25.2985 9.45935 24.9829 8.8101V8.81211ZM35.8171 8.00206C35.606 6.37995 34.7739 5.19402 33.1779 5.40307C31.6301 5.60608 31.1116 6.8905 31.3306 8.55683C31.5497 10.2312 32.4502 11.399 33.9678 11.2001C35.6161 10.985 36.0181 9.52769 35.8191 8.00005L35.8171 8.00206ZM52.8141 8.77593C52.2312 9.43322 51.2221 10.4362 50.0643 11.592L52.1588 12.6835C52.4583 10.782 52.6492 9.56789 52.8241 8.78397L52.8141 8.77794V8.77593ZM24.9829 8.81211C24.6754 8.18095 24.0884 8.02819 23.2683 8.42819L21.8191 9.13573L22.7879 11.1196L24.197 10.4322C25.1156 9.98196 25.2985 9.45935 24.9829 8.8101V8.81211ZM35.8171 8.00206C35.606 6.37995 34.7739 5.19402 33.1779 5.40307C31.6301 5.60608 31.1116 6.8905 31.3306 8.55683C31.5497 10.2312 32.4502 11.399 33.9678 11.2001C35.6161 10.985 36.0181 9.52769 35.8191 8.00005L35.8171 8.00206ZM52.8141 8.77593C52.2312 9.43322 51.2221 10.4362 50.0643 11.592L52.1588 12.6835C52.4583 10.782 52.6492 9.56789 52.8241 8.78397L52.8141 8.77794V8.77593ZM24.9829 8.81211C24.6754 8.18095 24.0884 8.02819 23.2683 8.42819L21.8191 9.13573L22.7879 11.1196L24.197 10.4322C25.1156 9.98196 25.2985 9.45935 24.9829 8.8101V8.81211ZM25.7608 90.7237C25.5719 90.6473 25.391 90.6171 25.2221 90.6352C25.0513 90.6533 24.9045 90.7056 24.7779 90.792C24.6513 90.8784 24.5628 90.989 24.5085 91.1217C24.4583 91.2463 24.4482 91.3769 24.4744 91.5136C24.5025 91.6523 24.5729 91.783 24.6854 91.9056C24.8 92.0282 24.9528 92.1267 25.1477 92.2051L25.5759 92.3759L26.1487 90.9488C26.0181 90.8503 25.8894 90.7719 25.7588 90.7217L25.7608 90.7237ZM35.8171 8.00206C35.606 6.37995 34.7739 5.19402 33.1779 5.40307C31.6301 5.60608 31.1116 6.8905 31.3306 8.55683C31.5497 10.2312 32.4502 11.399 33.9678 11.2001C35.6161 10.985 36.0181 9.52769 35.8191 8.00005L35.8171 8.00206ZM52.8141 8.77593C52.2312 9.43322 51.2221 10.4362 50.0643 11.592L52.1588 12.6835C52.4583 10.782 52.6492 9.56789 52.8241 8.78397L52.8141 8.77794V8.77593ZM60.5186 81.5016C60.3678 81.6121 60.2392 81.7287 60.1347 81.8493C59.992 82.0161 59.8955 82.183 59.8513 82.3518C59.803 82.5207 59.801 82.6795 59.8432 82.8262C59.8854 82.9749 59.9678 83.0975 60.0864 83.2021C60.2372 83.3327 60.4121 83.4171 60.6111 83.4573C60.6332 83.4634 60.6553 83.4654 60.6794 83.4674L61.5839 82.4101L60.5206 81.4995L60.5186 81.5016ZM60.5186 81.5016C60.3678 81.6121 60.2392 81.7287 60.1347 81.8493C59.992 82.0161 59.8955 82.183 59.8513 82.3518C59.803 82.5207 59.801 82.6795 59.8432 82.8262C59.8854 82.9749 59.9678 83.0975 60.0864 83.2021C60.2372 83.3327 60.4121 83.4171 60.6111 83.4573C60.6332 83.4634 60.6553 83.4654 60.6794 83.4674L61.5839 82.4101L60.5206 81.4995L60.5186 81.5016ZM25.7608 90.7257C25.5719 90.6493 25.391 90.6191 25.2221 90.6372C25.0513 90.6553 24.9045 90.7076 24.7779 90.794C24.6513 90.8805 24.5628 90.991 24.5085 91.1237C24.4583 91.2483 24.4482 91.379 24.4744 91.5156C24.5025 91.6543 24.5729 91.785 24.6854 91.9076C24.8 92.0302 24.9528 92.1287 25.1477 92.2071L25.5759 92.3779L26.1487 90.9508C26.0181 90.8523 25.8894 90.7739 25.7588 90.7237L25.7608 90.7257ZM24.9829 8.81412C24.6754 8.18296 24.0884 8.0302 23.2683 8.4302L21.8191 9.13774L22.7879 11.1217L24.197 10.4342C25.1156 9.98397 25.2985 9.46136 24.9829 8.81211V8.81412ZM35.8171 8.00407C35.606 6.38196 34.7739 5.19603 33.1779 5.40508C31.6301 5.60809 31.1116 6.89251 31.3306 8.55884C31.5497 10.2332 32.4502 11.4011 33.9678 11.2021C35.6161 10.987 36.0181 9.5297 35.8191 8.00206L35.8171 8.00407ZM52.8141 8.77794C52.2312 9.43523 51.2221 10.4382 50.0643 11.594L52.1588 12.6855C52.4583 10.784 52.6492 9.5699 52.8241 8.78598L52.8141 8.77995V8.77794ZM24.9829 8.81412C24.6754 8.18296 24.0884 8.0302 23.2683 8.4302L21.8191 9.13774L22.7879 11.1217L24.197 10.4342C25.1156 9.98397 25.2985 9.46136 24.9829 8.81211V8.81412ZM25.7608 90.7257C25.5719 90.6493 25.391 90.6191 25.2221 90.6372C25.0513 90.6553 24.9045 90.7076 24.7779 90.794C24.6513 90.8805 24.5628 90.991 24.5085 91.1237C24.4583 91.2483 24.4482 91.379 24.4744 91.5156C24.5025 91.6543 24.5729 91.785 24.6854 91.9076C24.8 92.0302 24.9528 92.1287 25.1477 92.2071L25.5759 92.3779L26.1487 90.9508C26.0181 90.8523 25.8894 90.7739 25.7588 90.7237L25.7608 90.7257ZM35.8171 8.00206C35.606 6.37995 34.7739 5.19402 33.1779 5.40307C31.6301 5.60608 31.1116 6.8905 31.3306 8.55683C31.5497 10.2312 32.4502 11.399 33.9678 11.2001C35.6161 10.985 36.0181 9.52769 35.8191 8.00005L35.8171 8.00206ZM52.8141 8.77593C52.2312 9.43322 51.2221 10.4362 50.0643 11.592L52.1588 12.6835C52.4583 10.782 52.6492 9.56789 52.8241 8.78397L52.8141 8.77794V8.77593ZM60.5186 81.5016C60.3678 81.6121 60.2392 81.7287 60.1347 81.8493C59.992 82.0161 59.8955 82.183 59.8513 82.3518C59.803 82.5207 59.801 82.6795 59.8432 82.8262C59.8854 82.9749 59.9678 83.0975 60.0864 83.2021C60.2372 83.3327 60.4121 83.4171 60.6111 83.4573C60.6332 83.4634 60.6553 83.4654 60.6794 83.4674L61.5839 82.4101L60.5206 81.4995L60.5186 81.5016ZM60.5186 81.5016C60.3678 81.6121 60.2392 81.7287 60.1347 81.8493C59.992 82.0161 59.8955 82.183 59.8513 82.3518C59.803 82.5207 59.801 82.6795 59.8432 82.8262C59.8854 82.9749 59.9678 83.0975 60.0864 83.2021C60.2372 83.3327 60.4121 83.4171 60.6111 83.4573C60.6332 83.4634 60.6553 83.4654 60.6794 83.4674L61.5839 82.4101L60.5206 81.4995L60.5186 81.5016ZM25.7608 90.7257C25.5719 90.6493 25.391 90.6191 25.2221 90.6372C25.0513 90.6553 24.9045 90.7076 24.7779 90.794C24.6513 90.8805 24.5628 90.991 24.5085 91.1237C24.4583 91.2483 24.4482 91.379 24.4744 91.5156C24.5025 91.6543 24.5729 91.785 24.6854 91.9076C24.8 92.0302 24.9528 92.1287 25.1477 92.2071L25.5759 92.3779L26.1487 90.9508C26.0181 90.8523 25.8894 90.7739 25.7588 90.7237L25.7608 90.7257ZM24.9829 8.81412C24.6754 8.18296 24.0884 8.0302 23.2683 8.4302L21.8191 9.13774L22.7879 11.1217L24.197 10.4342C25.1156 9.98397 25.2985 9.46136 24.9829 8.81211V8.81412ZM35.8171 8.00407C35.606 6.38196 34.7739 5.19603 33.1779 5.40508C31.6301 5.60809 31.1116 6.89251 31.3306 8.55884C31.5497 10.2332 32.4502 11.4011 33.9678 11.2021C35.6161 10.987 36.0181 9.5297 35.8191 8.00206L35.8171 8.00407ZM52.8141 8.77794C52.2312 9.43523 51.2221 10.4382 50.0643 11.594L52.1588 12.6855C52.4583 10.784 52.6492 9.5699 52.8241 8.78598L52.8141 8.77995V8.77794ZM24.9829 8.81412C24.6754 8.18296 24.0884 8.0302 23.2683 8.4302L21.8191 9.13774L22.7879 11.1217L24.197 10.4342C25.1156 9.98397 25.2985 9.46136 24.9829 8.81211V8.81412ZM25.7608 90.7257C25.5719 90.6493 25.391 90.6191 25.2221 90.6372C25.0513 90.6553 24.9045 90.7076 24.7779 90.794C24.6513 90.8805 24.5628 90.991 24.5085 91.1237C24.4583 91.2483 24.4482 91.379 24.4744 91.5156C24.5025 91.6543 24.5729 91.785 24.6854 91.9076C24.8 92.0302 24.9528 92.1287 25.1477 92.2071L25.5759 92.3779L26.1487 90.9508C26.0181 90.8523 25.8894 90.7739 25.7588 90.7237L25.7608 90.7257ZM35.8171 8.00206C35.606 6.37995 34.7739 5.19402 33.1779 5.40307C31.6301 5.60608 31.1116 6.8905 31.3306 8.55683C31.5497 10.2312 32.4502 11.399 33.9678 11.2001C35.6161 10.985 36.0181 9.52769 35.8191 8.00005L35.8171 8.00206ZM52.8141 8.77593C52.2312 9.43322 51.2221 10.4362 50.0643 11.592L52.1588 12.6835C52.4583 10.782 52.6492 9.56789 52.8241 8.78397L52.8141 8.77794V8.77593ZM60.5186 81.5016C60.3678 81.6121 60.2392 81.7287 60.1347 81.8493C59.992 82.0161 59.8955 82.183 59.8513 82.3518C59.803 82.5207 59.801 82.6795 59.8432 82.8262C59.8854 82.9749 59.9678 83.0975 60.0864 83.2021C60.2372 83.3327 60.4121 83.4171 60.6111 83.4573C60.6332 83.4634 60.6553 83.4654 60.6794 83.4674L61.5839 82.4101L60.5206 81.4995L60.5186 81.5016ZM60.5186 81.5016C60.3678 81.6121 60.2392 81.7287 60.1347 81.8493C59.992 82.0161 59.8955 82.183 59.8513 82.3518C59.803 82.5207 59.801 82.6795 59.8432 82.8262C59.8854 82.9749 59.9678 83.0975 60.0864 83.2021C60.2372 83.3327 60.4121 83.4171 60.6111 83.4573C60.6332 83.4634 60.6553 83.4654 60.6794 83.4674L61.5839 82.4101L60.5206 81.4995L60.5186 81.5016ZM25.7608 90.7257C25.5719 90.6493 25.391 90.6191 25.2221 90.6372C25.0513 90.6553 24.9045 90.7076 24.7779 90.794C24.6513 90.8805 24.5628 90.991 24.5085 91.1237C24.4583 91.2483 24.4482 91.379 24.4744 91.5156C24.5025 91.6543 24.5729 91.785 24.6854 91.9076C24.8 92.0302 24.9528 92.1287 25.1477 92.2071L25.5759 92.3779L26.1487 90.9508C26.0181 90.8523 25.8894 90.7739 25.7588 90.7237L25.7608 90.7257ZM24.9829 8.81412C24.6754 8.18296 24.0884 8.0302 23.2683 8.4302L21.8191 9.13774L22.7879 11.1217L24.197 10.4342C25.1156 9.98397 25.2985 9.46136 24.9829 8.81211V8.81412ZM35.8171 8.00407C35.606 6.38196 34.7739 5.19603 33.1779 5.40508C31.6301 5.60809 31.1116 6.89251 31.3306 8.55884C31.5497 10.2332 32.4502 11.4011 33.9678 11.2021C35.6161 10.987 36.0181 9.5297 35.8191 8.00206L35.8171 8.00407ZM52.8141 8.77794C52.2312 9.43523 51.2221 10.4382 50.0643 11.594L52.1588 12.6855C52.4583 10.784 52.6492 9.5699 52.8241 8.78598L52.8141 8.77995V8.77794ZM24.9829 8.81412C24.6754 8.18296 24.0884 8.0302 23.2683 8.4302L21.8191 9.13774L22.7879 11.1217L24.197 10.4342C25.1156 9.98397 25.2985 9.46136 24.9829 8.81211V8.81412ZM25.7608 90.7257C25.5719 90.6493 25.391 90.6191 25.2221 90.6372C25.0513 90.6553 24.9045 90.7076 24.7779 90.794C24.6513 90.8805 24.5628 90.991 24.5085 91.1237C24.4583 91.2483 24.4482 91.379 24.4744 91.5156C24.5025 91.6543 24.5729 91.785 24.6854 91.9076C24.8 92.0302 24.9528 92.1287 25.1477 92.2071L25.5759 92.3779L26.1487 90.9508C26.0181 90.8523 25.8894 90.7739 25.7588 90.7237L25.7608 90.7257ZM35.8171 8.00206C35.606 6.37995 34.7739 5.19402 33.1779 5.40307C31.6301 5.60608 31.1116 6.8905 31.3306 8.55683C31.5497 10.2312 32.4502 11.399 33.9678 11.2001C35.6161 10.985 36.0181 9.52769 35.8191 8.00005L35.8171 8.00206ZM52.8141 8.77593C52.2312 9.43322 51.2221 10.4362 50.0643 11.592L52.1588 12.6835C52.4583 10.782 52.6492 9.56789 52.8241 8.78397L52.8141 8.77794V8.77593ZM60.5186 81.5016C60.3678 81.6121 60.2392 81.7287 60.1347 81.8493C59.992 82.0161 59.8955 82.183 59.8513 82.3518C59.803 82.5207 59.801 82.6795 59.8432 82.8262C59.8854 82.9749 59.9678 83.0975 60.0864 83.2021C60.2372 83.3327 60.4121 83.4171 60.6111 83.4573C60.6332 83.4634 60.6553 83.4654 60.6794 83.4674L61.5839 82.4101L60.5206 81.4995L60.5186 81.5016ZM52.8141 8.77593C52.2312 9.43322 51.2221 10.4362 50.0643 11.592L52.1588 12.6835C52.4583 10.782 52.6492 9.56789 52.8241 8.78397L52.8141 8.77794V8.77593ZM35.8171 8.00206C35.606 6.37995 34.7739 5.19402 33.1779 5.40307C31.6301 5.60608 31.1116 6.8905 31.3306 8.55683C31.5497 10.2312 32.4502 11.399 33.9678 11.2001C35.6161 10.985 36.0181 9.52769 35.8191 8.00005L35.8171 8.00206ZM24.9829 8.81211C24.6754 8.18095 24.0884 8.02819 23.2683 8.42819L21.8191 9.13573L22.7879 11.1196L24.197 10.4322C25.1156 9.98196 25.2985 9.45935 24.9829 8.8101V8.81211ZM25.7608 90.7237C25.5719 90.6473 25.391 90.6171 25.2221 90.6352C25.0513 90.6533 24.9045 90.7056 24.7779 90.792C24.6513 90.8784 24.5628 90.989 24.5085 91.1217C24.4583 91.2463 24.4482 91.3769 24.4744 91.5136C24.5025 91.6523 24.5729 91.783 24.6854 91.9056C24.8 92.0282 24.9528 92.1267 25.1477 92.2051L25.5759 92.3759L26.1487 90.9488C26.0181 90.8503 25.8894 90.7719 25.7588 90.7217L25.7608 90.7237ZM60.5186 81.4995C60.3678 81.6101 60.2392 81.7267 60.1347 81.8473C59.992 82.0141 59.8955 82.181 59.8513 82.3498C59.803 82.5186 59.801 82.6774 59.8432 82.8242C59.8854 82.9729 59.9678 83.0955 60.0864 83.2001C60.2372 83.3307 60.4121 83.4151 60.6111 83.4553C60.6332 83.4614 60.6553 83.4634 60.6794 83.4654L61.5839 82.4081L60.5206 81.4975L60.5186 81.4995ZM60.5186 81.4995C60.3678 81.6101 60.2392 81.7267 60.1347 81.8473C59.992 82.0141 59.8955 82.181 59.8513 82.3498C59.803 82.5186 59.801 82.6774 59.8432 82.8242C59.8854 82.9729 59.9678 83.0955 60.0864 83.2001C60.2372 83.3307 60.4121 83.4151 60.6111 83.4553C60.6332 83.4614 60.6553 83.4634 60.6794 83.4654L61.5839 82.4081L60.5206 81.4975L60.5186 81.4995ZM52.8141 8.77593C52.2312 9.43322 51.2221 10.4362 50.0643 11.592L52.1588 12.6835C52.4583 10.782 52.6492 9.56789 52.8241 8.78397L52.8141 8.77794V8.77593ZM35.8171 8.00206C35.606 6.37995 34.7739 5.19402 33.1779 5.40307C31.6301 5.60608 31.1116 6.8905 31.3306 8.55683C31.5497 10.2312 32.4502 11.399 33.9678 11.2001C35.6161 10.985 36.0181 9.52769 35.8191 8.00005L35.8171 8.00206ZM25.7608 90.7257C25.5719 90.6493 25.391 90.6191 25.2221 90.6372C25.0513 90.6553 24.9045 90.7076 24.7779 90.794C24.6513 90.8805 24.5628 90.991 24.5085 91.1237C24.4583 91.2483 24.4482 91.379 24.4744 91.5156C24.5025 91.6543 24.5729 91.785 24.6854 91.9076C24.8 92.0302 24.9528 92.1287 25.1477 92.2071L25.5759 92.3779L26.1487 90.9508C26.0181 90.8523 25.8894 90.7739 25.7588 90.7237L25.7608 90.7257ZM24.9829 8.81412C24.6754 8.18296 24.0884 8.0302 23.2683 8.4302L21.8191 9.13774L22.7879 11.1217L24.197 10.4342C25.1156 9.98397 25.2985 9.46136 24.9829 8.81211V8.81412ZM52.8141 8.77794C52.2312 9.43523 51.2221 10.4382 50.0643 11.594L52.1588 12.6855C52.4583 10.784 52.6492 9.5699 52.8241 8.78598L52.8141 8.77995V8.77794ZM35.8171 8.00407C35.606 6.38196 34.7739 5.19603 33.1779 5.40508C31.6301 5.60809 31.1116 6.89251 31.3306 8.55884C31.5497 10.2332 32.4502 11.4011 33.9678 11.2021C35.6161 10.987 36.0181 9.5297 35.8191 8.00206L35.8171 8.00407ZM24.9829 8.81412C24.6754 8.18296 24.0884 8.0302 23.2683 8.4302L21.8191 9.13774L22.7879 11.1217L24.197 10.4342C25.1156 9.98397 25.2985 9.46136 24.9829 8.81211V8.81412ZM25.7608 90.7257C25.5719 90.6493 25.391 90.6191 25.2221 90.6372C25.0513 90.6553 24.9045 90.7076 24.7779 90.794C24.6513 90.8805 24.5628 90.991 24.5085 91.1237C24.4583 91.2483 24.4482 91.379 24.4744 91.5156C24.5025 91.6543 24.5729 91.785 24.6854 91.9076C24.8 92.0302 24.9528 92.1287 25.1477 92.2071L25.5759 92.3779L26.1487 90.9508C26.0181 90.8523 25.8894 90.7739 25.7588 90.7237L25.7608 90.7257ZM60.5186 81.5016C60.3678 81.6121 60.2392 81.7287 60.1347 81.8493C59.992 82.0161 59.8955 82.183 59.8513 82.3518C59.803 82.5207 59.801 82.6795 59.8432 82.8262C59.8854 82.9749 59.9678 83.0975 60.0864 83.2021C60.2372 83.3327 60.4121 83.4171 60.6111 83.4573C60.6332 83.4634 60.6553 83.4654 60.6794 83.4674L61.5839 82.4101L60.5206 81.4995L60.5186 81.5016ZM60.5186 81.5016C60.3678 81.6121 60.2392 81.7287 60.1347 81.8493C59.992 82.0161 59.8955 82.183 59.8513 82.3518C59.803 82.5207 59.801 82.6795 59.8432 82.8262C59.8854 82.9749 59.9678 83.0975 60.0864 83.2021C60.2372 83.3327 60.4121 83.4171 60.6111 83.4573C60.6332 83.4634 60.6553 83.4654 60.6794 83.4674L61.5839 82.4101L60.5206 81.4995L60.5186 81.5016ZM52.8141 8.77593C52.2312 9.43322 51.2221 10.4362 50.0643 11.592L52.1588 12.6835C52.4583 10.782 52.6492 9.56789 52.8241 8.78397L52.8141 8.77794V8.77593ZM35.8171 8.00206C35.606 6.37995 34.7739 5.19402 33.1779 5.40307C31.6301 5.60608 31.1116 6.8905 31.3306 8.55683C31.5497 10.2312 32.4502 11.399 33.9678 11.2001C35.6161 10.985 36.0181 9.52769 35.8191 8.00005L35.8171 8.00206ZM25.7608 90.7257C25.5719 90.6493 25.391 90.6191 25.2221 90.6372C25.0513 90.6553 24.9045 90.7076 24.7779 90.794C24.6513 90.8805 24.5628 90.991 24.5085 91.1237C24.4583 91.2483 24.4482 91.379 24.4744 91.5156C24.5025 91.6543 24.5729 91.785 24.6854 91.9076C24.8 92.0302 24.9528 92.1287 25.1477 92.2071L25.5759 92.3779L26.1487 90.9508C26.0181 90.8523 25.8894 90.7739 25.7588 90.7237L25.7608 90.7257ZM24.9829 8.81412C24.6754 8.18296 24.0884 8.0302 23.2683 8.4302L21.8191 9.13774L22.7879 11.1217L24.197 10.4342C25.1156 9.98397 25.2985 9.46136 24.9829 8.81211V8.81412ZM52.8141 8.77794C52.2312 9.43523 51.2221 10.4382 50.0643 11.594L52.1588 12.6855C52.4583 10.784 52.6492 9.5699 52.8241 8.78598L52.8141 8.77995V8.77794ZM35.8171 8.00407C35.606 6.38196 34.7739 5.19603 33.1779 5.40508C31.6301 5.60809 31.1116 6.89251 31.3306 8.55884C31.5497 10.2332 32.4502 11.4011 33.9678 11.2021C35.6161 10.987 36.0181 9.5297 35.8191 8.00206L35.8171 8.00407ZM24.9829 8.81412C24.6754 8.18296 24.0884 8.0302 23.2683 8.4302L21.8191 9.13774L22.7879 11.1217L24.197 10.4342C25.1156 9.98397 25.2985 9.46136 24.9829 8.81211V8.81412ZM25.7608 90.7257C25.5719 90.6493 25.391 90.6191 25.2221 90.6372C25.0513 90.6553 24.9045 90.7076 24.7779 90.794C24.6513 90.8805 24.5628 90.991 24.5085 91.1237C24.4583 91.2483 24.4482 91.379 24.4744 91.5156C24.5025 91.6543 24.5729 91.785 24.6854 91.9076C24.8 92.0302 24.9528 92.1287 25.1477 92.2071L25.5759 92.3779L26.1487 90.9508C26.0181 90.8523 25.8894 90.7739 25.7588 90.7237L25.7608 90.7257ZM60.5186 81.5016C60.3678 81.6121 60.2392 81.7287 60.1347 81.8493C59.992 82.0161 59.8955 82.183 59.8513 82.3518C59.803 82.5207 59.801 82.6795 59.8432 82.8262C59.8854 82.9749 59.9678 83.0975 60.0864 83.2021C60.2372 83.3327 60.4121 83.4171 60.6111 83.4573C60.6332 83.4634 60.6553 83.4654 60.6794 83.4674L61.5839 82.4101L60.5206 81.4995L60.5186 81.5016ZM60.5186 81.5016C60.3678 81.6121 60.2392 81.7287 60.1347 81.8493C59.992 82.0161 59.8955 82.183 59.8513 82.3518C59.803 82.5207 59.801 82.6795 59.8432 82.8262C59.8854 82.9749 59.9678 83.0975 60.0864 83.2021C60.2372 83.3327 60.4121 83.4171 60.6111 83.4573C60.6332 83.4634 60.6553 83.4654 60.6794 83.4674L61.5839 82.4101L60.5206 81.4995L60.5186 81.5016ZM52.8141 8.77593C52.2312 9.43322 51.2221 10.4362 50.0643 11.592L52.1588 12.6835C52.4583 10.782 52.6492 9.56789 52.8241 8.78397L52.8141 8.77794V8.77593ZM35.8171 8.00206C35.606 6.37995 34.7739 5.19402 33.1779 5.40307C31.6301 5.60608 31.1116 6.8905 31.3306 8.55683C31.5497 10.2312 32.4502 11.399 33.9678 11.2001C35.6161 10.985 36.0181 9.52769 35.8191 8.00005L35.8171 8.00206ZM25.7608 90.7257C25.5719 90.6493 25.391 90.6191 25.2221 90.6372C25.0513 90.6553 24.9045 90.7076 24.7779 90.794C24.6513 90.8805 24.5628 90.991 24.5085 91.1237C24.4583 91.2483 24.4482 91.379 24.4744 91.5156C24.5025 91.6543 24.5729 91.785 24.6854 91.9076C24.8 92.0302 24.9528 92.1287 25.1477 92.2071L25.5759 92.3779L26.1487 90.9508C26.0181 90.8523 25.8894 90.7739 25.7588 90.7237L25.7608 90.7257ZM24.9829 8.81412C24.6754 8.18296 24.0884 8.0302 23.2683 8.4302L21.8191 9.13774L22.7879 11.1217L24.197 10.4342C25.1156 9.98397 25.2985 9.46136 24.9829 8.81211V8.81412ZM52.8141 8.77794C52.2312 9.43523 51.2221 10.4382 50.0643 11.594L52.1588 12.6855C52.4583 10.784 52.6492 9.5699 52.8241 8.78598L52.8141 8.77995V8.77794ZM35.8171 8.00407C35.606 6.38196 34.7739 5.19603 33.1779 5.40508C31.6301 5.60809 31.1116 6.89251 31.3306 8.55884C31.5497 10.2332 32.4502 11.4011 33.9678 11.2021C35.6161 10.987 36.0181 9.5297 35.8191 8.00206L35.8171 8.00407ZM24.9829 8.81412C24.6754 8.18296 24.0884 8.0302 23.2683 8.4302L21.8191 9.13774L22.7879 11.1217L24.197 10.4342C25.1156 9.98397 25.2985 9.46136 24.9829 8.81211V8.81412ZM60.5186 81.5016C60.3678 81.6121 60.2392 81.7287 60.1347 81.8493C59.992 82.0161 59.8955 82.183 59.8513 82.3518C59.803 82.5207 59.801 82.6795 59.8432 82.8262C59.8854 82.9749 59.9678 83.0975 60.0864 83.2021C60.2372 83.3327 60.4121 83.4171 60.6111 83.4573C60.6332 83.4634 60.6553 83.4654 60.6794 83.4674L61.5839 82.4101L60.5206 81.4995L60.5186 81.5016ZM60.5186 81.5016C60.3678 81.6121 60.2392 81.7287 60.1347 81.8493C59.992 82.0161 59.8955 82.183 59.8513 82.3518C59.803 82.5207 59.801 82.6795 59.8432 82.8262C59.8854 82.9749 59.9678 83.0975 60.0864 83.2021C60.2372 83.3327 60.4121 83.4171 60.6111 83.4573C60.6332 83.4634 60.6553 83.4654 60.6794 83.4674L61.5839 82.4101L60.5206 81.4995L60.5186 81.5016ZM52.8141 8.77593C52.2312 9.43322 51.2221 10.4362 50.0643 11.592L52.1588 12.6835C52.4583 10.782 52.6492 9.56789 52.8241 8.78397L52.8141 8.77794V8.77593ZM35.8171 8.00206C35.606 6.37995 34.7739 5.19402 33.1779 5.40307C31.6301 5.60608 31.1116 6.8905 31.3306 8.55683C31.5497 10.2312 32.4502 11.399 33.9678 11.2001C35.6161 10.985 36.0181 9.52769 35.8191 8.00005L35.8171 8.00206ZM24.9829 8.81211C24.6754 8.18095 24.0884 8.02819 23.2683 8.42819L21.8191 9.13573L22.7879 11.1196L24.197 10.4322C25.1156 9.98196 25.2985 9.45935 24.9829 8.8101V8.81211ZM52.8141 8.77593C52.2312 9.43322 51.2221 10.4362 50.0643 11.592L52.1588 12.6835C52.4583 10.782 52.6492 9.56789 52.8241 8.78397L52.8141 8.77794V8.77593ZM35.8171 8.00206C35.606 6.37995 34.7739 5.19402 33.1779 5.40307C31.6301 5.60608 31.1116 6.8905 31.3306 8.55683C31.5497 10.2312 32.4502 11.399 33.9678 11.2001C35.6161 10.985 36.0181 9.52769 35.8191 8.00005L35.8171 8.00206ZM24.9829 8.81211C24.6754 8.18095 24.0884 8.02819 23.2683 8.42819L21.8191 9.13573L22.7879 11.1196L24.197 10.4322C25.1156 9.98196 25.2985 9.45935 24.9829 8.8101V8.81211ZM52.8141 8.77593C52.2312 9.43322 51.2221 10.4362 50.0643 11.592L52.1588 12.6835C52.4583 10.782 52.6492 9.56789 52.8241 8.78397L52.8141 8.77794V8.77593ZM35.8171 8.00206C35.606 6.37995 34.7739 5.19402 33.1779 5.40307C31.6301 5.60608 31.1116 6.8905 31.3306 8.55683C31.5497 10.2312 32.4502 11.399 33.9678 11.2001C35.6161 10.985 36.0181 9.52769 35.8191 8.00005L35.8171 8.00206ZM24.9829 8.81211C24.6754 8.18095 24.0884 8.02819 23.2683 8.42819L21.8191 9.13573L22.7879 11.1196L24.197 10.4322C25.1156 9.98196 25.2985 9.45935 24.9829 8.8101V8.81211ZM35.8171 8.00206C35.606 6.37995 34.7739 5.19402 33.1779 5.40307C31.6301 5.60608 31.1116 6.8905 31.3306 8.55683C31.5497 10.2312 32.4502 11.399 33.9678 11.2001C35.6161 10.985 36.0181 9.52769 35.8191 8.00005L35.8171 8.00206ZM24.9829 8.81211C24.6754 8.18095 24.0884 8.02819 23.2683 8.42819L21.8191 9.13573L22.7879 11.1196L24.197 10.4322C25.1156 9.98196 25.2985 9.45935 24.9829 8.8101V8.81211ZM35.8171 8.00206C35.606 6.37995 34.7739 5.19402 33.1779 5.40307C31.6301 5.60608 31.1116 6.8905 31.3306 8.55683C31.5497 10.2312 32.4502 11.399 33.9678 11.2001C35.6161 10.985 36.0181 9.52769 35.8191 8.00005L35.8171 8.00206ZM24.9829 8.81211C24.6754 8.18095 24.0884 8.02819 23.2683 8.42819L21.8191 9.13573L22.7879 11.1196L24.197 10.4322C25.1156 9.98196 25.2985 9.45935 24.9829 8.8101V8.81211Z" fill="url(#paint0_linear_1105_1850)"/>
<path d="M75.0151 33.9638C74.8523 30.1085 73.986 26.404 72.5649 22.8302C68.394 12.3357 59.5257 4.37387 48.6513 1.33467C46.39 0.703518 44.0905 0.295477 41.7448 0.128643C41.3448 0.100503 40.9428 0.0763819 40.5428 0.0482412C40.4985 0.0442211 40.4563 0.0160804 40.4101 0H34.7277C34.6151 0.0201005 34.5006 0.0542714 34.388 0.0603015C25.3026 0.592965 17.4694 4.01407 10.9408 10.3497C6.17091 14.9809 2.95885 20.5487 1.2483 26.9749C0.715635 28.9789 0.363876 31.0151 0.201062 33.0834C0.156841 33.6482 0.11664 34.2151 0.0683986 34.7799C0.0603584 34.8844 0.0221675 34.9849 -0.00195312 35.0854V64.9869C0.0402579 65.2864 0.10659 65.5859 0.12468 65.8874C0.359856 70.2553 1.36689 74.4402 3.13373 78.4402C7.6282 88.6171 16.595 96.1889 27.381 98.9186C29.6101 99.4814 31.8754 99.8291 34.1749 99.9457C34.2895 99.9518 34.4041 99.9839 34.5187 100.004H40.6975C40.8001 99.9839 40.9006 99.9518 41.0031 99.9457C47.5679 99.5699 53.6001 97.5739 59.0473 93.8975C65.9317 89.2503 70.6915 82.9628 73.3307 75.0814C74.1749 72.5608 74.7056 69.9698 74.9428 67.3186C74.9769 66.9286 74.985 66.5387 75.0131 66.1487C75.0212 66.0221 75.0533 65.8955 75.0734 65.7688V34.2332C75.0533 34.1447 75.0212 34.0543 75.0171 33.9638H75.0151ZM61.4433 62.995C61.4252 69.4412 59.1297 74.9869 54.6654 79.6161C51.4996 82.8985 47.6845 85.0894 43.2523 86.1809C40.8805 86.7658 38.4744 86.9789 36.0342 86.806C30.2875 86.404 25.3207 84.207 21.1498 80.2472C17.5759 76.8523 15.2664 72.7256 14.2272 67.9015C13.8674 66.2291 13.7146 64.5347 13.7146 62.8261V51.1437C13.7146 47.2503 13.7006 43.3568 13.7166 39.4613C13.7468 33.0935 15.9297 27.5658 20.3036 22.9327C23.7609 19.2744 27.9759 16.9367 32.9126 15.9317C35.2825 15.4492 37.6764 15.3447 40.0825 15.604C45.4694 16.1889 50.1287 18.3618 54.0423 22.0965C57.7589 25.6402 60.1046 29.9518 61.0634 35.003C61.3267 36.3879 61.4513 37.7889 61.4513 39.202C61.4473 47.1317 61.4654 55.0613 61.4433 62.991V62.995ZM58.6835 79.8714C58.6975 80.0482 58.6413 80.2151 58.5126 80.3658C58.386 80.5146 58.2312 80.595 58.0523 80.609C57.8714 80.6231 57.7066 80.5668 57.5599 80.4402C57.4071 80.3095 57.3267 80.1568 57.3146 79.9779C57.3026 79.799 57.3609 79.6362 57.4855 79.4874C57.6161 79.3367 57.7689 79.2543 57.9458 79.2402C58.1227 79.2261 58.2875 79.2844 58.4383 79.4131C58.587 79.5397 58.6674 79.6925 58.6835 79.8714ZM23.1197 86.5648C23.0151 86.7297 22.8784 86.8342 22.7056 86.8764C22.5307 86.9186 22.3599 86.8904 22.189 86.7839C22.0242 86.6814 21.9197 86.5427 21.8774 86.3658C21.8352 86.1889 21.8654 86.0201 21.9679 85.8533C22.0724 85.6824 22.2131 85.5799 22.388 85.5397C22.5629 85.4995 22.7337 85.5317 22.8986 85.6322C23.0694 85.7367 23.1739 85.8754 23.2161 86.0503C23.2563 86.2231 23.2242 86.394 23.1197 86.5628V86.5648ZM61.0614 12.8945L56.1428 18.0281L59.2523 21.007L58.0382 21.9638L53.7347 17.8412L59.7126 11.6L61.0614 12.8925V12.8945ZM52.4543 7.06734L54.5367 8.15276L53.2584 17.2342L51.5176 16.3256L51.8091 14.2271L49.0091 12.7678L47.4875 14.2271L45.8594 13.3789L52.4563 7.06734H52.4543ZM38.8423 10.802L44.5066 5.96583L40.0463 5.18392L40.3116 3.67437L46.8684 4.82613L46.6051 6.3196L41.1237 11.0372L45.8795 11.8714L45.383 13.3387L38.6071 12.1487L38.8443 10.8L38.8423 10.802ZM33.0573 3.88342C35.5659 3.55578 37.383 5.10352 37.7267 7.72663C38.0382 10.1126 36.8744 12.3518 34.0905 12.7156C31.4011 13.0673 29.7388 11.2985 29.4171 8.84422C29.0895 6.34975 30.394 4.23116 33.0553 3.88342H33.0573ZM22.9388 6.93467C24.6312 6.10854 25.998 6.59497 26.585 7.79497C27.0915 8.83618 26.8001 9.67839 26.3518 10.1829C26.8061 10.1367 27.582 10.2533 28.2614 11.6442L28.4483 12.0281C28.7036 12.5508 28.9991 13.1417 29.2825 13.4553L27.6905 14.2312C27.391 13.9598 27.0815 13.391 26.6774 12.5668L26.6212 12.4523C26.2071 11.602 25.795 11.3065 24.5448 11.9176L23.4393 12.4563L24.9568 15.5658L23.3166 16.3678L19.5237 8.60101L22.9367 6.93467H22.9388ZM16.6453 10.5126L17.6744 11.6462L14.5589 14.4744L15.982 16.0422L18.9006 13.393L19.9297 14.5266L17.0111 17.1759L19.3367 19.7387L17.986 20.9648L12.1769 14.5648L16.6433 10.5126H16.6453ZM3.65835 52.2593C2.20106 50.1588 3.06538 47.803 3.14378 47.6C4.73574 47.8714 6.08448 48.79 6.81815 50.0724C6.76388 50.1467 6.71161 50.2251 6.66136 50.3055C5.77292 51.7045 5.77895 53.1598 5.88749 54.004C5.19403 53.7266 4.32167 53.2121 3.65835 52.2593ZM6.89855 54.2955C6.69352 54.3216 6.50659 54.3317 6.34378 54.3357C6.33172 54.2814 6.31965 54.2211 6.30759 54.1528C6.18297 53.4151 6.09453 51.9337 6.99503 50.5166C7.00307 50.5025 7.01312 50.4905 7.02116 50.4744C8.27543 48.5447 10.4001 48.2291 11.0453 48.1769C11.4393 50.0965 10.8523 52.002 9.49352 53.1759C8.66136 53.8955 7.72669 54.1809 6.99503 54.2834C6.96287 54.2874 6.93071 54.2915 6.90056 54.2955H6.89855ZM13.0573 85.4432C12.6614 85.5879 12.2754 85.6523 11.8996 85.6342C11.5257 85.6181 11.1779 85.5276 10.8543 85.3668C10.5327 85.206 10.2513 84.9809 10.0081 84.6894C9.7689 84.402 9.59604 84.0864 9.49352 83.7387C9.389 83.391 9.36287 83.0352 9.41513 82.6673C9.46538 82.3015 9.59403 81.9377 9.80307 81.5759C10.0121 81.2141 10.3076 80.8744 10.6875 80.5568C10.8443 80.4241 11.0091 80.3055 11.1779 80.197C11.3488 80.0884 11.5197 79.992 11.6945 79.9035L12.2594 80.9146C12.1106 80.991 11.9699 81.0754 11.8393 81.1658C11.7066 81.2563 11.584 81.3487 11.4714 81.4432C11.1679 81.6965 10.9488 81.9518 10.8121 82.2131C10.6754 82.4744 10.6272 82.7357 10.6634 82.999C10.6996 83.2623 10.8242 83.5216 11.0372 83.7749C11.2503 84.0302 11.4875 84.207 11.7468 84.3015C12.0081 84.398 12.2835 84.406 12.5749 84.3297C12.8684 84.2533 13.1659 84.0864 13.4674 83.8332L17.3448 80.593L18.1046 81.4995L14.2272 84.7397C13.8433 85.0613 13.4513 85.2945 13.0553 85.4392L13.0573 85.4432ZM15.393 87.8452L19.59 82.6874L20.5066 83.4332L16.3096 88.591L15.393 87.8452ZM19.3166 92.0985C19.0232 92.2673 18.7076 92.3437 18.3699 92.3317C18.0322 92.3176 17.6865 92.2151 17.3307 92.0201L17.8272 90.792C18.0523 90.9246 18.2393 91.007 18.39 91.0412C18.5408 91.0754 18.6694 91.0633 18.7779 91.005C18.8845 90.9487 18.981 90.8523 19.0634 90.7156L21.2141 87.2342L22.2212 87.8553L20.0704 91.3367C19.8594 91.6764 19.6101 91.9317 19.3166 92.0985ZM26.1327 94.1427C25.9779 94.5266 25.7629 94.8301 25.4895 95.0472C25.2141 95.2643 24.8986 95.3889 24.5448 95.4211C24.191 95.4513 23.8131 95.3869 23.4151 95.2281L22.1468 94.7196L22.6553 93.4513L23.9237 93.9598C24.2513 94.0925 24.5006 94.1307 24.6694 94.0804C24.8403 94.0281 24.9629 93.9035 25.0433 93.7045L25.1036 93.5558L24.6754 93.3849C24.2674 93.2201 23.9438 92.993 23.7086 92.6995C23.4734 92.406 23.3307 92.0824 23.2805 91.7266C23.2282 91.3729 23.2724 91.0231 23.4131 90.6754C23.5257 90.394 23.6805 90.1568 23.8815 89.9658C24.0805 89.7729 24.3076 89.6261 24.5649 89.5276C24.8222 89.4291 25.0955 89.3809 25.381 89.3789C25.6684 89.3789 25.9518 89.4352 26.2312 89.5477C26.5086 89.6583 26.7599 89.8091 26.987 89.996C27.2141 90.1829 27.4111 90.3658 27.5779 90.5427L26.1347 94.1407L26.1327 94.1427ZM60.3538 85.9417C60.3237 85.9779 60.2513 85.9638 60.1388 85.9035C60.0945 85.8814 60.0463 85.8513 59.996 85.8171C60.0101 85.8372 60.0242 85.8593 60.0362 85.8774C60.1006 85.9879 60.1166 86.0603 60.0845 86.0905L58.8624 87.2362C58.8423 87.2563 58.8101 87.2543 58.7639 87.2362C58.7759 87.2824 58.7719 87.3166 58.7518 87.3347L57.4714 88.4121C57.4513 88.4302 57.4171 88.4261 57.3729 88.406C57.381 88.4543 57.379 88.4884 57.3568 88.5045L56.0202 89.5116C55.9981 89.5276 55.9659 89.5236 55.9237 89.5015C55.9297 89.5497 55.9237 89.5819 55.9016 89.596L54.5106 90.5286C54.4885 90.5427 54.4543 90.5367 54.4121 90.5106C54.4161 90.5588 54.4101 90.593 54.386 90.609L52.9468 91.4633C52.9227 91.4774 52.8905 91.4673 52.8503 91.4412C52.8503 91.4894 52.8423 91.5216 52.8181 91.5337L51.3347 92.3095C51.3106 92.3236 51.2784 92.3095 51.2403 92.2834C51.2403 92.3317 51.2282 92.3638 51.2041 92.3759L49.6805 93.0693C49.6543 93.0814 49.6222 93.0694 49.586 93.0352C49.584 93.0854 49.5699 93.1156 49.5438 93.1276L47.984 93.7367C47.9578 93.7447 47.9277 93.7307 47.8915 93.6985C47.8855 93.7467 47.8714 93.7789 47.8433 93.7849L46.2533 94.3055C46.2272 94.3136 46.195 94.2975 46.1609 94.2633C46.1528 94.3116 46.1347 94.3417 46.1086 94.3498L44.4905 94.7799C44.4644 94.7879 44.4322 94.7699 44.4001 94.7297C44.39 94.7799 44.3699 94.8101 44.3438 94.8161L42.7036 95.1578C42.6774 95.1638 42.6493 95.1437 42.6171 95.1055C42.6031 95.1538 42.583 95.1819 42.5568 95.1859L40.9006 95.4352C40.8744 95.4372 40.8483 95.4171 40.8202 95.3769C40.8041 95.4231 40.782 95.4492 40.7558 95.4533L39.0895 95.6121C39.0614 95.6141 39.0352 95.592 39.0091 95.5477C38.989 95.594 38.9669 95.6201 38.9388 95.6221L37.2664 95.6884C37.2382 95.6884 37.2141 95.6643 37.19 95.6181C37.1679 95.6663 37.1438 95.6905 37.1156 95.6905L35.4413 95.6623C35.4151 95.6623 35.393 95.6382 35.3729 95.598C35.3488 95.6382 35.3247 95.6583 35.2985 95.6563L33.6282 95.5417C33.6021 95.5397 33.58 95.5116 33.5619 95.4653C33.5357 95.5075 33.5076 95.5296 33.4815 95.5256L31.8192 95.3166C31.783 95.3126 31.7548 95.2643 31.7408 95.1759C31.6945 95.2724 31.6483 95.3186 31.6041 95.3085L30.7317 95.1296L30.7016 95.2784C30.6212 95.6704 30.4724 95.994 30.2533 96.2533C30.0362 96.5106 29.7669 96.6915 29.4433 96.794C29.1217 96.8985 28.7619 96.9206 28.3599 96.8583L28.4061 95.5357C28.6614 95.5839 28.8684 95.596 29.0191 95.5759C29.1739 95.5558 29.2905 95.4995 29.3709 95.409C29.4513 95.3186 29.5096 95.196 29.5418 95.0412L30.3679 91.0332L31.5257 91.2724L31.0071 93.793L31.8795 93.9739C31.8955 93.9759 31.9096 93.9879 31.9197 94.004C31.9438 93.9739 31.9659 93.9618 31.99 93.9638L33.6523 94.1709C33.6664 94.1709 33.6764 94.1809 33.6865 94.193C33.7006 94.1829 33.7126 94.1769 33.7247 94.1789L35.395 94.2935C35.4071 94.2935 35.4192 94.3015 35.4292 94.3116C35.4413 94.3015 35.4533 94.2955 35.4654 94.2955L37.1398 94.3236C37.1538 94.3236 37.1659 94.3317 37.1759 94.3417C37.188 94.3297 37.2001 94.3216 37.2121 94.3216L38.8865 94.2533C38.9006 94.2533 38.9126 94.2593 38.9227 94.2693C38.9347 94.2573 38.9448 94.2493 38.9589 94.2493L40.6272 94.0905C40.6393 94.0905 40.6533 94.0945 40.6634 94.1045C40.6734 94.0925 40.6855 94.0844 40.6975 94.0824L42.3538 93.8332C42.3679 93.8332 42.38 93.8352 42.392 93.8432C42.4021 93.8312 42.4121 93.8231 42.4262 93.8191L44.0644 93.4794C44.0784 93.4774 44.0925 93.4794 44.1066 93.4874C44.1146 93.4734 44.1267 93.4633 44.1387 93.4613L45.7568 93.0291C45.7709 93.0271 45.783 93.0291 45.797 93.0352C45.8051 93.0231 45.8151 93.0131 45.8272 93.009L47.4192 92.4884C47.4312 92.4864 47.4453 92.4884 47.4594 92.4925C47.4654 92.4784 47.4754 92.4683 47.4875 92.4643L49.0473 91.8553C49.0594 91.8513 49.0734 91.8533 49.0875 91.8553C49.0955 91.8412 49.1036 91.8312 49.1156 91.8251L50.6393 91.1317C50.6513 91.1256 50.6654 91.1276 50.6795 91.1317C50.6855 91.1176 50.6935 91.1055 50.7056 91.1015L52.189 90.3256C52.2011 90.3196 52.2151 90.3196 52.2312 90.3256C52.2352 90.3116 52.2433 90.2995 52.2533 90.2915L53.6925 89.4372C53.7046 89.4312 53.7187 89.4291 53.7347 89.4332C53.7388 89.4191 53.7448 89.407 53.7548 89.399L55.1458 88.4663C55.1558 88.4583 55.1699 88.4583 55.184 88.4583C55.186 88.4442 55.192 88.4322 55.2041 88.4261L56.5408 87.4191C56.5528 87.4111 56.5669 87.409 56.583 87.4111C56.583 87.395 56.591 87.3809 56.6011 87.3729L57.8815 86.2955C57.8815 86.2955 57.9036 86.2834 57.9197 86.2834C57.9197 86.2693 57.9257 86.2553 57.9337 86.2472L59.1558 85.1015C59.184 85.0754 59.2383 85.0874 59.3166 85.1317C59.3086 85.1015 59.3086 85.0774 59.3247 85.0613L59.9277 84.3578C59.7428 84.2714 59.5679 84.1588 59.4031 84.0161C59.0754 83.7367 58.8563 83.4171 58.7418 83.0593C58.6272 82.7035 58.6091 82.3377 58.6875 81.9678C58.7659 81.596 58.9347 81.2583 59.194 80.9548C59.391 80.7256 59.6141 80.5327 59.8654 80.3779C60.1166 80.2231 60.3518 80.0945 60.5749 79.994L63.397 82.4141L60.3639 85.9538L60.3538 85.9417ZM64.7458 52.2573C63.2885 50.1568 64.1528 47.801 64.2292 47.598C65.8232 47.8693 67.1719 48.7879 67.9056 50.0704C67.8513 50.1447 67.799 50.2231 67.7488 50.3035C66.8604 51.7025 66.8644 53.1578 66.9749 54.002C66.2815 53.7246 65.4091 53.2101 64.7458 52.2573ZM70.581 53.1739C69.7488 53.8935 68.8141 54.1789 68.0825 54.2814C68.0503 54.2854 68.0182 54.2894 67.988 54.2935C67.783 54.3196 67.594 54.3296 67.4312 54.3337C67.4212 54.2794 67.4091 54.2191 67.397 54.1508C67.2704 53.4131 67.184 51.9317 68.0825 50.5146C68.0905 50.5005 68.1026 50.4884 68.1106 50.4724C69.3629 48.5427 71.4895 48.2271 72.1327 48.1749C72.5287 50.0945 71.9398 52 70.583 53.1739H70.581Z" fill="url(#paint1_linear_1105_1850)"/>
</g>
<defs>
<linearGradient id="paint0_linear_1105_1850" x1="12.199" y1="-27.1879" x2="73.3407" y2="151.606" gradientUnits="userSpaceOnUse">
<stop offset="0.04" stop-color="#276934"/>
<stop offset="0.49" stop-color="#AD832D"/>
<stop offset="1" stop-color="#276934"/>
</linearGradient>
<linearGradient id="paint1_linear_1105_1850" x1="11.2945" y1="-26.8784" x2="72.4362" y2="151.916" gradientUnits="userSpaceOnUse">
<stop offset="0.04" stop-color="#276934"/>
<stop offset="0.49" stop-color="#AD832D"/>
<stop offset="1" stop-color="#276934"/>
</linearGradient>
<clipPath id="clip0_1105_1850">
<rect width="75.0714" height="100" fill="white"/>
</clipPath>
</defs>
</svg>
