<?xml version="1.0" encoding="UTF-8"?>
<svg id="Layer_1" data-name="Layer 1" xmlns="http://www.w3.org/2000/svg" viewBox="0 0 254.98 88.88">
  <defs>
    <style>
      .cls-1 {
        fill: #c6a969;
      }

      .cls-2 {
        fill: #6ebe45;
      }
    </style>
  </defs>
  <g>
    <path class="cls-2" d="M114.47,40.83c-.02-.48-.05-.93-.08-1.41h0c-.28-3.84-1.03-7.54-2.22-11.06h0c-.78-.23-1.57-.44-2.36-.63-2.32-.56-4.72-.93-7.17-1.12-.78-.05-1.57-.08-2.36-.1-.24,0-.49-.01-.73-.01h-.31c-.93,0-1.86,.02-2.78,.08-2.57,.15-5.09,.52-7.53,1.09-6.85,1.57-13.11,4.7-18.4,8.97-2.36,1.89-4.53,4.02-6.46,6.36-1.28,1.53-2.45,3.15-3.52,4.85-1.24,1.95-2.34,4.02-3.27,6.17-1.1-2.52-2.42-4.91-3.92-7.16-1.01-1.51-2.1-2.95-3.29-4.34-1.83-2.14-3.85-4.1-6.03-5.87-5.3-4.28-11.57-7.4-18.43-8.99-2.74-.64-5.58-1.02-8.5-1.14-.6-.02-1.21-.03-1.81-.03h-.29c-.27,0-.53,.01-.8,.01-1.42,.03-2.82,.13-4.21,.3-1.81,.2-3.59,.51-5.32,.93-.78,.19-1.55,.38-2.31,.6h0C1.02,32.32,.23,36.5,.05,40.84c-.01,.07-.01,.14-.01,.21-.02,.59-.03,1.19-.03,1.79,0,23.17,17.2,42.3,39.54,45.34,.76,.1,1.52,.19,2.29,.26,1.2,.1,2.42,.15,3.64,.16l-1.95-2.05-.38-.41-8.53-8.93c-13.59-2.37-24.21-13.39-25.98-27.18h0c-.17-1.35-.27-2.71-.27-4.09,0-3.12,.45-6.13,1.29-8.97,4.86,8.29,10.49,16.08,16.8,23.25,5.48,6.22,11.45,11.97,17.88,17.2,1.09,.91,2.2,1.78,3.32,2.64,.79,.62,1.58,1.21,2.38,1.8h.01c1.79,1.34,3.62,2.62,5.46,3.86,.58,.38,1.16,.77,1.74,1.14,.6-.38,1.19-.78,1.78-1.17h.01c1.84-1.23,3.64-2.51,5.41-3.82h.01c.81-.6,1.63-1.21,2.43-1.84,1.12-.85,2.21-1.72,3.29-2.6,6.45-5.27,12.46-11.06,17.95-17.3,6.3-7.17,11.92-14.94,16.76-23.23,.86,2.86,1.31,5.91,1.31,9.04,0,.72-.02,1.43-.08,2.14-1.01,15.34-12.95,27.73-28.11,29.42l-7.67,8.03-.05,.06-2.85,2.98c.44,.01,.88,.02,1.33,.02,1.34,0,2.65-.06,3.95-.16,.76-.07,1.5-.15,2.23-.26,22.35-3.02,39.57-22.17,39.57-45.34,0-.67-.01-1.35-.05-2.01Zm-63.75,26.27c-.02,1.44-.15,2.87-.37,4.25-6.79-5.72-13.07-12.02-18.75-18.84-2.57-3.08-5.02-6.28-7.34-9.57-.41-.58-.81-1.16-1.21-1.74-1.49-2.16-2.91-4.36-4.27-6.6h.17c1.62,0,3.2,.12,4.74,.35,7.5,1.13,14.14,4.86,18.96,10.25,.33,.36,.65,.74,.96,1.13,1.16,1.43,2.2,2.95,3.09,4.58,2.57,4.57,4.02,9.85,4.02,15.46,0,.24,0,.49-.02,.73Zm43.05-29.43c-.28,.44-.57,.88-.86,1.33-.02,.03-.03,.06-.06,.09-.45,.69-.92,1.37-1.38,2.06-2.56,3.73-5.27,7.35-8.14,10.83-5.79,7-12.19,13.47-19.15,19.32-.22-1.37-.35-2.77-.36-4.2-.02-.24-.02-.49-.02-.73,0-5.37,1.34-10.43,3.69-14.86,.92-1.74,2-3.38,3.22-4.91,.37-.48,.77-.95,1.17-1.41,4.82-5.39,11.45-9.13,18.95-10.25,1.43-.21,2.89-.33,4.38-.34,.13-.01,.24-.01,.37-.01h.12c-.64,1.03-1.28,2.06-1.93,3.07Z"/>
    <path class="cls-1" d="M102.2,21.75h-6.63c-2.51-8.09-10.04-13.96-18.96-13.96-.48,0-.95,.01-1.42,.06-5.94,.41-11.16,3.45-14.52,7.95-.52,.7-1,1.44-1.43,2.22-.35,.62-.65,1.24-.93,1.89-.26,.6-.48,1.21-.66,1.84-.56,1.79-.87,3.69-.88,5.64-.02-1.95-.34-3.85-.9-5.64-.13-.43-.28-.87-.45-1.29-.42-1.12-.95-2.17-1.56-3.17-.49-.78-1.01-1.53-1.6-2.24-3.19-3.87-7.8-6.52-13.05-7.11-.74-.09-1.51-.14-2.29-.14-8.92,0-16.45,5.87-18.96,13.96h-7.56c.12-.69,.27-1.36,.44-2.01C13.82,8.38,24.17,0,36.46,0c3.91,0,7.63,.85,10.96,2.38,3.42,1.55,6.44,3.8,8.89,6.58,2.69-3.06,6.08-5.49,9.92-7.03,3.07-1.24,6.42-1.93,9.93-1.93,13.01,0,23.83,9.38,26.05,21.75Z"/>
  </g>
  <g>
    <path class="cls-1" d="M131.47,37.47c.83-1.66,.83-2.94,.83-4.73V6.9c0-2.98-2.07-4.51-4.09-4.51-1.88,0-3.72,1.4-3.72,4.17,0,1.7,.9,3.07,2.18,3.07,.75,0,1.46-.51,1.77-1.36,.71,.85,1.09,2.04,1.09,3.28,0,4.04-2.44,6.81-6.16,6.81-4.06,0-6.91-3.7-6.91-8.47S119.8,.9,125.13,.9c5.6,0,7.92,2.89,14.46,2.89,3.3,0,6.8-.81,10.63-1.02l.56,6.26c-3.94-1.19-8.26-1.19-11.15-1.19v8.26h7.21l.26,3.15h-7.47v13.5c0,1.79,0,3.07,.83,4.73h-8.98Z"/>
    <path class="cls-1" d="M150.96,37.47c.83-1.66,.83-2.94,.83-4.73v-15.88c0-1.19-.34-2-.83-2.55,2.44,0,6.76-.34,8.15-2.17v8.81h.3c1.13-7.41,5.67-10.69,10.7-7.45l-1.16,6.6c-5.52-2.81-8.71,1.49-9.84,6.17v6.47c0,1.79,0,3.07,.83,4.73h-8.98Z"/>
    <path class="cls-1" d="M170.9,25.04c0-8.81,5.26-12.9,12.13-12.9s12.05,4.09,12.05,12.9-6.2,12.94-12.05,12.94-12.13-3.96-12.13-12.94Zm16.86,0c0-6-2.7-8.34-4.73-8.34s-4.81,2.34-4.81,8.34,2.7,8.26,4.81,8.26,4.73-2.38,4.73-8.26Z"/>
    <path class="cls-1" d="M196.18,37.47l10.97-20.05c-3.19,0-8.04,.17-10.48,1.36l.49-5.92h19.6l-10.93,20.35c3.19,.04,8.67-.3,11-1.66l-.53,5.92h-20.13Z"/>
    <path class="cls-1" d="M219.65,30.44c0-5.45,4.02-7.71,8.07-7.71,2.63,0,5.22,.89,6.87,2.34-.83-.55-1.92-.85-3-.85-3.04,0-5.41,1.87-5.41,5.02,0,2.26,1.39,3.62,3.08,3.62,2.07,0,4.47-2.34,5.33-6.81v-5.02c0-2.38-1.84-3.83-4.36-3.83-1.84,0-4.02,.72-6.23,2.3l-1.5-4.9c2.78-1.58,6.12-2.47,9.28-2.47,5.37,0,10.14,2.64,10.14,8.94v12.99c0,1.32,.15,2.34,1.13,3.41h-4.66c-3.08,0-3.79-2.26-3.79-4.68v-2.81h-.11c-.9,5.15-4.28,8.13-8.07,8.13-3.38,0-6.76-2.68-6.76-7.66Z"/>
    <path class="cls-1" d="M245.59,37.47c.83-1.66,.83-2.94,.83-4.73V6.9c0-1.19-.34-2-.83-2.55,2.44,0,6.76-.34,8.15-2.17v30.57c0,1.79,0,3.07,.83,4.73h-8.98Z"/>
  </g>
  <g>
    <path class="cls-2" d="M166.42,74.98v1.91h-7.28c-.95,.04-1.8,.22-2.56,.56-1.24,.84-2.45,1.68-3.63,2.5-2.06,1.42-4.13,2.44-6.22,3.04-.73,.19-1.54,.28-2.43,.28-2.06,0-3.86-.44-5.43-1.32-3.15-1.82-5.34-4-6.57-6.53-.76-1.48-1.29-3.49-1.58-6.02-.09-.6-.14-1.24-.14-1.91,0-3.7,.69-6.89,2.07-9.59,.47-.98,1.47-1.46,3-1.46,1.09,0,1.95,.35,2.56,1.04,.47,.53,.71,1.09,.71,1.69,0,1.31-.74,2.04-2.21,2.2-1.15,.15-2.19,.89-3.14,2.22-.67,.94-1.01,2.58-1.01,4.92,0,1.24,.17,2.39,.52,3.46,.76,2.36,2.2,4.47,4.32,6.33,2.12,1.86,4.31,2.8,6.59,2.84,2.09,.09,4.35-.59,6.79-2.05,.44-.3,1.75-1.28,3.93-2.93,1.09-.83,2.56-1.31,4.42-1.46v-28.59c0-.49-.71-.97-2.13-1.46l.35-1.77,7.55-1.46v31.96c0,1.07,.5,1.6,1.5,1.6Z"/>
    <path class="cls-2" d="M178.59,75.04v1.83h-9.03v-1.91h1.8v-29.18c-.11-1.03-.82-1.52-2.13-1.46l.35-1.77,7.55-1.46v32.27c0,1.12,.48,1.69,1.45,1.69Z"/>
    <path class="cls-2" d="M189.91,80.22c-.05,2.55-.32,4.29-.79,5.23-.27,.64-1.05,1.37-2.35,2.19-.82,.6-1.92,.9-3.3,.9-.89,0-1.79-.12-2.7-.37v-.82c1.05-.24,1.86-1,2.43-2.28,.42-1.03,.67-2.14,.76-3.32l.03-23.16c.04-.97-.16-1.5-.59-1.58-.43-.08-.83-.14-1.21-.2-.33-.24-.37-.85-.14-1.83l7.85-1.55v26.76Zm-3.55-28.62c.85,0,1.58-.32,2.17-.96,.59-.64,.89-1.37,.89-2.19,0-.88-.3-1.63-.89-2.25-.59-.62-1.31-.93-2.17-.93s-1.58,.31-2.18,.93-.9,1.37-.9,2.25c0,.83,.3,1.56,.9,2.19s1.33,.96,2.18,.96Z"/>
    <path class="cls-2" d="M215.27,77.63c0,3.86-.39,6.51-1.17,7.93-.78,1.43-2.04,2.38-3.76,2.87-1.07,.3-2.71,.45-4.91,.45-3.18,0-4.85-.02-4.99-.06-.82,.04-1.44,.06-1.85,.06-.53-.64-.46-1.2,.22-1.69,1.18,0,2.37-.03,3.57-.08,1.38-.04,2.47-.3,3.27-.79,1.29-.84,2.1-2.15,2.43-3.91,.15-.94,.19-2.73,.14-5.37-4-.15-6.74-.49-8.21-1.01-2.47-.69-4.16-2.15-5.07-4.36-.76-1.76-1.15-3.8-1.15-6.11,0-2.61,.48-4.93,1.43-6.98,.96-2.04,2.36-3.59,4.21-4.64,1.85-1.05,3.9-1.5,6.14-1.35,3.76,.24,6.43,2.11,7.99,5.6,.91,1.91,1.45,4.34,1.64,7.29,0,.19,.05,2.8,.16,7.82,0,.88-.03,2.33-.08,4.33Zm-11.05-22.17c-.85-.06-1.6,.54-2.24,1.77-.75,1.58-1.12,4.17-1.12,7.79-.05,3.58,.58,6.19,1.91,7.82,.96,1.37,2.27,2.05,3.93,2.05,.47,0,.93-.07,1.36-.22l.08-8.69c.04-2.95-.26-5.5-.87-7.65-.56-1.91-1.58-2.87-3.05-2.87Z"/>
    <path class="cls-2" d="M227.14,85.45c-.27,.64-1.05,1.37-2.35,2.19-.82,.6-1.92,.9-3.3,.9-.89,0-1.79-.12-2.7-.37v-.82c1.05-.24,1.86-1,2.43-2.28,.42-1.03,.67-2.14,.76-3.32l.03-23.16c.04-.97-.16-1.5-.59-1.58-.43-.08-.83-.14-1.21-.2-.33-.24-.37-.85-.14-1.83l7.85-1.55-.03,20.34c0,.75,.35,1.1,1.06,1.04h1.8v2.05h-2.75c-.15,.04-.22,.2-.22,.48,0,4.16-.22,6.86-.65,8.08Z"/>
    <path class="cls-2" d="M248.55,70.28c-6.67-1.41-11.35-3.25-14.02-5.51-.93-.94-1.39-2.35-1.39-4.25s.51-3.43,1.53-4.73c1.2-1.52,2.93-2.29,5.18-2.31,1.45,.08,2.94,.36,4.47,.84,3.69,1.16,7.25,3.25,10.66,6.25v11.59c-.31,2.96-2.75,4.54-7.31,4.73h-18.3v-2.05h16.91c1.33,.11,2.09-.58,2.29-2.08l-.03-2.48Zm.05-10.92c-1.29-1.39-3.04-2.08-5.24-2.08-.35,0-.67,.03-.98,.08-.65,.11-1.17,.58-1.54,1.41s-.56,1.78-.56,2.87c0,1.5,.31,2.64,.93,3.43,1.05,1.07,3.52,2.04,7.39,2.9v-8.61Zm-4.36-7.6c.85,0,1.59-.31,2.21-.93s.93-1.37,.93-2.25-.31-1.63-.93-2.24c-.62-.61-1.35-.91-2.21-.91s-1.54,.3-2.15,.91c-.62,.61-.93,1.36-.93,2.24s.31,1.63,.93,2.25,1.34,.93,2.15,.93Z"/>
  </g>
</svg>