<svg width="153" height="44" viewBox="0 0 153 44" fill="none" xmlns="http://www.w3.org/2000/svg">
<path d="M53.8534 20.3473C53.842 20.1242 53.8305 19.9069 53.8134 19.6839C53.6819 17.8768 53.3273 16.1325 52.7669 14.4798C52.4009 14.3712 52.0291 14.2739 51.6574 14.1824C50.5651 13.9194 49.4385 13.7421 48.2833 13.6563C47.9174 13.6335 47.5456 13.6163 47.1739 13.6049C47.0595 13.6049 46.9452 13.6049 46.8308 13.6049H46.6821C46.2418 13.6049 45.8071 13.6163 45.3725 13.6449C44.1659 13.7135 42.9764 13.8908 41.8269 14.1596C38.6072 14.8973 35.6564 16.367 33.1687 18.3857C32.0593 19.2779 31.0356 20.2786 30.1263 21.3766C29.5259 22.0972 28.9712 22.8578 28.4679 23.6584C27.8846 24.5791 27.3699 25.5513 26.9296 26.5635C26.4092 25.374 25.7915 24.2532 25.0881 23.1952C24.6135 22.4861 24.0988 21.8055 23.5384 21.1536C22.6805 20.1471 21.7255 19.2207 20.7019 18.3914C18.2085 16.3784 15.2576 14.9087 12.0322 14.1653C10.7398 13.8622 9.40734 13.6849 8.03484 13.6277C7.7489 13.6163 7.46868 13.6106 7.18274 13.6106H7.0455C6.91968 13.6106 6.79387 13.6106 6.66806 13.6106C5.99896 13.6277 5.3413 13.6735 4.68937 13.7535C3.83728 13.845 2.99662 13.9937 2.18456 14.1939C1.81856 14.2797 1.45828 14.3769 1.098 14.4798C0.474655 16.3441 0.102937 18.3171 0.0171555 20.353C0.0171555 20.3873 0.0171555 20.4159 0.0171555 20.4502C0.00571805 20.7304 0 21.0106 0 21.2909C0 32.1965 8.09774 41.1978 18.6031 42.6275C18.9576 42.6789 19.3179 42.7133 19.6782 42.7476C20.2444 42.799 20.8162 42.8162 21.3881 42.8219L20.4674 41.8612L20.2844 41.6725L16.2698 37.4692C9.87627 36.354 4.87237 31.1671 4.04315 24.6763C3.96309 24.0416 3.91734 23.4011 3.91734 22.7491C3.91734 21.2851 4.12894 19.8669 4.52353 18.523C6.81103 22.4232 9.4588 26.0889 12.4268 29.4629C15.006 32.3909 17.8139 35.0959 20.8391 37.5607C21.3538 37.9896 21.8742 38.3956 22.406 38.8017C22.7778 39.0933 23.1495 39.3678 23.5269 39.648C24.3676 40.2771 25.2311 40.8775 26.1003 41.4666C26.3748 41.6496 26.6494 41.8269 26.9181 42.0041C27.2041 41.8211 27.4786 41.6381 27.7531 41.4494C28.6166 40.8718 29.463 40.2656 30.2979 39.648C30.6811 39.3621 31.0642 39.0819 31.4417 38.7845C31.9678 38.3842 32.4825 37.9724 32.9914 37.5607C36.0281 35.0845 38.8589 32.3566 41.438 29.4229C44.4003 26.0488 47.0481 22.3946 49.3242 18.4944C49.7302 19.8383 49.9418 21.2737 49.9418 22.7491C49.9418 23.0865 49.9303 23.4239 49.9018 23.7556C49.4271 30.9784 43.8056 36.8058 36.6743 37.6007L33.0658 41.3808L33.0429 41.4094L31.7047 42.8105C31.9106 42.8105 32.1222 42.8219 32.3281 42.8219C32.9571 42.8219 33.5747 42.7933 34.1866 42.7476C34.5412 42.7133 34.8901 42.6789 35.2389 42.6275C45.7614 41.2035 53.8591 32.1965 53.8591 21.2909C53.8591 20.9763 53.8591 20.6561 53.8363 20.3473H53.8534ZM23.8529 32.7112C23.8414 33.3917 23.7843 34.0608 23.6756 34.7127C20.4788 32.0192 17.528 29.0569 14.8516 25.843C13.6449 24.3904 12.4897 22.8864 11.3975 21.3423C11.2087 21.0678 11.0143 20.7933 10.8313 20.5245C10.1336 19.5066 9.46452 18.4715 8.82402 17.4193H8.90409C9.66468 17.4193 10.4081 17.4764 11.1344 17.5851C14.6629 18.1169 17.7853 19.8726 20.0556 22.4117C20.21 22.5833 20.3644 22.7606 20.5074 22.9436C21.0564 23.6184 21.5425 24.3332 21.96 25.0995C23.1666 27.2498 23.8529 29.7317 23.8529 32.3738C23.8529 32.4881 23.8529 32.6025 23.8414 32.7169L23.8529 32.7112ZM44.1087 18.8604C43.9771 19.0663 43.8399 19.2779 43.7026 19.4837C43.6912 19.5009 43.6855 19.5123 43.674 19.5295C43.4625 19.8497 43.2394 20.1757 43.0221 20.4959C41.8212 22.2516 40.5459 23.9558 39.1906 25.5971C36.4684 28.8911 33.4547 31.9392 30.1778 34.6899C30.0749 34.0437 30.012 33.386 30.0062 32.7169C29.9948 32.6025 29.9948 32.4881 29.9948 32.3738C29.9948 29.8461 30.6239 27.4671 31.7276 25.3798C32.1622 24.562 32.6712 23.7899 33.2431 23.0694C33.4203 22.8463 33.6033 22.6233 33.7978 22.406C36.0681 19.8669 39.1848 18.1112 42.7133 17.5794C43.3881 17.4822 44.0744 17.425 44.7778 17.4193C44.8407 17.4193 44.8921 17.4193 44.955 17.4193H45.0122C44.7091 17.9054 44.4118 18.3857 44.103 18.8661L44.1087 18.8604Z" fill="#6CBE45"/>
<path d="M48.0833 11.3746H44.9666C43.7828 7.56595 40.2372 4.8038 36.0453 4.8038C35.8223 4.8038 35.5993 4.8038 35.3762 4.8324C32.5798 5.02111 30.1264 6.45651 28.5423 8.57245C28.2964 8.89842 28.0734 9.25298 27.8675 9.61898C27.7017 9.91064 27.5587 10.2023 27.4272 10.5111C27.3071 10.797 27.2042 11.0773 27.1127 11.3746C26.8496 12.2153 26.7009 13.1074 26.6952 14.0281C26.6837 13.1074 26.5351 12.2153 26.272 11.3746C26.2091 11.1745 26.1405 10.9629 26.0604 10.7684C25.866 10.2423 25.6143 9.74479 25.3284 9.27585C25.0996 8.90985 24.8537 8.5553 24.5735 8.21789C23.0752 6.39361 20.9021 5.14692 18.4316 4.87242C18.0828 4.82667 17.7225 4.80952 17.3565 4.80952C13.1589 4.80952 9.61329 7.57167 8.43523 11.3804H4.87817C4.93536 11.0601 5.00399 10.7399 5.08405 10.4368C6.48514 5.08973 11.3518 1.14952 17.1334 1.14952C18.9692 1.14952 20.7248 1.54983 22.2917 2.27039C23.8987 2.99667 25.3227 4.06036 26.4779 5.36423C27.7417 3.92311 29.3372 2.77937 31.1444 2.05309C32.5912 1.46977 34.1639 1.1438 35.8166 1.1438C41.9356 1.1438 47.031 5.55867 48.0776 11.3804L48.0833 11.3746Z" fill="#C6A969"/>
<path d="M72.6052 20.9077C73.1428 19.9584 73.1428 19.2264 73.1428 18.2028V3.42553C73.1428 1.72135 71.8046 0.84638 70.4893 0.84638C69.2712 0.84638 68.076 1.647 68.076 3.2311C68.076 4.20328 68.6593 4.98675 69.4885 4.98675C69.9746 4.98675 70.4378 4.69509 70.6323 4.209C71.0955 4.69509 71.3357 5.37562 71.3357 6.08474C71.3357 8.39512 69.7516 9.97921 67.344 9.97921C64.7134 9.97921 62.8662 7.86328 62.8662 5.13544C62.8662 2.4076 65.0336 0 68.4935 0C72.1191 0 73.6289 1.65272 77.8665 1.65272C80.011 1.65272 82.2756 1.1895 84.7576 1.06941L85.1236 4.64934C82.5673 3.96881 79.7651 3.96881 77.8894 3.96881V8.6925H82.5616L82.7331 10.4939H77.8894V18.2142C77.8894 19.2379 77.8894 19.9699 78.4269 20.9192H72.6052V20.9077Z" fill="#6CBE45"/>
<path d="M85.2436 20.9077C85.7812 19.9584 85.7812 19.2264 85.7812 18.2027V9.12137C85.7812 8.44084 85.5639 7.97762 85.2436 7.66309C86.8277 7.66309 89.6242 7.46865 90.5278 6.42212V11.4603H90.7222C91.4542 7.22274 94.3993 5.347 97.659 7.19987L96.9042 10.9742C93.3242 9.36727 91.254 11.8263 90.522 14.5027V18.2027C90.522 19.2264 90.522 19.9584 91.0596 20.9077H85.2379H85.2436Z" fill="#6CBE45"/>
<path d="M98.1737 13.7993C98.1737 8.76108 101.582 6.42212 106.037 6.42212C110.492 6.42212 113.854 8.76108 113.854 13.7993C113.854 18.8375 109.84 21.1994 106.037 21.1994C102.234 21.1994 98.1737 18.9347 98.1737 13.7993ZM109.102 13.7993C109.102 10.368 107.347 9.02987 106.037 9.02987C104.727 9.02987 102.92 10.368 102.92 13.7993C102.92 17.2305 104.676 18.523 106.037 18.523C107.398 18.523 109.102 17.1619 109.102 13.7993Z" fill="#6CBE45"/>
<path d="M114.558 20.9077L121.666 9.44161C119.596 9.44161 116.457 9.53883 114.872 10.2194L115.187 6.83386H127.894L120.809 18.4715C122.879 18.4944 126.436 18.2999 127.94 17.5222L127.597 20.9077H114.547H114.558Z" fill="#6CBE45"/>
<path d="M129.776 16.8931C129.776 13.7764 132.383 12.484 135.008 12.484C136.712 12.484 138.394 12.993 139.463 13.8222C138.926 13.5076 138.222 13.3361 137.513 13.3361C135.54 13.3361 134.007 14.4055 134.007 16.2069C134.007 17.4993 134.911 18.2771 136.003 18.2771C137.341 18.2771 138.903 16.9389 139.463 14.3826V11.5118C139.463 10.1507 138.268 9.32152 136.638 9.32152C135.443 9.32152 134.03 9.73327 132.595 10.6368L131.623 7.83465C133.424 6.93109 135.591 6.42212 137.639 6.42212C141.122 6.42212 144.215 7.93187 144.215 11.5347V18.9633C144.215 19.7182 144.313 20.3015 144.947 20.9134H141.928C139.932 20.9134 139.469 19.621 139.469 18.237V16.6301H139.394C138.811 19.5752 136.621 21.2794 134.162 21.2794C131.972 21.2794 129.781 19.7468 129.781 16.8989L129.776 16.8931Z" fill="#6CBE45"/>
<path d="M146.6 20.9078C147.138 19.9585 147.138 19.2265 147.138 18.2028V3.42557C147.138 2.74504 146.92 2.28182 146.6 1.96728C148.184 1.96728 150.981 1.77285 151.884 0.726318V18.2085C151.884 19.2322 151.884 19.9642 152.422 20.9135H146.6V20.9078Z" fill="#6CBE45"/>
<path d="M71.1411 41.6839C71.6043 40.8661 71.6043 40.237 71.6043 39.3506V26.6035C71.6043 25.1338 70.4491 24.3789 69.3168 24.3789C68.2645 24.3789 67.2352 25.0709 67.2352 26.4377C67.2352 27.2783 67.7384 27.9474 68.4533 27.9474C68.8707 27.9474 69.271 27.6958 69.4426 27.2726C69.8429 27.6901 70.0488 28.2791 70.0488 28.891C70.0488 30.8869 68.682 32.2479 66.6061 32.2479C64.3358 32.2479 62.7402 30.4236 62.7402 28.0675C62.7402 25.7114 64.6103 23.6355 67.5897 23.6355C70.7179 23.6355 72.0218 25.0652 75.676 25.0652C77.5232 25.0652 79.479 24.6649 81.6178 24.5619L81.9323 27.6501C79.7249 27.061 77.3116 27.061 75.6932 27.061V31.1328H79.7249L79.8736 32.6883H75.6932V39.3449C75.6932 40.2256 75.6932 40.8546 76.1564 41.6781H71.1353L71.1411 41.6839Z" fill="#C6A969"/>
<path d="M81.0918 34.7128C81.0918 31.6876 83.5909 28.811 86.9935 28.811C87.7484 28.811 88.5033 28.9368 89.3268 29.2285C86.2844 29.6688 85.0435 32.3567 85.0435 34.9186C85.0435 37.4806 86.2387 39.7681 88.0458 39.7681C89.9787 39.7681 90.8995 37.6694 90.8995 35.6964C90.8995 33.5347 89.6585 31.7276 87.8342 32.5053C88 31.2472 89.2639 30.5324 90.6478 30.5324C92.6608 30.5324 94.9941 32.105 94.9941 35.7193C94.9941 39.791 91.4427 41.9355 88.1716 41.9355C84.4144 41.9355 81.0975 39.791 81.0975 34.7128H81.0918Z" fill="#C6A969"/>
<path d="M96.3838 34.7128C96.3838 31.6876 98.8829 28.811 102.286 28.811C103.04 28.811 103.795 28.9368 104.619 29.2285C101.576 29.6688 100.335 32.3567 100.335 34.9186C100.335 37.4806 101.531 39.7681 103.338 39.7681C105.271 39.7681 106.191 37.6694 106.191 35.6964C106.191 33.5347 104.95 31.7276 103.126 32.5053C103.292 31.2472 104.556 30.5324 105.94 30.5324C107.953 30.5324 110.286 32.105 110.286 35.7193C110.286 39.791 106.735 41.9355 103.464 41.9355C99.7064 41.9355 96.3895 39.791 96.3895 34.7128H96.3838Z" fill="#C6A969"/>
<path d="M120.471 39.3964H120.368C119.825 41.0777 118.309 41.9813 116.714 41.9813C114.301 41.9813 111.676 39.9854 111.676 35.6792C111.676 30.9956 114.278 29.2513 116.674 29.2513C118.269 29.2513 119.779 30.0291 120.368 31.2472H120.471V27.1926C120.471 26.3748 120.408 25.7858 120.008 25.2825C121.392 25.2825 123.788 25.1167 124.566 24.2131V40.0655C124.566 42.5646 126.035 43.3824 127.231 43.3824C128.7 43.3824 129.667 42.5017 129.667 41.2207C129.667 40.1513 128.912 39.2477 127.757 39.2477C127.482 39.2477 127.208 39.3106 126.939 39.5222C126.813 39.059 126.727 38.5958 126.727 38.1383C126.727 36.1424 128.071 34.6727 130.067 34.6727C132.252 34.6727 133.721 36.3941 133.721 38.4757C133.721 42.0442 130.296 44 126.939 44C124.165 44 121.209 42.679 120.471 39.4021V39.3964ZM120.471 38.5786V33.0372C120.008 32.4081 119.15 31.9678 118.287 31.9678C116.965 31.9678 115.765 32.9971 115.765 35.5992C115.765 38.4528 117.086 39.7166 118.475 39.7166C119.253 39.7166 120.031 39.2992 120.471 38.5843V38.5786Z" fill="#C6A969"/>
</svg>
