<svg width="80" height="80" viewBox="0 0 80 80" fill="none" xmlns="http://www.w3.org/2000/svg">
<rect x="2" y="2" width="76" height="76" rx="38" stroke="#E0E0E0" stroke-width="4"/>
<path d="M40.0004 20C28.9713 20 20.002 28.9729 20.002 40.0016C20.002 51.0271 28.9725 60 40.0004 60C51.029 60 59.9988 51.0271 59.9988 40.0016C59.9992 28.9729 51.029 20 40.0004 20ZM40.0004 21.332C48.7777 21.332 56.1373 27.431 58.1224 35.608H47.6508C46.1271 32.9582 43.2758 31.1727 40.0008 31.1727C36.7249 31.1727 33.8748 32.9582 32.3507 35.608H21.8791C23.8615 27.431 31.2227 21.332 40.0004 21.332ZM43.3135 41.9526C44.5019 43.141 45.1657 44.4012 44.7963 44.7678C44.4241 45.14 43.1643 44.4746 41.9776 43.289C41.478 42.785 41.0784 42.2744 40.8015 41.8209C40.9241 42.3315 40.9999 42.9672 40.9999 43.6623C40.9999 45.3435 40.5765 46.7041 40.0547 46.7041C39.5337 46.7041 39.1092 45.3435 39.1092 43.6623C39.1092 42.943 39.1913 42.2938 39.3199 41.772C39.0425 42.2323 38.641 42.7497 38.1323 43.2604C36.9447 44.4456 35.6806 45.1098 35.3135 44.738C34.9469 44.3686 35.6083 43.1088 36.7979 41.9216C37.2983 41.4205 37.8113 41.0209 38.2644 40.74C37.753 40.8638 37.1161 40.944 36.4134 40.944C34.7338 40.944 33.3725 40.5202 33.3725 39.9988C33.3725 39.4774 34.7338 39.0549 36.4134 39.0549C37.0796 39.0549 37.6883 39.1243 38.1882 39.2354C37.753 38.9632 37.2705 38.5783 36.7979 38.1049C35.6103 36.919 34.9457 35.6552 35.3151 35.2878C35.6825 34.918 36.9451 35.5798 38.1327 36.7686C38.6465 37.2832 39.054 37.8074 39.3314 38.2704C39.1933 37.7435 39.11 37.0761 39.11 36.3333C39.11 34.6537 39.5345 33.2923 40.0555 33.2923C40.5769 33.2923 41.0007 34.6537 41.0007 36.3333C41.0007 37.0523 40.9193 37.6998 40.7912 38.2212C41.0685 37.7629 41.4709 37.2471 41.9783 36.738C43.1651 35.5504 44.4281 34.887 44.7971 35.2572C45.1637 35.6274 44.4983 36.8864 43.3143 38.074C42.8013 38.5874 42.2771 38.9945 41.8157 39.2703C42.3394 39.1366 43.0048 39.0529 43.7436 39.0529C45.4217 39.0529 46.7866 39.4766 46.7866 39.998C46.7866 40.519 45.4244 40.9432 43.7436 40.9432C42.9723 40.9432 42.2743 40.8523 41.7407 40.7039C42.2192 40.9816 42.7719 41.4082 43.3135 41.9526ZM40.0004 58.6668C31.2223 58.6668 23.8615 52.5658 21.8776 44.3889H32.3487C33.8732 47.0382 36.7245 48.8225 40.0004 48.8225C43.2754 48.8225 46.1267 47.0382 47.6504 44.3889H58.1224C56.14 52.5694 48.7777 58.6668 40.0004 58.6668ZM39.4841 39.5532L36.8955 36.9654L36.9927 36.8682L39.5762 39.4516C39.5401 39.4826 39.5111 39.5167 39.4841 39.5532ZM40.0547 39.2632C40.0285 39.2632 40.0123 39.2735 39.9869 39.2763V35.5985H40.1226V39.2763C40.1023 39.2735 40.0825 39.2632 40.0547 39.2632ZM39.7056 39.364C39.7163 39.2969 39.7111 39.2191 39.6948 39.1342C39.7488 39.2076 39.8071 39.262 39.8678 39.2993C39.8119 39.3148 39.7575 39.3346 39.7056 39.364ZM39.2179 40.3571C39.275 40.3123 39.3278 40.2651 39.3623 40.2182C39.3794 40.267 39.3984 40.3147 39.4262 40.3595C39.3651 40.3492 39.2945 40.3492 39.2179 40.3571ZM40.6622 40.3964C40.7098 40.323 40.7432 40.2456 40.7606 40.1575C40.8043 40.2401 40.8749 40.319 40.9836 40.3924C40.857 40.3654 40.7527 40.3706 40.6622 40.3964ZM40.6162 39.537C40.5872 39.5016 40.5539 39.4707 40.5178 39.4433L43.1195 36.8404L43.2159 36.9372L40.6162 39.537ZM40.413 39.3707C40.3622 39.3401 40.3055 39.3191 40.2456 39.2993C40.3051 39.2648 40.3595 39.2096 40.413 39.137C40.4011 39.2247 40.4011 39.304 40.413 39.3707ZM40.9455 39.6389C40.8614 39.7028 40.8003 39.7707 40.7606 39.8413C40.7443 39.7707 40.7205 39.704 40.6848 39.6389C40.7606 39.6568 40.8471 39.6568 40.9455 39.6389ZM39.4012 39.6766C39.3861 39.708 39.3754 39.7445 39.3623 39.7786C39.3361 39.7445 39.2973 39.7107 39.2564 39.6766C39.308 39.681 39.358 39.6838 39.4012 39.6766ZM39.4961 40.4603C39.525 40.5 39.5556 40.5309 39.5933 40.5579L36.9927 43.1612L36.8955 43.0636L39.4961 40.4603ZM44.4785 40.0718H40.7804C40.7832 40.046 40.7927 40.0242 40.7927 40.0012C40.7927 39.9766 40.7832 39.9548 40.7804 39.929H44.4785V40.0718ZM40.6027 40.4793L43.2159 43.0922L43.1195 43.1898L40.5007 40.5718C40.5388 40.5432 40.5749 40.5162 40.6027 40.4793ZM40.6543 40.0016C40.6543 40.3313 40.3853 40.6003 40.0547 40.6003C39.7242 40.6003 39.4536 40.3313 39.4536 40.0016C39.4536 39.6703 39.7226 39.4013 40.0547 39.4013C40.3853 39.4013 40.6543 39.6703 40.6543 40.0016ZM40.2456 40.7019C40.3107 40.6785 40.3702 40.6531 40.4273 40.6234C40.4047 40.6912 40.3995 40.7698 40.4102 40.8582C40.3563 40.7916 40.3027 40.736 40.2456 40.7019ZM39.6948 40.6301C39.7488 40.6614 39.8044 40.6817 39.8678 40.7023C39.8075 40.7364 39.7524 40.792 39.698 40.8638C39.7099 40.7753 39.7099 40.6991 39.6948 40.6301ZM39.3334 40.0718H35.6794V39.9294H39.3334C39.3306 39.9548 39.3199 39.977 39.3199 40.0016C39.3195 40.023 39.3306 40.046 39.3334 40.0718ZM40.0547 40.736C40.0825 40.736 40.1008 40.7265 40.1226 40.7237V44.4012H39.9869V40.7237C40.0123 40.7265 40.0297 40.736 40.0547 40.736ZM29.5879 29.4304C29.2221 29.7169 29.1399 30.1962 29.2871 30.5791C29.3137 30.6644 29.3748 30.7704 29.4502 30.8648L30.8822 32.6995L30.3275 33.1332L28.5896 30.9069C28.3452 30.5914 28.1353 30.3379 27.9206 30.1018L28.413 29.7181L28.8388 30.1986L28.8511 30.1879C28.7749 29.7808 28.9082 29.2205 29.4121 28.8265C29.8343 28.4988 30.6858 28.2373 31.502 29.284L32.9241 31.1041L32.3694 31.5393L30.9965 29.7816C30.612 29.2884 30.1105 29.0217 29.5879 29.4304ZM33.353 27.1302C34.0827 26.8247 34.3843 27.3211 34.51 27.6143L34.539 27.6909C33.1594 28.2611 32.592 29.0523 32.9523 29.9137C33.1689 30.4283 33.7502 30.7846 34.4715 30.4815C34.9782 30.2688 35.2572 29.8578 35.3393 29.4915L35.3615 29.4832L35.602 29.9125L36.192 29.6653C36.046 29.4399 35.9039 29.1439 35.7746 28.8336L35.2143 27.5004C34.9156 26.7842 34.3386 26.1534 33.2483 26.6089C32.7995 26.7985 32.4241 27.1033 32.2107 27.4183L32.538 27.7826C32.7189 27.5171 33.0201 27.2663 33.353 27.1302ZM35.0036 28.7499C35.0314 28.817 35.0465 28.8948 35.052 28.9729C35.077 29.3177 34.9048 29.7359 34.4418 29.9296C34.1113 30.07 33.7466 29.9867 33.5701 29.5685C33.2808 28.8745 34.0319 28.4127 34.7437 28.1317L35.0036 28.7499ZM35.779 25.803L36.369 25.6919L36.1964 24.7809L36.836 24.4726L37.0431 25.5621L38.0319 25.3749L38.1323 25.899L37.1439 26.0879L37.5316 28.1377C37.6232 28.6083 37.8065 28.8499 38.1922 28.7745C38.3716 28.74 38.4989 28.6912 38.5827 28.6507L38.7124 29.1638C38.5882 29.2427 38.3839 29.3221 38.118 29.3737C37.797 29.4336 37.5185 29.382 37.3177 29.2249C37.082 29.0594 36.9491 28.7352 36.8642 28.2873L36.4678 26.2172L35.8809 26.3299L35.779 25.803ZM39.3092 27.4683L39.3996 25.2046L40.1051 25.2352L40.0174 27.3766C39.9881 28.1107 40.1912 28.6158 40.832 28.642C41.3014 28.661 41.6435 28.3468 41.7847 28.0397C41.8307 27.9377 41.8581 27.8115 41.8633 27.6838L41.9609 25.309L42.664 25.3395L42.5473 28.1524C42.5311 28.5531 42.5227 28.9047 42.539 29.209L41.9145 29.1824L41.901 28.5503L41.8819 28.5484C41.6851 28.8531 41.2625 29.2455 40.5757 29.2158C39.967 29.1915 39.2536 28.8269 39.3092 27.4683ZM44.0389 29.6292L43.3691 29.4451L44.0738 26.8775C44.196 26.4375 44.2896 26.0585 44.3642 25.705L44.9562 25.8677L44.7797 26.6045L44.8082 26.6132C45.1161 26.1597 45.6117 25.9554 46.0656 26.0788C46.1442 26.1026 46.1958 26.1252 46.2529 26.1569L46.0768 26.7965C46.0113 26.762 45.9422 26.7343 45.8514 26.7089C45.3732 26.5779 44.9372 26.8469 44.7039 27.3302C44.663 27.4207 44.6182 27.5223 44.5856 27.6377L44.0389 29.6292ZM48.4789 28.7975C47.1536 28.1103 46.1811 28.1857 45.755 29.0174C45.4994 29.5133 45.6042 30.1879 46.3021 30.545C46.7949 30.7969 47.2877 30.745 47.6155 30.574L47.6389 30.5843L47.4675 31.0433L48.0337 31.3338C48.1138 31.0775 48.2456 30.7799 48.4019 30.4811L49.0606 29.1939C49.4109 28.5027 49.522 27.6528 48.4714 27.1136C48.0365 26.891 47.5615 26.8005 47.1814 26.8418L47.1132 27.3274C47.4342 27.2953 47.8194 27.3632 48.14 27.529C48.8431 27.8921 48.6586 28.444 48.5146 28.7265L48.4789 28.7975ZM47.9655 29.8351C47.9341 29.9002 47.8813 29.9629 47.8246 30.0157C47.5774 30.2573 47.1485 30.3954 46.6973 30.1657C46.3783 30.0034 46.2045 29.6721 46.4148 29.2661C46.7541 28.5999 47.5937 28.8757 48.2698 29.2384L47.9655 29.8351ZM48.6733 31.8611L52.148 27.3715L52.7047 27.8024L49.2284 32.292L48.6733 31.8611ZM33.4074 50.218H34.0061V55.4132H33.328V50.8711H33.311L32.4087 51.3612L32.2722 50.8235L33.4074 50.218ZM37.6296 50.1295C36.5757 50.1295 35.8238 51.0882 35.8238 52.8305C35.8405 54.547 36.5269 55.5004 37.5423 55.5004C38.6922 55.5004 39.3488 54.524 39.3488 52.7575C39.3488 51.1045 38.7239 50.1295 37.6296 50.1295ZM37.5828 54.9541C36.9431 54.9541 36.5269 54.1867 36.5269 52.84C36.5269 51.4239 36.9749 50.6712 37.5895 50.6712C38.3168 50.6712 38.6461 51.512 38.6461 52.7896C38.6445 54.1165 38.2997 54.9541 37.5828 54.9541ZM41.7264 50.1295C40.6693 50.1295 39.9182 51.0882 39.9182 52.8305C39.9365 54.547 40.6233 55.5004 41.6351 55.5004C42.7842 55.5004 43.4413 54.524 43.4413 52.7575C43.4441 51.1045 42.8195 50.1295 41.7264 50.1295ZM41.6776 54.9541C41.0395 54.9541 40.6237 54.1867 40.6237 52.84C40.6237 51.4239 41.0705 50.6712 41.6859 50.6712C42.4124 50.6712 42.741 51.512 42.741 52.7896C42.741 54.1165 42.3954 54.9541 41.6776 54.9541ZM47.3536 53.9113C47.3619 54.9485 47.9214 55.4675 48.5698 55.4675C49.234 55.4675 49.8097 54.9227 49.8097 53.8284C49.8097 52.8384 49.3359 52.2793 48.6094 52.2793C47.921 52.2793 47.3536 52.863 47.3536 53.9113ZM49.257 53.8593C49.257 54.5494 49.0479 55.0449 48.5872 55.0449C48.1539 55.0449 47.9004 54.541 47.9055 53.8772C47.9055 53.2217 48.1472 52.6999 48.5872 52.6999C49.0713 52.7003 49.257 53.2308 49.257 53.8593ZM45.1304 55.5L48.1857 50.1295H48.6309L45.5788 55.5H45.1304ZM46.4275 51.679C46.4275 50.689 45.9454 50.1295 45.2217 50.1295C44.5356 50.1295 43.9682 50.7124 43.9682 51.7524C43.9766 52.7979 44.536 53.3177 45.1824 53.3177C45.8502 53.3177 46.4275 52.7745 46.4275 51.679ZM44.5249 51.7278C44.5249 51.0735 44.7558 50.5517 45.1931 50.5517C45.6819 50.5517 45.8637 51.0787 45.8637 51.7115C45.8637 52.3984 45.6573 52.894 45.1931 52.894C44.7558 52.8944 44.5102 52.3904 44.5249 51.7278Z" fill="#6CBE43"/>
<rect x="64" y="11" width="16" height="16" rx="8" fill="#6CBE43"/>
</svg>
