<svg width="80" height="80" viewBox="0 0 80 80" fill="none" xmlns="http://www.w3.org/2000/svg">
<rect x="2" y="2" width="76" height="76" rx="38" stroke="#E0E0E0" stroke-width="4"/>
<path d="M41.3939 54.6438C41.1877 54.6375 40.994 54.625 40.8252 54.6125L41.0939 54.3375L41.3939 54.6438Z" fill="#6CBE43"/>
<path d="M39.2873 54.6062C39.1186 54.6187 38.9248 54.6312 38.7061 54.6375L39.0123 54.325L39.2873 54.6062Z" fill="#6CBE43"/>
<path d="M57.481 37.55C57.4762 37.4083 57.4235 37.2725 57.3316 37.1647C57.2396 37.0568 57.1138 36.9833 56.9747 36.9562C52.7259 36.0939 42.3101 36.7402 39.9998 46.6376C37.6785 36.7032 27.2115 36.1026 23.0247 36.9564C22.8856 36.9835 22.7598 37.0569 22.6679 37.1647C22.5759 37.2725 22.5233 37.4084 22.5185 37.55C21.9362 48.7335 28.468 54.7336 37.7186 54.6623C38.2933 54.6604 38.7818 54.6396 39.2872 54.6062L39.0122 54.325L38.0997 53.3937L31.156 46.3437C31.0174 46.2023 30.9388 46.0129 30.9364 45.815C30.9341 45.617 31.0083 45.4258 31.1435 45.2812C31.209 45.2112 31.2882 45.1553 31.3761 45.1169C31.4639 45.0784 31.5587 45.0583 31.6546 45.0577C31.7505 45.0572 31.8456 45.0761 31.9339 45.1135C32.0223 45.1508 32.1021 45.2058 32.1685 45.275C32.1811 45.2875 39.3692 52.5887 39.381 52.5999L40.0372 53.2687L40.6185 52.675C40.636 52.68 47.8019 45.2821 47.8185 45.2813C48.5382 44.5735 49.5098 45.6864 48.8434 46.375L42.006 53.4L41.0935 54.3375L40.8247 54.6125C40.9935 54.625 41.1872 54.6375 41.3935 54.6437C51.0304 55.0934 58.086 49.1734 57.481 37.55Z" fill="#6CBE43"/>
<path d="M36.95 39.075C37.9522 39.9524 38.8105 40.9816 39.4937 42.125L39.475 37.6562C39.474 37.5739 39.4895 37.4922 39.5206 37.4159C39.5517 37.3396 39.5977 37.2703 39.6559 37.2121C39.7141 37.1539 39.7834 37.1079 39.8597 37.0768C39.9359 37.0458 40.0177 37.0302 40.1 37.0312C40.2646 37.0313 40.4226 37.0964 40.5396 37.2122C40.6566 37.328 40.7232 37.4853 40.725 37.65L40.7437 41.75C41.3848 40.7557 42.161 39.8554 43.05 39.075C44.2201 38.0538 45.5587 37.2438 47.0062 36.6812C46.6812 32.8312 44.5187 29.0812 40.5562 25.5C40.4513 25.4057 40.3173 25.35 40.1764 25.3421C40.0356 25.3341 39.8962 25.3744 39.7812 25.4562C39.4875 25.6625 33.3937 29.9937 32.875 36.6375C34.3678 37.2005 35.7479 38.026 36.95 39.075Z" fill="#6CBE43"/>
<rect x="64" y="11" width="16" height="16" rx="8" fill="#6CBE43"/>
</svg>
