<svg width="80" height="80" viewBox="0 0 80 80" fill="none" xmlns="http://www.w3.org/2000/svg">
<rect x="2" y="2" width="76" height="76" rx="38" stroke="#E0E0E0" stroke-width="4"/>
<g clip-path="url(#clip0_1123_6982)">
<path d="M38.5713 38.3981L40.7141 36.2553V33.5714H38.5713V38.3981Z" fill="#6CBE43"/>
<path d="M42.1426 34.8267L43.3423 33.627C42.9438 33.5906 42.5431 33.5714 42.1426 33.5714V34.8267Z" fill="#6CBE43"/>
<path d="M22.8574 40C22.8581 43.8063 24.1251 47.5042 26.4587 50.5112L30.0003 46.9696V43.1531L28.7809 41.9337C28.647 41.7998 28.5717 41.6181 28.5717 41.4286V37.9415L28.403 37.8572H27.8574V39.2858C27.8574 39.6802 27.5376 40 27.1431 40C26.7487 40 26.4289 39.6802 26.4289 39.2858V37.8572H25.7146C25.3201 37.8572 25.0003 37.5374 25.0003 37.1429V35C25.0021 33.4228 26.2802 32.1447 27.8574 32.1429C27.8913 32.1429 27.925 32.1453 27.9585 32.1501L32.8199 32.8446L35.5414 32.1642C35.598 32.15 35.6562 32.1429 35.7146 32.1429H42.1431C42.9718 32.143 43.7989 32.2137 44.6155 32.3543L50.5115 26.4584C47.5045 24.1249 43.8066 22.8579 40.0003 22.8572C30.5477 22.8572 22.8574 30.5474 22.8574 40Z" fill="#6CBE43"/>
<path d="M45.3415 44.8623L49.7676 36.009C49.2232 35.6215 48.6501 35.2761 48.0533 34.9758L46.3993 36.6298L44.4131 44.5741C44.718 44.6839 45.0275 44.7798 45.3415 44.8623Z" fill="#6CBE43"/>
<path d="M32.5377 39.9246L30 38.6558V41.1327L31.2194 42.3521C31.3533 42.486 31.4286 42.6677 31.4286 42.8572V45.541L33.3621 43.6072L34.1632 40.4018L32.6607 39.9725C32.6183 39.9604 32.5771 39.9443 32.5377 39.9246Z" fill="#6CBE43"/>
<path d="M33.0305 34.2644C32.9409 34.2867 32.8477 34.2915 32.7562 34.2785L27.8116 33.5721C27.0412 33.5977 26.4296 34.2292 26.4287 35V36.4286H28.5716C28.6825 36.4286 28.7918 36.4544 28.891 36.504L33.1174 38.6171L37.143 39.7678V33.5714H35.8023L33.0305 34.2644ZM28.5716 35.7143H27.143V34.2857H28.5716V35.7143Z" fill="#6CBE43"/>
<path d="M35.3252 41.6443L36.0332 40.9364L35.5375 40.7947L35.3252 41.6443Z" fill="#6CBE43"/>
<path d="M54.1431 25.8584C46.3327 18.048 33.6693 18.048 25.8588 25.8584C18.0484 33.6689 18.0484 46.3323 25.8588 54.1427C33.6693 61.9532 46.3327 61.9532 54.1431 54.1427C61.9535 46.3323 61.9536 33.669 54.1431 25.8584ZM26.405 52.2906C26.3955 52.2906 26.386 52.2906 26.3765 52.2901C26.1774 52.2821 25.9906 52.1913 25.8613 52.0396C23.0012 48.6802 21.4302 44.4126 21.4295 40.0006C21.4295 29.7603 29.7607 21.4292 40.001 21.4292C44.4129 21.4299 48.6807 23.0009 52.0401 25.8609C52.3403 26.1168 52.3762 26.5676 52.1203 26.8679C52.108 26.8823 52.0952 26.8962 52.0818 26.9096L26.9101 52.0814C26.7761 52.2153 26.5944 52.2906 26.405 52.2906ZM40.001 58.572C35.589 58.5713 31.3212 57.0003 27.9618 54.1402C27.6616 53.8843 27.6257 53.4335 27.8816 53.1333C27.8939 53.1189 27.9067 53.105 27.9201 53.0916L53.0919 27.9202C53.3708 27.6413 53.823 27.6413 54.102 27.9202C54.1154 27.9336 54.1283 27.9476 54.1406 27.962C57.0006 31.3213 58.5716 35.5888 58.5724 40.0006C58.5724 50.2409 50.2412 58.572 40.001 58.572Z" fill="#6CBE43"/>
<path d="M40.7139 42.3162L40.1094 42.9206C40.2991 43.0553 40.5016 43.1708 40.7139 43.2657V42.3162Z" fill="#6CBE43"/>
<path d="M53.5411 29.4889L49.1119 33.9181C49.8142 34.2996 50.4837 34.7384 51.114 35.2298L51.1193 35.2341C52.8256 36.5695 54.2144 38.2668 55.1857 40.2038L55.2937 40.4199C55.5693 40.9726 55.7131 41.5816 55.7138 42.1992C55.7233 44.1665 54.286 45.842 52.3402 46.1319L49.9384 46.5016C48.4908 46.7242 47.0151 46.6853 45.5812 46.3868C45.5776 46.3861 45.574 46.3851 45.5704 46.3844L45.5607 46.3822C44.2877 46.1159 43.0654 45.648 41.9402 44.9959C41.7268 44.9873 41.5141 44.9645 41.3037 44.9276C40.4952 44.7873 39.7343 44.4481 39.0894 43.9405L39.0185 44.0113L38.6646 45.4275L41.1424 47.2858C41.3222 47.4207 41.4281 47.6324 41.4281 47.8572V52.8572C41.4281 53.2517 41.1083 53.5715 40.7138 53.5715C40.3194 53.5715 39.9995 53.2517 39.9995 52.8572V48.2143L37.4281 46.2858C37.292 46.1834 37.197 46.0358 37.1602 45.8695L35.9482 47.0816L36.933 48.0664C37.067 48.2003 37.1424 48.382 37.1424 48.5715V51.4286C37.1424 51.8231 36.8226 52.1429 36.4281 52.1429C36.0336 52.1429 35.7138 51.8231 35.7138 51.4286V48.8673L34.9382 48.0918L29.4883 53.5417C32.4953 55.8753 36.1932 57.1422 39.9995 57.1429C49.4521 57.1429 57.1424 49.4526 57.1424 40.0001C57.1417 36.1938 55.8748 32.4959 53.5411 29.4889Z" fill="#6CBE43"/>
<path d="M43.0867 43.9931L44.4367 38.5934L42.1426 40.8876V43.5714C42.272 43.5714 42.3991 43.6066 42.5101 43.6732C42.6991 43.7866 42.892 43.8919 43.0867 43.9931Z" fill="#6CBE43"/>
<path d="M54.2857 42.1991C54.2852 41.8033 54.193 41.413 54.0164 41.0587L53.9084 40.8427C53.6767 40.3803 53.4177 39.9321 53.1328 39.5004L49.7852 45.0798L52.1235 44.7199C53.3708 44.5342 54.292 43.4602 54.2857 42.1991Z" fill="#6CBE43"/>
<path d="M50.9098 36.9209L46.8008 45.139C47.2116 45.1877 47.6249 45.2129 48.0385 45.2144L52.2096 38.2626C51.8086 37.7853 51.3743 37.3369 50.9098 36.9209Z" fill="#6CBE43"/>
</g>
<rect x="64" y="11" width="16" height="16" rx="8" fill="#6CBE43"/>
<defs>
<clipPath id="clip0_1123_6982">
<rect width="40" height="40" fill="white" transform="translate(20 20)"/>
</clipPath>
</defs>
</svg>
