<svg width="106" height="107" viewBox="0 0 106 107" fill="none" xmlns="http://www.w3.org/2000/svg">
<path fill-rule="evenodd" clip-rule="evenodd" d="M89.7031 71.2518C84.7275 80.3133 75.233 85.5705 65.2891 88.3966C55.1679 91.2731 43.9009 92.3652 34.966 86.8082C26.2257 81.3721 23.3805 70.6709 20.7771 60.7126C18.1961 50.8399 14.9106 39.839 20.4456 31.266C25.8579 22.8833 37.1956 22.0068 46.9918 20.1101C55.8113 18.4025 64.8575 17.1014 72.8967 21.1104C81.4152 25.3585 87.7663 32.9268 90.7915 41.9523C94.0204 51.5855 94.5932 62.3461 89.7031 71.2518Z" fill="#6CBE43"/>
<path fill-rule="evenodd" clip-rule="evenodd" d="M54.244 40.0847C54.071 40.3651 53.7665 40.5432 53.437 40.5387C53.3753 40.5378 53.3133 40.5374 53.2513 40.5374C45.8875 40.5374 39.918 46.5069 39.918 53.8707C39.918 61.2346 45.8875 67.2041 53.2513 67.2041C60.6151 67.2041 66.5846 61.2346 66.5846 53.8707C66.5846 53.8087 66.5841 53.7467 66.5833 53.6849C66.5788 53.3556 66.757 53.0509 67.0373 52.8781C67.4745 52.6084 67.8823 52.2871 68.2513 51.9181L69.9555 50.2138C70.4103 49.759 71.1806 49.971 71.2945 50.6039C71.4851 51.6641 71.5846 52.7557 71.5846 53.8707C71.5846 63.9959 63.3765 72.2041 53.2513 72.2041C43.1261 72.2041 34.918 63.9959 34.918 53.8707C34.918 43.7455 43.1261 35.5374 53.2513 35.5374C54.3663 35.5374 55.458 35.6369 56.518 35.8276C57.1508 35.9414 57.363 36.7117 56.9081 37.1665L55.204 38.8707C54.835 39.2398 54.5136 39.6476 54.244 40.0847ZM49.7158 50.3353L53.0073 47.0439C53.1635 46.8876 53.2513 46.6756 53.2513 46.4546V44.7042C53.2513 44.244 52.877 43.8673 52.4183 43.9051C47.2852 44.3284 43.2513 48.6286 43.2513 53.8709C43.2513 59.3937 47.7285 63.8709 53.2513 63.8709C58.4936 63.8709 62.7938 59.8371 63.2171 54.7039C63.255 54.2452 62.8781 53.8709 62.418 53.8709H60.6675C60.4465 53.8709 60.2346 53.9587 60.0783 54.1149L56.7868 57.4064C54.8341 59.3591 51.6685 59.3591 49.7158 57.4064C47.7632 55.4537 47.7632 52.2879 49.7158 50.3353ZM69.2278 40.5374H66.5846V37.8944C66.5846 36.5927 65.5293 35.5374 64.2276 35.5374C63.6025 35.5374 63.003 35.7857 62.561 36.2278L57.561 41.2277C56.9358 41.8529 56.5846 42.7007 56.5846 43.5848V48.1804L52.0728 52.6922C51.422 53.3431 51.422 54.3984 52.0728 55.0492C52.7236 55.7001 53.779 55.7001 54.4298 55.0492L58.9416 50.5374H63.5373C64.4213 50.5374 65.2691 50.1862 65.8943 49.561L70.8943 44.5608C71.3363 44.1188 71.5846 43.5193 71.5846 42.8943C71.5846 41.5926 70.5295 40.5374 69.2278 40.5374Z" fill="#F4F4F2"/>
</svg>
