<svg width="80" height="80" viewBox="0 0 80 80" fill="none" xmlns="http://www.w3.org/2000/svg">
<rect x="2" y="2" width="76" height="76" rx="38" stroke="#E0E0E0" stroke-width="4"/>
<path d="M40 28.4375C33.3856 28.4375 27.9963 33.7375 27.8281 40.3125H35.9731C33.7406 39.2638 32.1875 37 32.1875 34.375C32.1875 34.2025 32.3275 34.0625 32.5 34.0625H35C36.0244 34.0625 36.9906 34.305 37.855 34.725C37.9531 34.0475 38.1712 33.4037 38.5206 32.81L39.7869 30.6544C39.8744 30.505 40.0675 30.4562 40.2144 30.5431C42.0612 31.6275 43.0562 33.7269 42.7831 35.8138C43.4712 35.495 44.2238 35.3125 45 35.3125H47.5C47.6725 35.3125 47.8125 35.4525 47.8125 35.625C47.8125 37.6531 46.6694 39.4175 44.9944 40.3125H52.1712C52.0037 33.7375 46.6144 28.4375 40 28.4375Z" fill="#6CBE43"/>
<path d="M46.4739 50.9375H33.5264C35.4714 52.1675 37.6895 52.8125 40.0001 52.8125C42.3107 52.8125 44.5289 52.1675 46.4739 50.9375Z" fill="#6CBE43"/>
<path d="M39.9998 53.4375C37.2598 53.4375 34.6448 52.5713 32.4254 50.9375H28.791C29.0904 51.45 29.5329 51.83 30.0754 52.0263C30.6785 52.2444 31.1898 52.6375 31.556 53.1625C31.9754 53.7631 32.6348 54.1437 33.3641 54.2062C34.0023 54.2606 34.5998 54.5075 35.0898 54.9206C35.6498 55.3925 36.3835 55.5906 37.106 55.4612C37.7391 55.3487 38.3773 55.4325 38.9566 55.705C39.6204 56.0156 40.381 56.0156 41.0454 55.705C41.6248 55.4325 42.2641 55.3487 42.896 55.4612C43.6173 55.5912 44.3516 55.3931 44.9123 54.9206C45.4023 54.5075 45.9991 54.2606 46.6373 54.2062C47.3673 54.1437 48.0266 53.7638 48.446 53.1625C48.8123 52.6375 49.3235 52.2444 49.9266 52.0263C50.4785 51.8269 50.9254 51.4362 51.2123 50.9375H47.576C45.3548 52.5713 42.7398 53.4375 39.9998 53.4375Z" fill="#6CBE43"/>
<path d="M35.6769 36.5669L35.8319 36.5931C37.8107 36.9225 39.5713 37.9644 40.8232 39.4944C40.7719 39.2306 40.7063 38.9719 40.6213 38.7219L40.3482 38.0525C39.3875 36.0638 37.3525 34.6875 35.0007 34.6875H32.8213C32.985 37.8169 35.5819 40.3125 38.7507 40.3125H40.6625C39.4988 38.6669 37.7344 37.5431 35.7294 37.2094L35.5744 37.1831C35.4044 37.155 35.2888 36.9937 35.3175 36.8231C35.3463 36.6525 35.5107 36.5369 35.6769 36.5669Z" fill="#6CBE43"/>
<path d="M39.9998 27.8125C46.9592 27.8125 52.6286 33.3931 52.7967 40.3125H55.2779C55.2454 40.06 55.1873 39.8106 55.0798 39.5812C54.8073 39.0019 54.7236 38.3619 54.8361 37.7306C54.9648 37.01 54.7679 36.2744 54.2954 35.7144C53.8829 35.2237 53.6354 34.6275 53.5811 33.9894C53.5179 33.2594 53.1379 32.6 52.5373 32.1812C52.0117 31.815 51.6179 31.3025 51.4004 30.7C51.1523 30.0112 50.6136 29.4731 49.9248 29.2237C49.3217 29.0056 48.8104 28.6125 48.4442 28.0875C48.0248 27.4869 47.3654 27.1062 46.6361 27.0437C45.9979 26.9894 45.4004 26.7425 44.9104 26.3294C44.3504 25.8575 43.6154 25.6587 42.8942 25.7887C42.2629 25.9019 41.6229 25.8175 41.0436 25.545C40.3798 25.2344 39.6192 25.2344 38.9548 25.545C38.3754 25.8175 37.7367 25.9012 37.1042 25.7887C36.3829 25.6587 35.6486 25.8569 35.0879 26.3294C34.5979 26.7425 34.0011 26.9894 33.3629 27.0437C32.6329 27.1062 31.9736 27.4862 31.5542 28.0875C31.1879 28.6125 30.6767 29.0056 30.0736 29.2237C29.3842 29.4731 28.8461 30.0112 28.5979 30.7C28.3798 31.3025 27.9861 31.815 27.4611 32.1812C26.8604 32.6 26.4804 33.2587 26.4173 33.9894C26.3629 34.6275 26.1161 35.2237 25.7029 35.7137C25.2304 36.2744 25.0336 37.0094 25.1623 37.7306C25.2754 38.3619 25.1911 39.0025 24.9179 39.5819C24.8123 39.8106 24.7548 40.06 24.7217 40.3125H27.2029C27.3711 33.3931 33.0404 27.8125 39.9998 27.8125Z" fill="#6CBE43"/>
<path d="M44.5358 38.3931L41.5408 40.19C41.5433 40.2306 41.5452 40.2719 41.5471 40.3125H42.5002C44.9802 40.3125 47.0164 38.3769 47.1771 35.9375H45.0002C43.3852 35.9375 41.9271 36.7494 41.0596 38.1088C41.2446 38.5525 41.3771 39.0225 41.4608 39.5094L44.2152 37.8569C44.3614 37.7687 44.5552 37.8156 44.6439 37.9638C44.7321 38.1119 44.6839 38.3044 44.5358 38.3931Z" fill="#6CBE43"/>
<path d="M40.9418 34.7706L40.9643 37.1938C41.2881 36.8144 41.6618 36.4862 42.0725 36.2131C42.525 34.3231 41.7556 32.3369 40.1612 31.25L39.0581 33.1275C38.7106 33.7187 38.5093 34.3662 38.4443 35.0506C39.1856 35.5106 39.8287 36.1119 40.335 36.8194L40.3156 34.7769C40.3137 34.6044 40.4525 34.4631 40.625 34.4613C40.7825 34.4819 40.94 34.5975 40.9418 34.7706Z" fill="#6CBE43"/>
<path d="M45.2949 46.5625H47.2062L46.2505 44.015L45.2949 46.5625Z" fill="#6CBE43"/>
<path d="M55.9577 45.515L57.674 40.9375H22.3809L24.6552 45.485C24.699 45.5731 24.699 45.6769 24.6552 45.7644L22.3809 50.3125H57.6746L55.9584 45.735C55.9309 45.6637 55.9309 45.5863 55.9577 45.515ZM30.9177 43.235L29.0427 48.235C28.9971 48.3569 28.8802 48.4375 28.7502 48.4375C28.6202 48.4375 28.5034 48.3569 28.4577 48.235L26.5827 43.235C26.5215 43.0731 26.6034 42.8931 26.7652 42.8325C26.9259 42.7719 27.1071 42.8538 27.1677 43.015L28.7502 47.235L30.3327 43.015C30.3934 42.8531 30.5746 42.7713 30.7352 42.8325C30.8971 42.8931 30.9784 43.0731 30.9177 43.235ZM35.6252 45.3125C35.7977 45.3125 35.9377 45.4525 35.9377 45.625C35.9377 45.7975 35.7977 45.9375 35.6252 45.9375H33.4377V47.8125H35.6252C35.7977 47.8125 35.9377 47.9525 35.9377 48.125C35.9377 48.2975 35.7977 48.4375 35.6252 48.4375H33.1252C32.9527 48.4375 32.8127 48.2975 32.8127 48.125V43.125C32.8127 42.9525 32.9527 42.8125 33.1252 42.8125H35.6252C35.7977 42.8125 35.9377 42.9525 35.9377 43.125C35.9377 43.2975 35.7977 43.4375 35.6252 43.4375H33.4377V45.3125H35.6252ZM39.3752 47.8125H40.6252C41.1421 47.8125 41.5627 47.3919 41.5627 46.875V46.5625H40.6252C40.4527 46.5625 40.3127 46.4225 40.3127 46.25C40.3127 46.0775 40.4527 45.9375 40.6252 45.9375H41.8752C42.0477 45.9375 42.1877 46.0775 42.1877 46.25V46.875C42.1877 47.7362 41.4871 48.4375 40.6252 48.4375H39.3752C38.5134 48.4375 37.8127 47.7362 37.8127 46.875V44.375C37.8127 43.5138 38.5134 42.8125 39.3752 42.8125H40.6252C41.4871 42.8125 42.1877 43.5138 42.1877 44.375C42.1877 44.5475 42.0477 44.6875 41.8752 44.6875C41.7027 44.6875 41.5627 44.5475 41.5627 44.375C41.5627 43.8581 41.1421 43.4375 40.6252 43.4375H39.3752C38.8584 43.4375 38.4377 43.8581 38.4377 44.375V46.875C38.4377 47.3919 38.8584 47.8125 39.3752 47.8125ZM48.2352 48.4175C48.199 48.4312 48.1621 48.4375 48.1252 48.4375C47.999 48.4375 47.8796 48.36 47.8327 48.235L47.4402 47.1875H45.0609L44.6684 48.235C44.6071 48.3969 44.4259 48.4769 44.2659 48.4175C44.104 48.3569 44.0221 48.1769 44.0834 48.015L45.9584 43.015C46.0496 42.7713 46.4515 42.7713 46.5434 43.015L48.4184 48.015C48.4784 48.1769 48.3971 48.3569 48.2352 48.4175ZM54.0627 48.125C54.0627 48.2644 53.9709 48.3869 53.8365 48.425C53.8077 48.4337 53.779 48.4375 53.7502 48.4375C53.6446 48.4375 53.5434 48.3837 53.4852 48.2906L50.9377 44.2144V48.125C50.9377 48.2975 50.7977 48.4375 50.6252 48.4375C50.4527 48.4375 50.3127 48.2975 50.3127 48.125V43.125C50.3127 42.9856 50.4046 42.8631 50.539 42.825C50.6734 42.7856 50.8159 42.8413 50.8902 42.9594L53.4377 47.0356V43.125C53.4377 42.9525 53.5777 42.8125 53.7502 42.8125C53.9227 42.8125 54.0627 42.9525 54.0627 43.125V48.125Z" fill="#6CBE43"/>
<rect x="64" y="11" width="16" height="16" rx="8" fill="#6CBE43"/>
</svg>
