<svg width="106" height="106" viewBox="0 0 106 106" fill="none" xmlns="http://www.w3.org/2000/svg">
<path fill-rule="evenodd" clip-rule="evenodd" d="M89.7033 70.3811C84.7277 79.4426 75.2332 84.6998 65.2894 87.5259C55.1682 90.4023 43.9012 91.4945 34.9663 85.9374C26.2259 80.5014 23.3807 69.8002 20.7774 59.8419C18.1963 49.9691 14.9108 38.9683 20.4459 30.3953C25.8581 22.0126 37.1959 21.1361 46.9921 19.2394C55.8116 17.5317 64.8578 16.2307 72.8969 20.2397C81.4155 24.4877 87.7666 32.0561 90.7917 41.0816C94.0206 50.7148 94.5934 61.4754 89.7033 70.3811Z" fill="#C6A868"/>
<g clip-path="url(#clip0_64_3135)">
<path fill-rule="evenodd" clip-rule="evenodd" d="M55.4219 71.3594H50.5781C51.4375 73.5469 54.5625 73.5469 55.4219 71.3594Z" fill="#F4F4F2"/>
<path fill-rule="evenodd" clip-rule="evenodd" d="M58.1562 69.0156H47.8438C46.9844 69.0156 46.9844 70.5781 47.8438 70.5781H58.1562C59.0156 70.5781 59.0156 69.0156 58.1562 69.0156Z" fill="#F4F4F2"/>
<path fill-rule="evenodd" clip-rule="evenodd" d="M58.1562 66.75H47.8437C47.0625 66.75 46.9062 68.2344 47.8437 68.2344H58.1562C59.0937 68.2344 58.9375 66.75 58.1562 66.75Z" fill="#F4F4F2"/>
<path fill-rule="evenodd" clip-rule="evenodd" d="M51.4375 57.7656V65.8906H54.5625V57.7656C54.5625 57.6094 54.6406 57.4531 54.7969 57.4531C56.6719 56.6719 57.8438 54.875 57.8438 52.9219C57.8438 50.1875 55.6562 47.9219 53 47.9219C50.3438 47.9219 48.1562 50.1875 48.1562 52.9219C48.1562 54.875 49.3281 56.6719 51.2031 57.4531C51.3594 57.4531 51.4375 57.6094 51.4375 57.7656ZM53 55.4219C51.5938 55.4219 50.4219 54.3281 50.4219 52.9219C50.4219 51.5156 51.5938 50.3438 53 50.3438C54.4062 50.3438 55.5781 51.5156 55.5781 52.9219C55.5781 54.3281 54.4062 55.4219 53 55.4219Z" fill="#F4F4F2"/>
<path fill-rule="evenodd" clip-rule="evenodd" d="M48.1562 62.6875C48.3125 63.0781 48.4688 65.1094 48.4688 65.8906H50.6562V58.0781C48.625 57.1406 47.2969 55.1094 47.2969 52.9219C47.2969 49.7188 49.875 47.1406 53 47.1406C56.125 47.1406 58.7031 49.7188 58.7031 52.9219C58.7031 55.1094 57.375 57.1406 55.3438 58.0781V65.8906H57.5312C57.5312 65.1875 57.6875 63.0781 57.8438 62.6875C58.3125 60.3438 59.25 59.25 60.1094 58.2344C61.0469 57.0625 61.9062 56.0469 61.9062 53C61.9062 48 57.9219 43.9375 53 43.9375C48.0781 43.9375 44.0938 48 44.0938 53C44.0938 56.0469 44.9531 57.0625 45.8906 58.2344C46.75 59.25 47.6875 60.3438 48.1562 62.6875Z" fill="#F4F4F2"/>
<path fill-rule="evenodd" clip-rule="evenodd" d="M53 51.125C51.9844 51.125 51.2031 51.9062 51.2031 52.9219C51.2031 53.8594 52.0625 54.6406 53 54.6406C53.9375 54.6406 54.7969 53.8594 54.7969 52.9219C54.7969 51.9062 54.0156 51.125 53 51.125Z" fill="#F4F4F2"/>
<path fill-rule="evenodd" clip-rule="evenodd" d="M62.7656 53C62.7656 58.7031 59.7969 58.0781 58.7812 62.375C64.6406 60.8906 69.7969 57.0625 72.9219 51.75C68.7812 44.7188 61.2031 40.4219 53 40.4219C44.7969 40.4219 37.2188 44.7188 33.0781 51.75C36.2031 57.0625 41.3594 60.8906 47.2188 62.375C46.2031 58.0781 43.2344 58.7031 43.2344 53C43.2344 44.1719 53.8594 39.875 59.9531 46.0469C61.75 47.9219 62.7656 50.3438 62.7656 53Z" fill="#F4F4F2"/>
<path fill-rule="evenodd" clip-rule="evenodd" d="M60.4219 64.0156L62.1407 66.8281C62.2188 66.9844 62.3751 67.0625 62.5313 67.0625C62.8438 67.0625 63.0001 66.75 62.8438 66.4375L61.1251 63.625C60.8907 63.1562 60.1876 63.5469 60.4219 64.0156Z" fill="#F4F4F2"/>
<path fill-rule="evenodd" clip-rule="evenodd" d="M68.2344 60.0312L70.7344 62.375C70.8125 62.4531 70.9687 62.5312 71.0469 62.5312C71.4375 62.5312 71.5937 62.0625 71.3594 61.8281L68.7812 59.4844C68.3906 59.0937 67.8437 59.7187 68.2344 60.0312Z" fill="#F4F4F2"/>
<path fill-rule="evenodd" clip-rule="evenodd" d="M70.7344 40.1094L68.2344 42.4531C68 42.6875 68.1563 43.1563 68.5469 43.1563C68.625 43.1563 68.7031 43.1563 68.7813 43.0781L71.3594 40.6563C71.75 40.3438 71.125 39.7188 70.7344 40.1094Z" fill="#F4F4F2"/>
<path fill-rule="evenodd" clip-rule="evenodd" d="M62.1407 35.6562L60.4219 38.4687C60.2657 38.7812 60.5001 39.0937 60.8126 39.0937C60.9688 39.0937 61.0469 39.0156 61.1251 38.9375L62.8438 36.0469C63.1563 35.5781 62.4532 35.1875 62.1407 35.6562Z" fill="#F4F4F2"/>
<path fill-rule="evenodd" clip-rule="evenodd" d="M52.6094 33.3906V36.6719C52.6094 36.9062 52.7656 37.0625 53 37.0625C53.2344 37.0625 53.3906 36.9062 53.3906 36.6719V33.3906C53.3906 32.8438 52.6094 32.8438 52.6094 33.3906Z" fill="#F4F4F2"/>
<path fill-rule="evenodd" clip-rule="evenodd" d="M43.0782 36.0469L44.875 38.9375C44.9532 39.0156 45.0313 39.0937 45.1875 39.0937C45.5 39.0937 45.7344 38.7031 45.5782 38.4687L43.7813 35.6562C43.4688 35.1875 42.7657 35.5781 43.0782 36.0469Z" fill="#F4F4F2"/>
<path fill-rule="evenodd" clip-rule="evenodd" d="M34.7188 40.7344L37.2188 43.1562C37.2969 43.2344 37.375 43.2344 37.4531 43.2344C37.8438 43.2344 38 42.7656 37.7656 42.5312L35.3438 40.1875C34.9531 39.7969 34.3281 40.4219 34.7188 40.7344Z" fill="#F4F4F2"/>
<path fill-rule="evenodd" clip-rule="evenodd" d="M37.2188 59.3281L34.7188 61.6719C34.4844 61.9062 34.6406 62.375 35.0313 62.375C35.1094 62.375 35.2656 62.2969 35.3438 62.2187L37.7656 59.9531C38.1563 59.5625 37.6094 59.0156 37.2188 59.3281Z" fill="#F4F4F2"/>
<path fill-rule="evenodd" clip-rule="evenodd" d="M44.875 63.625L43.0781 66.4375C42.9219 66.6719 43.0781 67.0625 43.3906 67.0625C43.5469 67.0625 43.7031 66.9844 43.7813 66.8281L45.5 64.0156C45.8125 63.5469 45.1094 63.1562 44.875 63.625Z" fill="#F4F4F2"/>
</g>
<defs>
<clipPath id="clip0_64_3135">
<rect width="40" height="40" fill="white" transform="translate(33 33)"/>
</clipPath>
</defs>
</svg>
