<svg width="284" height="220" viewBox="0 0 284 220" fill="none" xmlns="http://www.w3.org/2000/svg">
<g opacity="0.8">
<path d="M283.697 101.449C283.697 100.282 283.56 99.1139 283.491 97.9463C282.804 88.399 280.95 79.264 277.996 70.541C276.073 69.9915 274.081 69.4419 272.158 68.9611C266.389 67.5874 260.482 66.6259 254.369 66.2138C252.446 66.0764 250.454 66.0077 248.53 65.939C247.912 65.939 247.294 65.939 246.745 65.939H245.989C243.654 65.939 241.387 65.939 239.121 66.145C232.733 66.4884 226.483 67.4501 220.438 68.8238C203.473 72.7389 187.881 80.5002 174.762 91.0778C168.924 95.7484 163.498 101.037 158.759 106.875C155.599 110.653 152.646 114.706 150.036 118.895C146.945 123.772 144.266 128.855 141.931 134.212C139.184 127.962 135.955 122.055 132.246 116.423C129.705 112.645 127.026 109.073 124.073 105.639C119.54 100.35 114.526 95.4736 109.099 91.0778C95.9806 80.5002 80.3891 72.7389 63.4238 68.8238C56.624 67.2441 49.6181 66.2825 42.3374 66.0077C40.8264 66.0077 39.3153 65.939 37.8729 65.939H37.186C36.4992 65.939 35.8812 65.939 35.1943 65.939C31.6914 66.0077 28.1883 66.2825 24.754 66.6946C20.2895 67.1754 15.8251 67.9309 11.5666 69.0299C9.64343 69.5107 7.72027 69.9915 5.79708 70.541C2.50019 80.3629 0.576892 90.7345 0.096096 101.518C0.096096 101.724 0.096096 101.861 0.096096 102.067C0.096096 103.51 0.0273438 105.021 0.0273438 106.532C0.0273438 164.021 42.681 211.483 98.11 218.97C99.9645 219.244 101.888 219.45 103.811 219.588C106.764 219.862 109.786 219.931 112.808 220L107.932 214.917L106.97 213.887L85.8153 191.77C52.0909 185.863 25.7844 158.527 21.3885 124.39C20.9764 121.025 20.7016 117.659 20.7016 114.225C20.7016 106.463 21.8006 99.0453 23.9299 91.9707C35.9498 112.508 49.9616 131.877 65.6218 149.666C79.2215 165.12 93.9887 179.338 109.992 192.32C112.671 194.586 115.419 196.716 118.235 198.845C120.227 200.356 122.15 201.867 124.142 203.309C128.606 206.606 133.139 209.766 137.672 212.857C139.115 213.818 140.557 214.78 142 215.673C143.511 214.711 144.953 213.749 146.396 212.788C150.929 209.766 155.393 206.538 159.789 203.309C161.781 201.798 163.842 200.287 165.833 198.776C168.581 196.647 171.328 194.518 174.007 192.32C190.011 179.269 204.915 164.914 218.515 149.391C234.175 131.602 248.05 112.37 260.07 91.7647C262.199 98.8392 263.298 106.395 263.298 114.225C263.298 116.01 263.298 117.796 263.092 119.514C260.55 157.565 230.947 188.267 193.376 192.457L174.35 212.376L174.213 212.513L167.138 219.862C168.237 219.862 169.336 219.862 170.435 219.862C173.732 219.862 177.029 219.725 180.257 219.45C182.112 219.244 183.966 219.107 185.821 218.832C241.25 211.346 283.972 163.815 283.972 106.395C283.972 104.746 283.972 103.029 283.835 101.381L283.697 101.449ZM125.584 166.631C125.584 170.203 125.241 173.775 124.691 177.209C107.863 162.991 92.2716 147.4 78.1911 130.503C71.8034 122.879 65.7591 114.912 59.9896 106.807C58.9593 105.364 57.9977 103.922 56.9674 102.48C53.2584 97.1221 49.7554 91.6959 46.3898 86.1324H46.8021C50.7859 86.1324 54.7009 86.4072 58.5472 87.0254C77.1609 89.8415 93.5767 99.0454 105.597 112.439C106.421 113.332 107.245 114.293 108 115.255C110.885 118.827 113.427 122.604 115.693 126.588C122.081 137.921 125.653 151.04 125.653 164.914C125.653 165.533 125.653 166.151 125.653 166.7L125.584 166.631ZM232.321 93.6191C231.634 94.718 230.878 95.8171 230.191 96.916C230.191 96.9847 230.123 97.0534 230.054 97.1221C228.955 98.8392 227.788 100.556 226.62 102.205C220.301 111.477 213.57 120.406 206.426 129.061C192.071 146.438 176.205 162.51 158.965 177.003C158.415 173.569 158.072 170.134 158.072 166.563C158.072 165.945 158.072 165.327 158.072 164.777C158.072 151.452 161.369 138.883 167.207 127.962C169.474 123.635 172.152 119.582 175.175 115.804C176.067 114.637 177.098 113.469 178.059 112.301C190.011 98.9079 206.426 89.6355 225.04 86.8881C228.612 86.3386 232.252 86.0639 235.892 86.0639C236.236 86.0639 236.51 86.0639 236.785 86.0639H237.06C235.48 88.6052 233.901 91.1465 232.252 93.6878L232.321 93.6191Z" fill="#F4F4F2"/>
<path d="M253.27 54.124H236.854C230.603 34.0679 211.921 19.5068 189.804 19.5068C188.637 19.5068 187.469 19.5067 186.302 19.6441C171.534 20.6743 158.621 28.2297 150.31 39.3567C149.005 41.0738 147.838 42.9284 146.739 44.8516C145.846 46.3627 145.09 47.9424 144.404 49.5222C143.785 51.0332 143.236 52.5443 142.755 54.0554C141.382 58.5199 140.626 63.1904 140.557 68.067C140.557 63.1904 139.733 58.5199 138.359 54.0554C138.016 52.9564 137.672 51.9262 137.26 50.8272C136.23 48.0798 134.925 45.4696 133.414 42.9282C132.178 41.0051 130.873 39.1506 129.43 37.3648C121.531 27.7488 110.061 21.2239 97.0794 19.7128C95.2249 19.5068 93.3018 19.3693 91.3786 19.3693C69.262 19.3693 50.5796 33.9306 44.3293 53.9867H25.5781C25.8529 52.2695 26.265 50.621 26.6771 48.9726C34.0264 20.8116 59.7147 0 90.2109 0C99.8955 0 109.099 2.12935 117.41 5.90703C125.859 9.7534 133.414 15.3169 139.458 22.2541C146.121 14.6988 154.569 8.65442 164.047 4.80805C171.672 1.71721 179.983 0 188.637 0C220.919 0 247.775 23.2843 253.27 53.9179V54.124Z" fill="#F4F4F2"/>
</g>
</svg>
